M48
; DRILL file {KiCad (5.1.2-1)-1} date суббота, 26 сентября 2020 г., 11:09:22
; FORMAT={3:3/ absolute / metric / keep zeros}
; #@! TF.CreationDate,2020-09-26T11:09:22+03:00
; #@! TF.GenerationSoftware,Kicad,Pcbnew,(5.1.2-1)-1
; #@! TF.FileFunction,Plated,1,2,PTH
FMAT,2
METRIC
T1C0.400
T2C1.000
T3C1.200
T4C1.600
T5C3.400
%
G90
G05
T1
X077750Y-112000
X079100Y-126000
X082250Y-117000
X082500Y-084500
X083500Y-087250
X085000Y-053250
X085750Y-057500
X088000Y-068000
X088000Y-070250
X088000Y-072500
X089000Y-058750
X090250Y-058750
X092506Y-100006
X092750Y-058750
X093000Y-056250
X093000Y-057250
X094250Y-058750
X094500Y-100000
X095500Y-058750
X096000Y-088500
X096500Y-086500
X096750Y-053500
X096750Y-058750
X097000Y-068000
X097000Y-070250
X097000Y-072500
X098250Y-112000
X100500Y-058750
X101250Y-112000
X102000Y-138750
X103000Y-058750
X103000Y-079750
X103750Y-105000
X104250Y-058750
X104250Y-079750
X107500Y-056250
X107500Y-057250
X110000Y-134000
X111250Y-053500
X112000Y-134000
X115250Y-107250
X116250Y-073750
X116250Y-075000
X116250Y-076250
X117500Y-063750
X118500Y-062750
X119500Y-061750
X120500Y-060750
X121500Y-059750
X122500Y-058750
X123500Y-064750
X123500Y-080750
X124500Y-073750
X124500Y-075000
X124500Y-076250
X126500Y-055000
X131250Y-068500
X135750Y-068500
X137000Y-095250
X137500Y-063500
X145250Y-063750
X148250Y-059750
X148500Y-073000
X149750Y-065500
X157250Y-073000
T2
X129000Y-054750
X131540Y-054750
X144000Y-054750
X146540Y-054750
X093200Y-136500
X095740Y-136500
X098280Y-136500
X100820Y-136500
X103360Y-136500
X105900Y-136500
X108440Y-136500
X110980Y-136500
X113520Y-136500
X116060Y-136500
X118600Y-136500
X121140Y-136500
X123680Y-136500
X126220Y-136500
X128760Y-136500
X131300Y-136500
X136500Y-054750
X139040Y-054750
X165500Y-062250
X165500Y-069750
X168000Y-062250
X168000Y-069750
X170500Y-062250
X170500Y-069750
X151500Y-054750
X154040Y-054750
X159000Y-054750
X161540Y-054750
X089250Y-086750
X089250Y-089290
X089250Y-091830
X089250Y-094370
T3
X170500Y-085000
X170500Y-090000
X147500Y-087750
X147500Y-099250
X170500Y-075000
X170500Y-080000
X097500Y-119000
X097500Y-129000
X107500Y-119000
X107500Y-129000
T4
X125500Y-119500
X125500Y-127500
X170500Y-106700
X170500Y-127500
X131000Y-080000
X136200Y-080000
X147300Y-080000
X152500Y-080000
T5
X087000Y-135000
X163000Y-135000
X080000Y-135000
X170000Y-055000
X170000Y-135000
X080000Y-055000
X085500Y-099000
X164500Y-099000
T0
M30
