G04 #@! TF.GenerationSoftware,KiCad,Pcbnew,(5.1.2-1)-1*
G04 #@! TF.CreationDate,2020-09-26T11:09:18+03:00*
G04 #@! TF.ProjectId,UAK_1,55414b5f-312e-46b6-9963-61645f706362,rev?*
G04 #@! TF.SameCoordinates,Original*
G04 #@! TF.FileFunction,Copper,L1,Top*
G04 #@! TF.FilePolarity,Positive*
%FSLAX46Y46*%
G04 Gerber Fmt 4.6, Leading zero omitted, Abs format (unit mm)*
G04 Created by KiCad (PCBNEW (5.1.2-1)-1) date 2020-09-26 11:09:18*
%MOMM*%
%LPD*%
G04 APERTURE LIST*
%ADD10R,2.800000X2.800000*%
%ADD11R,2.000000X2.000000*%
%ADD12C,2.000000*%
%ADD13R,2.000000X2.500000*%
%ADD14R,1.250000X0.500000*%
%ADD15R,1.000000X1.500000*%
%ADD16R,1.100000X0.700000*%
%ADD17R,2.400000X2.400000*%
%ADD18C,2.400000*%
%ADD19R,2.000000X1.000000*%
%ADD20O,1.700000X1.700000*%
%ADD21R,1.700000X1.700000*%
%ADD22C,1.700000*%
%ADD23C,5.500000*%
%ADD24R,0.800000X1.000000*%
%ADD25R,1.000000X2.000000*%
%ADD26R,0.500000X1.250000*%
%ADD27R,1.500000X3.000000*%
%ADD28R,0.400000X0.800000*%
%ADD29R,1.500000X3.500000*%
%ADD30C,7.000000*%
%ADD31R,4.000000X2.000000*%
%ADD32R,1.500000X2.000000*%
%ADD33R,3.000000X1.500000*%
%ADD34R,2.000000X0.900000*%
%ADD35R,0.900000X2.000000*%
%ADD36R,1.350000X1.350000*%
%ADD37O,0.900000X2.000000*%
%ADD38C,0.800000*%
%ADD39C,0.250000*%
%ADD40C,0.450000*%
%ADD41C,0.200000*%
G04 APERTURE END LIST*
D10*
X147300000Y-80000000D03*
X152500000Y-80000000D03*
X136200000Y-80000000D03*
X131000000Y-80000000D03*
D11*
X170500000Y-80000000D03*
D12*
X170500000Y-75000000D03*
D13*
X97500000Y-100000000D03*
X102750000Y-100000000D03*
D14*
X101250000Y-106250000D03*
X101250000Y-104500000D03*
X101250000Y-110750000D03*
X101250000Y-109000000D03*
X112250000Y-106000000D03*
X112250000Y-104250000D03*
D15*
X108250000Y-100000000D03*
X106250000Y-100000000D03*
D16*
X108600000Y-104250000D03*
X108600000Y-106150000D03*
X106000000Y-106150000D03*
X106000000Y-105200000D03*
X106000000Y-104250000D03*
D14*
X98250000Y-110750000D03*
X98250000Y-109000000D03*
X98250000Y-104500000D03*
X98250000Y-106250000D03*
X115250000Y-106000000D03*
X115250000Y-104250000D03*
D17*
X125500000Y-119500000D03*
X125500000Y-127500000D03*
X170500000Y-106700000D03*
D18*
X170500000Y-127500000D03*
D11*
X147500000Y-87750000D03*
D12*
X147500000Y-99250000D03*
D19*
X142000000Y-91500000D03*
X142000000Y-95000000D03*
D20*
X131300000Y-136500000D03*
D21*
X128760000Y-136500000D03*
D22*
X126220000Y-136500000D03*
D21*
X123680000Y-136500000D03*
X121140000Y-136500000D03*
X118600000Y-136500000D03*
X116060000Y-136500000D03*
X113520000Y-136500000D03*
X110980000Y-136500000D03*
X108440000Y-136500000D03*
X105900000Y-136500000D03*
X103360000Y-136500000D03*
X100820000Y-136500000D03*
X98280000Y-136500000D03*
X95740000Y-136500000D03*
X93200000Y-136500000D03*
D23*
X85500000Y-99000000D03*
X164500000Y-99000000D03*
X163000000Y-135000000D03*
X87000000Y-135000000D03*
D22*
X165500000Y-62250000D03*
D21*
X168000000Y-62250000D03*
X170500000Y-62250000D03*
X170500000Y-69750000D03*
X168000000Y-69750000D03*
X165500000Y-69750000D03*
D24*
X155250000Y-67500000D03*
X156250000Y-70000000D03*
X154250000Y-70000000D03*
D25*
X159750000Y-73500000D03*
X163250000Y-73500000D03*
D14*
X151250000Y-69250000D03*
X151250000Y-67500000D03*
D26*
X156250000Y-73000000D03*
X154500000Y-73000000D03*
D14*
X151250000Y-73500000D03*
X151250000Y-71750000D03*
D27*
X163250000Y-77750000D03*
X159750000Y-77750000D03*
D21*
X154040000Y-54750000D03*
D22*
X151500000Y-54750000D03*
D21*
X146540000Y-54750000D03*
D22*
X144000000Y-54750000D03*
D21*
X139040000Y-54750000D03*
D22*
X136500000Y-54750000D03*
D14*
X141250000Y-66500000D03*
X141250000Y-64750000D03*
X138750000Y-66500000D03*
X138750000Y-64750000D03*
D28*
X134900000Y-64350000D03*
X134900000Y-66650000D03*
X134250000Y-66650000D03*
X133600000Y-64350000D03*
X133600000Y-66650000D03*
D14*
X143750000Y-66500000D03*
X143750000Y-64750000D03*
D29*
X146500000Y-59750000D03*
X139250000Y-59750000D03*
D14*
X131250000Y-66500000D03*
X131250000Y-64750000D03*
D21*
X131540000Y-54750000D03*
D22*
X129000000Y-54750000D03*
D21*
X161540000Y-54750000D03*
D22*
X159000000Y-54750000D03*
D24*
X135000000Y-89750000D03*
X136000000Y-92250000D03*
X134000000Y-92250000D03*
X146500000Y-67500000D03*
X147500000Y-70000000D03*
X145500000Y-70000000D03*
X137500000Y-130000000D03*
X138500000Y-132500000D03*
X136500000Y-132500000D03*
D13*
X154000000Y-59750000D03*
X159250000Y-59750000D03*
D15*
X80000000Y-120900000D03*
X79100000Y-123900000D03*
X80900000Y-123900000D03*
D14*
X129000000Y-59750000D03*
X129000000Y-58000000D03*
X126500000Y-59750000D03*
X126500000Y-58000000D03*
D26*
X136000000Y-95250000D03*
X134250000Y-95250000D03*
X147500000Y-73000000D03*
X145750000Y-73000000D03*
X138500000Y-135500000D03*
X136750000Y-135500000D03*
D14*
X131000000Y-90500000D03*
X131000000Y-92250000D03*
X142500000Y-73500000D03*
X142500000Y-71750000D03*
X133500000Y-130750000D03*
X133500000Y-132500000D03*
X131500000Y-59750000D03*
X131500000Y-58000000D03*
D26*
X104500000Y-53500000D03*
X102750000Y-53500000D03*
X95000000Y-87250000D03*
X93250000Y-87250000D03*
D21*
X89250000Y-94370000D03*
X89250000Y-91830000D03*
X89250000Y-89290000D03*
D22*
X89250000Y-86750000D03*
D24*
X85750000Y-91750000D03*
X84750000Y-89250000D03*
X86750000Y-89250000D03*
D26*
X100500000Y-53500000D03*
X98750000Y-53500000D03*
X93250000Y-84500000D03*
X95000000Y-84500000D03*
X100500000Y-56500000D03*
X98750000Y-56500000D03*
X90750000Y-84500000D03*
X89000000Y-84500000D03*
D30*
X80000000Y-135000000D03*
X170000000Y-55000000D03*
X170000000Y-135000000D03*
X80000000Y-55000000D03*
D11*
X170500000Y-90000000D03*
D12*
X170500000Y-85000000D03*
X97500000Y-119000000D03*
D11*
X107500000Y-119000000D03*
X107500000Y-129000000D03*
X97500000Y-129000000D03*
D31*
X80000000Y-103750000D03*
D32*
X80000000Y-110000000D03*
X77750000Y-110000000D03*
X82250000Y-110000000D03*
D26*
X85000000Y-84500000D03*
X86750000Y-84500000D03*
X103500000Y-119000000D03*
X101750000Y-119000000D03*
D14*
X82250000Y-115750000D03*
X82250000Y-114000000D03*
X112500000Y-125500000D03*
X112500000Y-123750000D03*
D33*
X170500000Y-115750000D03*
X170500000Y-119250000D03*
D34*
X102750000Y-72460000D03*
X102750000Y-71190000D03*
X102750000Y-73730000D03*
X102750000Y-69920000D03*
X102750000Y-68650000D03*
X102750000Y-67380000D03*
X102750000Y-75000000D03*
X102750000Y-66110000D03*
X102750000Y-64840000D03*
X102750000Y-63570000D03*
D35*
X108110000Y-60750000D03*
X108110000Y-77750000D03*
X106840000Y-60750000D03*
X106840000Y-77750000D03*
X105570000Y-60750000D03*
X105570000Y-77750000D03*
X104300000Y-60750000D03*
X104300000Y-77750000D03*
X103030000Y-60750000D03*
X103030000Y-77750000D03*
X101760000Y-60750000D03*
D36*
X92750000Y-72000000D03*
X91000000Y-72000000D03*
X94500000Y-72000000D03*
X92750000Y-68500000D03*
X91000000Y-68500000D03*
X94500000Y-68500000D03*
X94500000Y-70250000D03*
X91000000Y-70250000D03*
X92750000Y-70250000D03*
D35*
X101760000Y-77750000D03*
X100490000Y-60750000D03*
X100490000Y-77750000D03*
X99220000Y-60750000D03*
X99220000Y-77750000D03*
X97950000Y-60750000D03*
X97950000Y-77750000D03*
X96680000Y-60750000D03*
X96680000Y-77750000D03*
X95410000Y-60750000D03*
X95410000Y-77750000D03*
X94140000Y-60750000D03*
X94140000Y-77750000D03*
X92870000Y-60750000D03*
X92870000Y-77750000D03*
X91600000Y-60750000D03*
X91600000Y-77750000D03*
X90330000Y-60750000D03*
X90330000Y-77750000D03*
X89060000Y-60750000D03*
X89060000Y-77750000D03*
X87790000Y-60750000D03*
X87790000Y-77750000D03*
X86520000Y-60750000D03*
X86520000Y-77750000D03*
X85250000Y-60750000D03*
D37*
X85250000Y-77750000D03*
D38*
X79100000Y-126000000D03*
X110000000Y-134000000D03*
X112000000Y-134000000D03*
X90250000Y-58750000D03*
X89000000Y-58750000D03*
X85000000Y-53250000D03*
X83500000Y-87250000D03*
X137500000Y-63500000D03*
X126500000Y-55000000D03*
X149750000Y-65500000D03*
X96500000Y-86500000D03*
X96750000Y-53500000D03*
X116250000Y-75000000D03*
X124500000Y-75000000D03*
X93000000Y-56250000D03*
X107500000Y-56250000D03*
X92750000Y-58750000D03*
X123500000Y-64750000D03*
X117500000Y-63750000D03*
X94250000Y-58750000D03*
X119500000Y-61750000D03*
X96750000Y-58750000D03*
X121500000Y-59750000D03*
X103000000Y-58750000D03*
X122500000Y-58750000D03*
X104250000Y-58750000D03*
X120500000Y-60750000D03*
X100500000Y-58750000D03*
X118500000Y-62750000D03*
X95500000Y-58750000D03*
X123500000Y-80750000D03*
X104250000Y-79750000D03*
X94500000Y-100000000D03*
X102000000Y-138750000D03*
X92506370Y-100006370D03*
X116250000Y-73750000D03*
X124500000Y-73750000D03*
X93000000Y-57250000D03*
X107500000Y-57250000D03*
X116250000Y-76250000D03*
X124500000Y-76250000D03*
X98250000Y-112000000D03*
X137000000Y-95250000D03*
X148500000Y-73000000D03*
X82250000Y-117000000D03*
X77750000Y-112000000D03*
X88000000Y-68000000D03*
X88000000Y-72500000D03*
X88000000Y-70250000D03*
X97000000Y-68000000D03*
X97000000Y-70250000D03*
X97000000Y-72500000D03*
X82500000Y-84500000D03*
X103000000Y-79750000D03*
X96000000Y-88500000D03*
X111250000Y-53500000D03*
X157250000Y-73000000D03*
X131250000Y-68500000D03*
X135750000Y-68500000D03*
X85750000Y-57500000D03*
X148250000Y-59750000D03*
X145250000Y-63750000D03*
X103750000Y-105000000D03*
X115250000Y-107250000D03*
X101250000Y-112000000D03*
D39*
X105570000Y-77750000D02*
X105570000Y-74070000D01*
X105570000Y-74070000D02*
X104000000Y-72500000D01*
X104000000Y-72500000D02*
X102750000Y-72500000D01*
X106840000Y-74030000D02*
X106840000Y-75160000D01*
X104000000Y-71190000D02*
X106840000Y-74030000D01*
X102750000Y-71190000D02*
X104000000Y-71190000D01*
X106840000Y-75160000D02*
X106840000Y-74090000D01*
X106840000Y-77750000D02*
X106840000Y-75160000D01*
X102750000Y-69920000D02*
X104000000Y-69920000D01*
X104000000Y-69920000D02*
X108110000Y-74030000D01*
X108110000Y-74030000D02*
X108110000Y-74110000D01*
X108110000Y-77750000D02*
X108110000Y-74110000D01*
X104000000Y-68650000D02*
X108110000Y-64540000D01*
X102750000Y-68650000D02*
X104000000Y-68650000D01*
X108110000Y-64540000D02*
X108110000Y-63390000D01*
X108110000Y-60750000D02*
X108110000Y-63390000D01*
X106840000Y-64540000D02*
X106840000Y-63840000D01*
X102750000Y-67380000D02*
X104000000Y-67380000D01*
X104000000Y-67380000D02*
X106840000Y-64540000D01*
X106840000Y-60750000D02*
X106840000Y-63840000D01*
X104000000Y-66110000D02*
X105570000Y-64540000D01*
X102750000Y-66110000D02*
X104000000Y-66110000D01*
X105570000Y-64540000D02*
X105570000Y-63570000D01*
X105570000Y-60750000D02*
X105570000Y-63570000D01*
D40*
X172750000Y-90000000D02*
X173250000Y-89500000D01*
X170500000Y-90000000D02*
X172750000Y-90000000D01*
X170500000Y-108350000D02*
X170500000Y-115750000D01*
X170500000Y-106700000D02*
X170500000Y-108350000D01*
X173250000Y-78750000D02*
X173250000Y-70500000D01*
X173250000Y-78750000D02*
X173250000Y-89500000D01*
X173250000Y-78000000D02*
X173250000Y-78750000D01*
X172500000Y-69750000D02*
X170500000Y-69750000D01*
X173250000Y-70500000D02*
X172500000Y-69750000D01*
X149150000Y-80000000D02*
X152500000Y-80000000D01*
X147300000Y-80000000D02*
X149150000Y-80000000D01*
X169085787Y-85000000D02*
X170500000Y-85000000D01*
X159350000Y-85000000D02*
X169085787Y-85000000D01*
X154350000Y-80000000D02*
X159350000Y-85000000D01*
X152500000Y-80000000D02*
X154350000Y-80000000D01*
D39*
X128760000Y-138010000D02*
X128760000Y-136500000D01*
X129000000Y-138250000D02*
X128760000Y-138010000D01*
X140500000Y-138250000D02*
X129000000Y-138250000D01*
X137500000Y-130000000D02*
X137500000Y-129000000D01*
X137500000Y-129000000D02*
X137750000Y-128750000D01*
X137750000Y-128750000D02*
X140500000Y-128750000D01*
X140500000Y-128750000D02*
X140750000Y-129000000D01*
X140750000Y-129000000D02*
X140750000Y-138000000D01*
X140750000Y-138000000D02*
X140500000Y-138250000D01*
X79100000Y-123900000D02*
X79100000Y-126000000D01*
X110000000Y-134000000D02*
X112000000Y-134000000D01*
X101500000Y-53500000D02*
X100750000Y-53500000D01*
X101760000Y-53760000D02*
X101500000Y-53500000D01*
X102020000Y-53500000D02*
X101760000Y-53760000D01*
X102750000Y-53500000D02*
X102020000Y-53500000D01*
X101500000Y-53500000D02*
X102020000Y-53500000D01*
X101520000Y-56500000D02*
X101760000Y-56260000D01*
X100500000Y-56500000D02*
X101520000Y-56500000D01*
X101760000Y-56260000D02*
X101760000Y-53760000D01*
X101760000Y-56740000D02*
X101520000Y-56500000D01*
X101760000Y-56760000D02*
X101760000Y-56740000D01*
X101760000Y-56760000D02*
X101760000Y-56260000D01*
X101760000Y-60750000D02*
X101760000Y-56760000D01*
X90330000Y-58830000D02*
X90250000Y-58750000D01*
X90330000Y-60750000D02*
X90330000Y-58830000D01*
X89060000Y-58810000D02*
X89000000Y-58750000D01*
X89060000Y-60750000D02*
X89060000Y-58810000D01*
X87790000Y-77750000D02*
X87790000Y-82290000D01*
X87790000Y-82290000D02*
X88250000Y-82750000D01*
X88250000Y-82750000D02*
X91250000Y-82750000D01*
X91250000Y-82750000D02*
X92000000Y-83500000D01*
X92000000Y-84250000D02*
X91750000Y-84500000D01*
X92000000Y-83500000D02*
X92000000Y-84250000D01*
X90750000Y-84500000D02*
X91750000Y-84500000D01*
X92250000Y-84500000D02*
X92000000Y-84250000D01*
X92250000Y-84500000D02*
X93250000Y-84500000D01*
X92000000Y-84500000D02*
X92250000Y-84500000D01*
X91750000Y-84500000D02*
X92000000Y-84500000D01*
X92250000Y-87250000D02*
X93250000Y-87250000D01*
X92000000Y-87000000D02*
X92250000Y-87250000D01*
X92000000Y-84750000D02*
X91750000Y-84500000D01*
X92000000Y-85000000D02*
X92000000Y-84750000D01*
X92000000Y-85000000D02*
X92000000Y-87000000D01*
X92000000Y-84500000D02*
X92000000Y-85000000D01*
X92000000Y-84750000D02*
X92250000Y-84500000D01*
X86520000Y-77750000D02*
X86520000Y-82020000D01*
X86520000Y-82020000D02*
X87750000Y-83250000D01*
X87750000Y-83250000D02*
X87750000Y-84250000D01*
X87750000Y-84250000D02*
X87500000Y-84500000D01*
X87500000Y-84500000D02*
X86750000Y-84500000D01*
X80000000Y-110000000D02*
X80000000Y-108250000D01*
X80000000Y-108250000D02*
X76750000Y-105000000D01*
X76750000Y-105000000D02*
X76750000Y-103750000D01*
X76750000Y-103750000D02*
X76750000Y-102000000D01*
X85750000Y-93000000D02*
X85750000Y-91750000D01*
X87750000Y-86000000D02*
X86500000Y-87250000D01*
X87500000Y-84500000D02*
X87750000Y-84750000D01*
X87750000Y-84750000D02*
X87750000Y-86000000D01*
X84500000Y-93750000D02*
X84750000Y-94000000D01*
X84750000Y-94000000D02*
X85000000Y-93750000D01*
X85000000Y-93750000D02*
X84500000Y-93750000D01*
X83500000Y-92750000D02*
X84500000Y-93750000D01*
X85000000Y-93750000D02*
X85750000Y-93000000D01*
X84500000Y-94250000D02*
X84500000Y-93750000D01*
X76750000Y-102000000D02*
X84500000Y-94250000D01*
X84500000Y-94250000D02*
X84750000Y-94000000D01*
X88000000Y-84500000D02*
X87750000Y-84250000D01*
X89000000Y-84500000D02*
X88000000Y-84500000D01*
X87750000Y-84500000D02*
X87875000Y-84625000D01*
X87750000Y-84250000D02*
X87750000Y-84500000D01*
X87750000Y-84750000D02*
X87875000Y-84625000D01*
X87875000Y-84625000D02*
X88000000Y-84500000D01*
X98750000Y-56500000D02*
X97750000Y-56500000D01*
X97750000Y-56500000D02*
X93750000Y-52500000D01*
X85750000Y-52500000D02*
X85250000Y-53000000D01*
X84500000Y-87250000D02*
X83500000Y-87250000D01*
X84500000Y-87250000D02*
X84250000Y-87250000D01*
X86500000Y-87250000D02*
X84500000Y-87250000D01*
X83500000Y-88500000D02*
X83500000Y-87250000D01*
X83500000Y-88500000D02*
X83500000Y-92750000D01*
X83500000Y-88000000D02*
X83500000Y-88500000D01*
X85750000Y-52500000D02*
X85000000Y-53250000D01*
X86500000Y-52500000D02*
X85750000Y-52500000D01*
X93750000Y-52500000D02*
X86500000Y-52500000D01*
X93750000Y-52500000D02*
X94500000Y-51750000D01*
X138750000Y-64750000D02*
X138750000Y-63750000D01*
X138750000Y-63750000D02*
X138500000Y-63500000D01*
X138500000Y-63500000D02*
X137500000Y-63500000D01*
X149750000Y-65500000D02*
X149750000Y-70000000D01*
X149750000Y-70000000D02*
X150000000Y-70250000D01*
X150000000Y-70250000D02*
X151000000Y-70250000D01*
X151000000Y-70250000D02*
X151250000Y-70000000D01*
X151250000Y-70000000D02*
X151250000Y-69250000D01*
X126500000Y-52250000D02*
X126500000Y-58000000D01*
X124250000Y-51750000D02*
X126000000Y-51750000D01*
X94500000Y-51750000D02*
X124250000Y-51750000D01*
X126000000Y-51750000D02*
X126500000Y-52250000D01*
X95000000Y-84500000D02*
X96000000Y-84500000D01*
X96500000Y-85000000D02*
X96500000Y-86500000D01*
X96000000Y-84500000D02*
X96500000Y-85000000D01*
X98750000Y-53500000D02*
X96750000Y-53500000D01*
X124500000Y-75000000D02*
X142000000Y-75000000D01*
X142500000Y-74500000D02*
X142500000Y-73500000D01*
X142000000Y-75000000D02*
X142500000Y-74500000D01*
X97950000Y-80300000D02*
X97950000Y-77750000D01*
X99150000Y-81500000D02*
X97950000Y-80300000D01*
X109750000Y-81500000D02*
X99150000Y-81500000D01*
X116250000Y-75000000D02*
X109750000Y-81500000D01*
X126500000Y-59750000D02*
X126500000Y-60500000D01*
X126500000Y-60500000D02*
X126750000Y-60750000D01*
X129000000Y-60500000D02*
X129000000Y-59750000D01*
X128750000Y-60750000D02*
X129000000Y-60500000D01*
X131500000Y-60500000D02*
X131500000Y-59750000D01*
X131250000Y-60750000D02*
X131500000Y-60500000D01*
X129000000Y-60500000D02*
X129250000Y-60750000D01*
X129250000Y-60750000D02*
X131250000Y-60750000D01*
X128500000Y-60750000D02*
X129250000Y-60750000D01*
X128500000Y-60750000D02*
X128750000Y-60750000D01*
X126750000Y-60750000D02*
X128500000Y-60750000D01*
X126250000Y-60750000D02*
X126500000Y-60500000D01*
X107500000Y-56250000D02*
X122750000Y-56250000D01*
X125750000Y-60750000D02*
X125500000Y-60750000D01*
X125750000Y-60750000D02*
X126250000Y-60750000D01*
X125500000Y-60750000D02*
X125000000Y-60250000D01*
X125000000Y-58500000D02*
X122750000Y-56250000D01*
X125000000Y-60250000D02*
X125000000Y-58500000D01*
X93565685Y-56250000D02*
X93000000Y-56250000D01*
X95850000Y-56250000D02*
X93565685Y-56250000D01*
X97950000Y-58350000D02*
X95850000Y-56250000D01*
X97950000Y-60750000D02*
X97950000Y-58350000D01*
X92350000Y-58750000D02*
X92750000Y-58750000D01*
X91600000Y-60750000D02*
X91600000Y-59500000D01*
X91600000Y-59500000D02*
X92350000Y-58750000D01*
X123500000Y-78750000D02*
X123500000Y-64750000D01*
X131000000Y-90500000D02*
X131000000Y-86250000D01*
X131000000Y-86250000D02*
X123500000Y-78750000D01*
X93200000Y-133450000D02*
X93200000Y-133950000D01*
X128250000Y-128750000D02*
X127500000Y-129500000D01*
X127500000Y-129500000D02*
X113750000Y-129500000D01*
X113750000Y-129500000D02*
X111399990Y-131850010D01*
X93200000Y-133950000D02*
X93200000Y-136500000D01*
X111399990Y-131850010D02*
X94799990Y-131850010D01*
X94799990Y-131850010D02*
X93200000Y-133450000D01*
X128250000Y-116000000D02*
X128250000Y-128750000D01*
X128250000Y-115750000D02*
X128250000Y-116000000D01*
X128250000Y-103250000D02*
X128250000Y-116000000D01*
X117500000Y-92500000D02*
X128250000Y-103250000D01*
X94140000Y-60750000D02*
X94140000Y-58860000D01*
X94140000Y-58860000D02*
X94250000Y-58750000D01*
X117500000Y-63750000D02*
X117500000Y-65250000D01*
X117500000Y-65250000D02*
X117500000Y-92500000D01*
X98280000Y-133530000D02*
X98280000Y-136500000D01*
X99059972Y-132750028D02*
X98280000Y-133530000D01*
X112499972Y-132750028D02*
X99059972Y-132750028D01*
X114750000Y-130500000D02*
X112499972Y-132750028D01*
X119500000Y-92500000D02*
X129250000Y-102250000D01*
X129250000Y-102250000D02*
X129250000Y-129022820D01*
X129250000Y-129022820D02*
X127772820Y-130500000D01*
X127772820Y-130500000D02*
X114750000Y-130500000D01*
X96680000Y-60750000D02*
X96680000Y-58820000D01*
X96680000Y-58820000D02*
X96750000Y-58750000D01*
X119500000Y-61750000D02*
X119500000Y-63000000D01*
X119500000Y-63000000D02*
X119500000Y-92500000D01*
X103030000Y-60750000D02*
X103030000Y-63220000D01*
X103030000Y-63220000D02*
X102750000Y-63500000D01*
X113520000Y-133730000D02*
X113520000Y-136500000D01*
X115750000Y-131500000D02*
X113520000Y-133730000D01*
X121500000Y-92250000D02*
X130250000Y-101000000D01*
X130250000Y-101000000D02*
X130250000Y-129295640D01*
X130250000Y-129295640D02*
X128045640Y-131500000D01*
X128045640Y-131500000D02*
X115750000Y-131500000D01*
X103030000Y-60750000D02*
X103030000Y-58780000D01*
X103030000Y-58780000D02*
X103000000Y-58750000D01*
X121500000Y-61750000D02*
X121500000Y-59750000D01*
X121500000Y-61750000D02*
X121500000Y-92250000D01*
X104000000Y-64840000D02*
X104300000Y-64540000D01*
X104300000Y-64200000D02*
X104300000Y-64450000D01*
X104300000Y-64540000D02*
X104300000Y-64200000D01*
X102750000Y-64840000D02*
X104000000Y-64840000D01*
X104300000Y-60750000D02*
X104300000Y-64200000D01*
X118600000Y-136500000D02*
X118600000Y-133650000D01*
X118600000Y-133650000D02*
X120250000Y-132000000D01*
X128182050Y-132000000D02*
X130750000Y-129432050D01*
X120250000Y-132000000D02*
X128182050Y-132000000D01*
X130750000Y-129432050D02*
X130750000Y-115750000D01*
X130750000Y-115750000D02*
X130750000Y-100250000D01*
X130750000Y-100250000D02*
X122500000Y-92000000D01*
X104300000Y-60750000D02*
X104300000Y-58800000D01*
X104300000Y-58800000D02*
X104250000Y-58750000D01*
X122500000Y-61000000D02*
X122500000Y-58750000D01*
X122500000Y-92000000D02*
X122500000Y-61000000D01*
X100820000Y-133680000D02*
X100820000Y-136500000D01*
X101250000Y-133250000D02*
X100820000Y-133680000D01*
X105500000Y-133250000D02*
X101250000Y-133250000D01*
X105750000Y-133250000D02*
X105500000Y-133250000D01*
X108500000Y-133250000D02*
X109659230Y-133250000D01*
X108500000Y-133250000D02*
X109750000Y-133250000D01*
X105500000Y-133250000D02*
X108500000Y-133250000D01*
X109659230Y-133250000D02*
X113000000Y-133250000D01*
X113000000Y-133250000D02*
X114750000Y-131500000D01*
X114750000Y-131500000D02*
X115000000Y-131250000D01*
X115000000Y-131250000D02*
X115250000Y-131000000D01*
X115299991Y-130950009D02*
X115000000Y-131250000D01*
X120500000Y-92500000D02*
X129750000Y-101750000D01*
X129750000Y-101750000D02*
X129750000Y-129159230D01*
X129750000Y-129159230D02*
X127959221Y-130950009D01*
X127959221Y-130950009D02*
X115299991Y-130950009D01*
X100490000Y-60750000D02*
X100490000Y-58760000D01*
X100490000Y-58760000D02*
X100500000Y-58750000D01*
X120500000Y-60750000D02*
X120500000Y-62250000D01*
X120500000Y-62250000D02*
X120500000Y-92500000D01*
X116250000Y-130000000D02*
X114500000Y-130000000D01*
X95740000Y-133510000D02*
X95740000Y-136500000D01*
X96949981Y-132300019D02*
X95740000Y-133510000D01*
X111949981Y-132300019D02*
X96949981Y-132300019D01*
X114250000Y-130000000D02*
X111949981Y-132300019D01*
X116250000Y-130000000D02*
X114250000Y-130000000D01*
X127636410Y-130000000D02*
X116250000Y-130000000D01*
X128750000Y-128886410D02*
X127636410Y-130000000D01*
X128750000Y-102750000D02*
X128750000Y-128886410D01*
X118500000Y-92500000D02*
X128750000Y-102750000D01*
X95410000Y-60750000D02*
X95410000Y-58840000D01*
X95410000Y-58840000D02*
X95500000Y-58750000D01*
X118500000Y-62750000D02*
X118500000Y-63500000D01*
X118500000Y-63500000D02*
X118500000Y-92500000D01*
X104300000Y-77750000D02*
X104300000Y-74050000D01*
X104300000Y-74050000D02*
X104000000Y-73750000D01*
X104000000Y-73750000D02*
X102750000Y-73750000D01*
X104250000Y-77800000D02*
X104300000Y-77750000D01*
X104250000Y-79750000D02*
X104250000Y-77800000D01*
X123500000Y-91750000D02*
X123500000Y-80750000D01*
X131250000Y-99500000D02*
X123500000Y-91750000D01*
X131250000Y-127250000D02*
X131250000Y-99500000D01*
X133500000Y-129500000D02*
X131250000Y-127250000D01*
X133500000Y-130750000D02*
X133500000Y-129500000D01*
D40*
X156250000Y-57500000D02*
X159000000Y-54750000D01*
X152500000Y-57500000D02*
X156250000Y-57500000D01*
X152000000Y-58000000D02*
X152500000Y-57500000D01*
X152000000Y-59500000D02*
X152000000Y-58000000D01*
X154000000Y-59750000D02*
X152250000Y-59750000D01*
X152250000Y-59750000D02*
X152000000Y-59500000D01*
X98250000Y-103250000D02*
X98250000Y-104500000D01*
X95750000Y-100000000D02*
X95500000Y-100250000D01*
X97500000Y-100000000D02*
X95750000Y-100000000D01*
X95500000Y-100250000D02*
X95500000Y-102750000D01*
X95500000Y-102750000D02*
X95750000Y-103000000D01*
X95750000Y-103000000D02*
X98000000Y-103000000D01*
X98000000Y-103000000D02*
X98250000Y-103250000D01*
X101250000Y-104500000D02*
X101250000Y-103250000D01*
X101250000Y-103250000D02*
X101000000Y-103000000D01*
X98500000Y-103000000D02*
X98250000Y-103250000D01*
X101000000Y-103000000D02*
X98500000Y-103000000D01*
X98250000Y-108300000D02*
X97950000Y-108000000D01*
X98250000Y-109000000D02*
X98250000Y-108300000D01*
X97950000Y-108000000D02*
X95750000Y-108000000D01*
X95750000Y-108000000D02*
X95500000Y-107750000D01*
X95500000Y-103250000D02*
X95750000Y-103000000D01*
X95500000Y-107750000D02*
X95500000Y-103250000D01*
X95250000Y-100000000D02*
X95500000Y-100250000D01*
X94500000Y-100000000D02*
X95250000Y-100000000D01*
X95250000Y-100000000D02*
X95750000Y-100000000D01*
X101750000Y-119000000D02*
X97500000Y-119000000D01*
X133600000Y-64350000D02*
X133600000Y-63500000D01*
X133600000Y-63500000D02*
X133600000Y-63400000D01*
X137250000Y-59750000D02*
X138000000Y-59750000D01*
X133600000Y-63400000D02*
X137250000Y-59750000D01*
X139250000Y-59750000D02*
X138000000Y-59750000D01*
X138000000Y-59750000D02*
X137500000Y-59750000D01*
X137000000Y-59500000D02*
X137250000Y-59750000D01*
X137000000Y-59500000D02*
X136750000Y-59250000D01*
X133200000Y-63000000D02*
X133600000Y-63400000D01*
X131750000Y-63000000D02*
X133200000Y-63000000D01*
X131250000Y-64750000D02*
X131250000Y-63500000D01*
X131250000Y-63500000D02*
X131750000Y-63000000D01*
X91250000Y-137750000D02*
X92250000Y-138750000D01*
X92250000Y-138750000D02*
X102000000Y-138750000D01*
X82250000Y-110000000D02*
X82250000Y-111750000D01*
X82250000Y-112500000D02*
X82250000Y-112750000D01*
X82250000Y-111750000D02*
X82250000Y-112500000D01*
X82250000Y-112750000D02*
X82500000Y-112500000D01*
X82250000Y-113250000D02*
X82250000Y-112750000D01*
X82250000Y-112500000D02*
X82500000Y-112500000D01*
X82250000Y-113250000D02*
X82250000Y-114000000D01*
X82250000Y-112250000D02*
X82500000Y-112500000D01*
X82250000Y-111750000D02*
X82250000Y-112250000D01*
X142000000Y-95000000D02*
X142000000Y-96250000D01*
X142000000Y-96250000D02*
X142000000Y-96000000D01*
X142000000Y-97750000D02*
X142000000Y-96250000D01*
X147500000Y-99250000D02*
X143000000Y-99250000D01*
X143000000Y-99250000D02*
X142000000Y-98250000D01*
X142000000Y-98250000D02*
X142000000Y-95000000D01*
X136500000Y-59000000D02*
X137250000Y-59750000D01*
X136500000Y-54750000D02*
X136500000Y-59000000D01*
X136500000Y-54750000D02*
X136500000Y-52000000D01*
X136500000Y-52000000D02*
X137000000Y-51500000D01*
X137000000Y-51500000D02*
X153500000Y-51500000D01*
X154040000Y-52040000D02*
X153500000Y-51500000D01*
X154040000Y-54750000D02*
X154040000Y-52040000D01*
X97500000Y-114500000D02*
X97500000Y-119000000D01*
X95500000Y-112500000D02*
X97500000Y-114500000D01*
X110250000Y-104250000D02*
X108600000Y-104250000D01*
X110500000Y-104000000D02*
X110250000Y-104250000D01*
X108250000Y-100000000D02*
X110000000Y-100000000D01*
X110000000Y-100000000D02*
X110500000Y-100500000D01*
X115250000Y-104250000D02*
X115250000Y-103250000D01*
X115250000Y-103250000D02*
X115000000Y-103000000D01*
X112250000Y-103250000D02*
X112250000Y-104250000D01*
X112500000Y-103000000D02*
X112250000Y-103250000D01*
X110750000Y-103000000D02*
X110500000Y-103250000D01*
X112250000Y-103250000D02*
X112000000Y-103000000D01*
X110500000Y-103250000D02*
X110500000Y-104000000D01*
X110500000Y-102750000D02*
X110750000Y-103000000D01*
X110500000Y-102250000D02*
X110500000Y-102750000D01*
X110500000Y-102250000D02*
X110500000Y-103250000D01*
X110500000Y-100500000D02*
X110500000Y-102250000D01*
X91500000Y-112500000D02*
X91750000Y-112500000D01*
X93750000Y-112500000D02*
X93250000Y-112500000D01*
X93750000Y-112500000D02*
X95500000Y-112500000D01*
X92500000Y-112500000D02*
X93250000Y-112500000D01*
X115500000Y-103000000D02*
X115250000Y-103250000D01*
X98250000Y-113750000D02*
X116500000Y-113750000D01*
X97500000Y-114500000D02*
X98250000Y-113750000D01*
X117500000Y-112750000D02*
X117500000Y-103250000D01*
X116500000Y-113750000D02*
X117500000Y-112750000D01*
X117500000Y-103250000D02*
X117250000Y-103000000D01*
X115750000Y-103000000D02*
X114750000Y-103000000D01*
X115000000Y-103000000D02*
X114750000Y-103000000D01*
X115750000Y-103000000D02*
X115500000Y-103000000D01*
X117250000Y-103000000D02*
X115750000Y-103000000D01*
X113000000Y-103000000D02*
X111750000Y-103000000D01*
X111750000Y-103000000D02*
X110750000Y-103000000D01*
X112000000Y-103000000D02*
X111750000Y-103000000D01*
X113000000Y-103000000D02*
X112500000Y-103000000D01*
X114750000Y-103000000D02*
X113000000Y-103000000D01*
X92250000Y-112500000D02*
X92500000Y-112500000D01*
X91250000Y-112750000D02*
X91000000Y-112500000D01*
X91250000Y-134750000D02*
X91250000Y-112750000D01*
X91000000Y-112500000D02*
X91500000Y-112500000D01*
X82500000Y-112500000D02*
X91000000Y-112500000D01*
X91250000Y-134750000D02*
X91250000Y-137750000D01*
X91500000Y-112500000D02*
X91250000Y-112750000D01*
X91900000Y-112500000D02*
X91500000Y-112500000D01*
X91900000Y-112500000D02*
X92250000Y-112500000D01*
X91250000Y-101262740D02*
X92506370Y-100006370D01*
X91000000Y-112500000D02*
X91250000Y-112250000D01*
X91250000Y-112750000D02*
X91250000Y-112250000D01*
X91250000Y-112250000D02*
X91250000Y-101262740D01*
X91500000Y-112500000D02*
X91250000Y-112250000D01*
D39*
X142000000Y-89250000D02*
X142000000Y-90750000D01*
X135000000Y-89750000D02*
X135000000Y-88500000D01*
X142000000Y-91500000D02*
X142000000Y-90750000D01*
X147500000Y-87750000D02*
X142500000Y-87750000D01*
X142500000Y-87750000D02*
X142000000Y-88250000D01*
X142000000Y-88250000D02*
X142000000Y-91500000D01*
X142000000Y-88250000D02*
X141500000Y-87750000D01*
X141500000Y-87750000D02*
X139750000Y-87750000D01*
X139750000Y-87750000D02*
X135500000Y-87750000D01*
X135500000Y-87750000D02*
X135000000Y-88250000D01*
X135000000Y-88250000D02*
X135000000Y-89750000D01*
X129000000Y-55952081D02*
X129000000Y-58000000D01*
X129000000Y-54750000D02*
X129000000Y-55952081D01*
X161540000Y-54750000D02*
X161540000Y-59210000D01*
X161000000Y-59750000D02*
X159250000Y-59750000D01*
X161540000Y-59210000D02*
X161000000Y-59750000D01*
X146500000Y-66250000D02*
X146500000Y-67500000D01*
X148500000Y-64250000D02*
X146500000Y-66250000D01*
X159500000Y-64250000D02*
X148500000Y-64250000D01*
X161500000Y-62250000D02*
X159500000Y-64250000D01*
X161000000Y-59750000D02*
X161500000Y-60250000D01*
X161500000Y-60250000D02*
X161500000Y-62250000D01*
X140750000Y-67500000D02*
X141500000Y-67500000D01*
X139000000Y-67500000D02*
X140750000Y-67500000D01*
X140750000Y-67500000D02*
X141000000Y-67500000D01*
X143750000Y-67250000D02*
X143750000Y-66500000D01*
X141250000Y-67250000D02*
X141500000Y-67500000D01*
X141500000Y-67500000D02*
X143500000Y-67500000D01*
X143500000Y-67500000D02*
X143750000Y-67250000D01*
X138750000Y-67250000D02*
X139000000Y-67500000D01*
X138750000Y-66500000D02*
X138750000Y-67250000D01*
X141000000Y-67500000D02*
X141250000Y-67250000D01*
X141250000Y-67250000D02*
X141250000Y-66500000D01*
X99220000Y-77750000D02*
X99220000Y-80220000D01*
X99220000Y-80220000D02*
X99750000Y-80750000D01*
X99750000Y-80750000D02*
X109250000Y-80750000D01*
X109250000Y-80750000D02*
X116250000Y-73750000D01*
X132750000Y-73750000D02*
X139000000Y-67500000D01*
X124500000Y-73750000D02*
X132750000Y-73750000D01*
X87790000Y-58460000D02*
X87790000Y-60750000D01*
X89000000Y-57250000D02*
X87790000Y-58460000D01*
X93000000Y-57250000D02*
X89000000Y-57250000D01*
X122750000Y-57250000D02*
X107500000Y-57250000D01*
X127250000Y-69500000D02*
X127250000Y-63500000D01*
X127750000Y-70000000D02*
X127250000Y-69500000D01*
X133750000Y-70000000D02*
X127750000Y-70000000D01*
X124250000Y-60500000D02*
X124250000Y-58750000D01*
X134250000Y-69500000D02*
X133750000Y-70000000D01*
X124250000Y-58750000D02*
X122750000Y-57250000D01*
X127250000Y-63500000D02*
X124250000Y-60500000D01*
X134250000Y-66650000D02*
X134250000Y-69500000D01*
X134900000Y-63350000D02*
X134900000Y-64350000D01*
X135750000Y-62500000D02*
X134900000Y-63350000D01*
X139040000Y-54750000D02*
X140140000Y-54750000D01*
X141000000Y-62500000D02*
X141750000Y-62500000D01*
X141000000Y-62500000D02*
X135750000Y-62500000D01*
X141750000Y-62500000D02*
X142570000Y-61680000D01*
X142570000Y-58570000D02*
X142570000Y-56820000D01*
X142570000Y-61680000D02*
X142570000Y-58570000D01*
X142570000Y-58570000D02*
X142570000Y-57180000D01*
X142570000Y-56820000D02*
X140500000Y-54750000D01*
X140500000Y-54750000D02*
X139000000Y-54750000D01*
X141250000Y-63636410D02*
X143500000Y-61386410D01*
X141250000Y-64750000D02*
X141250000Y-63636410D01*
X143500000Y-61386410D02*
X143500000Y-57000000D01*
X143500000Y-57000000D02*
X144000000Y-56500000D01*
X144000000Y-56500000D02*
X146000000Y-56500000D01*
X146000000Y-56500000D02*
X146500000Y-56000000D01*
X146540000Y-55960000D02*
X146000000Y-56500000D01*
X146540000Y-54750000D02*
X146540000Y-55960000D01*
X135750000Y-134000000D02*
X135750000Y-135250000D01*
X136000000Y-135500000D02*
X136750000Y-135500000D01*
X136500000Y-132500000D02*
X136500000Y-133250000D01*
X136500000Y-133250000D02*
X135750000Y-134000000D01*
X135750000Y-135250000D02*
X136000000Y-135500000D01*
X133500000Y-132500000D02*
X133500000Y-133000000D01*
X134000000Y-133500000D02*
X135250000Y-133500000D01*
X133500000Y-133000000D02*
X134000000Y-133500000D01*
X135250000Y-133500000D02*
X135750000Y-134000000D01*
X144750000Y-71500000D02*
X144750000Y-72750000D01*
X144750000Y-72750000D02*
X145000000Y-73000000D01*
X145000000Y-73000000D02*
X145750000Y-73000000D01*
X145500000Y-70750000D02*
X144750000Y-71500000D01*
X145500000Y-70000000D02*
X145500000Y-70750000D01*
X142500000Y-71000000D02*
X142750000Y-70750000D01*
X144000000Y-70750000D02*
X144750000Y-71500000D01*
X142750000Y-70750000D02*
X144000000Y-70750000D01*
X142500000Y-71750000D02*
X142500000Y-71000000D01*
X133250000Y-95000000D02*
X133500000Y-95250000D01*
X133500000Y-95250000D02*
X134250000Y-95250000D01*
X134000000Y-92250000D02*
X134000000Y-93000000D01*
X134000000Y-93000000D02*
X133250000Y-93750000D01*
X133250000Y-93750000D02*
X133250000Y-95000000D01*
X131000000Y-92250000D02*
X131000000Y-92750000D01*
X131500000Y-93250000D02*
X132750000Y-93250000D01*
X131000000Y-92750000D02*
X131500000Y-93250000D01*
X132750000Y-93250000D02*
X133250000Y-93750000D01*
X84750000Y-89250000D02*
X84750000Y-88500000D01*
X84750000Y-88500000D02*
X85000000Y-88250000D01*
X85000000Y-88250000D02*
X86500000Y-88250000D01*
X86750000Y-88500000D02*
X86750000Y-89250000D01*
X86547919Y-88250000D02*
X86500000Y-88250000D01*
X88047919Y-86750000D02*
X86547919Y-88250000D01*
X89250000Y-86750000D02*
X88047919Y-86750000D01*
X86750000Y-88452081D02*
X86547919Y-88250000D01*
X86750000Y-89250000D02*
X86750000Y-88452081D01*
X110250000Y-82250000D02*
X111500000Y-81000000D01*
X116250000Y-76250000D02*
X111500000Y-81000000D01*
X96680000Y-80430000D02*
X98500000Y-82250000D01*
X96680000Y-77750000D02*
X96680000Y-80430000D01*
X98500000Y-82250000D02*
X110250000Y-82250000D01*
X151250000Y-74500000D02*
X151250000Y-73500000D01*
X150000000Y-75750000D02*
X151250000Y-74500000D01*
X125500000Y-75750000D02*
X150000000Y-75750000D01*
X125000000Y-76250000D02*
X125500000Y-75750000D01*
X124500000Y-76250000D02*
X125000000Y-76250000D01*
D40*
X165500000Y-74000000D02*
X166500000Y-75000000D01*
X165000000Y-73500000D02*
X165500000Y-73000000D01*
X163250000Y-73500000D02*
X165000000Y-73500000D01*
X165500000Y-69750000D02*
X165500000Y-73000000D01*
X165500000Y-73000000D02*
X165500000Y-74000000D01*
X166500000Y-75000000D02*
X165000000Y-73500000D01*
X170500000Y-75000000D02*
X166500000Y-75000000D01*
D39*
X159750000Y-77750000D02*
X158500000Y-77750000D01*
X158500000Y-77750000D02*
X158250000Y-77500000D01*
X158250000Y-77500000D02*
X158250000Y-73750000D01*
X158500000Y-73500000D02*
X159750000Y-73500000D01*
X158250000Y-73750000D02*
X158500000Y-73500000D01*
X154250000Y-70000000D02*
X154250000Y-70750000D01*
X154250000Y-70750000D02*
X153500000Y-71500000D01*
X153500000Y-71500000D02*
X153500000Y-72750000D01*
X153750000Y-73000000D02*
X154500000Y-73000000D01*
X153500000Y-72750000D02*
X153750000Y-73000000D01*
X151250000Y-71750000D02*
X151250000Y-71000000D01*
X151250000Y-71000000D02*
X151500000Y-70750000D01*
X152750000Y-70750000D02*
X153500000Y-71500000D01*
X151500000Y-70750000D02*
X152750000Y-70750000D01*
X168000000Y-60750000D02*
X168000000Y-62250000D01*
X167500000Y-60250000D02*
X168000000Y-60750000D01*
X166500000Y-60250000D02*
X167500000Y-60250000D01*
X151250000Y-66750000D02*
X151250000Y-67500000D01*
X164500000Y-60250000D02*
X165750000Y-60250000D01*
X165750000Y-60250000D02*
X166500000Y-60250000D01*
X164500000Y-60250000D02*
X159750000Y-65000000D01*
X153000000Y-65000000D02*
X152625000Y-65375000D01*
X159750000Y-65000000D02*
X153000000Y-65000000D01*
X152625000Y-65375000D02*
X151250000Y-66750000D01*
X155250000Y-66250000D02*
X155250000Y-67500000D01*
X162000000Y-65750000D02*
X155750000Y-65750000D01*
X165500000Y-62250000D02*
X162000000Y-65750000D01*
X155750000Y-65750000D02*
X155250000Y-66250000D01*
D40*
X98250000Y-110750000D02*
X98250000Y-112000000D01*
X138500000Y-132500000D02*
X138500000Y-133450000D01*
X139500000Y-135250000D02*
X139500000Y-135500000D01*
X139500000Y-134450000D02*
X139500000Y-135250000D01*
X139500000Y-135250000D02*
X139250000Y-135500000D01*
X138500000Y-133450000D02*
X139500000Y-134450000D01*
X139250000Y-135500000D02*
X138500000Y-135500000D01*
X137000000Y-95000000D02*
X137000000Y-95250000D01*
X136000000Y-92250000D02*
X136000000Y-93200000D01*
X136750000Y-95250000D02*
X136000000Y-95250000D01*
X136000000Y-93200000D02*
X137000000Y-94200000D01*
X137000000Y-94200000D02*
X137000000Y-95000000D01*
X137000000Y-95000000D02*
X136750000Y-95250000D01*
X147500000Y-70950000D02*
X148500000Y-71950000D01*
X147500000Y-70000000D02*
X147500000Y-70950000D01*
X148500000Y-71950000D02*
X148500000Y-72750000D01*
X148250000Y-73000000D02*
X147500000Y-73000000D01*
X148500000Y-72750000D02*
X148250000Y-73000000D01*
X148500000Y-72750000D02*
X148500000Y-73000000D01*
X103500000Y-119000000D02*
X107500000Y-119000000D01*
X82250000Y-116750000D02*
X82250000Y-115750000D01*
X82250000Y-115750000D02*
X82250000Y-117000000D01*
X77750000Y-110000000D02*
X77750000Y-112000000D01*
X103030000Y-77750000D02*
X103030000Y-75280000D01*
X103030000Y-75280000D02*
X102750000Y-75000000D01*
X85250000Y-77750000D02*
X85250000Y-79750000D01*
X103030000Y-79720000D02*
X103000000Y-79750000D01*
X103030000Y-77750000D02*
X103030000Y-79720000D01*
X85250000Y-80315685D02*
X85250000Y-79750000D01*
X85250000Y-82171768D02*
X85250000Y-80315685D01*
X84000000Y-83421768D02*
X85250000Y-82171768D01*
X84000000Y-83700000D02*
X84000000Y-83421768D01*
X85000000Y-84500000D02*
X84250000Y-84500000D01*
X84000000Y-84250000D02*
X84000000Y-83700000D01*
X84250000Y-84500000D02*
X84000000Y-84250000D01*
X83750000Y-84500000D02*
X84000000Y-84250000D01*
X82500000Y-84500000D02*
X83750000Y-84500000D01*
X95000000Y-87250000D02*
X95750000Y-87250000D01*
X95750000Y-87250000D02*
X96000000Y-87500000D01*
X96000000Y-87500000D02*
X96000000Y-88500000D01*
X104500000Y-53500000D02*
X111250000Y-53500000D01*
X156250000Y-70950000D02*
X157250000Y-71950000D01*
X156250000Y-70000000D02*
X156250000Y-70950000D01*
X157250000Y-71950000D02*
X157250000Y-72750000D01*
X157000000Y-73000000D02*
X156250000Y-73000000D01*
X157250000Y-72750000D02*
X157000000Y-73000000D01*
X157250000Y-72750000D02*
X157250000Y-73000000D01*
X131540000Y-57960000D02*
X131500000Y-58000000D01*
X131540000Y-54750000D02*
X131540000Y-57960000D01*
X143750000Y-64050000D02*
X144050000Y-63750000D01*
X143750000Y-64750000D02*
X143750000Y-64050000D01*
X144050000Y-63750000D02*
X145000000Y-63750000D01*
X145000000Y-63750000D02*
X145250000Y-63750000D01*
X103360000Y-136500000D02*
X103360000Y-137860000D01*
X103360000Y-137860000D02*
X103750000Y-138250000D01*
X105900000Y-137850000D02*
X105900000Y-136500000D01*
X105900000Y-137850000D02*
X105900000Y-137900000D01*
X105900000Y-137900000D02*
X106250000Y-138250000D01*
X108440000Y-137810000D02*
X108440000Y-136500000D01*
X110980000Y-137800000D02*
X110980000Y-136500000D01*
X110530000Y-138250000D02*
X110980000Y-137800000D01*
X108750000Y-138250000D02*
X110530000Y-138250000D01*
X108440000Y-137940000D02*
X108750000Y-138250000D01*
X108440000Y-137810000D02*
X108440000Y-137940000D01*
X108130000Y-138250000D02*
X108440000Y-137940000D01*
X107250000Y-138250000D02*
X108130000Y-138250000D01*
X107250000Y-138250000D02*
X108000000Y-138250000D01*
X106250000Y-138250000D02*
X107250000Y-138250000D01*
X105550000Y-138250000D02*
X105900000Y-137900000D01*
X104750000Y-138250000D02*
X105550000Y-138250000D01*
X104750000Y-138250000D02*
X105500000Y-138250000D01*
X103750000Y-138250000D02*
X104750000Y-138250000D01*
X111430000Y-138250000D02*
X110980000Y-137800000D01*
X115610000Y-138250000D02*
X111430000Y-138250000D01*
X116060000Y-137800000D02*
X115610000Y-138250000D01*
X116060000Y-136500000D02*
X116060000Y-137800000D01*
X116060000Y-137800000D02*
X116060000Y-137810000D01*
X116060000Y-137810000D02*
X116500000Y-138250000D01*
X116500000Y-138250000D02*
X125750000Y-138250000D01*
X126220000Y-137780000D02*
X126220000Y-136500000D01*
X125750000Y-138250000D02*
X126220000Y-137780000D01*
X139500000Y-135500000D02*
X139500000Y-136750000D01*
X139500000Y-136750000D02*
X139250000Y-137000000D01*
X139250000Y-137000000D02*
X134750000Y-137000000D01*
X134750000Y-137000000D02*
X132500000Y-134750000D01*
X132500000Y-134750000D02*
X126750000Y-134750000D01*
X126220000Y-135280000D02*
X126220000Y-136500000D01*
X126750000Y-134750000D02*
X126220000Y-135280000D01*
X85250000Y-60750000D02*
X85250000Y-58000000D01*
X85250000Y-58000000D02*
X85750000Y-57500000D01*
X146500000Y-59750000D02*
X148250000Y-59750000D01*
X106000000Y-105200000D02*
X103950000Y-105200000D01*
X103950000Y-105200000D02*
X103750000Y-105000000D01*
X115250000Y-106000000D02*
X115250000Y-107250000D01*
X101250000Y-110750000D02*
X101250000Y-112000000D01*
X80000000Y-120900000D02*
X80000000Y-119250000D01*
X82000000Y-125800000D02*
X82250000Y-125550000D01*
X81100000Y-125800000D02*
X82000000Y-125800000D01*
X80900000Y-125600000D02*
X81100000Y-125800000D01*
X80900000Y-123900000D02*
X80900000Y-125600000D01*
X80800000Y-118450000D02*
X80525000Y-118725000D01*
X80000000Y-119250000D02*
X80525000Y-118725000D01*
X82250000Y-118750000D02*
X81950000Y-118450000D01*
X81950000Y-118450000D02*
X80800000Y-118450000D01*
X82250000Y-118450000D02*
X81950000Y-118450000D01*
X82250000Y-118750000D02*
X82250000Y-118450000D01*
X82250000Y-125550000D02*
X82250000Y-118750000D01*
X82250000Y-118150000D02*
X81950000Y-118450000D01*
X82250000Y-117950000D02*
X82250000Y-118150000D01*
X82250000Y-117950000D02*
X82250000Y-117000000D01*
X82250000Y-118450000D02*
X82250000Y-117950000D01*
X112750000Y-127500000D02*
X112500000Y-127250000D01*
X125500000Y-127500000D02*
X112750000Y-127500000D01*
X112500000Y-127250000D02*
X112500000Y-125500000D01*
X110750000Y-129000000D02*
X112500000Y-127250000D01*
X107500000Y-129000000D02*
X110750000Y-129000000D01*
D39*
X98250000Y-106250000D02*
X98250000Y-106750000D01*
X98250000Y-106750000D02*
X98500000Y-107000000D01*
X101000000Y-107000000D02*
X101250000Y-106750000D01*
X98500000Y-107000000D02*
X101000000Y-107000000D01*
X101250000Y-106250000D02*
X101250000Y-106750000D01*
X101250000Y-107250000D02*
X101000000Y-107000000D01*
X101250000Y-107750000D02*
X101250000Y-107250000D01*
X101250000Y-107750000D02*
X101250000Y-109000000D01*
X101250000Y-106750000D02*
X101250000Y-107750000D01*
X106000000Y-106150000D02*
X103850000Y-106150000D01*
X103850000Y-106150000D02*
X103000000Y-107000000D01*
X101500000Y-107000000D02*
X101250000Y-106750000D01*
X101500000Y-107000000D02*
X101250000Y-107250000D01*
X101750000Y-107000000D02*
X101500000Y-107000000D01*
X103000000Y-107000000D02*
X101750000Y-107000000D01*
D40*
X112500000Y-120250000D02*
X113250000Y-119500000D01*
X97500000Y-127000000D02*
X97500000Y-129000000D01*
X112250000Y-121750000D02*
X112500000Y-122000000D01*
X102750000Y-121750000D02*
X112250000Y-121750000D01*
X97500000Y-127000000D02*
X102750000Y-121750000D01*
X112500000Y-123750000D02*
X112500000Y-122000000D01*
X112500000Y-121500000D02*
X112250000Y-121750000D01*
X112500000Y-121000000D02*
X112500000Y-121500000D01*
X112500000Y-121000000D02*
X112500000Y-120250000D01*
X112500000Y-122000000D02*
X112500000Y-121000000D01*
X125500000Y-119500000D02*
X114500000Y-119500000D01*
X113250000Y-119500000D02*
X114500000Y-119500000D01*
X114500000Y-119500000D02*
X114750000Y-119500000D01*
D39*
X108600000Y-106150000D02*
X109900000Y-106150000D01*
X109900000Y-106150000D02*
X110750000Y-107000000D01*
X110750000Y-107000000D02*
X112000000Y-107000000D01*
X112250000Y-106750000D02*
X112250000Y-106000000D01*
X112000000Y-107000000D02*
X112250000Y-106750000D01*
X104750000Y-100250000D02*
X104500000Y-100000000D01*
X104750000Y-104000000D02*
X104750000Y-100250000D01*
X105000000Y-104250000D02*
X104750000Y-104000000D01*
X106000000Y-104250000D02*
X105000000Y-104250000D01*
X102750000Y-100000000D02*
X104500000Y-100000000D01*
X105000000Y-100000000D02*
X104750000Y-100250000D01*
X105000000Y-100000000D02*
X106250000Y-100000000D01*
X104500000Y-100000000D02*
X105000000Y-100000000D01*
D40*
X170500000Y-120450000D02*
X170500000Y-127500000D01*
X170500000Y-119250000D02*
X170500000Y-120450000D01*
X132850000Y-80000000D02*
X136200000Y-80000000D01*
X131000000Y-80000000D02*
X132850000Y-80000000D01*
X131000000Y-81850000D02*
X131000000Y-80000000D01*
X132400000Y-83250000D02*
X131000000Y-81850000D01*
X170500000Y-127500000D02*
X168000000Y-127500000D01*
X168000000Y-127500000D02*
X167500000Y-127000000D01*
X167500000Y-127000000D02*
X167500000Y-112000000D01*
X167500000Y-112000000D02*
X159125000Y-103625000D01*
X159125000Y-103625000D02*
X159125000Y-87875000D01*
X159125000Y-87875000D02*
X154500000Y-83250000D01*
X141250000Y-83250000D02*
X141750000Y-82750000D01*
X140500000Y-83250000D02*
X141250000Y-83250000D01*
X141750000Y-83250000D02*
X141750000Y-82750000D01*
X140500000Y-83250000D02*
X132400000Y-83250000D01*
X141750000Y-83250000D02*
X140500000Y-83250000D01*
X142250000Y-83250000D02*
X141750000Y-82750000D01*
X142750000Y-83250000D02*
X142250000Y-83250000D01*
X142750000Y-83250000D02*
X141750000Y-83250000D01*
X154500000Y-83250000D02*
X142750000Y-83250000D01*
X166700000Y-80000000D02*
X167500000Y-80000000D01*
X164450000Y-77750000D02*
X166700000Y-80000000D01*
X163250000Y-77750000D02*
X164450000Y-77750000D01*
X170500000Y-80000000D02*
X167500000Y-80000000D01*
X164450000Y-82250000D02*
X166700000Y-80000000D01*
X159500000Y-82250000D02*
X164450000Y-82250000D01*
X154250000Y-77000000D02*
X159500000Y-82250000D01*
X142750000Y-77000000D02*
X154250000Y-77000000D01*
X141750000Y-78000000D02*
X142750000Y-77000000D01*
X141750000Y-82750000D02*
X141750000Y-78000000D01*
D41*
G36*
X89733682Y-67707379D02*
G01*
X89722097Y-67825000D01*
X89725000Y-68325000D01*
X89875000Y-68475000D01*
X90975000Y-68475000D01*
X90975000Y-68455000D01*
X91025000Y-68455000D01*
X91025000Y-68475000D01*
X92725000Y-68475000D01*
X92725000Y-68455000D01*
X92775000Y-68455000D01*
X92775000Y-68475000D01*
X94475000Y-68475000D01*
X94475000Y-68455000D01*
X94525000Y-68455000D01*
X94525000Y-68475000D01*
X95625000Y-68475000D01*
X95775000Y-68325000D01*
X95777903Y-67825000D01*
X95766318Y-67707379D01*
X95733745Y-67600000D01*
X97400000Y-67600000D01*
X97400000Y-72900000D01*
X95733745Y-72900000D01*
X95766318Y-72792621D01*
X95777903Y-72675000D01*
X95775000Y-72175000D01*
X95625000Y-72025000D01*
X94525000Y-72025000D01*
X94525000Y-72045000D01*
X94475000Y-72045000D01*
X94475000Y-72025000D01*
X92775000Y-72025000D01*
X92775000Y-72045000D01*
X92725000Y-72045000D01*
X92725000Y-72025000D01*
X91025000Y-72025000D01*
X91025000Y-72045000D01*
X90975000Y-72045000D01*
X90975000Y-72025000D01*
X89875000Y-72025000D01*
X89725000Y-72175000D01*
X89722097Y-72675000D01*
X89733682Y-72792621D01*
X89766255Y-72900000D01*
X87600000Y-72900000D01*
X87600000Y-70925000D01*
X89722097Y-70925000D01*
X89733682Y-71042621D01*
X89758671Y-71125000D01*
X89733682Y-71207379D01*
X89722097Y-71325000D01*
X89725000Y-71825000D01*
X89875000Y-71975000D01*
X90975000Y-71975000D01*
X90975000Y-70275000D01*
X91025000Y-70275000D01*
X91025000Y-71975000D01*
X92725000Y-71975000D01*
X92725000Y-70275000D01*
X92775000Y-70275000D01*
X92775000Y-71975000D01*
X94475000Y-71975000D01*
X94475000Y-70275000D01*
X94525000Y-70275000D01*
X94525000Y-71975000D01*
X95625000Y-71975000D01*
X95775000Y-71825000D01*
X95777903Y-71325000D01*
X95766318Y-71207379D01*
X95741329Y-71125000D01*
X95766318Y-71042621D01*
X95777903Y-70925000D01*
X95775000Y-70425000D01*
X95625000Y-70275000D01*
X94525000Y-70275000D01*
X94475000Y-70275000D01*
X92775000Y-70275000D01*
X92725000Y-70275000D01*
X91025000Y-70275000D01*
X90975000Y-70275000D01*
X89875000Y-70275000D01*
X89725000Y-70425000D01*
X89722097Y-70925000D01*
X87600000Y-70925000D01*
X87600000Y-69175000D01*
X89722097Y-69175000D01*
X89733682Y-69292621D01*
X89758671Y-69375000D01*
X89733682Y-69457379D01*
X89722097Y-69575000D01*
X89725000Y-70075000D01*
X89875000Y-70225000D01*
X90975000Y-70225000D01*
X90975000Y-68525000D01*
X91025000Y-68525000D01*
X91025000Y-70225000D01*
X92725000Y-70225000D01*
X92725000Y-68525000D01*
X92775000Y-68525000D01*
X92775000Y-70225000D01*
X94475000Y-70225000D01*
X94475000Y-68525000D01*
X94525000Y-68525000D01*
X94525000Y-70225000D01*
X95625000Y-70225000D01*
X95775000Y-70075000D01*
X95777903Y-69575000D01*
X95766318Y-69457379D01*
X95741329Y-69375000D01*
X95766318Y-69292621D01*
X95777903Y-69175000D01*
X95775000Y-68675000D01*
X95625000Y-68525000D01*
X94525000Y-68525000D01*
X94475000Y-68525000D01*
X92775000Y-68525000D01*
X92725000Y-68525000D01*
X91025000Y-68525000D01*
X90975000Y-68525000D01*
X89875000Y-68525000D01*
X89725000Y-68675000D01*
X89722097Y-69175000D01*
X87600000Y-69175000D01*
X87600000Y-67600000D01*
X89766255Y-67600000D01*
X89733682Y-67707379D01*
X89733682Y-67707379D01*
G37*
X89733682Y-67707379D02*
X89722097Y-67825000D01*
X89725000Y-68325000D01*
X89875000Y-68475000D01*
X90975000Y-68475000D01*
X90975000Y-68455000D01*
X91025000Y-68455000D01*
X91025000Y-68475000D01*
X92725000Y-68475000D01*
X92725000Y-68455000D01*
X92775000Y-68455000D01*
X92775000Y-68475000D01*
X94475000Y-68475000D01*
X94475000Y-68455000D01*
X94525000Y-68455000D01*
X94525000Y-68475000D01*
X95625000Y-68475000D01*
X95775000Y-68325000D01*
X95777903Y-67825000D01*
X95766318Y-67707379D01*
X95733745Y-67600000D01*
X97400000Y-67600000D01*
X97400000Y-72900000D01*
X95733745Y-72900000D01*
X95766318Y-72792621D01*
X95777903Y-72675000D01*
X95775000Y-72175000D01*
X95625000Y-72025000D01*
X94525000Y-72025000D01*
X94525000Y-72045000D01*
X94475000Y-72045000D01*
X94475000Y-72025000D01*
X92775000Y-72025000D01*
X92775000Y-72045000D01*
X92725000Y-72045000D01*
X92725000Y-72025000D01*
X91025000Y-72025000D01*
X91025000Y-72045000D01*
X90975000Y-72045000D01*
X90975000Y-72025000D01*
X89875000Y-72025000D01*
X89725000Y-72175000D01*
X89722097Y-72675000D01*
X89733682Y-72792621D01*
X89766255Y-72900000D01*
X87600000Y-72900000D01*
X87600000Y-70925000D01*
X89722097Y-70925000D01*
X89733682Y-71042621D01*
X89758671Y-71125000D01*
X89733682Y-71207379D01*
X89722097Y-71325000D01*
X89725000Y-71825000D01*
X89875000Y-71975000D01*
X90975000Y-71975000D01*
X90975000Y-70275000D01*
X91025000Y-70275000D01*
X91025000Y-71975000D01*
X92725000Y-71975000D01*
X92725000Y-70275000D01*
X92775000Y-70275000D01*
X92775000Y-71975000D01*
X94475000Y-71975000D01*
X94475000Y-70275000D01*
X94525000Y-70275000D01*
X94525000Y-71975000D01*
X95625000Y-71975000D01*
X95775000Y-71825000D01*
X95777903Y-71325000D01*
X95766318Y-71207379D01*
X95741329Y-71125000D01*
X95766318Y-71042621D01*
X95777903Y-70925000D01*
X95775000Y-70425000D01*
X95625000Y-70275000D01*
X94525000Y-70275000D01*
X94475000Y-70275000D01*
X92775000Y-70275000D01*
X92725000Y-70275000D01*
X91025000Y-70275000D01*
X90975000Y-70275000D01*
X89875000Y-70275000D01*
X89725000Y-70425000D01*
X89722097Y-70925000D01*
X87600000Y-70925000D01*
X87600000Y-69175000D01*
X89722097Y-69175000D01*
X89733682Y-69292621D01*
X89758671Y-69375000D01*
X89733682Y-69457379D01*
X89722097Y-69575000D01*
X89725000Y-70075000D01*
X89875000Y-70225000D01*
X90975000Y-70225000D01*
X90975000Y-68525000D01*
X91025000Y-68525000D01*
X91025000Y-70225000D01*
X92725000Y-70225000D01*
X92725000Y-68525000D01*
X92775000Y-68525000D01*
X92775000Y-70225000D01*
X94475000Y-70225000D01*
X94475000Y-68525000D01*
X94525000Y-68525000D01*
X94525000Y-70225000D01*
X95625000Y-70225000D01*
X95775000Y-70075000D01*
X95777903Y-69575000D01*
X95766318Y-69457379D01*
X95741329Y-69375000D01*
X95766318Y-69292621D01*
X95777903Y-69175000D01*
X95775000Y-68675000D01*
X95625000Y-68525000D01*
X94525000Y-68525000D01*
X94475000Y-68525000D01*
X92775000Y-68525000D01*
X92725000Y-68525000D01*
X91025000Y-68525000D01*
X90975000Y-68525000D01*
X89875000Y-68525000D01*
X89725000Y-68675000D01*
X89722097Y-69175000D01*
X87600000Y-69175000D01*
X87600000Y-67600000D01*
X89766255Y-67600000D01*
X89733682Y-67707379D01*
G36*
X131275000Y-66475000D02*
G01*
X131295000Y-66475000D01*
X131295000Y-66525000D01*
X131275000Y-66525000D01*
X131275000Y-67575000D01*
X131550000Y-67850000D01*
X131851488Y-67855072D01*
X132067528Y-67838425D01*
X132276170Y-67779951D01*
X132469395Y-67681896D01*
X132488313Y-67667033D01*
X132578421Y-67789421D01*
X132738461Y-67935496D01*
X132923924Y-68047541D01*
X133127682Y-68121251D01*
X133300000Y-68150000D01*
X133575000Y-67875000D01*
X133575000Y-66675000D01*
X133555000Y-66675000D01*
X133555000Y-66625000D01*
X133575000Y-66625000D01*
X133575000Y-66605000D01*
X133625000Y-66605000D01*
X133625000Y-66625000D01*
X133698307Y-66625000D01*
X133698307Y-66675000D01*
X133625000Y-66675000D01*
X133625000Y-66925000D01*
X133600000Y-66950000D01*
X133596206Y-66991906D01*
X133606081Y-67208361D01*
X133625000Y-67285026D01*
X133625000Y-67875000D01*
X133775000Y-68025000D01*
X133775001Y-68900000D01*
X130350000Y-68900000D01*
X130350000Y-67815311D01*
X130432472Y-67838425D01*
X130648512Y-67855072D01*
X130950000Y-67850000D01*
X131225000Y-67575000D01*
X131225000Y-66525000D01*
X131205000Y-66525000D01*
X131205000Y-66475000D01*
X131225000Y-66475000D01*
X131225000Y-66455000D01*
X131275000Y-66455000D01*
X131275000Y-66475000D01*
X131275000Y-66475000D01*
G37*
X131275000Y-66475000D02*
X131295000Y-66475000D01*
X131295000Y-66525000D01*
X131275000Y-66525000D01*
X131275000Y-67575000D01*
X131550000Y-67850000D01*
X131851488Y-67855072D01*
X132067528Y-67838425D01*
X132276170Y-67779951D01*
X132469395Y-67681896D01*
X132488313Y-67667033D01*
X132578421Y-67789421D01*
X132738461Y-67935496D01*
X132923924Y-68047541D01*
X133127682Y-68121251D01*
X133300000Y-68150000D01*
X133575000Y-67875000D01*
X133575000Y-66675000D01*
X133555000Y-66675000D01*
X133555000Y-66625000D01*
X133575000Y-66625000D01*
X133575000Y-66605000D01*
X133625000Y-66605000D01*
X133625000Y-66625000D01*
X133698307Y-66625000D01*
X133698307Y-66675000D01*
X133625000Y-66675000D01*
X133625000Y-66925000D01*
X133600000Y-66950000D01*
X133596206Y-66991906D01*
X133606081Y-67208361D01*
X133625000Y-67285026D01*
X133625000Y-67875000D01*
X133775000Y-68025000D01*
X133775001Y-68900000D01*
X130350000Y-68900000D01*
X130350000Y-67815311D01*
X130432472Y-67838425D01*
X130648512Y-67855072D01*
X130950000Y-67850000D01*
X131225000Y-67575000D01*
X131225000Y-66525000D01*
X131205000Y-66525000D01*
X131205000Y-66475000D01*
X131225000Y-66475000D01*
X131225000Y-66455000D01*
X131275000Y-66455000D01*
X131275000Y-66475000D01*
G36*
X134925000Y-66625000D02*
G01*
X134945000Y-66625000D01*
X134945000Y-66675000D01*
X134925000Y-66675000D01*
X134925000Y-67875000D01*
X135200000Y-68150000D01*
X135372318Y-68121251D01*
X135576076Y-68047541D01*
X135761539Y-67935496D01*
X135921579Y-67789421D01*
X136050047Y-67614931D01*
X136142005Y-67418732D01*
X136150000Y-67386334D01*
X136150000Y-68900000D01*
X134725000Y-68900000D01*
X134725000Y-68025000D01*
X134875000Y-67875000D01*
X134875000Y-67285026D01*
X134893919Y-67208361D01*
X134903794Y-66991906D01*
X134900000Y-66950000D01*
X134875000Y-66925000D01*
X134875000Y-66675000D01*
X134801693Y-66675000D01*
X134801693Y-66625000D01*
X134875000Y-66625000D01*
X134875000Y-66605000D01*
X134925000Y-66605000D01*
X134925000Y-66625000D01*
X134925000Y-66625000D01*
G37*
X134925000Y-66625000D02*
X134945000Y-66625000D01*
X134945000Y-66675000D01*
X134925000Y-66675000D01*
X134925000Y-67875000D01*
X135200000Y-68150000D01*
X135372318Y-68121251D01*
X135576076Y-68047541D01*
X135761539Y-67935496D01*
X135921579Y-67789421D01*
X136050047Y-67614931D01*
X136142005Y-67418732D01*
X136150000Y-67386334D01*
X136150000Y-68900000D01*
X134725000Y-68900000D01*
X134725000Y-68025000D01*
X134875000Y-67875000D01*
X134875000Y-67285026D01*
X134893919Y-67208361D01*
X134903794Y-66991906D01*
X134900000Y-66950000D01*
X134875000Y-66925000D01*
X134875000Y-66675000D01*
X134801693Y-66675000D01*
X134801693Y-66625000D01*
X134875000Y-66625000D01*
X134875000Y-66605000D01*
X134925000Y-66605000D01*
X134925000Y-66625000D01*
M02*
