G04 #@! TF.GenerationSoftware,KiCad,Pcbnew,(5.1.2-1)-1*
G04 #@! TF.CreationDate,2020-09-08T18:19:47+03:00*
G04 #@! TF.ProjectId,UAK_0,55414b5f-302e-46b6-9963-61645f706362,rev?*
G04 #@! TF.SameCoordinates,Original*
G04 #@! TF.FileFunction,Legend,Top*
G04 #@! TF.FilePolarity,Positive*
%FSLAX46Y46*%
G04 Gerber Fmt 4.6, Leading zero omitted, Abs format (unit mm)*
G04 Created by KiCad (PCBNEW (5.1.2-1)-1) date 2020-09-08 18:19:47*
%MOMM*%
%LPD*%
G04 APERTURE LIST*
%ADD10C,0.150000*%
G04 APERTURE END LIST*
D10*
X160350000Y-73600000D02*
X160350000Y-76400000D01*
X167150000Y-73600000D02*
X167150000Y-76400000D01*
X163000000Y-75500000D02*
X163000000Y-74500000D01*
X164500000Y-75500000D02*
X163000000Y-75500000D01*
X164500000Y-74500000D02*
X164500000Y-75500000D01*
X163000000Y-74500000D02*
X164500000Y-74500000D01*
X162500000Y-75000000D02*
X165000000Y-75000000D01*
X160350000Y-72600000D02*
X161350000Y-72600000D01*
X160350000Y-72600000D02*
X160350000Y-73600000D01*
X160350000Y-77400000D02*
X160350000Y-76400000D01*
X160350000Y-77400000D02*
X161350000Y-77400000D01*
X167150000Y-77400000D02*
X167150000Y-76400000D01*
X167150000Y-77400000D02*
X166150000Y-77400000D01*
X167150000Y-72600000D02*
X167150000Y-73600000D01*
X167150000Y-72600000D02*
X166150000Y-72600000D01*
X167250000Y-139250000D02*
X167250000Y-138250000D01*
X167250000Y-139250000D02*
X166250000Y-139250000D01*
X82750000Y-139250000D02*
X83750000Y-139250000D01*
X82750000Y-139250000D02*
X82750000Y-138250000D01*
X82750000Y-94750000D02*
X82750000Y-95750000D01*
X82750000Y-94750000D02*
X83750000Y-94750000D01*
X167250000Y-94750000D02*
X167250000Y-95750000D01*
X167250000Y-94750000D02*
X166250000Y-94750000D01*
X153670000Y-67990000D02*
X153670000Y-69450000D01*
X156830000Y-67990000D02*
X156830000Y-69450000D01*
X153670000Y-67990000D02*
X154600000Y-67990000D01*
X156830000Y-67990000D02*
X155900000Y-67990000D01*
X155500000Y-78250000D02*
X155000000Y-77750000D01*
X155500000Y-78250000D02*
X156000000Y-78750000D01*
X158000000Y-79500000D02*
X158000000Y-77000000D01*
X153000000Y-79500000D02*
X153000000Y-77000000D01*
X153000000Y-77000000D02*
X153750000Y-77000000D01*
X153750000Y-79500000D02*
X153000000Y-79500000D01*
X158000000Y-77000000D02*
X157250000Y-77000000D01*
X157250000Y-79500000D02*
X158000000Y-79500000D01*
X150350000Y-69800000D02*
X150350000Y-69300000D01*
X152150000Y-69800000D02*
X152150000Y-69300000D01*
X152150000Y-69800000D02*
X150350000Y-69800000D01*
X150350000Y-67000000D02*
X150350000Y-67500000D01*
X152150000Y-67000000D02*
X150350000Y-67000000D01*
X152150000Y-67000000D02*
X152150000Y-67500000D01*
X156800000Y-73900000D02*
X156300000Y-73900000D01*
X156800000Y-72100000D02*
X156300000Y-72100000D01*
X156800000Y-72100000D02*
X156800000Y-73900000D01*
X154000000Y-73900000D02*
X154500000Y-73900000D01*
X154000000Y-72100000D02*
X154000000Y-73900000D01*
X154000000Y-72100000D02*
X154500000Y-72100000D01*
X150350000Y-74050000D02*
X150350000Y-73550000D01*
X152150000Y-74050000D02*
X152150000Y-73550000D01*
X152150000Y-74050000D02*
X150350000Y-74050000D01*
X150350000Y-71250000D02*
X150350000Y-71750000D01*
X152150000Y-71250000D02*
X150350000Y-71250000D01*
X152150000Y-71250000D02*
X152150000Y-71750000D01*
X158500000Y-84500000D02*
X157400000Y-84500000D01*
X158500000Y-80500000D02*
X158500000Y-84500000D01*
X152500000Y-80500000D02*
X152500000Y-84500000D01*
X152500000Y-80500000D02*
X153600000Y-80500000D01*
X152500000Y-84500000D02*
X153600000Y-84500000D01*
X158500000Y-80500000D02*
X157400000Y-80500000D01*
X155750000Y-81500000D02*
X155750000Y-83500000D01*
X155250000Y-81500000D02*
X155250000Y-83500000D01*
X155750000Y-82500000D02*
X156000000Y-82500000D01*
X155250000Y-82500000D02*
X155000000Y-82500000D01*
X119750000Y-117500000D02*
X115000000Y-117500000D01*
X115250000Y-121000000D02*
X115750000Y-121500000D01*
X119750000Y-121500000D02*
X115750000Y-121500000D01*
X85250000Y-124250000D02*
X90000000Y-124250000D01*
X89750000Y-120750000D02*
X89250000Y-120250000D01*
X85250000Y-120250000D02*
X89250000Y-120250000D01*
X140350000Y-67050000D02*
X140350000Y-66550000D01*
X142150000Y-67050000D02*
X142150000Y-66550000D01*
X142150000Y-67050000D02*
X140350000Y-67050000D01*
X140350000Y-64250000D02*
X140350000Y-64750000D01*
X142150000Y-64250000D02*
X140350000Y-64250000D01*
X142150000Y-64250000D02*
X142150000Y-64750000D01*
X137850000Y-67050000D02*
X137850000Y-66550000D01*
X139650000Y-67050000D02*
X139650000Y-66550000D01*
X139650000Y-67050000D02*
X137850000Y-67050000D01*
X137850000Y-64250000D02*
X137850000Y-64750000D01*
X139650000Y-64250000D02*
X137850000Y-64250000D01*
X139650000Y-64250000D02*
X139650000Y-64750000D01*
X133600000Y-67250000D02*
X133350000Y-67500000D01*
X135500000Y-64700000D02*
X135500000Y-66300000D01*
X135500000Y-66300000D02*
X135250000Y-66300000D01*
X135250000Y-64700000D02*
X135500000Y-64700000D01*
X133000000Y-64700000D02*
X133250000Y-64700000D01*
X133000000Y-66300000D02*
X133000000Y-64700000D01*
X133250000Y-66300000D02*
X133000000Y-66300000D01*
X133850000Y-67500000D02*
X133350000Y-67500000D01*
X133600000Y-67250000D02*
X133850000Y-67500000D01*
X133600000Y-67250000D02*
X133600000Y-67500000D01*
X142850000Y-67050000D02*
X142850000Y-66550000D01*
X144650000Y-67050000D02*
X144650000Y-66550000D01*
X144650000Y-67050000D02*
X142850000Y-67050000D01*
X142850000Y-64250000D02*
X142850000Y-64750000D01*
X144650000Y-64250000D02*
X142850000Y-64250000D01*
X144650000Y-64250000D02*
X144650000Y-64750000D01*
X138000000Y-59000000D02*
X138000000Y-60500000D01*
X138000000Y-62000000D02*
X147000000Y-62000000D01*
X138000000Y-62000000D02*
X138000000Y-61250000D01*
X138000000Y-57500000D02*
X138000000Y-58250000D01*
X138000000Y-57500000D02*
X147000000Y-57500000D01*
X143250000Y-59750000D02*
X143500000Y-59750000D01*
X142750000Y-59750000D02*
X142500000Y-59750000D01*
X143250000Y-59000000D02*
X143250000Y-60500000D01*
X142750000Y-59000000D02*
X142750000Y-60500000D01*
X130350000Y-67050000D02*
X130350000Y-66550000D01*
X132150000Y-67050000D02*
X132150000Y-66550000D01*
X132150000Y-67050000D02*
X130350000Y-67050000D01*
X130350000Y-64250000D02*
X130350000Y-64750000D01*
X132150000Y-64250000D02*
X130350000Y-64250000D01*
X132150000Y-64250000D02*
X132150000Y-64750000D01*
X133420000Y-89740000D02*
X133420000Y-91200000D01*
X136580000Y-89740000D02*
X136580000Y-91200000D01*
X133420000Y-89740000D02*
X134350000Y-89740000D01*
X136580000Y-89740000D02*
X135650000Y-89740000D01*
X144920000Y-67990000D02*
X144920000Y-69450000D01*
X148080000Y-67990000D02*
X148080000Y-69450000D01*
X144920000Y-67990000D02*
X145850000Y-67990000D01*
X148080000Y-67990000D02*
X147150000Y-67990000D01*
X135920000Y-130490000D02*
X135920000Y-131950000D01*
X139080000Y-130490000D02*
X139080000Y-131950000D01*
X135920000Y-130490000D02*
X136850000Y-130490000D01*
X139080000Y-130490000D02*
X138150000Y-130490000D01*
X140000000Y-90500000D02*
X140000000Y-95250000D01*
X143500000Y-95000000D02*
X144000000Y-94500000D01*
X144000000Y-90500000D02*
X144000000Y-94500000D01*
X159000000Y-57750000D02*
X154250000Y-57750000D01*
X154500000Y-61250000D02*
X155000000Y-61750000D01*
X159000000Y-61750000D02*
X155000000Y-61750000D01*
X130600000Y-60300000D02*
X130600000Y-59800000D01*
X132400000Y-60300000D02*
X132400000Y-59800000D01*
X132400000Y-60300000D02*
X130600000Y-60300000D01*
X130600000Y-57500000D02*
X130600000Y-58000000D01*
X132400000Y-57500000D02*
X130600000Y-57500000D01*
X132400000Y-57500000D02*
X132400000Y-58000000D01*
X128100000Y-60300000D02*
X128100000Y-59800000D01*
X129900000Y-60300000D02*
X129900000Y-59800000D01*
X129900000Y-60300000D02*
X128100000Y-60300000D01*
X128100000Y-57500000D02*
X128100000Y-58000000D01*
X129900000Y-57500000D02*
X128100000Y-57500000D01*
X129900000Y-57500000D02*
X129900000Y-58000000D01*
X136550000Y-95650000D02*
X136050000Y-95650000D01*
X136550000Y-93850000D02*
X136050000Y-93850000D01*
X136550000Y-93850000D02*
X136550000Y-95650000D01*
X133750000Y-95650000D02*
X134250000Y-95650000D01*
X133750000Y-93850000D02*
X133750000Y-95650000D01*
X133750000Y-93850000D02*
X134250000Y-93850000D01*
X148050000Y-73900000D02*
X147550000Y-73900000D01*
X148050000Y-72100000D02*
X147550000Y-72100000D01*
X148050000Y-72100000D02*
X148050000Y-73900000D01*
X145250000Y-73900000D02*
X145750000Y-73900000D01*
X145250000Y-72100000D02*
X145250000Y-73900000D01*
X145250000Y-72100000D02*
X145750000Y-72100000D01*
X139050000Y-136400000D02*
X138550000Y-136400000D01*
X139050000Y-134600000D02*
X138550000Y-134600000D01*
X139050000Y-134600000D02*
X139050000Y-136400000D01*
X136250000Y-136400000D02*
X136750000Y-136400000D01*
X136250000Y-134600000D02*
X136250000Y-136400000D01*
X136250000Y-134600000D02*
X136750000Y-134600000D01*
X131900000Y-89450000D02*
X131900000Y-89950000D01*
X130100000Y-89450000D02*
X130100000Y-89950000D01*
X130100000Y-89450000D02*
X131900000Y-89450000D01*
X131900000Y-92250000D02*
X131900000Y-91750000D01*
X130100000Y-92250000D02*
X131900000Y-92250000D01*
X130100000Y-92250000D02*
X130100000Y-91750000D01*
X141600000Y-74050000D02*
X141600000Y-73550000D01*
X143400000Y-74050000D02*
X143400000Y-73550000D01*
X143400000Y-74050000D02*
X141600000Y-74050000D01*
X141600000Y-71250000D02*
X141600000Y-71750000D01*
X143400000Y-71250000D02*
X141600000Y-71250000D01*
X143400000Y-71250000D02*
X143400000Y-71750000D01*
X134400000Y-130200000D02*
X134400000Y-130700000D01*
X132600000Y-130200000D02*
X132600000Y-130700000D01*
X132600000Y-130200000D02*
X134400000Y-130200000D01*
X134400000Y-133000000D02*
X134400000Y-132500000D01*
X132600000Y-133000000D02*
X134400000Y-133000000D01*
X132600000Y-133000000D02*
X132600000Y-132500000D01*
X133100000Y-60300000D02*
X133100000Y-59800000D01*
X134900000Y-60300000D02*
X134900000Y-59800000D01*
X134900000Y-60300000D02*
X133100000Y-60300000D01*
X133100000Y-57500000D02*
X133100000Y-58000000D01*
X134900000Y-57500000D02*
X133100000Y-57500000D01*
X134900000Y-57500000D02*
X134900000Y-58000000D01*
X105050000Y-54400000D02*
X104550000Y-54400000D01*
X105050000Y-52600000D02*
X104550000Y-52600000D01*
X105050000Y-52600000D02*
X105050000Y-54400000D01*
X102250000Y-54400000D02*
X102750000Y-54400000D01*
X102250000Y-52600000D02*
X102250000Y-54400000D01*
X102250000Y-52600000D02*
X102750000Y-52600000D01*
X95550000Y-88150000D02*
X95050000Y-88150000D01*
X95550000Y-86350000D02*
X95050000Y-86350000D01*
X95550000Y-86350000D02*
X95550000Y-88150000D01*
X92750000Y-88150000D02*
X93250000Y-88150000D01*
X92750000Y-86350000D02*
X92750000Y-88150000D01*
X92750000Y-86350000D02*
X93250000Y-86350000D01*
X87330000Y-91260000D02*
X87330000Y-89800000D01*
X84170000Y-91260000D02*
X84170000Y-89800000D01*
X87330000Y-91260000D02*
X86400000Y-91260000D01*
X84170000Y-91260000D02*
X85100000Y-91260000D01*
X101050000Y-54400000D02*
X100550000Y-54400000D01*
X101050000Y-52600000D02*
X100550000Y-52600000D01*
X101050000Y-52600000D02*
X101050000Y-54400000D01*
X98250000Y-54400000D02*
X98750000Y-54400000D01*
X98250000Y-52600000D02*
X98250000Y-54400000D01*
X98250000Y-52600000D02*
X98750000Y-52600000D01*
X92700000Y-83600000D02*
X93200000Y-83600000D01*
X92700000Y-85400000D02*
X93200000Y-85400000D01*
X92700000Y-85400000D02*
X92700000Y-83600000D01*
X95500000Y-83600000D02*
X95000000Y-83600000D01*
X95500000Y-85400000D02*
X95500000Y-83600000D01*
X95500000Y-85400000D02*
X95000000Y-85400000D01*
X101050000Y-57400000D02*
X100550000Y-57400000D01*
X101050000Y-55600000D02*
X100550000Y-55600000D01*
X101050000Y-55600000D02*
X101050000Y-57400000D01*
X98250000Y-57400000D02*
X98750000Y-57400000D01*
X98250000Y-55600000D02*
X98250000Y-57400000D01*
X98250000Y-55600000D02*
X98750000Y-55600000D01*
X91300000Y-85400000D02*
X90800000Y-85400000D01*
X91300000Y-83600000D02*
X90800000Y-83600000D01*
X91300000Y-83600000D02*
X91300000Y-85400000D01*
X88500000Y-85400000D02*
X89000000Y-85400000D01*
X88500000Y-83600000D02*
X88500000Y-85400000D01*
X88500000Y-83600000D02*
X89000000Y-83600000D01*
X108800000Y-97150000D02*
X108300000Y-97150000D01*
X108800000Y-95350000D02*
X108300000Y-95350000D01*
X108800000Y-95350000D02*
X108800000Y-97150000D01*
X106000000Y-97150000D02*
X106500000Y-97150000D01*
X106000000Y-95350000D02*
X106000000Y-97150000D01*
X106000000Y-95350000D02*
X106500000Y-95350000D01*
X105550000Y-97150000D02*
X105050000Y-97150000D01*
X105550000Y-95350000D02*
X105050000Y-95350000D01*
X105550000Y-95350000D02*
X105550000Y-97150000D01*
X102750000Y-97150000D02*
X103250000Y-97150000D01*
X102750000Y-95350000D02*
X102750000Y-97150000D01*
X102750000Y-95350000D02*
X103250000Y-95350000D01*
X109100000Y-102300000D02*
X109100000Y-101800000D01*
X110900000Y-102300000D02*
X110900000Y-101800000D01*
X110900000Y-102300000D02*
X109100000Y-102300000D01*
X109100000Y-99500000D02*
X109100000Y-100000000D01*
X110900000Y-99500000D02*
X109100000Y-99500000D01*
X110900000Y-99500000D02*
X110900000Y-100000000D01*
X108650000Y-103700000D02*
X108650000Y-104200000D01*
X106850000Y-103700000D02*
X106850000Y-104200000D01*
X106850000Y-103700000D02*
X108650000Y-103700000D01*
X108650000Y-106500000D02*
X108650000Y-106000000D01*
X106850000Y-106500000D02*
X108650000Y-106500000D01*
X106850000Y-106500000D02*
X106850000Y-106000000D01*
X94500000Y-98250000D02*
X94500000Y-99250000D01*
X94500000Y-98250000D02*
X100500000Y-98250000D01*
X100500000Y-98250000D02*
X100500000Y-99250000D01*
X100500000Y-105750000D02*
X94500000Y-105750000D01*
X94500000Y-105750000D02*
X94500000Y-104750000D01*
X97850000Y-101900000D02*
G75*
G03X98050000Y-102100000I200000J0D01*
G01*
X98050000Y-102100000D02*
G75*
G03X98250000Y-101900000I0J200000D01*
G01*
X100500000Y-105750000D02*
X100500000Y-104750000D01*
X96650000Y-101900000D02*
G75*
G03X96850000Y-102100000I200000J0D01*
G01*
X96850000Y-102100000D02*
G75*
G03X97050000Y-101900000I0J200000D01*
G01*
X97050000Y-101900000D02*
G75*
G03X97250000Y-102100000I200000J0D01*
G01*
X97250000Y-102100000D02*
G75*
G03X97450000Y-101900000I0J200000D01*
G01*
X97650000Y-102100000D02*
G75*
G03X97850000Y-101900000I0J200000D01*
G01*
X97450000Y-101900000D02*
G75*
G03X97650000Y-102100000I200000J0D01*
G01*
X83500000Y-105750000D02*
X83500000Y-110750000D01*
X76500000Y-105750000D02*
X76500000Y-110750000D01*
X77500000Y-102250000D02*
X77500000Y-103750000D01*
X82500000Y-103750000D02*
X82500000Y-102250000D01*
X77500000Y-102250000D02*
X82500000Y-102250000D01*
X167150000Y-86400000D02*
X167150000Y-83600000D01*
X160350000Y-86400000D02*
X160350000Y-83600000D01*
X164500000Y-84500000D02*
X164500000Y-85500000D01*
X163000000Y-84500000D02*
X164500000Y-84500000D01*
X163000000Y-85500000D02*
X163000000Y-84500000D01*
X164500000Y-85500000D02*
X163000000Y-85500000D01*
X165000000Y-85000000D02*
X162500000Y-85000000D01*
X167150000Y-87400000D02*
X166150000Y-87400000D01*
X167150000Y-87400000D02*
X167150000Y-86400000D01*
X167150000Y-82600000D02*
X167150000Y-83600000D01*
X167150000Y-82600000D02*
X166150000Y-82600000D01*
X160350000Y-82600000D02*
X160350000Y-83600000D01*
X160350000Y-82600000D02*
X161350000Y-82600000D01*
X160350000Y-87400000D02*
X160350000Y-86400000D01*
X160350000Y-87400000D02*
X161350000Y-87400000D01*
X102250000Y-106300000D02*
X101450000Y-106300000D01*
X101850000Y-105800000D02*
X102250000Y-106300000D01*
X101850000Y-105800000D02*
X101450000Y-106300000D01*
X101050000Y-103850000D02*
X101050000Y-102850000D01*
X101250000Y-103850000D02*
X101050000Y-103850000D01*
X101050000Y-99650000D02*
X101050000Y-100650000D01*
X101250000Y-99650000D02*
X101050000Y-99650000D01*
X106450000Y-99650000D02*
X106450000Y-100650000D01*
X106250000Y-99650000D02*
X106450000Y-99650000D01*
X106450000Y-103850000D02*
X106450000Y-102850000D01*
X106250000Y-103850000D02*
X106450000Y-103850000D01*
X84450000Y-83600000D02*
X84950000Y-83600000D01*
X84450000Y-85400000D02*
X84950000Y-85400000D01*
X84450000Y-85400000D02*
X84450000Y-83600000D01*
X87250000Y-83600000D02*
X86750000Y-83600000D01*
X87250000Y-85400000D02*
X87250000Y-83600000D01*
X87250000Y-85400000D02*
X86750000Y-85400000D01*
X101050000Y-95650000D02*
X100550000Y-95650000D01*
X101050000Y-93850000D02*
X100550000Y-93850000D01*
X101050000Y-93850000D02*
X101050000Y-95650000D01*
X98250000Y-95650000D02*
X98750000Y-95650000D01*
X98250000Y-93850000D02*
X98250000Y-95650000D01*
X98250000Y-93850000D02*
X98750000Y-93850000D01*
X104050000Y-119900000D02*
X103550000Y-119900000D01*
X104050000Y-118100000D02*
X103550000Y-118100000D01*
X104050000Y-118100000D02*
X104050000Y-119900000D01*
X101250000Y-119900000D02*
X101750000Y-119900000D01*
X101250000Y-118100000D02*
X101250000Y-119900000D01*
X101250000Y-118100000D02*
X101750000Y-118100000D01*
X81350000Y-116300000D02*
X81350000Y-115800000D01*
X83150000Y-116300000D02*
X83150000Y-115800000D01*
X83150000Y-116300000D02*
X81350000Y-116300000D01*
X81350000Y-113500000D02*
X81350000Y-114000000D01*
X83150000Y-113500000D02*
X81350000Y-113500000D01*
X83150000Y-113500000D02*
X83150000Y-114000000D01*
X111600000Y-126050000D02*
X111600000Y-125550000D01*
X113400000Y-126050000D02*
X113400000Y-125550000D01*
X113400000Y-126050000D02*
X111600000Y-126050000D01*
X111600000Y-123250000D02*
X111600000Y-123750000D01*
X113400000Y-123250000D02*
X111600000Y-123250000D01*
X113400000Y-123250000D02*
X113400000Y-123750000D01*
X104300000Y-109900000D02*
X103800000Y-109900000D01*
X104300000Y-108100000D02*
X103800000Y-108100000D01*
X104300000Y-108100000D02*
X104300000Y-109900000D01*
X101500000Y-109900000D02*
X102000000Y-109900000D01*
X101500000Y-108100000D02*
X101500000Y-109900000D01*
X101500000Y-108100000D02*
X102000000Y-108100000D01*
X172500000Y-114500000D02*
X172500000Y-115600000D01*
X168500000Y-114500000D02*
X172500000Y-114500000D01*
X168500000Y-120500000D02*
X172500000Y-120500000D01*
X168500000Y-120500000D02*
X168500000Y-119400000D01*
X172500000Y-120500000D02*
X172500000Y-119400000D01*
X168500000Y-114500000D02*
X168500000Y-115600000D01*
X169500000Y-117250000D02*
X171500000Y-117250000D01*
X169500000Y-117750000D02*
X171500000Y-117750000D01*
X170500000Y-117250000D02*
X170500000Y-117000000D01*
X170500000Y-117750000D02*
X170500000Y-118000000D01*
X109100000Y-106550000D02*
X109100000Y-106050000D01*
X110900000Y-106550000D02*
X110900000Y-106050000D01*
X110900000Y-106550000D02*
X109100000Y-106550000D01*
X109100000Y-103750000D02*
X109100000Y-104250000D01*
X110900000Y-103750000D02*
X109100000Y-103750000D01*
X110900000Y-103750000D02*
X110900000Y-104250000D01*
X110300000Y-109900000D02*
X109800000Y-109900000D01*
X110300000Y-108100000D02*
X109800000Y-108100000D01*
X110300000Y-108100000D02*
X110300000Y-109900000D01*
X107500000Y-109900000D02*
X108000000Y-109900000D01*
X107500000Y-108100000D02*
X107500000Y-109900000D01*
X107500000Y-108100000D02*
X108000000Y-108100000D01*
X107100000Y-101550000D02*
X107100000Y-101050000D01*
X108900000Y-101550000D02*
X108900000Y-101050000D01*
X108900000Y-101550000D02*
X107100000Y-101550000D01*
X107100000Y-98750000D02*
X107100000Y-99250000D01*
X108900000Y-98750000D02*
X107100000Y-98750000D01*
X108900000Y-98750000D02*
X108900000Y-99250000D01*
X109500000Y-60000000D02*
X109500000Y-60500000D01*
X109500000Y-60000000D02*
X109000000Y-60000000D01*
X109500000Y-78500000D02*
X109500000Y-78000000D01*
X109500000Y-78500000D02*
X109000000Y-78500000D01*
X78000001Y-67250001D02*
G75*
G02X83999999Y-67250001I2999999J-2999999D01*
G01*
X78500001Y-67750001D02*
G75*
G02X83499999Y-67750001I2499999J-2499999D01*
G01*
X79000001Y-68250001D02*
G75*
G02X82999999Y-68250001I1999999J-1999999D01*
G01*
X79500001Y-68750001D02*
G75*
G02X82499999Y-68750001I1499999J-1499999D01*
G01*
X80500000Y-69250000D02*
X81500000Y-69250000D01*
X80500000Y-69750000D02*
X80500000Y-69250000D01*
X81500000Y-69750000D02*
X80500000Y-69750000D01*
X81500000Y-70250000D02*
X81500000Y-69750000D01*
X80500000Y-70250000D02*
X81500000Y-70250000D01*
X80500000Y-70750000D02*
X80500000Y-70250000D01*
X81500000Y-70750000D02*
X80500000Y-70750000D01*
X81500000Y-71250000D02*
X81500000Y-70750000D01*
X80500000Y-71250000D02*
X81500000Y-71250000D01*
X80500000Y-71750000D02*
X80500000Y-71250000D01*
X81000000Y-71750000D02*
X80500000Y-71750000D01*
X81000000Y-72750000D02*
X81000000Y-71750000D01*
X84250000Y-77750000D02*
X84250000Y-60750000D01*
X77500000Y-60000000D02*
X78000000Y-60000000D01*
X77500000Y-60000000D02*
X77500000Y-60500000D01*
X77500000Y-78500000D02*
X77500000Y-78000000D01*
X77500000Y-78500000D02*
X78000000Y-78500000D01*
X163235714Y-72207142D02*
X163035714Y-72207142D01*
X163035714Y-72521428D02*
X163035714Y-71921428D01*
X163321428Y-71921428D01*
X163550000Y-71921428D02*
X163550000Y-72407142D01*
X163578571Y-72464285D01*
X163607142Y-72492857D01*
X163664285Y-72521428D01*
X163778571Y-72521428D01*
X163835714Y-72492857D01*
X163864285Y-72464285D01*
X163892857Y-72407142D01*
X163892857Y-71921428D01*
X164150000Y-71978571D02*
X164178571Y-71950000D01*
X164235714Y-71921428D01*
X164378571Y-71921428D01*
X164435714Y-71950000D01*
X164464285Y-71978571D01*
X164492857Y-72035714D01*
X164492857Y-72092857D01*
X164464285Y-72178571D01*
X164121428Y-72521428D01*
X164492857Y-72521428D01*
X162050000Y-94771428D02*
X162050000Y-94171428D01*
X162050000Y-94457142D02*
X162392857Y-94457142D01*
X162392857Y-94771428D02*
X162392857Y-94171428D01*
X162964285Y-94771428D02*
X162678571Y-94771428D01*
X162678571Y-94171428D01*
X163478571Y-94771428D02*
X163135714Y-94771428D01*
X163307142Y-94771428D02*
X163307142Y-94171428D01*
X163250000Y-94257142D01*
X163192857Y-94314285D01*
X163135714Y-94342857D01*
X156035714Y-66921428D02*
X156235714Y-67521428D01*
X156435714Y-66921428D01*
X156550000Y-66921428D02*
X156892857Y-66921428D01*
X156721428Y-67521428D02*
X156721428Y-66921428D01*
X157350000Y-67121428D02*
X157350000Y-67521428D01*
X157207142Y-66892857D02*
X157064285Y-67321428D01*
X157435714Y-67321428D01*
X155114285Y-76771428D02*
X154914285Y-76485714D01*
X154771428Y-76771428D02*
X154771428Y-76171428D01*
X155000000Y-76171428D01*
X155057142Y-76200000D01*
X155085714Y-76228571D01*
X155114285Y-76285714D01*
X155114285Y-76371428D01*
X155085714Y-76428571D01*
X155057142Y-76457142D01*
X155000000Y-76485714D01*
X154771428Y-76485714D01*
X155342857Y-76228571D02*
X155371428Y-76200000D01*
X155428571Y-76171428D01*
X155571428Y-76171428D01*
X155628571Y-76200000D01*
X155657142Y-76228571D01*
X155685714Y-76285714D01*
X155685714Y-76342857D01*
X155657142Y-76428571D01*
X155314285Y-76771428D01*
X155685714Y-76771428D01*
X155914285Y-76228571D02*
X155942857Y-76200000D01*
X156000000Y-76171428D01*
X156142857Y-76171428D01*
X156200000Y-76200000D01*
X156228571Y-76228571D01*
X156257142Y-76285714D01*
X156257142Y-76342857D01*
X156228571Y-76428571D01*
X155885714Y-76771428D01*
X156257142Y-76771428D01*
X150864285Y-66521428D02*
X150664285Y-66235714D01*
X150521428Y-66521428D02*
X150521428Y-65921428D01*
X150750000Y-65921428D01*
X150807142Y-65950000D01*
X150835714Y-65978571D01*
X150864285Y-66035714D01*
X150864285Y-66121428D01*
X150835714Y-66178571D01*
X150807142Y-66207142D01*
X150750000Y-66235714D01*
X150521428Y-66235714D01*
X151092857Y-65978571D02*
X151121428Y-65950000D01*
X151178571Y-65921428D01*
X151321428Y-65921428D01*
X151378571Y-65950000D01*
X151407142Y-65978571D01*
X151435714Y-66035714D01*
X151435714Y-66092857D01*
X151407142Y-66178571D01*
X151064285Y-66521428D01*
X151435714Y-66521428D01*
X152007142Y-66521428D02*
X151664285Y-66521428D01*
X151835714Y-66521428D02*
X151835714Y-65921428D01*
X151778571Y-66007142D01*
X151721428Y-66064285D01*
X151664285Y-66092857D01*
X155114285Y-71771428D02*
X154914285Y-71485714D01*
X154771428Y-71771428D02*
X154771428Y-71171428D01*
X155000000Y-71171428D01*
X155057142Y-71200000D01*
X155085714Y-71228571D01*
X155114285Y-71285714D01*
X155114285Y-71371428D01*
X155085714Y-71428571D01*
X155057142Y-71457142D01*
X155000000Y-71485714D01*
X154771428Y-71485714D01*
X155342857Y-71228571D02*
X155371428Y-71200000D01*
X155428571Y-71171428D01*
X155571428Y-71171428D01*
X155628571Y-71200000D01*
X155657142Y-71228571D01*
X155685714Y-71285714D01*
X155685714Y-71342857D01*
X155657142Y-71428571D01*
X155314285Y-71771428D01*
X155685714Y-71771428D01*
X156057142Y-71171428D02*
X156114285Y-71171428D01*
X156171428Y-71200000D01*
X156200000Y-71228571D01*
X156228571Y-71285714D01*
X156257142Y-71400000D01*
X156257142Y-71542857D01*
X156228571Y-71657142D01*
X156200000Y-71714285D01*
X156171428Y-71742857D01*
X156114285Y-71771428D01*
X156057142Y-71771428D01*
X156000000Y-71742857D01*
X155971428Y-71714285D01*
X155942857Y-71657142D01*
X155914285Y-71542857D01*
X155914285Y-71400000D01*
X155942857Y-71285714D01*
X155971428Y-71228571D01*
X156000000Y-71200000D01*
X156057142Y-71171428D01*
X150864285Y-70771428D02*
X150664285Y-70485714D01*
X150521428Y-70771428D02*
X150521428Y-70171428D01*
X150750000Y-70171428D01*
X150807142Y-70200000D01*
X150835714Y-70228571D01*
X150864285Y-70285714D01*
X150864285Y-70371428D01*
X150835714Y-70428571D01*
X150807142Y-70457142D01*
X150750000Y-70485714D01*
X150521428Y-70485714D01*
X151435714Y-70771428D02*
X151092857Y-70771428D01*
X151264285Y-70771428D02*
X151264285Y-70171428D01*
X151207142Y-70257142D01*
X151150000Y-70314285D01*
X151092857Y-70342857D01*
X151721428Y-70771428D02*
X151835714Y-70771428D01*
X151892857Y-70742857D01*
X151921428Y-70714285D01*
X151978571Y-70628571D01*
X152007142Y-70514285D01*
X152007142Y-70285714D01*
X151978571Y-70228571D01*
X151950000Y-70200000D01*
X151892857Y-70171428D01*
X151778571Y-70171428D01*
X151721428Y-70200000D01*
X151692857Y-70228571D01*
X151664285Y-70285714D01*
X151664285Y-70428571D01*
X151692857Y-70485714D01*
X151721428Y-70514285D01*
X151778571Y-70542857D01*
X151892857Y-70542857D01*
X151950000Y-70514285D01*
X151978571Y-70485714D01*
X152007142Y-70428571D01*
X155114285Y-80464285D02*
X155085714Y-80492857D01*
X155000000Y-80521428D01*
X154942857Y-80521428D01*
X154857142Y-80492857D01*
X154800000Y-80435714D01*
X154771428Y-80378571D01*
X154742857Y-80264285D01*
X154742857Y-80178571D01*
X154771428Y-80064285D01*
X154800000Y-80007142D01*
X154857142Y-79950000D01*
X154942857Y-79921428D01*
X155000000Y-79921428D01*
X155085714Y-79950000D01*
X155114285Y-79978571D01*
X155685714Y-80521428D02*
X155342857Y-80521428D01*
X155514285Y-80521428D02*
X155514285Y-79921428D01*
X155457142Y-80007142D01*
X155400000Y-80064285D01*
X155342857Y-80092857D01*
X155885714Y-79921428D02*
X156285714Y-79921428D01*
X156028571Y-80521428D01*
X116714285Y-116421428D02*
X116914285Y-117021428D01*
X117114285Y-116421428D01*
X117314285Y-117021428D02*
X117314285Y-116421428D01*
X117457142Y-116421428D01*
X117542857Y-116450000D01*
X117600000Y-116507142D01*
X117628571Y-116564285D01*
X117657142Y-116678571D01*
X117657142Y-116764285D01*
X117628571Y-116878571D01*
X117600000Y-116935714D01*
X117542857Y-116992857D01*
X117457142Y-117021428D01*
X117314285Y-117021428D01*
X118200000Y-116421428D02*
X117914285Y-116421428D01*
X117885714Y-116707142D01*
X117914285Y-116678571D01*
X117971428Y-116650000D01*
X118114285Y-116650000D01*
X118171428Y-116678571D01*
X118200000Y-116707142D01*
X118228571Y-116764285D01*
X118228571Y-116907142D01*
X118200000Y-116964285D01*
X118171428Y-116992857D01*
X118114285Y-117021428D01*
X117971428Y-117021428D01*
X117914285Y-116992857D01*
X117885714Y-116964285D01*
X86714285Y-119171428D02*
X86914285Y-119771428D01*
X87114285Y-119171428D01*
X87314285Y-119771428D02*
X87314285Y-119171428D01*
X87457142Y-119171428D01*
X87542857Y-119200000D01*
X87600000Y-119257142D01*
X87628571Y-119314285D01*
X87657142Y-119428571D01*
X87657142Y-119514285D01*
X87628571Y-119628571D01*
X87600000Y-119685714D01*
X87542857Y-119742857D01*
X87457142Y-119771428D01*
X87314285Y-119771428D01*
X88171428Y-119371428D02*
X88171428Y-119771428D01*
X88028571Y-119142857D02*
X87885714Y-119571428D01*
X88257142Y-119571428D01*
X140864285Y-63771428D02*
X140664285Y-63485714D01*
X140521428Y-63771428D02*
X140521428Y-63171428D01*
X140750000Y-63171428D01*
X140807142Y-63200000D01*
X140835714Y-63228571D01*
X140864285Y-63285714D01*
X140864285Y-63371428D01*
X140835714Y-63428571D01*
X140807142Y-63457142D01*
X140750000Y-63485714D01*
X140521428Y-63485714D01*
X141435714Y-63771428D02*
X141092857Y-63771428D01*
X141264285Y-63771428D02*
X141264285Y-63171428D01*
X141207142Y-63257142D01*
X141150000Y-63314285D01*
X141092857Y-63342857D01*
X141664285Y-63228571D02*
X141692857Y-63200000D01*
X141750000Y-63171428D01*
X141892857Y-63171428D01*
X141950000Y-63200000D01*
X141978571Y-63228571D01*
X142007142Y-63285714D01*
X142007142Y-63342857D01*
X141978571Y-63428571D01*
X141635714Y-63771428D01*
X142007142Y-63771428D01*
X138650000Y-63771428D02*
X138450000Y-63485714D01*
X138307142Y-63771428D02*
X138307142Y-63171428D01*
X138535714Y-63171428D01*
X138592857Y-63200000D01*
X138621428Y-63228571D01*
X138650000Y-63285714D01*
X138650000Y-63371428D01*
X138621428Y-63428571D01*
X138592857Y-63457142D01*
X138535714Y-63485714D01*
X138307142Y-63485714D01*
X138935714Y-63771428D02*
X139050000Y-63771428D01*
X139107142Y-63742857D01*
X139135714Y-63714285D01*
X139192857Y-63628571D01*
X139221428Y-63514285D01*
X139221428Y-63285714D01*
X139192857Y-63228571D01*
X139164285Y-63200000D01*
X139107142Y-63171428D01*
X138992857Y-63171428D01*
X138935714Y-63200000D01*
X138907142Y-63228571D01*
X138878571Y-63285714D01*
X138878571Y-63428571D01*
X138907142Y-63485714D01*
X138935714Y-63514285D01*
X138992857Y-63542857D01*
X139107142Y-63542857D01*
X139164285Y-63514285D01*
X139192857Y-63485714D01*
X139221428Y-63428571D01*
X133507142Y-63521428D02*
X133507142Y-62921428D01*
X133650000Y-62921428D01*
X133735714Y-62950000D01*
X133792857Y-63007142D01*
X133821428Y-63064285D01*
X133850000Y-63178571D01*
X133850000Y-63264285D01*
X133821428Y-63378571D01*
X133792857Y-63435714D01*
X133735714Y-63492857D01*
X133650000Y-63521428D01*
X133507142Y-63521428D01*
X134107142Y-63521428D02*
X134107142Y-62921428D01*
X134250000Y-62921428D01*
X134335714Y-62950000D01*
X134392857Y-63007142D01*
X134421428Y-63064285D01*
X134450000Y-63178571D01*
X134450000Y-63264285D01*
X134421428Y-63378571D01*
X134392857Y-63435714D01*
X134335714Y-63492857D01*
X134250000Y-63521428D01*
X134107142Y-63521428D01*
X135021428Y-63521428D02*
X134678571Y-63521428D01*
X134850000Y-63521428D02*
X134850000Y-62921428D01*
X134792857Y-63007142D01*
X134735714Y-63064285D01*
X134678571Y-63092857D01*
X143650000Y-63714285D02*
X143621428Y-63742857D01*
X143535714Y-63771428D01*
X143478571Y-63771428D01*
X143392857Y-63742857D01*
X143335714Y-63685714D01*
X143307142Y-63628571D01*
X143278571Y-63514285D01*
X143278571Y-63428571D01*
X143307142Y-63314285D01*
X143335714Y-63257142D01*
X143392857Y-63200000D01*
X143478571Y-63171428D01*
X143535714Y-63171428D01*
X143621428Y-63200000D01*
X143650000Y-63228571D01*
X144164285Y-63171428D02*
X144050000Y-63171428D01*
X143992857Y-63200000D01*
X143964285Y-63228571D01*
X143907142Y-63314285D01*
X143878571Y-63428571D01*
X143878571Y-63657142D01*
X143907142Y-63714285D01*
X143935714Y-63742857D01*
X143992857Y-63771428D01*
X144107142Y-63771428D01*
X144164285Y-63742857D01*
X144192857Y-63714285D01*
X144221428Y-63657142D01*
X144221428Y-63514285D01*
X144192857Y-63457142D01*
X144164285Y-63428571D01*
X144107142Y-63400000D01*
X143992857Y-63400000D01*
X143935714Y-63428571D01*
X143907142Y-63457142D01*
X143878571Y-63514285D01*
X142499999Y-57114284D02*
X142471427Y-57142856D01*
X142385713Y-57171427D01*
X142328570Y-57171427D01*
X142242856Y-57142856D01*
X142185713Y-57085713D01*
X142157141Y-57028570D01*
X142128570Y-56914284D01*
X142128570Y-56828570D01*
X142157141Y-56714284D01*
X142185713Y-56657141D01*
X142242856Y-56599999D01*
X142328570Y-56571427D01*
X142385713Y-56571427D01*
X142471427Y-56599999D01*
X142499999Y-56628570D01*
X142728570Y-56628570D02*
X142757141Y-56599999D01*
X142814284Y-56571427D01*
X142957141Y-56571427D01*
X143014284Y-56599999D01*
X143042856Y-56628570D01*
X143071427Y-56685713D01*
X143071427Y-56742856D01*
X143042856Y-56828570D01*
X142699999Y-57171427D01*
X143071427Y-57171427D01*
X131150000Y-63714285D02*
X131121428Y-63742857D01*
X131035714Y-63771428D01*
X130978571Y-63771428D01*
X130892857Y-63742857D01*
X130835714Y-63685714D01*
X130807142Y-63628571D01*
X130778571Y-63514285D01*
X130778571Y-63428571D01*
X130807142Y-63314285D01*
X130835714Y-63257142D01*
X130892857Y-63200000D01*
X130978571Y-63171428D01*
X131035714Y-63171428D01*
X131121428Y-63200000D01*
X131150000Y-63228571D01*
X131721428Y-63771428D02*
X131378571Y-63771428D01*
X131550000Y-63771428D02*
X131550000Y-63171428D01*
X131492857Y-63257142D01*
X131435714Y-63314285D01*
X131378571Y-63342857D01*
X136035714Y-88671428D02*
X136235714Y-89271428D01*
X136435714Y-88671428D01*
X136550000Y-88671428D02*
X136892857Y-88671428D01*
X136721428Y-89271428D02*
X136721428Y-88671428D01*
X137035714Y-88671428D02*
X137407142Y-88671428D01*
X137207142Y-88900000D01*
X137292857Y-88900000D01*
X137350000Y-88928571D01*
X137378571Y-88957142D01*
X137407142Y-89014285D01*
X137407142Y-89157142D01*
X137378571Y-89214285D01*
X137350000Y-89242857D01*
X137292857Y-89271428D01*
X137121428Y-89271428D01*
X137064285Y-89242857D01*
X137035714Y-89214285D01*
X147285714Y-66921428D02*
X147485714Y-67521428D01*
X147685714Y-66921428D01*
X147800000Y-66921428D02*
X148142857Y-66921428D01*
X147971428Y-67521428D02*
X147971428Y-66921428D01*
X148314285Y-66978571D02*
X148342857Y-66950000D01*
X148400000Y-66921428D01*
X148542857Y-66921428D01*
X148600000Y-66950000D01*
X148628571Y-66978571D01*
X148657142Y-67035714D01*
X148657142Y-67092857D01*
X148628571Y-67178571D01*
X148285714Y-67521428D01*
X148657142Y-67521428D01*
X138285714Y-129421428D02*
X138485714Y-130021428D01*
X138685714Y-129421428D01*
X138800000Y-129421428D02*
X139142857Y-129421428D01*
X138971428Y-130021428D02*
X138971428Y-129421428D01*
X139657142Y-130021428D02*
X139314285Y-130021428D01*
X139485714Y-130021428D02*
X139485714Y-129421428D01*
X139428571Y-129507142D01*
X139371428Y-129564285D01*
X139314285Y-129592857D01*
X141214285Y-88171428D02*
X141414285Y-88771428D01*
X141614285Y-88171428D01*
X141814285Y-88771428D02*
X141814285Y-88171428D01*
X141957142Y-88171428D01*
X142042857Y-88200000D01*
X142100000Y-88257142D01*
X142128571Y-88314285D01*
X142157142Y-88428571D01*
X142157142Y-88514285D01*
X142128571Y-88628571D01*
X142100000Y-88685714D01*
X142042857Y-88742857D01*
X141957142Y-88771428D01*
X141814285Y-88771428D01*
X142385714Y-88228571D02*
X142414285Y-88200000D01*
X142471428Y-88171428D01*
X142614285Y-88171428D01*
X142671428Y-88200000D01*
X142700000Y-88228571D01*
X142728571Y-88285714D01*
X142728571Y-88342857D01*
X142700000Y-88428571D01*
X142357142Y-88771428D01*
X142728571Y-88771428D01*
X155714285Y-56671428D02*
X155914285Y-57271428D01*
X156114285Y-56671428D01*
X156314285Y-57271428D02*
X156314285Y-56671428D01*
X156457142Y-56671428D01*
X156542857Y-56700000D01*
X156600000Y-56757142D01*
X156628571Y-56814285D01*
X156657142Y-56928571D01*
X156657142Y-57014285D01*
X156628571Y-57128571D01*
X156600000Y-57185714D01*
X156542857Y-57242857D01*
X156457142Y-57271428D01*
X156314285Y-57271428D01*
X157228571Y-57271428D02*
X156885714Y-57271428D01*
X157057142Y-57271428D02*
X157057142Y-56671428D01*
X157000000Y-56757142D01*
X156942857Y-56814285D01*
X156885714Y-56842857D01*
X131114285Y-57021428D02*
X130914285Y-56735714D01*
X130771428Y-57021428D02*
X130771428Y-56421428D01*
X131000000Y-56421428D01*
X131057142Y-56450000D01*
X131085714Y-56478571D01*
X131114285Y-56535714D01*
X131114285Y-56621428D01*
X131085714Y-56678571D01*
X131057142Y-56707142D01*
X131000000Y-56735714D01*
X130771428Y-56735714D01*
X131685714Y-57021428D02*
X131342857Y-57021428D01*
X131514285Y-57021428D02*
X131514285Y-56421428D01*
X131457142Y-56507142D01*
X131400000Y-56564285D01*
X131342857Y-56592857D01*
X132257142Y-57021428D02*
X131914285Y-57021428D01*
X132085714Y-57021428D02*
X132085714Y-56421428D01*
X132028571Y-56507142D01*
X131971428Y-56564285D01*
X131914285Y-56592857D01*
X128900000Y-57021428D02*
X128700000Y-56735714D01*
X128557142Y-57021428D02*
X128557142Y-56421428D01*
X128785714Y-56421428D01*
X128842857Y-56450000D01*
X128871428Y-56478571D01*
X128900000Y-56535714D01*
X128900000Y-56621428D01*
X128871428Y-56678571D01*
X128842857Y-56707142D01*
X128785714Y-56735714D01*
X128557142Y-56735714D01*
X129242857Y-56678571D02*
X129185714Y-56650000D01*
X129157142Y-56621428D01*
X129128571Y-56564285D01*
X129128571Y-56535714D01*
X129157142Y-56478571D01*
X129185714Y-56450000D01*
X129242857Y-56421428D01*
X129357142Y-56421428D01*
X129414285Y-56450000D01*
X129442857Y-56478571D01*
X129471428Y-56535714D01*
X129471428Y-56564285D01*
X129442857Y-56621428D01*
X129414285Y-56650000D01*
X129357142Y-56678571D01*
X129242857Y-56678571D01*
X129185714Y-56707142D01*
X129157142Y-56735714D01*
X129128571Y-56792857D01*
X129128571Y-56907142D01*
X129157142Y-56964285D01*
X129185714Y-56992857D01*
X129242857Y-57021428D01*
X129357142Y-57021428D01*
X129414285Y-56992857D01*
X129442857Y-56964285D01*
X129471428Y-56907142D01*
X129471428Y-56792857D01*
X129442857Y-56735714D01*
X129414285Y-56707142D01*
X129357142Y-56678571D01*
X134900000Y-93521428D02*
X134700000Y-93235714D01*
X134557142Y-93521428D02*
X134557142Y-92921428D01*
X134785714Y-92921428D01*
X134842857Y-92950000D01*
X134871428Y-92978571D01*
X134900000Y-93035714D01*
X134900000Y-93121428D01*
X134871428Y-93178571D01*
X134842857Y-93207142D01*
X134785714Y-93235714D01*
X134557142Y-93235714D01*
X135414285Y-92921428D02*
X135300000Y-92921428D01*
X135242857Y-92950000D01*
X135214285Y-92978571D01*
X135157142Y-93064285D01*
X135128571Y-93178571D01*
X135128571Y-93407142D01*
X135157142Y-93464285D01*
X135185714Y-93492857D01*
X135242857Y-93521428D01*
X135357142Y-93521428D01*
X135414285Y-93492857D01*
X135442857Y-93464285D01*
X135471428Y-93407142D01*
X135471428Y-93264285D01*
X135442857Y-93207142D01*
X135414285Y-93178571D01*
X135357142Y-93150000D01*
X135242857Y-93150000D01*
X135185714Y-93178571D01*
X135157142Y-93207142D01*
X135128571Y-93264285D01*
X146400000Y-71771428D02*
X146200000Y-71485714D01*
X146057142Y-71771428D02*
X146057142Y-71171428D01*
X146285714Y-71171428D01*
X146342857Y-71200000D01*
X146371428Y-71228571D01*
X146400000Y-71285714D01*
X146400000Y-71371428D01*
X146371428Y-71428571D01*
X146342857Y-71457142D01*
X146285714Y-71485714D01*
X146057142Y-71485714D01*
X146942857Y-71171428D02*
X146657142Y-71171428D01*
X146628571Y-71457142D01*
X146657142Y-71428571D01*
X146714285Y-71400000D01*
X146857142Y-71400000D01*
X146914285Y-71428571D01*
X146942857Y-71457142D01*
X146971428Y-71514285D01*
X146971428Y-71657142D01*
X146942857Y-71714285D01*
X146914285Y-71742857D01*
X146857142Y-71771428D01*
X146714285Y-71771428D01*
X146657142Y-71742857D01*
X146628571Y-71714285D01*
X137400000Y-134271428D02*
X137200000Y-133985714D01*
X137057142Y-134271428D02*
X137057142Y-133671428D01*
X137285714Y-133671428D01*
X137342857Y-133700000D01*
X137371428Y-133728571D01*
X137400000Y-133785714D01*
X137400000Y-133871428D01*
X137371428Y-133928571D01*
X137342857Y-133957142D01*
X137285714Y-133985714D01*
X137057142Y-133985714D01*
X137914285Y-133871428D02*
X137914285Y-134271428D01*
X137771428Y-133642857D02*
X137628571Y-134071428D01*
X138000000Y-134071428D01*
X130900000Y-89021428D02*
X130700000Y-88735714D01*
X130557142Y-89021428D02*
X130557142Y-88421428D01*
X130785714Y-88421428D01*
X130842857Y-88450000D01*
X130871428Y-88478571D01*
X130900000Y-88535714D01*
X130900000Y-88621428D01*
X130871428Y-88678571D01*
X130842857Y-88707142D01*
X130785714Y-88735714D01*
X130557142Y-88735714D01*
X131100000Y-88421428D02*
X131471428Y-88421428D01*
X131271428Y-88650000D01*
X131357142Y-88650000D01*
X131414285Y-88678571D01*
X131442857Y-88707142D01*
X131471428Y-88764285D01*
X131471428Y-88907142D01*
X131442857Y-88964285D01*
X131414285Y-88992857D01*
X131357142Y-89021428D01*
X131185714Y-89021428D01*
X131128571Y-88992857D01*
X131100000Y-88964285D01*
X142400000Y-70771428D02*
X142200000Y-70485714D01*
X142057142Y-70771428D02*
X142057142Y-70171428D01*
X142285714Y-70171428D01*
X142342857Y-70200000D01*
X142371428Y-70228571D01*
X142400000Y-70285714D01*
X142400000Y-70371428D01*
X142371428Y-70428571D01*
X142342857Y-70457142D01*
X142285714Y-70485714D01*
X142057142Y-70485714D01*
X142628571Y-70228571D02*
X142657142Y-70200000D01*
X142714285Y-70171428D01*
X142857142Y-70171428D01*
X142914285Y-70200000D01*
X142942857Y-70228571D01*
X142971428Y-70285714D01*
X142971428Y-70342857D01*
X142942857Y-70428571D01*
X142600000Y-70771428D01*
X142971428Y-70771428D01*
X133400000Y-129771428D02*
X133200000Y-129485714D01*
X133057142Y-129771428D02*
X133057142Y-129171428D01*
X133285714Y-129171428D01*
X133342857Y-129200000D01*
X133371428Y-129228571D01*
X133400000Y-129285714D01*
X133400000Y-129371428D01*
X133371428Y-129428571D01*
X133342857Y-129457142D01*
X133285714Y-129485714D01*
X133057142Y-129485714D01*
X133971428Y-129771428D02*
X133628571Y-129771428D01*
X133800000Y-129771428D02*
X133800000Y-129171428D01*
X133742857Y-129257142D01*
X133685714Y-129314285D01*
X133628571Y-129342857D01*
X133900000Y-56964285D02*
X133871428Y-56992857D01*
X133785714Y-57021428D01*
X133728571Y-57021428D01*
X133642857Y-56992857D01*
X133585714Y-56935714D01*
X133557142Y-56878571D01*
X133528571Y-56764285D01*
X133528571Y-56678571D01*
X133557142Y-56564285D01*
X133585714Y-56507142D01*
X133642857Y-56450000D01*
X133728571Y-56421428D01*
X133785714Y-56421428D01*
X133871428Y-56450000D01*
X133900000Y-56478571D01*
X134442857Y-56421428D02*
X134157142Y-56421428D01*
X134128571Y-56707142D01*
X134157142Y-56678571D01*
X134214285Y-56650000D01*
X134357142Y-56650000D01*
X134414285Y-56678571D01*
X134442857Y-56707142D01*
X134471428Y-56764285D01*
X134471428Y-56907142D01*
X134442857Y-56964285D01*
X134414285Y-56992857D01*
X134357142Y-57021428D01*
X134214285Y-57021428D01*
X134157142Y-56992857D01*
X134128571Y-56964285D01*
X103550000Y-52214285D02*
X103521428Y-52242857D01*
X103435714Y-52271428D01*
X103378571Y-52271428D01*
X103292857Y-52242857D01*
X103235714Y-52185714D01*
X103207142Y-52128571D01*
X103178571Y-52014285D01*
X103178571Y-51928571D01*
X103207142Y-51814285D01*
X103235714Y-51757142D01*
X103292857Y-51700000D01*
X103378571Y-51671428D01*
X103435714Y-51671428D01*
X103521428Y-51700000D01*
X103550000Y-51728571D01*
X104064285Y-51871428D02*
X104064285Y-52271428D01*
X103921428Y-51642857D02*
X103778571Y-52071428D01*
X104150000Y-52071428D01*
X94050000Y-86214285D02*
X94021428Y-86242857D01*
X93935714Y-86271428D01*
X93878571Y-86271428D01*
X93792857Y-86242857D01*
X93735714Y-86185714D01*
X93707142Y-86128571D01*
X93678571Y-86014285D01*
X93678571Y-85928571D01*
X93707142Y-85814285D01*
X93735714Y-85757142D01*
X93792857Y-85700000D01*
X93878571Y-85671428D01*
X93935714Y-85671428D01*
X94021428Y-85700000D01*
X94050000Y-85728571D01*
X94250000Y-85671428D02*
X94621428Y-85671428D01*
X94421428Y-85900000D01*
X94507142Y-85900000D01*
X94564285Y-85928571D01*
X94592857Y-85957142D01*
X94621428Y-86014285D01*
X94621428Y-86157142D01*
X94592857Y-86214285D01*
X94564285Y-86242857D01*
X94507142Y-86271428D01*
X94335714Y-86271428D01*
X94278571Y-86242857D01*
X94250000Y-86214285D01*
X84964285Y-87671428D02*
X85164285Y-88271428D01*
X85364285Y-87671428D01*
X85564285Y-88271428D02*
X85564285Y-87671428D01*
X85707142Y-87671428D01*
X85792857Y-87700000D01*
X85850000Y-87757142D01*
X85878571Y-87814285D01*
X85907142Y-87928571D01*
X85907142Y-88014285D01*
X85878571Y-88128571D01*
X85850000Y-88185714D01*
X85792857Y-88242857D01*
X85707142Y-88271428D01*
X85564285Y-88271428D01*
X86107142Y-87671428D02*
X86478571Y-87671428D01*
X86278571Y-87900000D01*
X86364285Y-87900000D01*
X86421428Y-87928571D01*
X86450000Y-87957142D01*
X86478571Y-88014285D01*
X86478571Y-88157142D01*
X86450000Y-88214285D01*
X86421428Y-88242857D01*
X86364285Y-88271428D01*
X86192857Y-88271428D01*
X86135714Y-88242857D01*
X86107142Y-88214285D01*
X99364285Y-52271428D02*
X99164285Y-51985714D01*
X99021428Y-52271428D02*
X99021428Y-51671428D01*
X99250000Y-51671428D01*
X99307142Y-51700000D01*
X99335714Y-51728571D01*
X99364285Y-51785714D01*
X99364285Y-51871428D01*
X99335714Y-51928571D01*
X99307142Y-51957142D01*
X99250000Y-51985714D01*
X99021428Y-51985714D01*
X99935714Y-52271428D02*
X99592857Y-52271428D01*
X99764285Y-52271428D02*
X99764285Y-51671428D01*
X99707142Y-51757142D01*
X99650000Y-51814285D01*
X99592857Y-51842857D01*
X100450000Y-51871428D02*
X100450000Y-52271428D01*
X100307142Y-51642857D02*
X100164285Y-52071428D01*
X100535714Y-52071428D01*
X93614285Y-83271428D02*
X93414285Y-82985714D01*
X93271428Y-83271428D02*
X93271428Y-82671428D01*
X93500000Y-82671428D01*
X93557142Y-82700000D01*
X93585714Y-82728571D01*
X93614285Y-82785714D01*
X93614285Y-82871428D01*
X93585714Y-82928571D01*
X93557142Y-82957142D01*
X93500000Y-82985714D01*
X93271428Y-82985714D01*
X94185714Y-83271428D02*
X93842857Y-83271428D01*
X94014285Y-83271428D02*
X94014285Y-82671428D01*
X93957142Y-82757142D01*
X93900000Y-82814285D01*
X93842857Y-82842857D01*
X94385714Y-82671428D02*
X94757142Y-82671428D01*
X94557142Y-82900000D01*
X94642857Y-82900000D01*
X94700000Y-82928571D01*
X94728571Y-82957142D01*
X94757142Y-83014285D01*
X94757142Y-83157142D01*
X94728571Y-83214285D01*
X94700000Y-83242857D01*
X94642857Y-83271428D01*
X94471428Y-83271428D01*
X94414285Y-83242857D01*
X94385714Y-83214285D01*
X99364285Y-55271428D02*
X99164285Y-54985714D01*
X99021428Y-55271428D02*
X99021428Y-54671428D01*
X99250000Y-54671428D01*
X99307142Y-54700000D01*
X99335714Y-54728571D01*
X99364285Y-54785714D01*
X99364285Y-54871428D01*
X99335714Y-54928571D01*
X99307142Y-54957142D01*
X99250000Y-54985714D01*
X99021428Y-54985714D01*
X99935714Y-55271428D02*
X99592857Y-55271428D01*
X99764285Y-55271428D02*
X99764285Y-54671428D01*
X99707142Y-54757142D01*
X99650000Y-54814285D01*
X99592857Y-54842857D01*
X100307142Y-54671428D02*
X100364285Y-54671428D01*
X100421428Y-54700000D01*
X100450000Y-54728571D01*
X100478571Y-54785714D01*
X100507142Y-54900000D01*
X100507142Y-55042857D01*
X100478571Y-55157142D01*
X100450000Y-55214285D01*
X100421428Y-55242857D01*
X100364285Y-55271428D01*
X100307142Y-55271428D01*
X100250000Y-55242857D01*
X100221428Y-55214285D01*
X100192857Y-55157142D01*
X100164285Y-55042857D01*
X100164285Y-54900000D01*
X100192857Y-54785714D01*
X100221428Y-54728571D01*
X100250000Y-54700000D01*
X100307142Y-54671428D01*
X89900000Y-83521428D02*
X89700000Y-83235714D01*
X89557142Y-83521428D02*
X89557142Y-82921428D01*
X89785714Y-82921428D01*
X89842857Y-82950000D01*
X89871428Y-82978571D01*
X89900000Y-83035714D01*
X89900000Y-83121428D01*
X89871428Y-83178571D01*
X89842857Y-83207142D01*
X89785714Y-83235714D01*
X89557142Y-83235714D01*
X90100000Y-82921428D02*
X90500000Y-82921428D01*
X90242857Y-83521428D01*
X107114285Y-95021428D02*
X106914285Y-94735714D01*
X106771428Y-95021428D02*
X106771428Y-94421428D01*
X107000000Y-94421428D01*
X107057142Y-94450000D01*
X107085714Y-94478571D01*
X107114285Y-94535714D01*
X107114285Y-94621428D01*
X107085714Y-94678571D01*
X107057142Y-94707142D01*
X107000000Y-94735714D01*
X106771428Y-94735714D01*
X107685714Y-95021428D02*
X107342857Y-95021428D01*
X107514285Y-95021428D02*
X107514285Y-94421428D01*
X107457142Y-94507142D01*
X107400000Y-94564285D01*
X107342857Y-94592857D01*
X108028571Y-94678571D02*
X107971428Y-94650000D01*
X107942857Y-94621428D01*
X107914285Y-94564285D01*
X107914285Y-94535714D01*
X107942857Y-94478571D01*
X107971428Y-94450000D01*
X108028571Y-94421428D01*
X108142857Y-94421428D01*
X108200000Y-94450000D01*
X108228571Y-94478571D01*
X108257142Y-94535714D01*
X108257142Y-94564285D01*
X108228571Y-94621428D01*
X108200000Y-94650000D01*
X108142857Y-94678571D01*
X108028571Y-94678571D01*
X107971428Y-94707142D01*
X107942857Y-94735714D01*
X107914285Y-94792857D01*
X107914285Y-94907142D01*
X107942857Y-94964285D01*
X107971428Y-94992857D01*
X108028571Y-95021428D01*
X108142857Y-95021428D01*
X108200000Y-94992857D01*
X108228571Y-94964285D01*
X108257142Y-94907142D01*
X108257142Y-94792857D01*
X108228571Y-94735714D01*
X108200000Y-94707142D01*
X108142857Y-94678571D01*
X103864285Y-95021428D02*
X103664285Y-94735714D01*
X103521428Y-95021428D02*
X103521428Y-94421428D01*
X103750000Y-94421428D01*
X103807142Y-94450000D01*
X103835714Y-94478571D01*
X103864285Y-94535714D01*
X103864285Y-94621428D01*
X103835714Y-94678571D01*
X103807142Y-94707142D01*
X103750000Y-94735714D01*
X103521428Y-94735714D01*
X104435714Y-95021428D02*
X104092857Y-95021428D01*
X104264285Y-95021428D02*
X104264285Y-94421428D01*
X104207142Y-94507142D01*
X104150000Y-94564285D01*
X104092857Y-94592857D01*
X104635714Y-94421428D02*
X105035714Y-94421428D01*
X104778571Y-95021428D01*
X109614285Y-99021428D02*
X109414285Y-98735714D01*
X109271428Y-99021428D02*
X109271428Y-98421428D01*
X109500000Y-98421428D01*
X109557142Y-98450000D01*
X109585714Y-98478571D01*
X109614285Y-98535714D01*
X109614285Y-98621428D01*
X109585714Y-98678571D01*
X109557142Y-98707142D01*
X109500000Y-98735714D01*
X109271428Y-98735714D01*
X110185714Y-99021428D02*
X109842857Y-99021428D01*
X110014285Y-99021428D02*
X110014285Y-98421428D01*
X109957142Y-98507142D01*
X109900000Y-98564285D01*
X109842857Y-98592857D01*
X110700000Y-98421428D02*
X110585714Y-98421428D01*
X110528571Y-98450000D01*
X110500000Y-98478571D01*
X110442857Y-98564285D01*
X110414285Y-98678571D01*
X110414285Y-98907142D01*
X110442857Y-98964285D01*
X110471428Y-98992857D01*
X110528571Y-99021428D01*
X110642857Y-99021428D01*
X110700000Y-98992857D01*
X110728571Y-98964285D01*
X110757142Y-98907142D01*
X110757142Y-98764285D01*
X110728571Y-98707142D01*
X110700000Y-98678571D01*
X110642857Y-98650000D01*
X110528571Y-98650000D01*
X110471428Y-98678571D01*
X110442857Y-98707142D01*
X110414285Y-98764285D01*
X107364285Y-103271428D02*
X107164285Y-102985714D01*
X107021428Y-103271428D02*
X107021428Y-102671428D01*
X107250000Y-102671428D01*
X107307142Y-102700000D01*
X107335714Y-102728571D01*
X107364285Y-102785714D01*
X107364285Y-102871428D01*
X107335714Y-102928571D01*
X107307142Y-102957142D01*
X107250000Y-102985714D01*
X107021428Y-102985714D01*
X107935714Y-103271428D02*
X107592857Y-103271428D01*
X107764285Y-103271428D02*
X107764285Y-102671428D01*
X107707142Y-102757142D01*
X107650000Y-102814285D01*
X107592857Y-102842857D01*
X108478571Y-102671428D02*
X108192857Y-102671428D01*
X108164285Y-102957142D01*
X108192857Y-102928571D01*
X108250000Y-102900000D01*
X108392857Y-102900000D01*
X108450000Y-102928571D01*
X108478571Y-102957142D01*
X108507142Y-103014285D01*
X108507142Y-103157142D01*
X108478571Y-103214285D01*
X108450000Y-103242857D01*
X108392857Y-103271428D01*
X108250000Y-103271428D01*
X108192857Y-103242857D01*
X108164285Y-103214285D01*
X97400000Y-97771428D02*
X97114285Y-97771428D01*
X97114285Y-97171428D01*
X97914285Y-97771428D02*
X97571428Y-97771428D01*
X97742857Y-97771428D02*
X97742857Y-97171428D01*
X97685714Y-97257142D01*
X97628571Y-97314285D01*
X97571428Y-97342857D01*
X83371428Y-102450000D02*
X83314285Y-102421428D01*
X83228571Y-102421428D01*
X83142857Y-102450000D01*
X83085714Y-102507142D01*
X83057142Y-102564285D01*
X83028571Y-102678571D01*
X83028571Y-102764285D01*
X83057142Y-102878571D01*
X83085714Y-102935714D01*
X83142857Y-102992857D01*
X83228571Y-103021428D01*
X83285714Y-103021428D01*
X83371428Y-102992857D01*
X83400000Y-102964285D01*
X83400000Y-102764285D01*
X83285714Y-102764285D01*
X83628571Y-102478571D02*
X83657142Y-102450000D01*
X83714285Y-102421428D01*
X83857142Y-102421428D01*
X83914285Y-102450000D01*
X83942857Y-102478571D01*
X83971428Y-102535714D01*
X83971428Y-102592857D01*
X83942857Y-102678571D01*
X83600000Y-103021428D01*
X83971428Y-103021428D01*
X165985714Y-127542857D02*
X166014285Y-127514285D01*
X166071428Y-127485714D01*
X166185714Y-127542857D01*
X166242857Y-127514285D01*
X166271428Y-127485714D01*
X166471428Y-127228571D02*
X166500000Y-127200000D01*
X166557142Y-127171428D01*
X166700000Y-127171428D01*
X166757142Y-127200000D01*
X166785714Y-127228571D01*
X166814285Y-127285714D01*
X166814285Y-127342857D01*
X166785714Y-127428571D01*
X166442857Y-127771428D01*
X166814285Y-127771428D01*
X167042857Y-127228571D02*
X167071428Y-127200000D01*
X167128571Y-127171428D01*
X167271428Y-127171428D01*
X167328571Y-127200000D01*
X167357142Y-127228571D01*
X167385714Y-127285714D01*
X167385714Y-127342857D01*
X167357142Y-127428571D01*
X167014285Y-127771428D01*
X167385714Y-127771428D01*
X167757142Y-127171428D02*
X167814285Y-127171428D01*
X167871428Y-127200000D01*
X167900000Y-127228571D01*
X167928571Y-127285714D01*
X167957142Y-127400000D01*
X167957142Y-127542857D01*
X167928571Y-127657142D01*
X167900000Y-127714285D01*
X167871428Y-127742857D01*
X167814285Y-127771428D01*
X167757142Y-127771428D01*
X167700000Y-127742857D01*
X167671428Y-127714285D01*
X167642857Y-127657142D01*
X167614285Y-127542857D01*
X167614285Y-127400000D01*
X167642857Y-127285714D01*
X167671428Y-127228571D01*
X167700000Y-127200000D01*
X167757142Y-127171428D01*
X165985714Y-106792857D02*
X166014285Y-106764285D01*
X166071428Y-106735714D01*
X166185714Y-106792857D01*
X166242857Y-106764285D01*
X166271428Y-106735714D01*
X166471428Y-106478571D02*
X166500000Y-106450000D01*
X166557142Y-106421428D01*
X166700000Y-106421428D01*
X166757142Y-106450000D01*
X166785714Y-106478571D01*
X166814285Y-106535714D01*
X166814285Y-106592857D01*
X166785714Y-106678571D01*
X166442857Y-107021428D01*
X166814285Y-107021428D01*
X167042857Y-106478571D02*
X167071428Y-106450000D01*
X167128571Y-106421428D01*
X167271428Y-106421428D01*
X167328571Y-106450000D01*
X167357142Y-106478571D01*
X167385714Y-106535714D01*
X167385714Y-106592857D01*
X167357142Y-106678571D01*
X167014285Y-107021428D01*
X167385714Y-107021428D01*
X167757142Y-106421428D02*
X167814285Y-106421428D01*
X167871428Y-106450000D01*
X167900000Y-106478571D01*
X167928571Y-106535714D01*
X167957142Y-106650000D01*
X167957142Y-106792857D01*
X167928571Y-106907142D01*
X167900000Y-106964285D01*
X167871428Y-106992857D01*
X167814285Y-107021428D01*
X167757142Y-107021428D01*
X167700000Y-106992857D01*
X167671428Y-106964285D01*
X167642857Y-106907142D01*
X167614285Y-106792857D01*
X167614285Y-106650000D01*
X167642857Y-106535714D01*
X167671428Y-106478571D01*
X167700000Y-106450000D01*
X167757142Y-106421428D01*
X128028571Y-127171428D02*
X128142857Y-127171428D01*
X128200000Y-127200000D01*
X128257142Y-127257142D01*
X128285714Y-127371428D01*
X128285714Y-127571428D01*
X128257142Y-127685714D01*
X128200000Y-127742857D01*
X128142857Y-127771428D01*
X128028571Y-127771428D01*
X127971428Y-127742857D01*
X127914285Y-127685714D01*
X127885714Y-127571428D01*
X127885714Y-127371428D01*
X127914285Y-127257142D01*
X127971428Y-127200000D01*
X128028571Y-127171428D01*
X128542857Y-127171428D02*
X128542857Y-127657142D01*
X128571428Y-127714285D01*
X128600000Y-127742857D01*
X128657142Y-127771428D01*
X128771428Y-127771428D01*
X128828571Y-127742857D01*
X128857142Y-127714285D01*
X128885714Y-127657142D01*
X128885714Y-127171428D01*
X129085714Y-127171428D02*
X129428571Y-127171428D01*
X129257142Y-127771428D02*
X129257142Y-127171428D01*
X129628571Y-127542857D02*
X130085714Y-127542857D01*
X128028571Y-119171428D02*
X128142857Y-119171428D01*
X128200000Y-119200000D01*
X128257142Y-119257142D01*
X128285714Y-119371428D01*
X128285714Y-119571428D01*
X128257142Y-119685714D01*
X128200000Y-119742857D01*
X128142857Y-119771428D01*
X128028571Y-119771428D01*
X127971428Y-119742857D01*
X127914285Y-119685714D01*
X127885714Y-119571428D01*
X127885714Y-119371428D01*
X127914285Y-119257142D01*
X127971428Y-119200000D01*
X128028571Y-119171428D01*
X128542857Y-119171428D02*
X128542857Y-119657142D01*
X128571428Y-119714285D01*
X128600000Y-119742857D01*
X128657142Y-119771428D01*
X128771428Y-119771428D01*
X128828571Y-119742857D01*
X128857142Y-119714285D01*
X128885714Y-119657142D01*
X128885714Y-119171428D01*
X129085714Y-119171428D02*
X129428571Y-119171428D01*
X129257142Y-119771428D02*
X129257142Y-119171428D01*
X129628571Y-119542857D02*
X130085714Y-119542857D01*
X129857142Y-119771428D02*
X129857142Y-119314285D01*
X163235714Y-82207142D02*
X163035714Y-82207142D01*
X163035714Y-82521428D02*
X163035714Y-81921428D01*
X163321428Y-81921428D01*
X163550000Y-81921428D02*
X163550000Y-82407142D01*
X163578571Y-82464285D01*
X163607142Y-82492857D01*
X163664285Y-82521428D01*
X163778571Y-82521428D01*
X163835714Y-82492857D01*
X163864285Y-82464285D01*
X163892857Y-82407142D01*
X163892857Y-81921428D01*
X164492857Y-82521428D02*
X164150000Y-82521428D01*
X164321428Y-82521428D02*
X164321428Y-81921428D01*
X164264285Y-82007142D01*
X164207142Y-82064285D01*
X164150000Y-82092857D01*
X105507142Y-98021428D02*
X105507142Y-97421428D01*
X105650000Y-97421428D01*
X105735714Y-97450000D01*
X105792857Y-97507142D01*
X105821428Y-97564285D01*
X105850000Y-97678571D01*
X105850000Y-97764285D01*
X105821428Y-97878571D01*
X105792857Y-97935714D01*
X105735714Y-97992857D01*
X105650000Y-98021428D01*
X105507142Y-98021428D01*
X106107142Y-98021428D02*
X106107142Y-97421428D01*
X106250000Y-97421428D01*
X106335714Y-97450000D01*
X106392857Y-97507142D01*
X106421428Y-97564285D01*
X106450000Y-97678571D01*
X106450000Y-97764285D01*
X106421428Y-97878571D01*
X106392857Y-97935714D01*
X106335714Y-97992857D01*
X106250000Y-98021428D01*
X106107142Y-98021428D01*
X106678571Y-97478571D02*
X106707142Y-97450000D01*
X106764285Y-97421428D01*
X106907142Y-97421428D01*
X106964285Y-97450000D01*
X106992857Y-97478571D01*
X107021428Y-97535714D01*
X107021428Y-97592857D01*
X106992857Y-97678571D01*
X106650000Y-98021428D01*
X107021428Y-98021428D01*
X85364285Y-83214285D02*
X85335714Y-83242857D01*
X85250000Y-83271428D01*
X85192857Y-83271428D01*
X85107142Y-83242857D01*
X85050000Y-83185714D01*
X85021428Y-83128571D01*
X84992857Y-83014285D01*
X84992857Y-82928571D01*
X85021428Y-82814285D01*
X85050000Y-82757142D01*
X85107142Y-82700000D01*
X85192857Y-82671428D01*
X85250000Y-82671428D01*
X85335714Y-82700000D01*
X85364285Y-82728571D01*
X85935714Y-83271428D02*
X85592857Y-83271428D01*
X85764285Y-83271428D02*
X85764285Y-82671428D01*
X85707142Y-82757142D01*
X85650000Y-82814285D01*
X85592857Y-82842857D01*
X86478571Y-82671428D02*
X86192857Y-82671428D01*
X86164285Y-82957142D01*
X86192857Y-82928571D01*
X86250000Y-82900000D01*
X86392857Y-82900000D01*
X86450000Y-82928571D01*
X86478571Y-82957142D01*
X86507142Y-83014285D01*
X86507142Y-83157142D01*
X86478571Y-83214285D01*
X86450000Y-83242857D01*
X86392857Y-83271428D01*
X86250000Y-83271428D01*
X86192857Y-83242857D01*
X86164285Y-83214285D01*
X99264285Y-93714285D02*
X99235714Y-93742857D01*
X99150000Y-93771428D01*
X99092857Y-93771428D01*
X99007142Y-93742857D01*
X98950000Y-93685714D01*
X98921428Y-93628571D01*
X98892857Y-93514285D01*
X98892857Y-93428571D01*
X98921428Y-93314285D01*
X98950000Y-93257142D01*
X99007142Y-93200000D01*
X99092857Y-93171428D01*
X99150000Y-93171428D01*
X99235714Y-93200000D01*
X99264285Y-93228571D01*
X99835714Y-93771428D02*
X99492857Y-93771428D01*
X99664285Y-93771428D02*
X99664285Y-93171428D01*
X99607142Y-93257142D01*
X99550000Y-93314285D01*
X99492857Y-93342857D01*
X100350000Y-93371428D02*
X100350000Y-93771428D01*
X100207142Y-93142857D02*
X100064285Y-93571428D01*
X100435714Y-93571428D01*
X102264285Y-117714285D02*
X102235714Y-117742857D01*
X102150000Y-117771428D01*
X102092857Y-117771428D01*
X102007142Y-117742857D01*
X101950000Y-117685714D01*
X101921428Y-117628571D01*
X101892857Y-117514285D01*
X101892857Y-117428571D01*
X101921428Y-117314285D01*
X101950000Y-117257142D01*
X102007142Y-117200000D01*
X102092857Y-117171428D01*
X102150000Y-117171428D01*
X102235714Y-117200000D01*
X102264285Y-117228571D01*
X102835714Y-117771428D02*
X102492857Y-117771428D01*
X102664285Y-117771428D02*
X102664285Y-117171428D01*
X102607142Y-117257142D01*
X102550000Y-117314285D01*
X102492857Y-117342857D01*
X103350000Y-117171428D02*
X103235714Y-117171428D01*
X103178571Y-117200000D01*
X103150000Y-117228571D01*
X103092857Y-117314285D01*
X103064285Y-117428571D01*
X103064285Y-117657142D01*
X103092857Y-117714285D01*
X103121428Y-117742857D01*
X103178571Y-117771428D01*
X103292857Y-117771428D01*
X103350000Y-117742857D01*
X103378571Y-117714285D01*
X103407142Y-117657142D01*
X103407142Y-117514285D01*
X103378571Y-117457142D01*
X103350000Y-117428571D01*
X103292857Y-117400000D01*
X103178571Y-117400000D01*
X103121428Y-117428571D01*
X103092857Y-117457142D01*
X103064285Y-117514285D01*
X81864285Y-112964285D02*
X81835714Y-112992857D01*
X81750000Y-113021428D01*
X81692857Y-113021428D01*
X81607142Y-112992857D01*
X81550000Y-112935714D01*
X81521428Y-112878571D01*
X81492857Y-112764285D01*
X81492857Y-112678571D01*
X81521428Y-112564285D01*
X81550000Y-112507142D01*
X81607142Y-112450000D01*
X81692857Y-112421428D01*
X81750000Y-112421428D01*
X81835714Y-112450000D01*
X81864285Y-112478571D01*
X82435714Y-113021428D02*
X82092857Y-113021428D01*
X82264285Y-113021428D02*
X82264285Y-112421428D01*
X82207142Y-112507142D01*
X82150000Y-112564285D01*
X82092857Y-112592857D01*
X82664285Y-112478571D02*
X82692857Y-112450000D01*
X82750000Y-112421428D01*
X82892857Y-112421428D01*
X82950000Y-112450000D01*
X82978571Y-112478571D01*
X83007142Y-112535714D01*
X83007142Y-112592857D01*
X82978571Y-112678571D01*
X82635714Y-113021428D01*
X83007142Y-113021428D01*
X112114285Y-122714285D02*
X112085714Y-122742857D01*
X112000000Y-122771428D01*
X111942857Y-122771428D01*
X111857142Y-122742857D01*
X111800000Y-122685714D01*
X111771428Y-122628571D01*
X111742857Y-122514285D01*
X111742857Y-122428571D01*
X111771428Y-122314285D01*
X111800000Y-122257142D01*
X111857142Y-122200000D01*
X111942857Y-122171428D01*
X112000000Y-122171428D01*
X112085714Y-122200000D01*
X112114285Y-122228571D01*
X112685714Y-122771428D02*
X112342857Y-122771428D01*
X112514285Y-122771428D02*
X112514285Y-122171428D01*
X112457142Y-122257142D01*
X112400000Y-122314285D01*
X112342857Y-122342857D01*
X112885714Y-122171428D02*
X113257142Y-122171428D01*
X113057142Y-122400000D01*
X113142857Y-122400000D01*
X113200000Y-122428571D01*
X113228571Y-122457142D01*
X113257142Y-122514285D01*
X113257142Y-122657142D01*
X113228571Y-122714285D01*
X113200000Y-122742857D01*
X113142857Y-122771428D01*
X112971428Y-122771428D01*
X112914285Y-122742857D01*
X112885714Y-122714285D01*
X102514285Y-107714285D02*
X102485714Y-107742857D01*
X102400000Y-107771428D01*
X102342857Y-107771428D01*
X102257142Y-107742857D01*
X102200000Y-107685714D01*
X102171428Y-107628571D01*
X102142857Y-107514285D01*
X102142857Y-107428571D01*
X102171428Y-107314285D01*
X102200000Y-107257142D01*
X102257142Y-107200000D01*
X102342857Y-107171428D01*
X102400000Y-107171428D01*
X102485714Y-107200000D01*
X102514285Y-107228571D01*
X103085714Y-107771428D02*
X102742857Y-107771428D01*
X102914285Y-107771428D02*
X102914285Y-107171428D01*
X102857142Y-107257142D01*
X102800000Y-107314285D01*
X102742857Y-107342857D01*
X103657142Y-107771428D02*
X103314285Y-107771428D01*
X103485714Y-107771428D02*
X103485714Y-107171428D01*
X103428571Y-107257142D01*
X103371428Y-107314285D01*
X103314285Y-107342857D01*
X170114285Y-113964285D02*
X170085714Y-113992857D01*
X170000000Y-114021428D01*
X169942857Y-114021428D01*
X169857142Y-113992857D01*
X169800000Y-113935714D01*
X169771428Y-113878571D01*
X169742857Y-113764285D01*
X169742857Y-113678571D01*
X169771428Y-113564285D01*
X169800000Y-113507142D01*
X169857142Y-113450000D01*
X169942857Y-113421428D01*
X170000000Y-113421428D01*
X170085714Y-113450000D01*
X170114285Y-113478571D01*
X170685714Y-114021428D02*
X170342857Y-114021428D01*
X170514285Y-114021428D02*
X170514285Y-113421428D01*
X170457142Y-113507142D01*
X170400000Y-113564285D01*
X170342857Y-113592857D01*
X171057142Y-113421428D02*
X171114285Y-113421428D01*
X171171428Y-113450000D01*
X171200000Y-113478571D01*
X171228571Y-113535714D01*
X171257142Y-113650000D01*
X171257142Y-113792857D01*
X171228571Y-113907142D01*
X171200000Y-113964285D01*
X171171428Y-113992857D01*
X171114285Y-114021428D01*
X171057142Y-114021428D01*
X171000000Y-113992857D01*
X170971428Y-113964285D01*
X170942857Y-113907142D01*
X170914285Y-113792857D01*
X170914285Y-113650000D01*
X170942857Y-113535714D01*
X170971428Y-113478571D01*
X171000000Y-113450000D01*
X171057142Y-113421428D01*
X109900000Y-103214285D02*
X109871428Y-103242857D01*
X109785714Y-103271428D01*
X109728571Y-103271428D01*
X109642857Y-103242857D01*
X109585714Y-103185714D01*
X109557142Y-103128571D01*
X109528571Y-103014285D01*
X109528571Y-102928571D01*
X109557142Y-102814285D01*
X109585714Y-102757142D01*
X109642857Y-102700000D01*
X109728571Y-102671428D01*
X109785714Y-102671428D01*
X109871428Y-102700000D01*
X109900000Y-102728571D01*
X110185714Y-103271428D02*
X110300000Y-103271428D01*
X110357142Y-103242857D01*
X110385714Y-103214285D01*
X110442857Y-103128571D01*
X110471428Y-103014285D01*
X110471428Y-102785714D01*
X110442857Y-102728571D01*
X110414285Y-102700000D01*
X110357142Y-102671428D01*
X110242857Y-102671428D01*
X110185714Y-102700000D01*
X110157142Y-102728571D01*
X110128571Y-102785714D01*
X110128571Y-102928571D01*
X110157142Y-102985714D01*
X110185714Y-103014285D01*
X110242857Y-103042857D01*
X110357142Y-103042857D01*
X110414285Y-103014285D01*
X110442857Y-102985714D01*
X110471428Y-102928571D01*
X108800000Y-107714285D02*
X108771428Y-107742857D01*
X108685714Y-107771428D01*
X108628571Y-107771428D01*
X108542857Y-107742857D01*
X108485714Y-107685714D01*
X108457142Y-107628571D01*
X108428571Y-107514285D01*
X108428571Y-107428571D01*
X108457142Y-107314285D01*
X108485714Y-107257142D01*
X108542857Y-107200000D01*
X108628571Y-107171428D01*
X108685714Y-107171428D01*
X108771428Y-107200000D01*
X108800000Y-107228571D01*
X109142857Y-107428571D02*
X109085714Y-107400000D01*
X109057142Y-107371428D01*
X109028571Y-107314285D01*
X109028571Y-107285714D01*
X109057142Y-107228571D01*
X109085714Y-107200000D01*
X109142857Y-107171428D01*
X109257142Y-107171428D01*
X109314285Y-107200000D01*
X109342857Y-107228571D01*
X109371428Y-107285714D01*
X109371428Y-107314285D01*
X109342857Y-107371428D01*
X109314285Y-107400000D01*
X109257142Y-107428571D01*
X109142857Y-107428571D01*
X109085714Y-107457142D01*
X109057142Y-107485714D01*
X109028571Y-107542857D01*
X109028571Y-107657142D01*
X109057142Y-107714285D01*
X109085714Y-107742857D01*
X109142857Y-107771428D01*
X109257142Y-107771428D01*
X109314285Y-107742857D01*
X109342857Y-107714285D01*
X109371428Y-107657142D01*
X109371428Y-107542857D01*
X109342857Y-107485714D01*
X109314285Y-107457142D01*
X109257142Y-107428571D01*
X107900000Y-98464285D02*
X107871428Y-98492857D01*
X107785714Y-98521428D01*
X107728571Y-98521428D01*
X107642857Y-98492857D01*
X107585714Y-98435714D01*
X107557142Y-98378571D01*
X107528571Y-98264285D01*
X107528571Y-98178571D01*
X107557142Y-98064285D01*
X107585714Y-98007142D01*
X107642857Y-97950000D01*
X107728571Y-97921428D01*
X107785714Y-97921428D01*
X107871428Y-97950000D01*
X107900000Y-97978571D01*
X108100000Y-97921428D02*
X108500000Y-97921428D01*
X108242857Y-98521428D01*
X81821428Y-59600000D02*
X82107142Y-59600000D01*
X81764285Y-59771428D02*
X81964285Y-59171428D01*
X82164285Y-59771428D01*
X82678571Y-59771428D02*
X82335714Y-59771428D01*
X82507142Y-59771428D02*
X82507142Y-59171428D01*
X82450000Y-59257142D01*
X82392857Y-59314285D01*
X82335714Y-59342857D01*
X104478571Y-63457142D02*
X104450000Y-63428571D01*
X104421428Y-63371428D01*
X104421428Y-63228571D01*
X104450000Y-63171428D01*
X104478571Y-63142857D01*
X104535714Y-63114285D01*
X104592857Y-63114285D01*
X104678571Y-63142857D01*
X105021428Y-63485714D01*
X105021428Y-63114285D01*
X104621428Y-62600000D02*
X105021428Y-62600000D01*
X104392857Y-62742857D02*
X104821428Y-62885714D01*
X104821428Y-62514285D01*
X105021428Y-75614285D02*
X105021428Y-75957142D01*
X105021428Y-75785714D02*
X104421428Y-75785714D01*
X104507142Y-75842857D01*
X104564285Y-75900000D01*
X104592857Y-75957142D01*
X104421428Y-75071428D02*
X104421428Y-75357142D01*
X104707142Y-75385714D01*
X104678571Y-75357142D01*
X104650000Y-75300000D01*
X104650000Y-75157142D01*
X104678571Y-75100000D01*
X104707142Y-75071428D01*
X104764285Y-75042857D01*
X104907142Y-75042857D01*
X104964285Y-75071428D01*
X104992857Y-75100000D01*
X105021428Y-75157142D01*
X105021428Y-75300000D01*
X104992857Y-75357142D01*
X104964285Y-75385714D01*
X110271428Y-77114285D02*
X110271428Y-77457142D01*
X110271428Y-77285714D02*
X109671428Y-77285714D01*
X109757142Y-77342857D01*
X109814285Y-77400000D01*
X109842857Y-77457142D01*
X110271428Y-76828571D02*
X110271428Y-76714285D01*
X110242857Y-76657142D01*
X110214285Y-76628571D01*
X110128571Y-76571428D01*
X110014285Y-76542857D01*
X109785714Y-76542857D01*
X109728571Y-76571428D01*
X109700000Y-76600000D01*
X109671428Y-76657142D01*
X109671428Y-76771428D01*
X109700000Y-76828571D01*
X109728571Y-76857142D01*
X109785714Y-76885714D01*
X109928571Y-76885714D01*
X109985714Y-76857142D01*
X110014285Y-76828571D01*
X110042857Y-76771428D01*
X110042857Y-76657142D01*
X110014285Y-76600000D01*
X109985714Y-76571428D01*
X109928571Y-76542857D01*
X83671428Y-59735714D02*
X83671428Y-59364285D01*
X83900000Y-59564285D01*
X83900000Y-59478571D01*
X83928571Y-59421428D01*
X83957142Y-59392857D01*
X84014285Y-59364285D01*
X84157142Y-59364285D01*
X84214285Y-59392857D01*
X84242857Y-59421428D01*
X84271428Y-59478571D01*
X84271428Y-59650000D01*
X84242857Y-59707142D01*
X84214285Y-59735714D01*
X83928571Y-59021428D02*
X83900000Y-59078571D01*
X83871428Y-59107142D01*
X83814285Y-59135714D01*
X83785714Y-59135714D01*
X83728571Y-59107142D01*
X83700000Y-59078571D01*
X83671428Y-59021428D01*
X83671428Y-58907142D01*
X83700000Y-58850000D01*
X83728571Y-58821428D01*
X83785714Y-58792857D01*
X83814285Y-58792857D01*
X83871428Y-58821428D01*
X83900000Y-58850000D01*
X83928571Y-58907142D01*
X83928571Y-59021428D01*
X83957142Y-59078571D01*
X83985714Y-59107142D01*
X84042857Y-59135714D01*
X84157142Y-59135714D01*
X84214285Y-59107142D01*
X84242857Y-59078571D01*
X84271428Y-59021428D01*
X84271428Y-58907142D01*
X84242857Y-58850000D01*
X84214285Y-58821428D01*
X84157142Y-58792857D01*
X84042857Y-58792857D01*
X83985714Y-58821428D01*
X83957142Y-58850000D01*
X83928571Y-58907142D01*
M02*
