G04 #@! TF.GenerationSoftware,KiCad,Pcbnew,(5.1.2-1)-1*
G04 #@! TF.CreationDate,2020-09-08T18:19:47+03:00*
G04 #@! TF.ProjectId,UAK_0,55414b5f-302e-46b6-9963-61645f706362,rev?*
G04 #@! TF.SameCoordinates,Original*
G04 #@! TF.FileFunction,Legend,Bot*
G04 #@! TF.FilePolarity,Positive*
%FSLAX46Y46*%
G04 Gerber Fmt 4.6, Leading zero omitted, Abs format (unit mm)*
G04 Created by KiCad (PCBNEW (5.1.2-1)-1) date 2020-09-08 18:19:47*
%MOMM*%
%LPD*%
G04 APERTURE LIST*
%ADD10C,0.150000*%
%ADD11C,0.300000*%
G04 APERTURE END LIST*
D10*
X107292976Y-112100000D02*
X107369166Y-112061904D01*
X107483452Y-112061904D01*
X107597738Y-112100000D01*
X107673928Y-112176190D01*
X107712023Y-112252380D01*
X107750119Y-112404761D01*
X107750119Y-112519047D01*
X107712023Y-112671428D01*
X107673928Y-112747619D01*
X107597738Y-112823809D01*
X107483452Y-112861904D01*
X107407261Y-112861904D01*
X107292976Y-112823809D01*
X107254880Y-112785714D01*
X107254880Y-112519047D01*
X107407261Y-112519047D01*
X106912023Y-112861904D02*
X106912023Y-112061904D01*
X106454880Y-112861904D01*
X106454880Y-112061904D01*
X106073928Y-112861904D02*
X106073928Y-112061904D01*
X105883452Y-112061904D01*
X105769166Y-112100000D01*
X105692976Y-112176190D01*
X105654880Y-112252380D01*
X105616785Y-112404761D01*
X105616785Y-112519047D01*
X105654880Y-112671428D01*
X105692976Y-112747619D01*
X105769166Y-112823809D01*
X105883452Y-112861904D01*
X106073928Y-112861904D01*
X99297500Y-112861904D02*
X99754642Y-112861904D01*
X99526071Y-112861904D02*
X99526071Y-112061904D01*
X99602261Y-112176190D01*
X99678452Y-112252380D01*
X99754642Y-112290476D01*
X98992738Y-112138095D02*
X98954642Y-112100000D01*
X98878452Y-112061904D01*
X98687976Y-112061904D01*
X98611785Y-112100000D01*
X98573690Y-112138095D01*
X98535595Y-112214285D01*
X98535595Y-112290476D01*
X98573690Y-112404761D01*
X99030833Y-112861904D01*
X98535595Y-112861904D01*
X98307023Y-112061904D02*
X98040357Y-112861904D01*
X97773690Y-112061904D01*
X98573690Y-92061904D02*
X98954642Y-92061904D01*
X98992738Y-92442857D01*
X98954642Y-92404761D01*
X98878452Y-92366666D01*
X98687976Y-92366666D01*
X98611785Y-92404761D01*
X98573690Y-92442857D01*
X98535595Y-92519047D01*
X98535595Y-92709523D01*
X98573690Y-92785714D01*
X98611785Y-92823809D01*
X98687976Y-92861904D01*
X98878452Y-92861904D01*
X98954642Y-92823809D01*
X98992738Y-92785714D01*
X98307023Y-92061904D02*
X98040357Y-92861904D01*
X97773690Y-92061904D01*
X91611785Y-92211904D02*
X91878452Y-91830952D01*
X92068928Y-92211904D02*
X92068928Y-91411904D01*
X91764166Y-91411904D01*
X91687976Y-91450000D01*
X91649880Y-91488095D01*
X91611785Y-91564285D01*
X91611785Y-91678571D01*
X91649880Y-91754761D01*
X91687976Y-91792857D01*
X91764166Y-91830952D01*
X92068928Y-91830952D01*
X91345119Y-91411904D02*
X90811785Y-92211904D01*
X90811785Y-91411904D02*
X91345119Y-92211904D01*
X91992738Y-89011904D02*
X91535595Y-89011904D01*
X91764166Y-89811904D02*
X91764166Y-89011904D01*
X91345119Y-89011904D02*
X90811785Y-89811904D01*
X90811785Y-89011904D02*
X91345119Y-89811904D01*
X94621309Y-86411904D02*
X94126071Y-86411904D01*
X94392738Y-86716666D01*
X94278452Y-86716666D01*
X94202261Y-86754761D01*
X94164166Y-86792857D01*
X94126071Y-86869047D01*
X94126071Y-87059523D01*
X94164166Y-87135714D01*
X94202261Y-87173809D01*
X94278452Y-87211904D01*
X94507023Y-87211904D01*
X94583214Y-87173809D01*
X94621309Y-87135714D01*
X93897500Y-86411904D02*
X93630833Y-87211904D01*
X93364166Y-86411904D01*
X93173690Y-86411904D02*
X92678452Y-86411904D01*
X92945119Y-86716666D01*
X92830833Y-86716666D01*
X92754642Y-86754761D01*
X92716547Y-86792857D01*
X92678452Y-86869047D01*
X92678452Y-87059523D01*
X92716547Y-87135714D01*
X92754642Y-87173809D01*
X92830833Y-87211904D01*
X93059404Y-87211904D01*
X93135595Y-87173809D01*
X93173690Y-87135714D01*
X91726071Y-87211904D02*
X91726071Y-86411904D01*
X91345119Y-87211904D02*
X91345119Y-86411904D01*
X90887976Y-87211904D01*
X90887976Y-86411904D01*
X92526071Y-94050000D02*
X92602261Y-94011904D01*
X92716547Y-94011904D01*
X92830833Y-94050000D01*
X92907023Y-94126190D01*
X92945119Y-94202380D01*
X92983214Y-94354761D01*
X92983214Y-94469047D01*
X92945119Y-94621428D01*
X92907023Y-94697619D01*
X92830833Y-94773809D01*
X92716547Y-94811904D01*
X92640357Y-94811904D01*
X92526071Y-94773809D01*
X92487976Y-94735714D01*
X92487976Y-94469047D01*
X92640357Y-94469047D01*
X92145119Y-94811904D02*
X92145119Y-94011904D01*
X91687976Y-94811904D01*
X91687976Y-94011904D01*
X91307023Y-94811904D02*
X91307023Y-94011904D01*
X91116547Y-94011904D01*
X91002261Y-94050000D01*
X90926071Y-94126190D01*
X90887976Y-94202380D01*
X90849880Y-94354761D01*
X90849880Y-94469047D01*
X90887976Y-94621428D01*
X90926071Y-94697619D01*
X91002261Y-94773809D01*
X91116547Y-94811904D01*
X91307023Y-94811904D01*
X90137976Y-127192857D02*
X89871309Y-127192857D01*
X89757023Y-127611904D02*
X90137976Y-127611904D01*
X90137976Y-126811904D01*
X89757023Y-126811904D01*
X89490357Y-126811904D02*
X88957023Y-127611904D01*
X88957023Y-126811904D02*
X89490357Y-127611904D01*
X88766547Y-126811904D02*
X88309404Y-126811904D01*
X88537976Y-127611904D02*
X88537976Y-126811904D01*
X88233214Y-127688095D02*
X87623690Y-127688095D01*
X87280833Y-126811904D02*
X87204642Y-126811904D01*
X87128452Y-126850000D01*
X87090357Y-126888095D01*
X87052261Y-126964285D01*
X87014166Y-127116666D01*
X87014166Y-127307142D01*
X87052261Y-127459523D01*
X87090357Y-127535714D01*
X87128452Y-127573809D01*
X87204642Y-127611904D01*
X87280833Y-127611904D01*
X87357023Y-127573809D01*
X87395119Y-127535714D01*
X87433214Y-127459523D01*
X87471309Y-127307142D01*
X87471309Y-127116666D01*
X87433214Y-126964285D01*
X87395119Y-126888095D01*
X87357023Y-126850000D01*
X87280833Y-126811904D01*
X86785595Y-126811904D02*
X86518928Y-127611904D01*
X86252261Y-126811904D01*
X85376071Y-127611904D02*
X85376071Y-126811904D01*
X84995119Y-127611904D02*
X84995119Y-126811904D01*
X84537976Y-127611904D01*
X84537976Y-126811904D01*
X90899880Y-122192857D02*
X90633214Y-122192857D01*
X90518928Y-122611904D02*
X90899880Y-122611904D01*
X90899880Y-121811904D01*
X90518928Y-121811904D01*
X90252261Y-121811904D02*
X89718928Y-122611904D01*
X89718928Y-121811904D02*
X90252261Y-122611904D01*
X89528452Y-121811904D02*
X89071309Y-121811904D01*
X89299880Y-122611904D02*
X89299880Y-121811904D01*
X88995119Y-122688095D02*
X88385595Y-122688095D01*
X87776071Y-122611904D02*
X88233214Y-122611904D01*
X88004642Y-122611904D02*
X88004642Y-121811904D01*
X88080833Y-121926190D01*
X88157023Y-122002380D01*
X88233214Y-122040476D01*
X87471309Y-121888095D02*
X87433214Y-121850000D01*
X87357023Y-121811904D01*
X87166547Y-121811904D01*
X87090357Y-121850000D01*
X87052261Y-121888095D01*
X87014166Y-121964285D01*
X87014166Y-122040476D01*
X87052261Y-122154761D01*
X87509404Y-122611904D01*
X87014166Y-122611904D01*
X86785595Y-121811904D02*
X86518928Y-122611904D01*
X86252261Y-121811904D01*
X85376071Y-122611904D02*
X85376071Y-121811904D01*
X84995119Y-122611904D02*
X84995119Y-121811904D01*
X84537976Y-122611904D01*
X84537976Y-121811904D01*
X165750119Y-89638095D02*
X165712023Y-89600000D01*
X165635833Y-89561904D01*
X165445357Y-89561904D01*
X165369166Y-89600000D01*
X165331071Y-89638095D01*
X165292976Y-89714285D01*
X165292976Y-89790476D01*
X165331071Y-89904761D01*
X165788214Y-90361904D01*
X165292976Y-90361904D01*
X164988214Y-89638095D02*
X164950119Y-89600000D01*
X164873928Y-89561904D01*
X164683452Y-89561904D01*
X164607261Y-89600000D01*
X164569166Y-89638095D01*
X164531071Y-89714285D01*
X164531071Y-89790476D01*
X164569166Y-89904761D01*
X165026309Y-90361904D01*
X164531071Y-90361904D01*
X164035833Y-89561904D02*
X163959642Y-89561904D01*
X163883452Y-89600000D01*
X163845357Y-89638095D01*
X163807261Y-89714285D01*
X163769166Y-89866666D01*
X163769166Y-90057142D01*
X163807261Y-90209523D01*
X163845357Y-90285714D01*
X163883452Y-90323809D01*
X163959642Y-90361904D01*
X164035833Y-90361904D01*
X164112023Y-90323809D01*
X164150119Y-90285714D01*
X164188214Y-90209523D01*
X164226309Y-90057142D01*
X164226309Y-89866666D01*
X164188214Y-89714285D01*
X164150119Y-89638095D01*
X164112023Y-89600000D01*
X164035833Y-89561904D01*
X163616785Y-90438095D02*
X163007261Y-90438095D01*
X162816785Y-90361904D02*
X162816785Y-89561904D01*
X162359642Y-90361904D01*
X162359642Y-89561904D01*
X161369166Y-90361904D02*
X161369166Y-89561904D01*
X160988214Y-90361904D02*
X160988214Y-89561904D01*
X160531071Y-90361904D01*
X160531071Y-89561904D01*
X165750119Y-84638095D02*
X165712023Y-84600000D01*
X165635833Y-84561904D01*
X165445357Y-84561904D01*
X165369166Y-84600000D01*
X165331071Y-84638095D01*
X165292976Y-84714285D01*
X165292976Y-84790476D01*
X165331071Y-84904761D01*
X165788214Y-85361904D01*
X165292976Y-85361904D01*
X164988214Y-84638095D02*
X164950119Y-84600000D01*
X164873928Y-84561904D01*
X164683452Y-84561904D01*
X164607261Y-84600000D01*
X164569166Y-84638095D01*
X164531071Y-84714285D01*
X164531071Y-84790476D01*
X164569166Y-84904761D01*
X165026309Y-85361904D01*
X164531071Y-85361904D01*
X164035833Y-84561904D02*
X163959642Y-84561904D01*
X163883452Y-84600000D01*
X163845357Y-84638095D01*
X163807261Y-84714285D01*
X163769166Y-84866666D01*
X163769166Y-85057142D01*
X163807261Y-85209523D01*
X163845357Y-85285714D01*
X163883452Y-85323809D01*
X163959642Y-85361904D01*
X164035833Y-85361904D01*
X164112023Y-85323809D01*
X164150119Y-85285714D01*
X164188214Y-85209523D01*
X164226309Y-85057142D01*
X164226309Y-84866666D01*
X164188214Y-84714285D01*
X164150119Y-84638095D01*
X164112023Y-84600000D01*
X164035833Y-84561904D01*
X163616785Y-85438095D02*
X163007261Y-85438095D01*
X162435833Y-85361904D02*
X162816785Y-85361904D01*
X162816785Y-84561904D01*
X161559642Y-85361904D02*
X161559642Y-84561904D01*
X161178690Y-85361904D02*
X161178690Y-84561904D01*
X160721547Y-85361904D01*
X160721547Y-84561904D01*
X165750119Y-79638095D02*
X165712023Y-79600000D01*
X165635833Y-79561904D01*
X165445357Y-79561904D01*
X165369166Y-79600000D01*
X165331071Y-79638095D01*
X165292976Y-79714285D01*
X165292976Y-79790476D01*
X165331071Y-79904761D01*
X165788214Y-80361904D01*
X165292976Y-80361904D01*
X164988214Y-79638095D02*
X164950119Y-79600000D01*
X164873928Y-79561904D01*
X164683452Y-79561904D01*
X164607261Y-79600000D01*
X164569166Y-79638095D01*
X164531071Y-79714285D01*
X164531071Y-79790476D01*
X164569166Y-79904761D01*
X165026309Y-80361904D01*
X164531071Y-80361904D01*
X164035833Y-79561904D02*
X163959642Y-79561904D01*
X163883452Y-79600000D01*
X163845357Y-79638095D01*
X163807261Y-79714285D01*
X163769166Y-79866666D01*
X163769166Y-80057142D01*
X163807261Y-80209523D01*
X163845357Y-80285714D01*
X163883452Y-80323809D01*
X163959642Y-80361904D01*
X164035833Y-80361904D01*
X164112023Y-80323809D01*
X164150119Y-80285714D01*
X164188214Y-80209523D01*
X164226309Y-80057142D01*
X164226309Y-79866666D01*
X164188214Y-79714285D01*
X164150119Y-79638095D01*
X164112023Y-79600000D01*
X164035833Y-79561904D01*
X163616785Y-80438095D02*
X163007261Y-80438095D01*
X162435833Y-80361904D02*
X162816785Y-80361904D01*
X162816785Y-79561904D01*
X161407261Y-79561904D02*
X161254880Y-79561904D01*
X161178690Y-79600000D01*
X161102500Y-79676190D01*
X161064404Y-79828571D01*
X161064404Y-80095238D01*
X161102500Y-80247619D01*
X161178690Y-80323809D01*
X161254880Y-80361904D01*
X161407261Y-80361904D01*
X161483452Y-80323809D01*
X161559642Y-80247619D01*
X161597738Y-80095238D01*
X161597738Y-79828571D01*
X161559642Y-79676190D01*
X161483452Y-79600000D01*
X161407261Y-79561904D01*
X160721547Y-79561904D02*
X160721547Y-80209523D01*
X160683452Y-80285714D01*
X160645357Y-80323809D01*
X160569166Y-80361904D01*
X160416785Y-80361904D01*
X160340595Y-80323809D01*
X160302500Y-80285714D01*
X160264404Y-80209523D01*
X160264404Y-79561904D01*
X159997738Y-79561904D02*
X159540595Y-79561904D01*
X159769166Y-80361904D02*
X159769166Y-79561904D01*
X165750119Y-74638095D02*
X165712023Y-74600000D01*
X165635833Y-74561904D01*
X165445357Y-74561904D01*
X165369166Y-74600000D01*
X165331071Y-74638095D01*
X165292976Y-74714285D01*
X165292976Y-74790476D01*
X165331071Y-74904761D01*
X165788214Y-75361904D01*
X165292976Y-75361904D01*
X164988214Y-74638095D02*
X164950119Y-74600000D01*
X164873928Y-74561904D01*
X164683452Y-74561904D01*
X164607261Y-74600000D01*
X164569166Y-74638095D01*
X164531071Y-74714285D01*
X164531071Y-74790476D01*
X164569166Y-74904761D01*
X165026309Y-75361904D01*
X164531071Y-75361904D01*
X164035833Y-74561904D02*
X163959642Y-74561904D01*
X163883452Y-74600000D01*
X163845357Y-74638095D01*
X163807261Y-74714285D01*
X163769166Y-74866666D01*
X163769166Y-75057142D01*
X163807261Y-75209523D01*
X163845357Y-75285714D01*
X163883452Y-75323809D01*
X163959642Y-75361904D01*
X164035833Y-75361904D01*
X164112023Y-75323809D01*
X164150119Y-75285714D01*
X164188214Y-75209523D01*
X164226309Y-75057142D01*
X164226309Y-74866666D01*
X164188214Y-74714285D01*
X164150119Y-74638095D01*
X164112023Y-74600000D01*
X164035833Y-74561904D01*
X163616785Y-75438095D02*
X163007261Y-75438095D01*
X162816785Y-75361904D02*
X162816785Y-74561904D01*
X162359642Y-75361904D01*
X162359642Y-74561904D01*
X160912023Y-75361904D02*
X161178690Y-74980952D01*
X161369166Y-75361904D02*
X161369166Y-74561904D01*
X161064404Y-74561904D01*
X160988214Y-74600000D01*
X160950119Y-74638095D01*
X160912023Y-74714285D01*
X160912023Y-74828571D01*
X160950119Y-74904761D01*
X160988214Y-74942857D01*
X161064404Y-74980952D01*
X161369166Y-74980952D01*
X160569166Y-74942857D02*
X160302500Y-74942857D01*
X160188214Y-75361904D02*
X160569166Y-75361904D01*
X160569166Y-74561904D01*
X160188214Y-74561904D01*
X159464404Y-75361904D02*
X159845357Y-75361904D01*
X159845357Y-74561904D01*
X159235833Y-75133333D02*
X158854880Y-75133333D01*
X159312023Y-75361904D02*
X159045357Y-74561904D01*
X158778690Y-75361904D01*
X158359642Y-74980952D02*
X158359642Y-75361904D01*
X158626309Y-74561904D02*
X158359642Y-74980952D01*
X158092976Y-74561904D01*
X161442857Y-58554642D02*
X161480952Y-58668928D01*
X161519047Y-58707023D01*
X161595238Y-58745119D01*
X161709523Y-58745119D01*
X161785714Y-58707023D01*
X161823809Y-58668928D01*
X161861904Y-58592738D01*
X161861904Y-58287976D01*
X161061904Y-58287976D01*
X161061904Y-58554642D01*
X161100000Y-58630833D01*
X161138095Y-58668928D01*
X161214285Y-58707023D01*
X161290476Y-58707023D01*
X161366666Y-58668928D01*
X161404761Y-58630833D01*
X161442857Y-58554642D01*
X161442857Y-58287976D01*
X161061904Y-59087976D02*
X161709523Y-59087976D01*
X161785714Y-59126071D01*
X161823809Y-59164166D01*
X161861904Y-59240357D01*
X161861904Y-59392738D01*
X161823809Y-59468928D01*
X161785714Y-59507023D01*
X161709523Y-59545119D01*
X161061904Y-59545119D01*
X161061904Y-59811785D02*
X161061904Y-60268928D01*
X161861904Y-60040357D02*
X161061904Y-60040357D01*
X161061904Y-60421309D02*
X161061904Y-60878452D01*
X161861904Y-60649880D02*
X161061904Y-60649880D01*
X161938095Y-60954642D02*
X161938095Y-61564166D01*
X161861904Y-62135595D02*
X161861904Y-61754642D01*
X161061904Y-61754642D01*
X161442857Y-62402261D02*
X161442857Y-62668928D01*
X161861904Y-62783214D02*
X161861904Y-62402261D01*
X161061904Y-62402261D01*
X161061904Y-62783214D01*
X161861904Y-63126071D02*
X161061904Y-63126071D01*
X161061904Y-63316547D01*
X161100000Y-63430833D01*
X161176190Y-63507023D01*
X161252380Y-63545119D01*
X161404761Y-63583214D01*
X161519047Y-63583214D01*
X161671428Y-63545119D01*
X161747619Y-63507023D01*
X161823809Y-63430833D01*
X161861904Y-63316547D01*
X161861904Y-63126071D01*
X159361904Y-58707023D02*
X159361904Y-58249880D01*
X159361904Y-58478452D02*
X158561904Y-58478452D01*
X158676190Y-58402261D01*
X158752380Y-58326071D01*
X158790476Y-58249880D01*
X158638095Y-59011785D02*
X158600000Y-59049880D01*
X158561904Y-59126071D01*
X158561904Y-59316547D01*
X158600000Y-59392738D01*
X158638095Y-59430833D01*
X158714285Y-59468928D01*
X158790476Y-59468928D01*
X158904761Y-59430833D01*
X159361904Y-58973690D01*
X159361904Y-59468928D01*
X158561904Y-59697500D02*
X159361904Y-59964166D01*
X158561904Y-60230833D01*
X158561904Y-61259404D02*
X158561904Y-61411785D01*
X158600000Y-61487976D01*
X158676190Y-61564166D01*
X158828571Y-61602261D01*
X159095238Y-61602261D01*
X159247619Y-61564166D01*
X159323809Y-61487976D01*
X159361904Y-61411785D01*
X159361904Y-61259404D01*
X159323809Y-61183214D01*
X159247619Y-61107023D01*
X159095238Y-61068928D01*
X158828571Y-61068928D01*
X158676190Y-61107023D01*
X158600000Y-61183214D01*
X158561904Y-61259404D01*
X158561904Y-61945119D02*
X159209523Y-61945119D01*
X159285714Y-61983214D01*
X159323809Y-62021309D01*
X159361904Y-62097500D01*
X159361904Y-62249880D01*
X159323809Y-62326071D01*
X159285714Y-62364166D01*
X159209523Y-62402261D01*
X158561904Y-62402261D01*
X158561904Y-62668928D02*
X158561904Y-63126071D01*
X159361904Y-62897500D02*
X158561904Y-62897500D01*
X153600000Y-58707023D02*
X153561904Y-58630833D01*
X153561904Y-58516547D01*
X153600000Y-58402261D01*
X153676190Y-58326071D01*
X153752380Y-58287976D01*
X153904761Y-58249880D01*
X154019047Y-58249880D01*
X154171428Y-58287976D01*
X154247619Y-58326071D01*
X154323809Y-58402261D01*
X154361904Y-58516547D01*
X154361904Y-58592738D01*
X154323809Y-58707023D01*
X154285714Y-58745119D01*
X154019047Y-58745119D01*
X154019047Y-58592738D01*
X154361904Y-59087976D02*
X153561904Y-59087976D01*
X154361904Y-59545119D01*
X153561904Y-59545119D01*
X154361904Y-59926071D02*
X153561904Y-59926071D01*
X153561904Y-60116547D01*
X153600000Y-60230833D01*
X153676190Y-60307023D01*
X153752380Y-60345119D01*
X153904761Y-60383214D01*
X154019047Y-60383214D01*
X154171428Y-60345119D01*
X154247619Y-60307023D01*
X154323809Y-60230833D01*
X154361904Y-60116547D01*
X154361904Y-59926071D01*
X151442857Y-58287976D02*
X151442857Y-58554642D01*
X151861904Y-58668928D02*
X151861904Y-58287976D01*
X151061904Y-58287976D01*
X151061904Y-58668928D01*
X151061904Y-58935595D02*
X151861904Y-59468928D01*
X151061904Y-59468928D02*
X151861904Y-58935595D01*
X151061904Y-59659404D02*
X151061904Y-60116547D01*
X151861904Y-59887976D02*
X151061904Y-59887976D01*
X151938095Y-60192738D02*
X151938095Y-60802261D01*
X151442857Y-61259404D02*
X151480952Y-61373690D01*
X151519047Y-61411785D01*
X151595238Y-61449880D01*
X151709523Y-61449880D01*
X151785714Y-61411785D01*
X151823809Y-61373690D01*
X151861904Y-61297500D01*
X151861904Y-60992738D01*
X151061904Y-60992738D01*
X151061904Y-61259404D01*
X151100000Y-61335595D01*
X151138095Y-61373690D01*
X151214285Y-61411785D01*
X151290476Y-61411785D01*
X151366666Y-61373690D01*
X151404761Y-61335595D01*
X151442857Y-61259404D01*
X151442857Y-60992738D01*
X151061904Y-61792738D02*
X151709523Y-61792738D01*
X151785714Y-61830833D01*
X151823809Y-61868928D01*
X151861904Y-61945119D01*
X151861904Y-62097500D01*
X151823809Y-62173690D01*
X151785714Y-62211785D01*
X151709523Y-62249880D01*
X151061904Y-62249880D01*
X151061904Y-62516547D02*
X151061904Y-62973690D01*
X151861904Y-62745119D02*
X151061904Y-62745119D01*
X151061904Y-63126071D02*
X151061904Y-63583214D01*
X151861904Y-63354642D02*
X151061904Y-63354642D01*
X151061904Y-64002261D02*
X151061904Y-64154642D01*
X151100000Y-64230833D01*
X151176190Y-64307023D01*
X151328571Y-64345119D01*
X151595238Y-64345119D01*
X151747619Y-64307023D01*
X151823809Y-64230833D01*
X151861904Y-64154642D01*
X151861904Y-64002261D01*
X151823809Y-63926071D01*
X151747619Y-63849880D01*
X151595238Y-63811785D01*
X151328571Y-63811785D01*
X151176190Y-63849880D01*
X151100000Y-63926071D01*
X151061904Y-64002261D01*
X151861904Y-64687976D02*
X151061904Y-64687976D01*
X151861904Y-65145119D01*
X151061904Y-65145119D01*
X138561904Y-58668928D02*
X138561904Y-58287976D01*
X138942857Y-58249880D01*
X138904761Y-58287976D01*
X138866666Y-58364166D01*
X138866666Y-58554642D01*
X138904761Y-58630833D01*
X138942857Y-58668928D01*
X139019047Y-58707023D01*
X139209523Y-58707023D01*
X139285714Y-58668928D01*
X139323809Y-58630833D01*
X139361904Y-58554642D01*
X139361904Y-58364166D01*
X139323809Y-58287976D01*
X139285714Y-58249880D01*
X138561904Y-58935595D02*
X139361904Y-59202261D01*
X138561904Y-59468928D01*
X138561904Y-60497500D02*
X138561904Y-60649880D01*
X138600000Y-60726071D01*
X138676190Y-60802261D01*
X138828571Y-60840357D01*
X139095238Y-60840357D01*
X139247619Y-60802261D01*
X139323809Y-60726071D01*
X139361904Y-60649880D01*
X139361904Y-60497500D01*
X139323809Y-60421309D01*
X139247619Y-60345119D01*
X139095238Y-60307023D01*
X138828571Y-60307023D01*
X138676190Y-60345119D01*
X138600000Y-60421309D01*
X138561904Y-60497500D01*
X138561904Y-61183214D02*
X139209523Y-61183214D01*
X139285714Y-61221309D01*
X139323809Y-61259404D01*
X139361904Y-61335595D01*
X139361904Y-61487976D01*
X139323809Y-61564166D01*
X139285714Y-61602261D01*
X139209523Y-61640357D01*
X138561904Y-61640357D01*
X138561904Y-61907023D02*
X138561904Y-62364166D01*
X139361904Y-62135595D02*
X138561904Y-62135595D01*
X146100000Y-58707023D02*
X146061904Y-58630833D01*
X146061904Y-58516547D01*
X146100000Y-58402261D01*
X146176190Y-58326071D01*
X146252380Y-58287976D01*
X146404761Y-58249880D01*
X146519047Y-58249880D01*
X146671428Y-58287976D01*
X146747619Y-58326071D01*
X146823809Y-58402261D01*
X146861904Y-58516547D01*
X146861904Y-58592738D01*
X146823809Y-58707023D01*
X146785714Y-58745119D01*
X146519047Y-58745119D01*
X146519047Y-58592738D01*
X146861904Y-59087976D02*
X146061904Y-59087976D01*
X146861904Y-59545119D01*
X146061904Y-59545119D01*
X146861904Y-59926071D02*
X146061904Y-59926071D01*
X146061904Y-60116547D01*
X146100000Y-60230833D01*
X146176190Y-60307023D01*
X146252380Y-60345119D01*
X146404761Y-60383214D01*
X146519047Y-60383214D01*
X146671428Y-60345119D01*
X146747619Y-60307023D01*
X146823809Y-60230833D01*
X146861904Y-60116547D01*
X146861904Y-59926071D01*
X143600000Y-58707023D02*
X143561904Y-58630833D01*
X143561904Y-58516547D01*
X143600000Y-58402261D01*
X143676190Y-58326071D01*
X143752380Y-58287976D01*
X143904761Y-58249880D01*
X144019047Y-58249880D01*
X144171428Y-58287976D01*
X144247619Y-58326071D01*
X144323809Y-58402261D01*
X144361904Y-58516547D01*
X144361904Y-58592738D01*
X144323809Y-58707023D01*
X144285714Y-58745119D01*
X144019047Y-58745119D01*
X144019047Y-58592738D01*
X144361904Y-59087976D02*
X143561904Y-59087976D01*
X144361904Y-59545119D01*
X143561904Y-59545119D01*
X144361904Y-59926071D02*
X143561904Y-59926071D01*
X143561904Y-60116547D01*
X143600000Y-60230833D01*
X143676190Y-60307023D01*
X143752380Y-60345119D01*
X143904761Y-60383214D01*
X144019047Y-60383214D01*
X144171428Y-60345119D01*
X144247619Y-60307023D01*
X144323809Y-60230833D01*
X144361904Y-60116547D01*
X144361904Y-59926071D01*
X141861904Y-58668928D02*
X141861904Y-58287976D01*
X141061904Y-58287976D01*
X141442857Y-58935595D02*
X141442857Y-59202261D01*
X141861904Y-59316547D02*
X141861904Y-58935595D01*
X141061904Y-58935595D01*
X141061904Y-59316547D01*
X141861904Y-59659404D02*
X141061904Y-59659404D01*
X141061904Y-59849880D01*
X141100000Y-59964166D01*
X141176190Y-60040357D01*
X141252380Y-60078452D01*
X141404761Y-60116547D01*
X141519047Y-60116547D01*
X141671428Y-60078452D01*
X141747619Y-60040357D01*
X141823809Y-59964166D01*
X141861904Y-59849880D01*
X141861904Y-59659404D01*
X141938095Y-60268928D02*
X141938095Y-60878452D01*
X141061904Y-60992738D02*
X141861904Y-61183214D01*
X141290476Y-61335595D01*
X141861904Y-61487976D01*
X141061904Y-61678452D01*
X141823809Y-61945119D02*
X141861904Y-62059404D01*
X141861904Y-62249880D01*
X141823809Y-62326071D01*
X141785714Y-62364166D01*
X141709523Y-62402261D01*
X141633333Y-62402261D01*
X141557142Y-62364166D01*
X141519047Y-62326071D01*
X141480952Y-62249880D01*
X141442857Y-62097500D01*
X141404761Y-62021309D01*
X141366666Y-61983214D01*
X141290476Y-61945119D01*
X141214285Y-61945119D01*
X141138095Y-61983214D01*
X141100000Y-62021309D01*
X141061904Y-62097500D01*
X141061904Y-62287976D01*
X141100000Y-62402261D01*
X141138095Y-62707023D02*
X141100000Y-62745119D01*
X141061904Y-62821309D01*
X141061904Y-63011785D01*
X141100000Y-63087976D01*
X141138095Y-63126071D01*
X141214285Y-63164166D01*
X141290476Y-63164166D01*
X141404761Y-63126071D01*
X141861904Y-62668928D01*
X141861904Y-63164166D01*
X141404761Y-63621309D02*
X141366666Y-63545119D01*
X141328571Y-63507023D01*
X141252380Y-63468928D01*
X141214285Y-63468928D01*
X141138095Y-63507023D01*
X141100000Y-63545119D01*
X141061904Y-63621309D01*
X141061904Y-63773690D01*
X141100000Y-63849880D01*
X141138095Y-63887976D01*
X141214285Y-63926071D01*
X141252380Y-63926071D01*
X141328571Y-63887976D01*
X141366666Y-63849880D01*
X141404761Y-63773690D01*
X141404761Y-63621309D01*
X141442857Y-63545119D01*
X141480952Y-63507023D01*
X141557142Y-63468928D01*
X141709523Y-63468928D01*
X141785714Y-63507023D01*
X141823809Y-63545119D01*
X141861904Y-63621309D01*
X141861904Y-63773690D01*
X141823809Y-63849880D01*
X141785714Y-63887976D01*
X141709523Y-63926071D01*
X141557142Y-63926071D01*
X141480952Y-63887976D01*
X141442857Y-63849880D01*
X141404761Y-63773690D01*
X141861904Y-64687976D02*
X141861904Y-64230833D01*
X141861904Y-64459404D02*
X141061904Y-64459404D01*
X141176190Y-64383214D01*
X141252380Y-64307023D01*
X141290476Y-64230833D01*
X141138095Y-64992738D02*
X141100000Y-65030833D01*
X141061904Y-65107023D01*
X141061904Y-65297500D01*
X141100000Y-65373690D01*
X141138095Y-65411785D01*
X141214285Y-65449880D01*
X141290476Y-65449880D01*
X141404761Y-65411785D01*
X141861904Y-64954642D01*
X141861904Y-65449880D01*
X131861904Y-58287976D02*
X131061904Y-58287976D01*
X131061904Y-58478452D01*
X131100000Y-58592738D01*
X131176190Y-58668928D01*
X131252380Y-58707023D01*
X131404761Y-58745119D01*
X131519047Y-58745119D01*
X131671428Y-58707023D01*
X131747619Y-58668928D01*
X131823809Y-58592738D01*
X131861904Y-58478452D01*
X131861904Y-58287976D01*
X131061904Y-59240357D02*
X131061904Y-59392738D01*
X131100000Y-59468928D01*
X131176190Y-59545119D01*
X131328571Y-59583214D01*
X131595238Y-59583214D01*
X131747619Y-59545119D01*
X131823809Y-59468928D01*
X131861904Y-59392738D01*
X131861904Y-59240357D01*
X131823809Y-59164166D01*
X131747619Y-59087976D01*
X131595238Y-59049880D01*
X131328571Y-59049880D01*
X131176190Y-59087976D01*
X131100000Y-59164166D01*
X131061904Y-59240357D01*
X131061904Y-60078452D02*
X131061904Y-60230833D01*
X131100000Y-60307023D01*
X131176190Y-60383214D01*
X131328571Y-60421309D01*
X131595238Y-60421309D01*
X131747619Y-60383214D01*
X131823809Y-60307023D01*
X131861904Y-60230833D01*
X131861904Y-60078452D01*
X131823809Y-60002261D01*
X131747619Y-59926071D01*
X131595238Y-59887976D01*
X131328571Y-59887976D01*
X131176190Y-59926071D01*
X131100000Y-60002261D01*
X131061904Y-60078452D01*
X131861904Y-61221309D02*
X131480952Y-60954642D01*
X131861904Y-60764166D02*
X131061904Y-60764166D01*
X131061904Y-61068928D01*
X131100000Y-61145119D01*
X131138095Y-61183214D01*
X131214285Y-61221309D01*
X131328571Y-61221309D01*
X131404761Y-61183214D01*
X131442857Y-61145119D01*
X131480952Y-61068928D01*
X131480952Y-60764166D01*
X133600000Y-58707023D02*
X133561904Y-58630833D01*
X133561904Y-58516547D01*
X133600000Y-58402261D01*
X133676190Y-58326071D01*
X133752380Y-58287976D01*
X133904761Y-58249880D01*
X134019047Y-58249880D01*
X134171428Y-58287976D01*
X134247619Y-58326071D01*
X134323809Y-58402261D01*
X134361904Y-58516547D01*
X134361904Y-58592738D01*
X134323809Y-58707023D01*
X134285714Y-58745119D01*
X134019047Y-58745119D01*
X134019047Y-58592738D01*
X134361904Y-59087976D02*
X133561904Y-59087976D01*
X134361904Y-59545119D01*
X133561904Y-59545119D01*
X134361904Y-59926071D02*
X133561904Y-59926071D01*
X133561904Y-60116547D01*
X133600000Y-60230833D01*
X133676190Y-60307023D01*
X133752380Y-60345119D01*
X133904761Y-60383214D01*
X134019047Y-60383214D01*
X134171428Y-60345119D01*
X134247619Y-60307023D01*
X134323809Y-60230833D01*
X134361904Y-60116547D01*
X134361904Y-59926071D01*
X104835714Y-55942857D02*
X104721428Y-55980952D01*
X104683333Y-56019047D01*
X104645238Y-56095238D01*
X104645238Y-56209523D01*
X104683333Y-56285714D01*
X104721428Y-56323809D01*
X104797619Y-56361904D01*
X105102380Y-56361904D01*
X105102380Y-55561904D01*
X104835714Y-55561904D01*
X104759523Y-55600000D01*
X104721428Y-55638095D01*
X104683333Y-55714285D01*
X104683333Y-55790476D01*
X104721428Y-55866666D01*
X104759523Y-55904761D01*
X104835714Y-55942857D01*
X105102380Y-55942857D01*
X104150000Y-55561904D02*
X103997619Y-55561904D01*
X103921428Y-55600000D01*
X103845238Y-55676190D01*
X103807142Y-55828571D01*
X103807142Y-56095238D01*
X103845238Y-56247619D01*
X103921428Y-56323809D01*
X103997619Y-56361904D01*
X104150000Y-56361904D01*
X104226190Y-56323809D01*
X104302380Y-56247619D01*
X104340476Y-56095238D01*
X104340476Y-55828571D01*
X104302380Y-55676190D01*
X104226190Y-55600000D01*
X104150000Y-55561904D01*
X103311904Y-55561904D02*
X103159523Y-55561904D01*
X103083333Y-55600000D01*
X103007142Y-55676190D01*
X102969047Y-55828571D01*
X102969047Y-56095238D01*
X103007142Y-56247619D01*
X103083333Y-56323809D01*
X103159523Y-56361904D01*
X103311904Y-56361904D01*
X103388095Y-56323809D01*
X103464285Y-56247619D01*
X103502380Y-56095238D01*
X103502380Y-55828571D01*
X103464285Y-55676190D01*
X103388095Y-55600000D01*
X103311904Y-55561904D01*
X102740476Y-55561904D02*
X102283333Y-55561904D01*
X102511904Y-56361904D02*
X102511904Y-55561904D01*
X104661904Y-90361904D02*
X104928571Y-89980952D01*
X105119047Y-90361904D02*
X105119047Y-89561904D01*
X104814285Y-89561904D01*
X104738095Y-89600000D01*
X104700000Y-89638095D01*
X104661904Y-89714285D01*
X104661904Y-89828571D01*
X104700000Y-89904761D01*
X104738095Y-89942857D01*
X104814285Y-89980952D01*
X105119047Y-89980952D01*
X104319047Y-89942857D02*
X104052380Y-89942857D01*
X103938095Y-90361904D02*
X104319047Y-90361904D01*
X104319047Y-89561904D01*
X103938095Y-89561904D01*
X103633333Y-90323809D02*
X103519047Y-90361904D01*
X103328571Y-90361904D01*
X103252380Y-90323809D01*
X103214285Y-90285714D01*
X103176190Y-90209523D01*
X103176190Y-90133333D01*
X103214285Y-90057142D01*
X103252380Y-90019047D01*
X103328571Y-89980952D01*
X103480952Y-89942857D01*
X103557142Y-89904761D01*
X103595238Y-89866666D01*
X103633333Y-89790476D01*
X103633333Y-89714285D01*
X103595238Y-89638095D01*
X103557142Y-89600000D01*
X103480952Y-89561904D01*
X103290476Y-89561904D01*
X103176190Y-89600000D01*
X102833333Y-89942857D02*
X102566666Y-89942857D01*
X102452380Y-90361904D02*
X102833333Y-90361904D01*
X102833333Y-89561904D01*
X102452380Y-89561904D01*
X102223809Y-89561904D02*
X101766666Y-89561904D01*
X101995238Y-90361904D02*
X101995238Y-89561904D01*
X111250000Y-110750000D02*
X111250000Y-91250000D01*
X97250000Y-91250000D02*
X111250000Y-91250000D01*
X94250000Y-110750000D02*
X94250000Y-94250000D01*
X97250000Y-113750000D02*
X108250000Y-113750000D01*
D11*
X124466666Y-68104761D02*
X123990476Y-70104761D01*
X123609523Y-68676190D01*
X123228571Y-70104761D01*
X122752380Y-68104761D01*
X122180952Y-68104761D02*
X121704761Y-70104761D01*
X121323809Y-68676190D01*
X120942857Y-70104761D01*
X120466666Y-68104761D01*
X119895238Y-68104761D02*
X119419047Y-70104761D01*
X119038095Y-68676190D01*
X118657142Y-70104761D01*
X118180952Y-68104761D01*
X117419047Y-69914285D02*
X117323809Y-70009523D01*
X117419047Y-70104761D01*
X117514285Y-70009523D01*
X117419047Y-69914285D01*
X117419047Y-70104761D01*
X115800000Y-69057142D02*
X115514285Y-69152380D01*
X115419047Y-69247619D01*
X115323809Y-69438095D01*
X115323809Y-69723809D01*
X115419047Y-69914285D01*
X115514285Y-70009523D01*
X115704761Y-70104761D01*
X116466666Y-70104761D01*
X116466666Y-68104761D01*
X115800000Y-68104761D01*
X115609523Y-68200000D01*
X115514285Y-68295238D01*
X115419047Y-68485714D01*
X115419047Y-68676190D01*
X115514285Y-68866666D01*
X115609523Y-68961904D01*
X115800000Y-69057142D01*
X116466666Y-69057142D01*
X113514285Y-70104761D02*
X114466666Y-70104761D01*
X114466666Y-68104761D01*
X112847619Y-69057142D02*
X112180952Y-69057142D01*
X111895238Y-70104761D02*
X112847619Y-70104761D01*
X112847619Y-68104761D01*
X111895238Y-68104761D01*
X111038095Y-69057142D02*
X110371428Y-69057142D01*
X110085714Y-70104761D02*
X111038095Y-70104761D01*
X111038095Y-68104761D01*
X110085714Y-68104761D01*
X109228571Y-70104761D02*
X109228571Y-68104761D01*
X108466666Y-68104761D01*
X108276190Y-68200000D01*
X108180952Y-68295238D01*
X108085714Y-68485714D01*
X108085714Y-68771428D01*
X108180952Y-68961904D01*
X108276190Y-69057142D01*
X108466666Y-69152380D01*
X109228571Y-69152380D01*
X107228571Y-69057142D02*
X106561904Y-69057142D01*
X106276190Y-70104761D02*
X107228571Y-70104761D01*
X107228571Y-68104761D01*
X106276190Y-68104761D01*
X104276190Y-70104761D02*
X104942857Y-69152380D01*
X105419047Y-70104761D02*
X105419047Y-68104761D01*
X104657142Y-68104761D01*
X104466666Y-68200000D01*
X104371428Y-68295238D01*
X104276190Y-68485714D01*
X104276190Y-68771428D01*
X104371428Y-68961904D01*
X104466666Y-69057142D01*
X104657142Y-69152380D01*
X105419047Y-69152380D01*
X103419047Y-69914285D02*
X103323809Y-70009523D01*
X103419047Y-70104761D01*
X103514285Y-70009523D01*
X103419047Y-69914285D01*
X103419047Y-70104761D01*
X101323809Y-70104761D02*
X101990476Y-69152380D01*
X102466666Y-70104761D02*
X102466666Y-68104761D01*
X101704761Y-68104761D01*
X101514285Y-68200000D01*
X101419047Y-68295238D01*
X101323809Y-68485714D01*
X101323809Y-68771428D01*
X101419047Y-68961904D01*
X101514285Y-69057142D01*
X101704761Y-69152380D01*
X102466666Y-69152380D01*
X100466666Y-68104761D02*
X100466666Y-69723809D01*
X100371428Y-69914285D01*
X100276190Y-70009523D01*
X100085714Y-70104761D01*
X99704761Y-70104761D01*
X99514285Y-70009523D01*
X99419047Y-69914285D01*
X99323809Y-69723809D01*
X99323809Y-68104761D01*
D10*
X148714285Y-136952380D02*
X148714285Y-137761904D01*
X148666666Y-137857142D01*
X148619047Y-137904761D01*
X148523809Y-137952380D01*
X148333333Y-137952380D01*
X148238095Y-137904761D01*
X148190476Y-137857142D01*
X148142857Y-137761904D01*
X148142857Y-136952380D01*
X147714285Y-137666666D02*
X147238095Y-137666666D01*
X147809523Y-137952380D02*
X147476190Y-136952380D01*
X147142857Y-137952380D01*
X146809523Y-137952380D02*
X146809523Y-136952380D01*
X146238095Y-137952380D02*
X146666666Y-137380952D01*
X146238095Y-136952380D02*
X146809523Y-137523809D01*
X145809523Y-137857142D02*
X145761904Y-137904761D01*
X145809523Y-137952380D01*
X145857142Y-137904761D01*
X145809523Y-137857142D01*
X145809523Y-137952380D01*
X145142857Y-136952380D02*
X145047619Y-136952380D01*
X144952380Y-137000000D01*
X144904761Y-137047619D01*
X144857142Y-137142857D01*
X144809523Y-137333333D01*
X144809523Y-137571428D01*
X144857142Y-137761904D01*
X144904761Y-137857142D01*
X144952380Y-137904761D01*
X145047619Y-137952380D01*
X145142857Y-137952380D01*
X145238095Y-137904761D01*
X145285714Y-137857142D01*
X145333333Y-137761904D01*
X145380952Y-137571428D01*
X145380952Y-137333333D01*
X145333333Y-137142857D01*
X145285714Y-137047619D01*
X145238095Y-137000000D01*
X145142857Y-136952380D01*
X143809523Y-137857142D02*
X143857142Y-137904761D01*
X144000000Y-137952380D01*
X144095238Y-137952380D01*
X144238095Y-137904761D01*
X144333333Y-137809523D01*
X144380952Y-137714285D01*
X144428571Y-137523809D01*
X144428571Y-137380952D01*
X144380952Y-137190476D01*
X144333333Y-137095238D01*
X144238095Y-137000000D01*
X144095238Y-136952380D01*
X144000000Y-136952380D01*
X143857142Y-137000000D01*
X143809523Y-137047619D01*
X143380952Y-137857142D02*
X143333333Y-137904761D01*
X143380952Y-137952380D01*
X143428571Y-137904761D01*
X143380952Y-137857142D01*
X143380952Y-137952380D01*
X142904761Y-137952380D02*
X142904761Y-136952380D01*
X142571428Y-137666666D01*
X142238095Y-136952380D01*
X142238095Y-137952380D01*
X141714285Y-137952380D02*
X141523809Y-137952380D01*
X141428571Y-137904761D01*
X141380952Y-137857142D01*
X141285714Y-137714285D01*
X141238095Y-137523809D01*
X141238095Y-137142857D01*
X141285714Y-137047619D01*
X141333333Y-137000000D01*
X141428571Y-136952380D01*
X141619047Y-136952380D01*
X141714285Y-137000000D01*
X141761904Y-137047619D01*
X141809523Y-137142857D01*
X141809523Y-137380952D01*
X141761904Y-137476190D01*
X141714285Y-137523809D01*
X141619047Y-137571428D01*
X141428571Y-137571428D01*
X141333333Y-137523809D01*
X141285714Y-137476190D01*
X141238095Y-137380952D01*
D11*
X163000000Y-71250000D02*
X165250000Y-71250000D01*
X163000000Y-71241600D02*
X163000000Y-69000000D01*
X173235200Y-71250000D02*
X173250000Y-69000000D01*
X173250000Y-60750000D02*
X173250000Y-63000000D01*
X173250000Y-60750000D02*
X170750000Y-60750000D01*
X164000000Y-60750000D02*
X165250000Y-60750000D01*
X163000000Y-61750000D02*
X164000000Y-60750000D01*
X171000000Y-71250000D02*
X173235200Y-71250000D01*
X163000000Y-63000000D02*
X163000000Y-61750000D01*
D10*
X174500000Y-75500000D02*
X174000000Y-75000000D01*
X174500000Y-74500000D02*
X174500000Y-75500000D01*
X174000000Y-75000000D02*
X174500000Y-74500000D01*
X174000000Y-72000000D02*
X173000000Y-72000000D01*
X174000000Y-72000000D02*
X174000000Y-73000000D01*
X174000000Y-83000000D02*
X174000000Y-82000000D01*
X166000000Y-72000000D02*
X167000000Y-72000000D01*
X166000000Y-72000000D02*
X166000000Y-73000000D01*
X166000000Y-83000000D02*
X166000000Y-82000000D01*
X166000000Y-83000000D02*
X167000000Y-83000000D01*
X174000000Y-83000000D02*
X173000000Y-83000000D01*
X152000000Y-50950000D02*
X151500000Y-51450000D01*
X151000000Y-50950000D02*
X152000000Y-50950000D01*
X151500000Y-51450000D02*
X151000000Y-50950000D01*
X149750000Y-51500000D02*
X149750000Y-52500000D01*
X149750000Y-51500000D02*
X150750000Y-51500000D01*
X156000000Y-51500000D02*
X155000000Y-51500000D01*
X149750000Y-58000000D02*
X149750000Y-57000000D01*
X149750000Y-58000000D02*
X150750000Y-58000000D01*
X156000000Y-58000000D02*
X155000000Y-58000000D01*
X156000000Y-58000000D02*
X156000000Y-57000000D01*
X156000000Y-51500000D02*
X156000000Y-52500000D01*
X75500000Y-126750000D02*
X76000000Y-127250000D01*
X75500000Y-127750000D02*
X75500000Y-126750000D01*
X76000000Y-127250000D02*
X75500000Y-127750000D01*
X76000000Y-130250000D02*
X77000000Y-130250000D01*
X76000000Y-130250000D02*
X76000000Y-129250000D01*
X76000000Y-119250000D02*
X76000000Y-120250000D01*
X84000000Y-130250000D02*
X83000000Y-130250000D01*
X84000000Y-130250000D02*
X84000000Y-129250000D01*
X84000000Y-119250000D02*
X84000000Y-120250000D01*
X84000000Y-119250000D02*
X83000000Y-119250000D01*
X76000000Y-119250000D02*
X77000000Y-119250000D01*
X144500000Y-50950000D02*
X144000000Y-51450000D01*
X143500000Y-50950000D02*
X144500000Y-50950000D01*
X144000000Y-51450000D02*
X143500000Y-50950000D01*
X142250000Y-51500000D02*
X142250000Y-52500000D01*
X142250000Y-51500000D02*
X143250000Y-51500000D01*
X148500000Y-51500000D02*
X147500000Y-51500000D01*
X142250000Y-58000000D02*
X142250000Y-57000000D01*
X142250000Y-58000000D02*
X143250000Y-58000000D01*
X148500000Y-58000000D02*
X147500000Y-58000000D01*
X148500000Y-58000000D02*
X148500000Y-57000000D01*
X148500000Y-51500000D02*
X148500000Y-52500000D01*
X139500000Y-50950000D02*
X139000000Y-51450000D01*
X138500000Y-50950000D02*
X139500000Y-50950000D01*
X139000000Y-51450000D02*
X138500000Y-50950000D01*
X137250000Y-51500000D02*
X137250000Y-52500000D01*
X137250000Y-51500000D02*
X138250000Y-51500000D01*
X143500000Y-51500000D02*
X142500000Y-51500000D01*
X137250000Y-58000000D02*
X137250000Y-57000000D01*
X137250000Y-58000000D02*
X138250000Y-58000000D01*
X143500000Y-58000000D02*
X142500000Y-58000000D01*
X143500000Y-58000000D02*
X143500000Y-57000000D01*
X143500000Y-51500000D02*
X143500000Y-52500000D01*
X156000000Y-93000000D02*
G75*
G03X156000000Y-93000000I-8500000J0D01*
G01*
X132000000Y-50950000D02*
X131500000Y-51450000D01*
X131000000Y-50950000D02*
X132000000Y-50950000D01*
X131500000Y-51450000D02*
X131000000Y-50950000D01*
X129750000Y-51500000D02*
X129750000Y-52500000D01*
X129750000Y-51500000D02*
X130750000Y-51500000D01*
X136000000Y-51500000D02*
X135000000Y-51500000D01*
X129750000Y-58000000D02*
X129750000Y-57000000D01*
X129750000Y-58000000D02*
X130750000Y-58000000D01*
X136000000Y-58000000D02*
X135000000Y-58000000D01*
X136000000Y-58000000D02*
X136000000Y-57000000D01*
X136000000Y-51500000D02*
X136000000Y-52500000D01*
X159500000Y-50950000D02*
X159000000Y-51450000D01*
X158500000Y-50950000D02*
X159500000Y-50950000D01*
X159000000Y-51450000D02*
X158500000Y-50950000D01*
X157250000Y-51500000D02*
X157250000Y-52500000D01*
X157250000Y-51500000D02*
X158250000Y-51500000D01*
X163500000Y-51500000D02*
X162500000Y-51500000D01*
X157250000Y-58000000D02*
X157250000Y-57000000D01*
X157250000Y-58000000D02*
X158250000Y-58000000D01*
X163500000Y-58000000D02*
X162500000Y-58000000D01*
X163500000Y-58000000D02*
X163500000Y-57000000D01*
X163500000Y-51500000D02*
X163500000Y-52500000D01*
X119750000Y-131100000D02*
X119750000Y-131850000D01*
X119750000Y-131100000D02*
X119000000Y-131100000D01*
X119750000Y-134600000D02*
X119750000Y-133850000D01*
X119750000Y-134600000D02*
X119000000Y-134600000D01*
X114750000Y-131100000D02*
X114750000Y-131850000D01*
X114750000Y-131100000D02*
X115500000Y-131100000D01*
X115500000Y-134600000D02*
X114750000Y-134600000D01*
X114750000Y-134600000D02*
X114750000Y-133850000D01*
X90500000Y-95750000D02*
X90500000Y-94750000D01*
X75250000Y-95250000D02*
X76250000Y-95250000D01*
X90500000Y-95750000D02*
X89500000Y-95750000D01*
X75250000Y-95250000D02*
X75250000Y-94250000D01*
X75250000Y-86000000D02*
X75250000Y-87000000D01*
X75250000Y-86000000D02*
X76250000Y-86000000D01*
X90500000Y-85500000D02*
X90500000Y-86500000D01*
X90500000Y-85500000D02*
X89500000Y-85500000D01*
X100000000Y-55500000D02*
X101000000Y-55500000D01*
X100000000Y-55000000D02*
X100000000Y-55500000D01*
X107000000Y-55500000D02*
X106000000Y-55500000D01*
X107000000Y-55000000D02*
X107000000Y-55500000D01*
X100000000Y-51500000D02*
X101000000Y-51500000D01*
X100000000Y-52000000D02*
X100000000Y-51500000D01*
X107000000Y-51500000D02*
X106000000Y-51500000D01*
X107000000Y-52000000D02*
X107000000Y-51500000D01*
X100000000Y-89500000D02*
X101000000Y-89500000D01*
X100000000Y-89000000D02*
X100000000Y-89500000D01*
X107000000Y-89500000D02*
X106000000Y-89500000D01*
X107000000Y-89000000D02*
X107000000Y-89500000D01*
X100000000Y-85500000D02*
X101000000Y-85500000D01*
X100000000Y-86000000D02*
X100000000Y-85500000D01*
X107000000Y-85500000D02*
X106000000Y-85500000D01*
X107000000Y-86000000D02*
X107000000Y-85500000D01*
X174500000Y-85500000D02*
X174000000Y-85000000D01*
X174500000Y-84500000D02*
X174500000Y-85500000D01*
X174000000Y-85000000D02*
X174500000Y-84500000D01*
X174000000Y-82000000D02*
X173000000Y-82000000D01*
X174000000Y-82000000D02*
X174000000Y-83000000D01*
X174000000Y-93000000D02*
X174000000Y-92000000D01*
X166000000Y-82000000D02*
X167000000Y-82000000D01*
X166000000Y-82000000D02*
X166000000Y-83000000D01*
X166000000Y-93000000D02*
X166000000Y-92000000D01*
X166000000Y-93000000D02*
X167000000Y-93000000D01*
X174000000Y-93000000D02*
X173000000Y-93000000D01*
X107500000Y-125000000D02*
G75*
G02X107500000Y-126000000I0J-500000D01*
G01*
X107500000Y-124000000D02*
G75*
G02X107500000Y-125000000I0J-500000D01*
G01*
X107500000Y-123000000D02*
G75*
G02X107500000Y-124000000I0J-500000D01*
G01*
X107500000Y-126000000D02*
X107500000Y-126500000D01*
X107500000Y-122000000D02*
G75*
G02X107500000Y-123000000I0J-500000D01*
G01*
X107500000Y-122000000D02*
X107500000Y-121500000D01*
X97500000Y-122000000D02*
X97500000Y-121500000D01*
X97500000Y-126000000D02*
X97500000Y-126500000D01*
X97500000Y-122000000D02*
G75*
G03X97500000Y-123000000I0J-500000D01*
G01*
X97500000Y-123000000D02*
G75*
G03X97500000Y-124000000I0J-500000D01*
G01*
X97500000Y-125000000D02*
G75*
G03X97500000Y-126000000I0J-500000D01*
G01*
X97500000Y-124000000D02*
G75*
G03X97500000Y-125000000I0J-500000D01*
G01*
X91500000Y-131000000D02*
X92500000Y-131000000D01*
X91500000Y-131000000D02*
X91500000Y-130000000D01*
X113500000Y-117000000D02*
X113500000Y-118000000D01*
X113500000Y-117000000D02*
X112500000Y-117000000D01*
X113500000Y-131000000D02*
X113500000Y-130000000D01*
X113500000Y-131000000D02*
X112500000Y-131000000D01*
X91500000Y-117000000D02*
X91500000Y-118000000D01*
X91500000Y-117000000D02*
X92500000Y-117000000D01*
X121250000Y-131000000D02*
X121250000Y-130000000D01*
X121250000Y-131000000D02*
X122250000Y-131000000D01*
X121250000Y-103250000D02*
X122250000Y-103250000D01*
X121250000Y-103250000D02*
X121250000Y-104250000D01*
X174250000Y-103250000D02*
X174250000Y-104250000D01*
X174250000Y-103250000D02*
X173250000Y-103250000D01*
X174250000Y-131000000D02*
X173250000Y-131000000D01*
X174250000Y-131000000D02*
X174250000Y-130000000D01*
X168700000Y-60521428D02*
X168700000Y-59921428D01*
X168557142Y-59921428D01*
X168471428Y-59950000D01*
X168414285Y-60007142D01*
X168385714Y-60064285D01*
X168357142Y-60178571D01*
X168357142Y-60264285D01*
X168385714Y-60378571D01*
X168414285Y-60435714D01*
X168471428Y-60492857D01*
X168557142Y-60521428D01*
X168700000Y-60521428D01*
X168128571Y-60350000D02*
X167842857Y-60350000D01*
X168185714Y-60521428D02*
X167985714Y-59921428D01*
X167785714Y-60521428D01*
X167271428Y-60521428D02*
X167614285Y-60521428D01*
X167442857Y-60521428D02*
X167442857Y-59921428D01*
X167500000Y-60007142D01*
X167557142Y-60064285D01*
X167614285Y-60092857D01*
X165464285Y-73171428D02*
X165064285Y-73771428D01*
X165064285Y-73171428D02*
X165464285Y-73771428D01*
X164921428Y-73171428D02*
X164578571Y-73171428D01*
X164750000Y-73771428D02*
X164750000Y-73171428D01*
X164292857Y-73428571D02*
X164350000Y-73400000D01*
X164378571Y-73371428D01*
X164407142Y-73314285D01*
X164407142Y-73285714D01*
X164378571Y-73228571D01*
X164350000Y-73200000D01*
X164292857Y-73171428D01*
X164178571Y-73171428D01*
X164121428Y-73200000D01*
X164092857Y-73228571D01*
X164064285Y-73285714D01*
X164064285Y-73314285D01*
X164092857Y-73371428D01*
X164121428Y-73400000D01*
X164178571Y-73428571D01*
X164292857Y-73428571D01*
X164350000Y-73457142D01*
X164378571Y-73485714D01*
X164407142Y-73542857D01*
X164407142Y-73657142D01*
X164378571Y-73714285D01*
X164350000Y-73742857D01*
X164292857Y-73771428D01*
X164178571Y-73771428D01*
X164121428Y-73742857D01*
X164092857Y-73714285D01*
X164064285Y-73657142D01*
X164064285Y-73542857D01*
X164092857Y-73485714D01*
X164121428Y-73457142D01*
X164178571Y-73428571D01*
X149921428Y-58535714D02*
X150521428Y-58935714D01*
X149921428Y-58935714D02*
X150521428Y-58535714D01*
X149921428Y-59078571D02*
X149921428Y-59421428D01*
X150521428Y-59250000D02*
X149921428Y-59250000D01*
X149921428Y-59564285D02*
X149921428Y-59964285D01*
X150521428Y-59707142D01*
X85964285Y-120671428D02*
X85564285Y-121271428D01*
X85564285Y-120671428D02*
X85964285Y-121271428D01*
X85421428Y-120671428D02*
X85078571Y-120671428D01*
X85250000Y-121271428D02*
X85250000Y-120671428D01*
X84592857Y-120671428D02*
X84878571Y-120671428D01*
X84907142Y-120957142D01*
X84878571Y-120928571D01*
X84821428Y-120900000D01*
X84678571Y-120900000D01*
X84621428Y-120928571D01*
X84592857Y-120957142D01*
X84564285Y-121014285D01*
X84564285Y-121157142D01*
X84592857Y-121214285D01*
X84621428Y-121242857D01*
X84678571Y-121271428D01*
X84821428Y-121271428D01*
X84878571Y-121242857D01*
X84907142Y-121214285D01*
X142421428Y-58535714D02*
X143021428Y-58935714D01*
X142421428Y-58935714D02*
X143021428Y-58535714D01*
X142421428Y-59078571D02*
X142421428Y-59421428D01*
X143021428Y-59250000D02*
X142421428Y-59250000D01*
X142421428Y-59564285D02*
X142421428Y-59935714D01*
X142650000Y-59735714D01*
X142650000Y-59821428D01*
X142678571Y-59878571D01*
X142707142Y-59907142D01*
X142764285Y-59935714D01*
X142907142Y-59935714D01*
X142964285Y-59907142D01*
X142992857Y-59878571D01*
X143021428Y-59821428D01*
X143021428Y-59650000D01*
X142992857Y-59592857D01*
X142964285Y-59564285D01*
X137421428Y-58535714D02*
X138021428Y-58935714D01*
X137421428Y-58935714D02*
X138021428Y-58535714D01*
X137421428Y-59078571D02*
X137421428Y-59421428D01*
X138021428Y-59250000D02*
X137421428Y-59250000D01*
X137478571Y-59592857D02*
X137450000Y-59621428D01*
X137421428Y-59678571D01*
X137421428Y-59821428D01*
X137450000Y-59878571D01*
X137478571Y-59907142D01*
X137535714Y-59935714D01*
X137592857Y-59935714D01*
X137678571Y-59907142D01*
X138021428Y-59564285D01*
X138021428Y-59935714D01*
X142714285Y-85271428D02*
X142714285Y-84671428D01*
X142714285Y-84957142D02*
X142371428Y-84957142D01*
X142371428Y-85271428D02*
X142371428Y-84671428D01*
X142114285Y-85100000D02*
X141828571Y-85100000D01*
X142171428Y-85271428D02*
X141971428Y-84671428D01*
X141771428Y-85271428D01*
X141257142Y-85271428D02*
X141600000Y-85271428D01*
X141428571Y-85271428D02*
X141428571Y-84671428D01*
X141485714Y-84757142D01*
X141542857Y-84814285D01*
X141600000Y-84842857D01*
X129921428Y-58535714D02*
X130521428Y-58935714D01*
X129921428Y-58935714D02*
X130521428Y-58535714D01*
X129921428Y-59078571D02*
X129921428Y-59421428D01*
X130521428Y-59250000D02*
X129921428Y-59250000D01*
X129921428Y-59878571D02*
X129921428Y-59764285D01*
X129950000Y-59707142D01*
X129978571Y-59678571D01*
X130064285Y-59621428D01*
X130178571Y-59592857D01*
X130407142Y-59592857D01*
X130464285Y-59621428D01*
X130492857Y-59650000D01*
X130521428Y-59707142D01*
X130521428Y-59821428D01*
X130492857Y-59878571D01*
X130464285Y-59907142D01*
X130407142Y-59935714D01*
X130264285Y-59935714D01*
X130207142Y-59907142D01*
X130178571Y-59878571D01*
X130150000Y-59821428D01*
X130150000Y-59707142D01*
X130178571Y-59650000D01*
X130207142Y-59621428D01*
X130264285Y-59592857D01*
X157421428Y-58535714D02*
X158021428Y-58935714D01*
X157421428Y-58935714D02*
X158021428Y-58535714D01*
X157421428Y-59078571D02*
X157421428Y-59421428D01*
X158021428Y-59250000D02*
X157421428Y-59250000D01*
X158021428Y-59935714D02*
X158021428Y-59592857D01*
X158021428Y-59764285D02*
X157421428Y-59764285D01*
X157507142Y-59707142D01*
X157564285Y-59650000D01*
X157592857Y-59592857D01*
X117650000Y-130871428D02*
X117850000Y-130585714D01*
X117992857Y-130871428D02*
X117992857Y-130271428D01*
X117764285Y-130271428D01*
X117707142Y-130300000D01*
X117678571Y-130328571D01*
X117650000Y-130385714D01*
X117650000Y-130471428D01*
X117678571Y-130528571D01*
X117707142Y-130557142D01*
X117764285Y-130585714D01*
X117992857Y-130585714D01*
X117392857Y-130871428D02*
X117392857Y-130271428D01*
X117164285Y-130271428D01*
X117107142Y-130300000D01*
X117078571Y-130328571D01*
X117050000Y-130385714D01*
X117050000Y-130471428D01*
X117078571Y-130528571D01*
X117107142Y-130557142D01*
X117164285Y-130585714D01*
X117392857Y-130585714D01*
X116478571Y-130871428D02*
X116821428Y-130871428D01*
X116650000Y-130871428D02*
X116650000Y-130271428D01*
X116707142Y-130357142D01*
X116764285Y-130414285D01*
X116821428Y-130442857D01*
X88035714Y-84671428D02*
X87635714Y-85271428D01*
X87635714Y-84671428D02*
X88035714Y-85271428D01*
X87407142Y-85271428D02*
X87407142Y-84671428D01*
X87178571Y-84671428D01*
X87121428Y-84700000D01*
X87092857Y-84728571D01*
X87064285Y-84785714D01*
X87064285Y-84871428D01*
X87092857Y-84928571D01*
X87121428Y-84957142D01*
X87178571Y-84985714D01*
X87407142Y-84985714D01*
X86492857Y-85271428D02*
X86835714Y-85271428D01*
X86664285Y-85271428D02*
X86664285Y-84671428D01*
X86721428Y-84757142D01*
X86778571Y-84814285D01*
X86835714Y-84842857D01*
X103942857Y-51521428D02*
X103942857Y-50921428D01*
X103600000Y-51521428D02*
X103857142Y-51178571D01*
X103600000Y-50921428D02*
X103942857Y-51264285D01*
X103371428Y-50978571D02*
X103342857Y-50950000D01*
X103285714Y-50921428D01*
X103142857Y-50921428D01*
X103085714Y-50950000D01*
X103057142Y-50978571D01*
X103028571Y-51035714D01*
X103028571Y-51092857D01*
X103057142Y-51178571D01*
X103400000Y-51521428D01*
X103028571Y-51521428D01*
X103942857Y-85521428D02*
X103942857Y-84921428D01*
X103600000Y-85521428D02*
X103857142Y-85178571D01*
X103600000Y-84921428D02*
X103942857Y-85264285D01*
X103028571Y-85521428D02*
X103371428Y-85521428D01*
X103200000Y-85521428D02*
X103200000Y-84921428D01*
X103257142Y-85007142D01*
X103314285Y-85064285D01*
X103371428Y-85092857D01*
X165464285Y-83171428D02*
X165064285Y-83771428D01*
X165064285Y-83171428D02*
X165464285Y-83771428D01*
X164921428Y-83171428D02*
X164578571Y-83171428D01*
X164750000Y-83771428D02*
X164750000Y-83171428D01*
X164121428Y-83371428D02*
X164121428Y-83771428D01*
X164264285Y-83142857D02*
X164407142Y-83571428D01*
X164035714Y-83571428D01*
X111350000Y-117021428D02*
X111635714Y-117021428D01*
X111635714Y-116421428D01*
X111178571Y-116478571D02*
X111150000Y-116450000D01*
X111092857Y-116421428D01*
X110950000Y-116421428D01*
X110892857Y-116450000D01*
X110864285Y-116478571D01*
X110835714Y-116535714D01*
X110835714Y-116592857D01*
X110864285Y-116678571D01*
X111207142Y-117021428D01*
X110835714Y-117021428D01*
X126128571Y-102450000D02*
X126185714Y-102421428D01*
X126271428Y-102421428D01*
X126357142Y-102450000D01*
X126414285Y-102507142D01*
X126442857Y-102564285D01*
X126471428Y-102678571D01*
X126471428Y-102764285D01*
X126442857Y-102878571D01*
X126414285Y-102935714D01*
X126357142Y-102992857D01*
X126271428Y-103021428D01*
X126214285Y-103021428D01*
X126128571Y-102992857D01*
X126100000Y-102964285D01*
X126100000Y-102764285D01*
X126214285Y-102764285D01*
X125528571Y-103021428D02*
X125871428Y-103021428D01*
X125700000Y-103021428D02*
X125700000Y-102421428D01*
X125757142Y-102507142D01*
X125814285Y-102564285D01*
X125871428Y-102592857D01*
M02*
