G04 #@! TF.GenerationSoftware,KiCad,Pcbnew,(5.1.2-1)-1*
G04 #@! TF.CreationDate,2020-09-08T18:19:47+03:00*
G04 #@! TF.ProjectId,UAK_0,55414b5f-302e-46b6-9963-61645f706362,rev?*
G04 #@! TF.SameCoordinates,Original*
G04 #@! TF.FileFunction,Copper,L2,Bot*
G04 #@! TF.FilePolarity,Positive*
%FSLAX46Y46*%
G04 Gerber Fmt 4.6, Leading zero omitted, Abs format (unit mm)*
G04 Created by KiCad (PCBNEW (5.1.2-1)-1) date 2020-09-08 18:19:47*
%MOMM*%
%LPD*%
G04 APERTURE LIST*
%ADD10C,1.700000*%
%ADD11R,1.700000X1.700000*%
%ADD12O,1.700000X1.700000*%
%ADD13C,5.500000*%
%ADD14R,2.000000X2.000000*%
%ADD15C,2.000000*%
%ADD16R,1.500000X1.000000*%
%ADD17C,7.000000*%
%ADD18C,3.200000*%
%ADD19R,2.400000X2.400000*%
%ADD20C,2.400000*%
%ADD21C,0.800000*%
%ADD22C,0.450000*%
%ADD23C,0.250000*%
%ADD24C,0.200000*%
G04 APERTURE END LIST*
D10*
X165500000Y-62250000D03*
D11*
X168000000Y-62250000D03*
X170500000Y-62250000D03*
X170500000Y-69750000D03*
X168000000Y-69750000D03*
X165500000Y-69750000D03*
D12*
X131300000Y-136500000D03*
D11*
X128760000Y-136500000D03*
D10*
X126220000Y-136500000D03*
D11*
X123680000Y-136500000D03*
X121140000Y-136500000D03*
X118600000Y-136500000D03*
X116060000Y-136500000D03*
X113520000Y-136500000D03*
X110980000Y-136500000D03*
X108440000Y-136500000D03*
X105900000Y-136500000D03*
X103360000Y-136500000D03*
X100820000Y-136500000D03*
X98280000Y-136500000D03*
X95740000Y-136500000D03*
X93200000Y-136500000D03*
D13*
X87000000Y-99000000D03*
X163000000Y-99000000D03*
X163000000Y-135000000D03*
X87000000Y-135000000D03*
D14*
X170500000Y-80000000D03*
D15*
X170500000Y-75000000D03*
D11*
X154040000Y-54750000D03*
D10*
X151500000Y-54750000D03*
D14*
X79500000Y-122250000D03*
D15*
X79500000Y-127250000D03*
D11*
X146540000Y-54750000D03*
D10*
X144000000Y-54750000D03*
D11*
X141540000Y-54750000D03*
D10*
X139000000Y-54750000D03*
D14*
X147500000Y-87500000D03*
D15*
X147500000Y-98500000D03*
D11*
X134040000Y-54750000D03*
D10*
X131500000Y-54750000D03*
D11*
X161540000Y-54750000D03*
D10*
X159000000Y-54750000D03*
D16*
X115500000Y-132850000D03*
X118500000Y-131950000D03*
X118500000Y-133750000D03*
D11*
X89250000Y-94370000D03*
X89250000Y-91830000D03*
X89250000Y-89290000D03*
D10*
X89250000Y-86750000D03*
D14*
X98500000Y-53500000D03*
X108500000Y-53500000D03*
X98500000Y-87500000D03*
X108500000Y-87500000D03*
D17*
X80000000Y-135000000D03*
X170000000Y-55000000D03*
X170000000Y-135000000D03*
X80000000Y-55000000D03*
D14*
X170500000Y-90000000D03*
D15*
X170500000Y-85000000D03*
D18*
X95500000Y-92500000D03*
X110000000Y-112500000D03*
X95500000Y-112500000D03*
D15*
X97500000Y-119000000D03*
D14*
X107500000Y-119000000D03*
X107500000Y-129000000D03*
X97500000Y-129000000D03*
D19*
X125500000Y-119500000D03*
X125500000Y-127500000D03*
X170500000Y-106700000D03*
D20*
X170500000Y-127500000D03*
D21*
X101000000Y-102750000D03*
X101000000Y-100750000D03*
X101000000Y-101750000D03*
X106500000Y-100750000D03*
X106500000Y-101750000D03*
X106500000Y-102750000D03*
X90250000Y-58750000D03*
X89000000Y-58750000D03*
X85000000Y-53250000D03*
X83500000Y-87250000D03*
X137500000Y-63500000D03*
X129000000Y-55000000D03*
X149750000Y-65500000D03*
X96500000Y-86500000D03*
X96750000Y-53500000D03*
X116250000Y-75000000D03*
X124500000Y-75000000D03*
X93000000Y-56250000D03*
X107500000Y-56250000D03*
X92750000Y-58750000D03*
X123500000Y-64750000D03*
X117500000Y-63750000D03*
X94250000Y-58750000D03*
X119500000Y-61750000D03*
X96750000Y-58750000D03*
X121500000Y-59750000D03*
X103000000Y-58750000D03*
X122500000Y-58750000D03*
X104250000Y-58750000D03*
X120500000Y-60750000D03*
X100500000Y-58750000D03*
X118500000Y-62750000D03*
X95500000Y-58750000D03*
X123500000Y-80750000D03*
X104250000Y-79750000D03*
X103000000Y-106250000D03*
X107750000Y-107250000D03*
X102000000Y-138750000D03*
X116250000Y-73750000D03*
X124500000Y-73750000D03*
X93000000Y-57250000D03*
X107500000Y-57250000D03*
X102000000Y-97500000D03*
X106750000Y-98500000D03*
X101000000Y-106250000D03*
X101000000Y-109000000D03*
X103000000Y-97500000D03*
X109000000Y-103000000D03*
X104500000Y-97500000D03*
X110000000Y-98000000D03*
X116250000Y-76250000D03*
X124500000Y-76250000D03*
X137000000Y-94750000D03*
X148500000Y-73000000D03*
X105750000Y-106250000D03*
X109250000Y-96250000D03*
X110000000Y-107250000D03*
X107975000Y-102000000D03*
X82250000Y-117000000D03*
X77750000Y-112000000D03*
X88000000Y-68000000D03*
X88000000Y-72500000D03*
X88000000Y-70250000D03*
X97000000Y-68000000D03*
X97000000Y-70250000D03*
X97000000Y-72500000D03*
X82500000Y-84500000D03*
X103000000Y-79750000D03*
X96000000Y-88500000D03*
X111250000Y-53500000D03*
X157250000Y-73000000D03*
X131250000Y-68500000D03*
X135750000Y-68500000D03*
X145750000Y-64250000D03*
X85750000Y-57500000D03*
D22*
X170500000Y-90000000D02*
X170500000Y-106700000D01*
X170500000Y-80000000D02*
X170500000Y-85000000D01*
D23*
X121140000Y-136500000D02*
X121140000Y-132640000D01*
X120450000Y-131950000D02*
X118500000Y-131950000D01*
X121140000Y-132640000D02*
X120450000Y-131950000D01*
X90750000Y-91500000D02*
X90500000Y-91750000D01*
X90420000Y-91830000D02*
X90750000Y-91500000D01*
X89250000Y-91830000D02*
X90420000Y-91830000D01*
X90750000Y-88250000D02*
X90500000Y-88000000D01*
X90500000Y-88000000D02*
X87250000Y-88000000D01*
X90750000Y-91500000D02*
X90750000Y-88250000D01*
X86250000Y-62750000D02*
X86750000Y-62250000D01*
X86250000Y-87000000D02*
X86250000Y-62750000D01*
X86750000Y-62250000D02*
X90250000Y-58750000D01*
X87250000Y-88000000D02*
X86250000Y-87000000D01*
X89250000Y-89290000D02*
X87790000Y-89290000D01*
X87000000Y-88500000D02*
X87750000Y-89250000D01*
X87790000Y-89290000D02*
X87000000Y-88500000D01*
X86500000Y-61250000D02*
X89000000Y-58750000D01*
X85750000Y-62000000D02*
X86500000Y-61250000D01*
X85750000Y-87250000D02*
X85750000Y-62000000D01*
X87000000Y-88500000D02*
X85750000Y-87250000D01*
X84125000Y-86625000D02*
X83500000Y-87250000D01*
X84575010Y-86174990D02*
X84125000Y-86625000D01*
X84575010Y-53674990D02*
X84575010Y-86174990D01*
X85000000Y-53250000D02*
X84575010Y-53674990D01*
X137500000Y-63500000D02*
X129000000Y-55000000D01*
X139500000Y-65500000D02*
X137500000Y-63500000D01*
X149750000Y-65500000D02*
X139500000Y-65500000D01*
X98500000Y-87500000D02*
X96750000Y-87500000D01*
X96750000Y-87500000D02*
X96500000Y-87250000D01*
X96500000Y-87250000D02*
X96500000Y-86500000D01*
X98500000Y-53500000D02*
X96750000Y-53500000D01*
X116250000Y-75000000D02*
X124500000Y-75000000D01*
X93000000Y-56250000D02*
X107500000Y-56250000D01*
X98750000Y-64750000D02*
X92750000Y-58750000D01*
X123500000Y-64750000D02*
X98750000Y-64750000D01*
X99250000Y-63750000D02*
X94250000Y-58750000D01*
X117500000Y-63750000D02*
X99250000Y-63750000D01*
X99750000Y-61750000D02*
X96750000Y-58750000D01*
X119500000Y-61750000D02*
X99750000Y-61750000D01*
X104000000Y-59750000D02*
X103000000Y-58750000D01*
X121500000Y-59750000D02*
X104000000Y-59750000D01*
X104250000Y-58750000D02*
X122500000Y-58750000D01*
X102500000Y-60750000D02*
X100500000Y-58750000D01*
X120500000Y-60750000D02*
X102500000Y-60750000D01*
X99500000Y-62750000D02*
X95500000Y-58750000D01*
X118500000Y-62750000D02*
X99500000Y-62750000D01*
X123500000Y-80750000D02*
X105250000Y-80750000D01*
X105250000Y-80750000D02*
X104250000Y-79750000D01*
D22*
X103000000Y-106250000D02*
X103000000Y-109500000D01*
X103000000Y-106250000D02*
X103750000Y-106250000D01*
X103750000Y-106250000D02*
X104000000Y-106250000D01*
X104000000Y-106250000D02*
X105000000Y-107250000D01*
X105000000Y-107250000D02*
X107750000Y-107250000D01*
X95500000Y-112500000D02*
X100750000Y-112500000D01*
X103000000Y-110250000D02*
X103000000Y-109500000D01*
X100750000Y-112500000D02*
X103000000Y-110250000D01*
X126500000Y-116000000D02*
X104250000Y-116000000D01*
X104250000Y-116000000D02*
X100750000Y-112500000D01*
X159000000Y-54750000D02*
X159000000Y-81000000D01*
X159000000Y-81000000D02*
X155625000Y-84375000D01*
X155625000Y-84375000D02*
X142875000Y-84375000D01*
X142875000Y-84375000D02*
X139000000Y-88250000D01*
X139000000Y-88250000D02*
X139000000Y-103500000D01*
X139000000Y-103500000D02*
X126500000Y-116000000D01*
X123680000Y-136500000D02*
X123680000Y-137800000D01*
X125250000Y-138750000D02*
X124250000Y-138750000D01*
X125250000Y-138750000D02*
X124630000Y-138750000D01*
X123680000Y-138180000D02*
X123680000Y-136500000D01*
X124250000Y-138750000D02*
X123680000Y-138180000D01*
X123110000Y-138750000D02*
X123680000Y-138180000D01*
X122000000Y-138750000D02*
X123110000Y-138750000D01*
X122000000Y-138750000D02*
X122730000Y-138750000D01*
X102000000Y-138750000D02*
X122000000Y-138750000D01*
X131300000Y-136500000D02*
X131300000Y-138200000D01*
X130750000Y-138750000D02*
X129750000Y-138750000D01*
X131300000Y-138200000D02*
X130750000Y-138750000D01*
X129750000Y-138750000D02*
X125250000Y-138750000D01*
X131300000Y-114700000D02*
X147500000Y-98500000D01*
X131300000Y-136500000D02*
X131300000Y-114700000D01*
X87506370Y-82243630D02*
X95500000Y-90237259D01*
X87493630Y-82243630D02*
X87506370Y-82243630D01*
X139000000Y-54750000D02*
X135500000Y-51250000D01*
X135500000Y-51250000D02*
X93500000Y-51250000D01*
X87125000Y-81875000D02*
X87493630Y-82243630D01*
X93500000Y-51250000D02*
X91750000Y-53000000D01*
X95500000Y-90237259D02*
X95500000Y-92500000D01*
X91750000Y-53000000D02*
X91750000Y-58750000D01*
X91750000Y-58750000D02*
X87125000Y-63375000D01*
X87125000Y-63375000D02*
X87125000Y-81875000D01*
D23*
X116250000Y-73750000D02*
X124500000Y-73750000D01*
X93000000Y-57250000D02*
X107500000Y-57250000D01*
X105500000Y-98500000D02*
X106750000Y-98500000D01*
X105250000Y-98750000D02*
X105500000Y-98500000D01*
X102500000Y-98750000D02*
X105250000Y-98750000D01*
X102000000Y-97500000D02*
X102000000Y-98250000D01*
X102000000Y-98250000D02*
X102500000Y-98750000D01*
X101000000Y-106250000D02*
X101000000Y-109000000D01*
X103750000Y-98250000D02*
X104823002Y-98250000D01*
X103000000Y-97500000D02*
X103750000Y-98250000D01*
X105573002Y-97500000D02*
X108250000Y-97500000D01*
X108250000Y-97500000D02*
X108750000Y-98000000D01*
X104823002Y-98250000D02*
X105573002Y-97500000D01*
X108750000Y-102750000D02*
X109000000Y-103000000D01*
X108750000Y-100750000D02*
X108750000Y-102750000D01*
X108750000Y-98000000D02*
X108750000Y-100750000D01*
X109000000Y-97000000D02*
X110000000Y-98000000D01*
X104500000Y-97500000D02*
X105000000Y-97000000D01*
X105000000Y-97000000D02*
X109000000Y-97000000D01*
X116250000Y-76250000D02*
X124500000Y-76250000D01*
D22*
X109000000Y-106250000D02*
X110000000Y-107250000D01*
X107975000Y-106025000D02*
X107750000Y-106250000D01*
X107975000Y-102000000D02*
X107975000Y-106025000D01*
X105750000Y-106250000D02*
X107750000Y-106250000D01*
X108200000Y-106250000D02*
X107975000Y-106025000D01*
X108500000Y-106250000D02*
X108200000Y-106250000D01*
X108500000Y-106250000D02*
X109000000Y-106250000D01*
X107750000Y-106250000D02*
X108500000Y-106250000D01*
X110000000Y-112500000D02*
X110000000Y-107250000D01*
X110875001Y-104374999D02*
X109000000Y-106250000D01*
X110875001Y-96875001D02*
X110875001Y-104374999D01*
X110250000Y-96250000D02*
X110875001Y-96875001D01*
X109250000Y-96250000D02*
X110250000Y-96250000D01*
X82250000Y-117000000D02*
X82250000Y-114500000D01*
X108500000Y-87500000D02*
X111000000Y-87500000D01*
X108500000Y-53500000D02*
X111250000Y-53500000D01*
X119750000Y-133750000D02*
X120000000Y-134000000D01*
X118500000Y-133750000D02*
X119750000Y-133750000D01*
X120000000Y-134000000D02*
X120000000Y-134750000D01*
X120000000Y-134750000D02*
X119750000Y-135000000D01*
X119750000Y-135000000D02*
X114000000Y-135000000D01*
X110980000Y-136500000D02*
X110980000Y-134270000D01*
X110980000Y-134270000D02*
X111500000Y-133750000D01*
X111500000Y-133750000D02*
X112750000Y-133750000D01*
X112750000Y-133750000D02*
X114000000Y-135000000D01*
X113650000Y-132850000D02*
X112750000Y-133750000D01*
X115500000Y-132850000D02*
X113650000Y-132850000D01*
X110250000Y-119000000D02*
X107500000Y-119000000D01*
X111000000Y-119750000D02*
X110250000Y-119000000D01*
X111500000Y-133750000D02*
X111000000Y-133250000D01*
X111000000Y-133250000D02*
X111000000Y-119750000D01*
D23*
G36*
X102220871Y-99167746D02*
G01*
X102307733Y-99214175D01*
X102401983Y-99242765D01*
X102500000Y-99252419D01*
X102524560Y-99250000D01*
X105225440Y-99250000D01*
X105250000Y-99252419D01*
X105274560Y-99250000D01*
X105348017Y-99242765D01*
X105442267Y-99214175D01*
X105529129Y-99167746D01*
X105581215Y-99125000D01*
X106290415Y-99125000D01*
X106382900Y-99186796D01*
X106523941Y-99245217D01*
X106673669Y-99275000D01*
X106826331Y-99275000D01*
X106875000Y-99265319D01*
X106875000Y-105375000D01*
X95125000Y-105375000D01*
X95125000Y-99125000D01*
X102168785Y-99125000D01*
X102220871Y-99167746D01*
X102220871Y-99167746D01*
G37*
X102220871Y-99167746D02*
X102307733Y-99214175D01*
X102401983Y-99242765D01*
X102500000Y-99252419D01*
X102524560Y-99250000D01*
X105225440Y-99250000D01*
X105250000Y-99252419D01*
X105274560Y-99250000D01*
X105348017Y-99242765D01*
X105442267Y-99214175D01*
X105529129Y-99167746D01*
X105581215Y-99125000D01*
X106290415Y-99125000D01*
X106382900Y-99186796D01*
X106523941Y-99245217D01*
X106673669Y-99275000D01*
X106826331Y-99275000D01*
X106875000Y-99265319D01*
X106875000Y-105375000D01*
X95125000Y-105375000D01*
X95125000Y-99125000D01*
X102168785Y-99125000D01*
X102220871Y-99167746D01*
D24*
G36*
X91363393Y-52573435D02*
G01*
X91341446Y-52591446D01*
X91294287Y-52648911D01*
X91269592Y-52679002D01*
X91231643Y-52750000D01*
X91216199Y-52778893D01*
X91183320Y-52887281D01*
X91176135Y-52960230D01*
X91172218Y-53000000D01*
X91175000Y-53028243D01*
X91175001Y-58511826D01*
X91000000Y-58686827D01*
X91000000Y-58676131D01*
X90971178Y-58531233D01*
X90914641Y-58394742D01*
X90832563Y-58271903D01*
X90728097Y-58167437D01*
X90605258Y-58085359D01*
X90468767Y-58028822D01*
X90323869Y-58000000D01*
X90176131Y-58000000D01*
X90031233Y-58028822D01*
X89894742Y-58085359D01*
X89771903Y-58167437D01*
X89667437Y-58271903D01*
X89625000Y-58335415D01*
X89582563Y-58271903D01*
X89478097Y-58167437D01*
X89355258Y-58085359D01*
X89218767Y-58028822D01*
X89073869Y-58000000D01*
X88926131Y-58000000D01*
X88781233Y-58028822D01*
X88644742Y-58085359D01*
X88521903Y-58167437D01*
X88417437Y-58271903D01*
X88335359Y-58394742D01*
X88278822Y-58531233D01*
X88250000Y-58676131D01*
X88250000Y-58823869D01*
X88250727Y-58827522D01*
X86180627Y-60897623D01*
X86180622Y-60897627D01*
X85430629Y-61647621D01*
X85412500Y-61662499D01*
X85353142Y-61734827D01*
X85345032Y-61750000D01*
X85309035Y-61817346D01*
X85281873Y-61906884D01*
X85272702Y-62000000D01*
X85275001Y-62023342D01*
X85275000Y-87226668D01*
X85272702Y-87250000D01*
X85275000Y-87273331D01*
X85281873Y-87343115D01*
X85309034Y-87432653D01*
X85353141Y-87515173D01*
X85412499Y-87587501D01*
X85430634Y-87602384D01*
X86680622Y-88852373D01*
X86680627Y-88852377D01*
X87437625Y-89609377D01*
X87452499Y-89627501D01*
X87524827Y-89686859D01*
X87583326Y-89718127D01*
X87607346Y-89730966D01*
X87696884Y-89758127D01*
X87790000Y-89767298D01*
X87813332Y-89765000D01*
X88048307Y-89765000D01*
X88048307Y-90140000D01*
X88055065Y-90208612D01*
X88075078Y-90274587D01*
X88107578Y-90335390D01*
X88151315Y-90388685D01*
X88204610Y-90432422D01*
X88265413Y-90464922D01*
X88331388Y-90484935D01*
X88400000Y-90491693D01*
X90100000Y-90491693D01*
X90168612Y-90484935D01*
X90234587Y-90464922D01*
X90275000Y-90443321D01*
X90275000Y-90676679D01*
X90234587Y-90655078D01*
X90168612Y-90635065D01*
X90100000Y-90628307D01*
X88400000Y-90628307D01*
X88331388Y-90635065D01*
X88265413Y-90655078D01*
X88204610Y-90687578D01*
X88151315Y-90731315D01*
X88107578Y-90784610D01*
X88075078Y-90845413D01*
X88055065Y-90911388D01*
X88048307Y-90980000D01*
X88048307Y-92477189D01*
X87977012Y-92498816D01*
X87785916Y-92600958D01*
X87618419Y-92738419D01*
X87480958Y-92905916D01*
X87378816Y-93097012D01*
X87315916Y-93304362D01*
X87294678Y-93520000D01*
X87300000Y-94070000D01*
X87575000Y-94345000D01*
X89225000Y-94345000D01*
X89225000Y-94325000D01*
X89275000Y-94325000D01*
X89275000Y-94345000D01*
X90925000Y-94345000D01*
X91200000Y-94070000D01*
X91205322Y-93520000D01*
X91184084Y-93304362D01*
X91121184Y-93097012D01*
X91019042Y-92905916D01*
X90881581Y-92738419D01*
X90714084Y-92600958D01*
X90522988Y-92498816D01*
X90451693Y-92477189D01*
X90451693Y-92304177D01*
X90513116Y-92298127D01*
X90602654Y-92270966D01*
X90685173Y-92226859D01*
X90757501Y-92167501D01*
X90772384Y-92149367D01*
X91069371Y-91852380D01*
X91087501Y-91837501D01*
X91146859Y-91765173D01*
X91190966Y-91682654D01*
X91218127Y-91593116D01*
X91225000Y-91523332D01*
X91225000Y-91523331D01*
X91227298Y-91500001D01*
X91225000Y-91476669D01*
X91225000Y-88273331D01*
X91227298Y-88249999D01*
X91218127Y-88156883D01*
X91204822Y-88113023D01*
X91190966Y-88067346D01*
X91146859Y-87984827D01*
X91087501Y-87912499D01*
X91069366Y-87897616D01*
X90852384Y-87680634D01*
X90837501Y-87662499D01*
X90765173Y-87603141D01*
X90682654Y-87559034D01*
X90593116Y-87531873D01*
X90523332Y-87525000D01*
X90500000Y-87522702D01*
X90476668Y-87525000D01*
X90172056Y-87525000D01*
X90182101Y-87514955D01*
X90313426Y-87318413D01*
X90403884Y-87100027D01*
X90450000Y-86868190D01*
X90450000Y-86631810D01*
X90403884Y-86399973D01*
X90313426Y-86181587D01*
X90182101Y-85985045D01*
X90014955Y-85817899D01*
X89818413Y-85686574D01*
X89600027Y-85596116D01*
X89368190Y-85550000D01*
X89131810Y-85550000D01*
X88899973Y-85596116D01*
X88681587Y-85686574D01*
X88485045Y-85817899D01*
X88317899Y-85985045D01*
X88186574Y-86181587D01*
X88096116Y-86399973D01*
X88050000Y-86631810D01*
X88050000Y-86868190D01*
X88096116Y-87100027D01*
X88186574Y-87318413D01*
X88317899Y-87514955D01*
X88327944Y-87525000D01*
X87446752Y-87525000D01*
X86725000Y-86803250D01*
X86725000Y-82290573D01*
X86738389Y-82301561D01*
X87067064Y-82630236D01*
X87085076Y-82652184D01*
X87172632Y-82724038D01*
X87174724Y-82725156D01*
X94925000Y-90475432D01*
X94925000Y-90627509D01*
X94576329Y-90771933D01*
X94256948Y-90985336D01*
X93985336Y-91256948D01*
X93771933Y-91576329D01*
X93624938Y-91931206D01*
X93550000Y-92307942D01*
X93550000Y-92692058D01*
X93624938Y-93068794D01*
X93771933Y-93423671D01*
X93985336Y-93743052D01*
X94256948Y-94014664D01*
X94576329Y-94228067D01*
X94931206Y-94375062D01*
X95307942Y-94450000D01*
X95692058Y-94450000D01*
X96068794Y-94375062D01*
X96423671Y-94228067D01*
X96743052Y-94014664D01*
X97014664Y-93743052D01*
X97228067Y-93423671D01*
X97375062Y-93068794D01*
X97450000Y-92692058D01*
X97450000Y-92307942D01*
X97375062Y-91931206D01*
X97228067Y-91576329D01*
X97014664Y-91256948D01*
X96743052Y-90985336D01*
X96423671Y-90771933D01*
X96075000Y-90627509D01*
X96075000Y-90265501D01*
X96077782Y-90237258D01*
X96075000Y-90209013D01*
X96066680Y-90124539D01*
X96033801Y-90016151D01*
X95995629Y-89944737D01*
X95980408Y-89916260D01*
X95926559Y-89850645D01*
X95908554Y-89828705D01*
X95886613Y-89810699D01*
X92502045Y-86426131D01*
X95750000Y-86426131D01*
X95750000Y-86573869D01*
X95778822Y-86718767D01*
X95835359Y-86855258D01*
X95917437Y-86978097D01*
X96021903Y-87082563D01*
X96025000Y-87084632D01*
X96025000Y-87226667D01*
X96022702Y-87250000D01*
X96025000Y-87273331D01*
X96031873Y-87343115D01*
X96059034Y-87432653D01*
X96103141Y-87515173D01*
X96162499Y-87587501D01*
X96180634Y-87602384D01*
X96397616Y-87819366D01*
X96400000Y-87822271D01*
X96400000Y-89500000D01*
X96401921Y-89519509D01*
X96407612Y-89538268D01*
X96416853Y-89555557D01*
X96429289Y-89570711D01*
X96444443Y-89583147D01*
X96461732Y-89592388D01*
X96480491Y-89598079D01*
X96500000Y-89600000D01*
X107445964Y-89600000D01*
X107500000Y-89605322D01*
X108200000Y-89600000D01*
X108800000Y-89600000D01*
X109500000Y-89605322D01*
X109554036Y-89600000D01*
X110500000Y-89600000D01*
X110519509Y-89598079D01*
X110538268Y-89592388D01*
X110555557Y-89583147D01*
X110570711Y-89570711D01*
X110583147Y-89555557D01*
X110592388Y-89538268D01*
X110598079Y-89519509D01*
X110600000Y-89500000D01*
X110600000Y-88554036D01*
X110605322Y-88500000D01*
X110600000Y-87800000D01*
X110600000Y-87200000D01*
X110605322Y-86500000D01*
X110600000Y-86445964D01*
X110600000Y-85500000D01*
X110598079Y-85480491D01*
X110592388Y-85461732D01*
X110583147Y-85444443D01*
X110570711Y-85429289D01*
X110555557Y-85416853D01*
X110538268Y-85407612D01*
X110519509Y-85401921D01*
X110500000Y-85400000D01*
X109554036Y-85400000D01*
X109500000Y-85394678D01*
X108800000Y-85400000D01*
X108200000Y-85400000D01*
X107500000Y-85394678D01*
X107445964Y-85400000D01*
X96500000Y-85400000D01*
X96480491Y-85401921D01*
X96461732Y-85407612D01*
X96444443Y-85416853D01*
X96429289Y-85429289D01*
X96416853Y-85444443D01*
X96407612Y-85461732D01*
X96401921Y-85480491D01*
X96400000Y-85500000D01*
X96400000Y-85755198D01*
X96281233Y-85778822D01*
X96144742Y-85835359D01*
X96021903Y-85917437D01*
X95917437Y-86021903D01*
X95835359Y-86144742D01*
X95778822Y-86281233D01*
X95750000Y-86426131D01*
X92502045Y-86426131D01*
X87932936Y-81857023D01*
X87914924Y-81835076D01*
X87827368Y-81763222D01*
X87825276Y-81762104D01*
X87700000Y-81636828D01*
X87700000Y-79676131D01*
X103500000Y-79676131D01*
X103500000Y-79823869D01*
X103528822Y-79968767D01*
X103585359Y-80105258D01*
X103667437Y-80228097D01*
X103771903Y-80332563D01*
X103894742Y-80414641D01*
X104031233Y-80471178D01*
X104176131Y-80500000D01*
X104323869Y-80500000D01*
X104327522Y-80499273D01*
X104897625Y-81069377D01*
X104912499Y-81087501D01*
X104984827Y-81146859D01*
X105067346Y-81190966D01*
X105156884Y-81218127D01*
X105250000Y-81227298D01*
X105273332Y-81225000D01*
X122915368Y-81225000D01*
X122917437Y-81228097D01*
X123021903Y-81332563D01*
X123144742Y-81414641D01*
X123281233Y-81471178D01*
X123426131Y-81500000D01*
X123573869Y-81500000D01*
X123718767Y-81471178D01*
X123855258Y-81414641D01*
X123978097Y-81332563D01*
X124082563Y-81228097D01*
X124164641Y-81105258D01*
X124221178Y-80968767D01*
X124250000Y-80823869D01*
X124250000Y-80676131D01*
X124221178Y-80531233D01*
X124164641Y-80394742D01*
X124082563Y-80271903D01*
X123978097Y-80167437D01*
X123855258Y-80085359D01*
X123718767Y-80028822D01*
X123573869Y-80000000D01*
X123426131Y-80000000D01*
X123281233Y-80028822D01*
X123144742Y-80085359D01*
X123021903Y-80167437D01*
X122917437Y-80271903D01*
X122915368Y-80275000D01*
X105446752Y-80275000D01*
X104999273Y-79827522D01*
X105000000Y-79823869D01*
X105000000Y-79676131D01*
X104971178Y-79531233D01*
X104914641Y-79394742D01*
X104832563Y-79271903D01*
X104728097Y-79167437D01*
X104605258Y-79085359D01*
X104468767Y-79028822D01*
X104323869Y-79000000D01*
X104176131Y-79000000D01*
X104031233Y-79028822D01*
X103894742Y-79085359D01*
X103771903Y-79167437D01*
X103667437Y-79271903D01*
X103585359Y-79394742D01*
X103528822Y-79531233D01*
X103500000Y-79676131D01*
X87700000Y-79676131D01*
X87700000Y-73676131D01*
X115500000Y-73676131D01*
X115500000Y-73823869D01*
X115528822Y-73968767D01*
X115585359Y-74105258D01*
X115667437Y-74228097D01*
X115771903Y-74332563D01*
X115835415Y-74375000D01*
X115771903Y-74417437D01*
X115667437Y-74521903D01*
X115585359Y-74644742D01*
X115528822Y-74781233D01*
X115500000Y-74926131D01*
X115500000Y-75073869D01*
X115528822Y-75218767D01*
X115585359Y-75355258D01*
X115667437Y-75478097D01*
X115771903Y-75582563D01*
X115835415Y-75625000D01*
X115771903Y-75667437D01*
X115667437Y-75771903D01*
X115585359Y-75894742D01*
X115528822Y-76031233D01*
X115500000Y-76176131D01*
X115500000Y-76323869D01*
X115528822Y-76468767D01*
X115585359Y-76605258D01*
X115667437Y-76728097D01*
X115771903Y-76832563D01*
X115894742Y-76914641D01*
X116031233Y-76971178D01*
X116176131Y-77000000D01*
X116323869Y-77000000D01*
X116468767Y-76971178D01*
X116605258Y-76914641D01*
X116728097Y-76832563D01*
X116832563Y-76728097D01*
X116834632Y-76725000D01*
X123915368Y-76725000D01*
X123917437Y-76728097D01*
X124021903Y-76832563D01*
X124144742Y-76914641D01*
X124281233Y-76971178D01*
X124426131Y-77000000D01*
X124573869Y-77000000D01*
X124718767Y-76971178D01*
X124855258Y-76914641D01*
X124978097Y-76832563D01*
X125082563Y-76728097D01*
X125164641Y-76605258D01*
X125221178Y-76468767D01*
X125250000Y-76323869D01*
X125250000Y-76176131D01*
X125221178Y-76031233D01*
X125164641Y-75894742D01*
X125082563Y-75771903D01*
X124978097Y-75667437D01*
X124914585Y-75625000D01*
X124978097Y-75582563D01*
X125082563Y-75478097D01*
X125164641Y-75355258D01*
X125221178Y-75218767D01*
X125250000Y-75073869D01*
X125250000Y-74926131D01*
X125221178Y-74781233D01*
X125164641Y-74644742D01*
X125082563Y-74521903D01*
X124978097Y-74417437D01*
X124914585Y-74375000D01*
X124978097Y-74332563D01*
X125082563Y-74228097D01*
X125164641Y-74105258D01*
X125221178Y-73968767D01*
X125250000Y-73823869D01*
X125250000Y-73676131D01*
X125221178Y-73531233D01*
X125164641Y-73394742D01*
X125082563Y-73271903D01*
X124978097Y-73167437D01*
X124855258Y-73085359D01*
X124718767Y-73028822D01*
X124573869Y-73000000D01*
X124426131Y-73000000D01*
X124281233Y-73028822D01*
X124144742Y-73085359D01*
X124021903Y-73167437D01*
X123917437Y-73271903D01*
X123915368Y-73275000D01*
X116834632Y-73275000D01*
X116832563Y-73271903D01*
X116728097Y-73167437D01*
X116605258Y-73085359D01*
X116468767Y-73028822D01*
X116323869Y-73000000D01*
X116176131Y-73000000D01*
X116031233Y-73028822D01*
X115894742Y-73085359D01*
X115771903Y-73167437D01*
X115667437Y-73271903D01*
X115585359Y-73394742D01*
X115528822Y-73531233D01*
X115500000Y-73676131D01*
X87700000Y-73676131D01*
X87700000Y-63613172D01*
X92134448Y-59178725D01*
X92167437Y-59228097D01*
X92271903Y-59332563D01*
X92394742Y-59414641D01*
X92531233Y-59471178D01*
X92676131Y-59500000D01*
X92823869Y-59500000D01*
X92827523Y-59499273D01*
X98397621Y-65069372D01*
X98412499Y-65087501D01*
X98484827Y-65146859D01*
X98567346Y-65190966D01*
X98629722Y-65209888D01*
X98656883Y-65218127D01*
X98749999Y-65227298D01*
X98773331Y-65225000D01*
X122915368Y-65225000D01*
X122917437Y-65228097D01*
X123021903Y-65332563D01*
X123144742Y-65414641D01*
X123281233Y-65471178D01*
X123426131Y-65500000D01*
X123573869Y-65500000D01*
X123718767Y-65471178D01*
X123855258Y-65414641D01*
X123978097Y-65332563D01*
X124082563Y-65228097D01*
X124164641Y-65105258D01*
X124221178Y-64968767D01*
X124250000Y-64823869D01*
X124250000Y-64676131D01*
X124221178Y-64531233D01*
X124164641Y-64394742D01*
X124082563Y-64271903D01*
X123978097Y-64167437D01*
X123855258Y-64085359D01*
X123718767Y-64028822D01*
X123573869Y-64000000D01*
X123426131Y-64000000D01*
X123281233Y-64028822D01*
X123144742Y-64085359D01*
X123021903Y-64167437D01*
X122917437Y-64271903D01*
X122915368Y-64275000D01*
X118035660Y-64275000D01*
X118082563Y-64228097D01*
X118164641Y-64105258D01*
X118221178Y-63968767D01*
X118250000Y-63823869D01*
X118250000Y-63676131D01*
X118221178Y-63531233D01*
X118178712Y-63428712D01*
X118281233Y-63471178D01*
X118426131Y-63500000D01*
X118573869Y-63500000D01*
X118718767Y-63471178D01*
X118855258Y-63414641D01*
X118978097Y-63332563D01*
X119082563Y-63228097D01*
X119164641Y-63105258D01*
X119221178Y-62968767D01*
X119250000Y-62823869D01*
X119250000Y-62676131D01*
X119221178Y-62531233D01*
X119178712Y-62428712D01*
X119281233Y-62471178D01*
X119426131Y-62500000D01*
X119573869Y-62500000D01*
X119718767Y-62471178D01*
X119855258Y-62414641D01*
X119978097Y-62332563D01*
X120082563Y-62228097D01*
X120164641Y-62105258D01*
X120221178Y-61968767D01*
X120250000Y-61823869D01*
X120250000Y-61676131D01*
X120221178Y-61531233D01*
X120178712Y-61428712D01*
X120281233Y-61471178D01*
X120426131Y-61500000D01*
X120573869Y-61500000D01*
X120718767Y-61471178D01*
X120855258Y-61414641D01*
X120978097Y-61332563D01*
X121082563Y-61228097D01*
X121164641Y-61105258D01*
X121221178Y-60968767D01*
X121250000Y-60823869D01*
X121250000Y-60676131D01*
X121221178Y-60531233D01*
X121178712Y-60428712D01*
X121281233Y-60471178D01*
X121426131Y-60500000D01*
X121573869Y-60500000D01*
X121718767Y-60471178D01*
X121855258Y-60414641D01*
X121978097Y-60332563D01*
X122082563Y-60228097D01*
X122164641Y-60105258D01*
X122221178Y-59968767D01*
X122250000Y-59823869D01*
X122250000Y-59676131D01*
X122221178Y-59531233D01*
X122178712Y-59428712D01*
X122281233Y-59471178D01*
X122426131Y-59500000D01*
X122573869Y-59500000D01*
X122718767Y-59471178D01*
X122855258Y-59414641D01*
X122978097Y-59332563D01*
X123082563Y-59228097D01*
X123164641Y-59105258D01*
X123221178Y-58968767D01*
X123250000Y-58823869D01*
X123250000Y-58676131D01*
X123221178Y-58531233D01*
X123164641Y-58394742D01*
X123082563Y-58271903D01*
X122978097Y-58167437D01*
X122855258Y-58085359D01*
X122718767Y-58028822D01*
X122573869Y-58000000D01*
X122426131Y-58000000D01*
X122281233Y-58028822D01*
X122144742Y-58085359D01*
X122021903Y-58167437D01*
X121917437Y-58271903D01*
X121915368Y-58275000D01*
X104834632Y-58275000D01*
X104832563Y-58271903D01*
X104728097Y-58167437D01*
X104605258Y-58085359D01*
X104468767Y-58028822D01*
X104323869Y-58000000D01*
X104176131Y-58000000D01*
X104031233Y-58028822D01*
X103894742Y-58085359D01*
X103771903Y-58167437D01*
X103667437Y-58271903D01*
X103625000Y-58335415D01*
X103582563Y-58271903D01*
X103478097Y-58167437D01*
X103355258Y-58085359D01*
X103218767Y-58028822D01*
X103073869Y-58000000D01*
X102926131Y-58000000D01*
X102781233Y-58028822D01*
X102644742Y-58085359D01*
X102521903Y-58167437D01*
X102417437Y-58271903D01*
X102335359Y-58394742D01*
X102278822Y-58531233D01*
X102250000Y-58676131D01*
X102250000Y-58823869D01*
X102278822Y-58968767D01*
X102335359Y-59105258D01*
X102417437Y-59228097D01*
X102521903Y-59332563D01*
X102644742Y-59414641D01*
X102781233Y-59471178D01*
X102926131Y-59500000D01*
X103073869Y-59500000D01*
X103077522Y-59499273D01*
X103647625Y-60069377D01*
X103662499Y-60087501D01*
X103680622Y-60102374D01*
X103734827Y-60146859D01*
X103817346Y-60190966D01*
X103906884Y-60218127D01*
X104000000Y-60227298D01*
X104023332Y-60225000D01*
X119964340Y-60225000D01*
X119917437Y-60271903D01*
X119915368Y-60275000D01*
X102696751Y-60275000D01*
X101249273Y-58827523D01*
X101250000Y-58823869D01*
X101250000Y-58676131D01*
X101221178Y-58531233D01*
X101164641Y-58394742D01*
X101082563Y-58271903D01*
X100978097Y-58167437D01*
X100855258Y-58085359D01*
X100718767Y-58028822D01*
X100573869Y-58000000D01*
X100426131Y-58000000D01*
X100281233Y-58028822D01*
X100144742Y-58085359D01*
X100021903Y-58167437D01*
X99917437Y-58271903D01*
X99835359Y-58394742D01*
X99778822Y-58531233D01*
X99750000Y-58676131D01*
X99750000Y-58823869D01*
X99778822Y-58968767D01*
X99835359Y-59105258D01*
X99917437Y-59228097D01*
X100021903Y-59332563D01*
X100144742Y-59414641D01*
X100281233Y-59471178D01*
X100426131Y-59500000D01*
X100573869Y-59500000D01*
X100577523Y-59499273D01*
X102147621Y-61069372D01*
X102162499Y-61087501D01*
X102234827Y-61146859D01*
X102317346Y-61190966D01*
X102379722Y-61209888D01*
X102406883Y-61218127D01*
X102499999Y-61227298D01*
X102523331Y-61225000D01*
X118964340Y-61225000D01*
X118917437Y-61271903D01*
X118915368Y-61275000D01*
X99946752Y-61275000D01*
X97499273Y-58827523D01*
X97500000Y-58823869D01*
X97500000Y-58676131D01*
X97471178Y-58531233D01*
X97414641Y-58394742D01*
X97332563Y-58271903D01*
X97228097Y-58167437D01*
X97105258Y-58085359D01*
X96968767Y-58028822D01*
X96823869Y-58000000D01*
X96676131Y-58000000D01*
X96531233Y-58028822D01*
X96394742Y-58085359D01*
X96271903Y-58167437D01*
X96167437Y-58271903D01*
X96125000Y-58335415D01*
X96082563Y-58271903D01*
X95978097Y-58167437D01*
X95855258Y-58085359D01*
X95718767Y-58028822D01*
X95573869Y-58000000D01*
X95426131Y-58000000D01*
X95281233Y-58028822D01*
X95144742Y-58085359D01*
X95021903Y-58167437D01*
X94917437Y-58271903D01*
X94875000Y-58335415D01*
X94832563Y-58271903D01*
X94728097Y-58167437D01*
X94605258Y-58085359D01*
X94468767Y-58028822D01*
X94323869Y-58000000D01*
X94176131Y-58000000D01*
X94031233Y-58028822D01*
X93894742Y-58085359D01*
X93771903Y-58167437D01*
X93667437Y-58271903D01*
X93585359Y-58394742D01*
X93528822Y-58531233D01*
X93500000Y-58676131D01*
X93471178Y-58531233D01*
X93414641Y-58394742D01*
X93332563Y-58271903D01*
X93228097Y-58167437D01*
X93105258Y-58085359D01*
X92968767Y-58028822D01*
X92823869Y-58000000D01*
X92676131Y-58000000D01*
X92531233Y-58028822D01*
X92394742Y-58085359D01*
X92325000Y-58131959D01*
X92325000Y-57580249D01*
X92335359Y-57605258D01*
X92417437Y-57728097D01*
X92521903Y-57832563D01*
X92644742Y-57914641D01*
X92781233Y-57971178D01*
X92926131Y-58000000D01*
X93073869Y-58000000D01*
X93218767Y-57971178D01*
X93355258Y-57914641D01*
X93478097Y-57832563D01*
X93582563Y-57728097D01*
X93584632Y-57725000D01*
X106915368Y-57725000D01*
X106917437Y-57728097D01*
X107021903Y-57832563D01*
X107144742Y-57914641D01*
X107281233Y-57971178D01*
X107426131Y-58000000D01*
X107573869Y-58000000D01*
X107718767Y-57971178D01*
X107855258Y-57914641D01*
X107978097Y-57832563D01*
X108082563Y-57728097D01*
X108164641Y-57605258D01*
X108221178Y-57468767D01*
X108250000Y-57323869D01*
X108250000Y-57176131D01*
X108221178Y-57031233D01*
X108164641Y-56894742D01*
X108082563Y-56771903D01*
X108060660Y-56750000D01*
X108082563Y-56728097D01*
X108164641Y-56605258D01*
X108221178Y-56468767D01*
X108250000Y-56323869D01*
X108250000Y-56176131D01*
X108221178Y-56031233D01*
X108164641Y-55894742D01*
X108082563Y-55771903D01*
X107978097Y-55667437D01*
X107880802Y-55602427D01*
X108200000Y-55600000D01*
X108800000Y-55600000D01*
X109500000Y-55605322D01*
X109554036Y-55600000D01*
X110500000Y-55600000D01*
X110519509Y-55598079D01*
X110538268Y-55592388D01*
X110555557Y-55583147D01*
X110570711Y-55570711D01*
X110583147Y-55555557D01*
X110592388Y-55538268D01*
X110598079Y-55519509D01*
X110600000Y-55500000D01*
X110600000Y-54926131D01*
X128250000Y-54926131D01*
X128250000Y-55073869D01*
X128278822Y-55218767D01*
X128335359Y-55355258D01*
X128417437Y-55478097D01*
X128521903Y-55582563D01*
X128644742Y-55664641D01*
X128781233Y-55721178D01*
X128926131Y-55750000D01*
X129073869Y-55750000D01*
X129077523Y-55749273D01*
X136750727Y-63422478D01*
X136750000Y-63426131D01*
X136750000Y-63573869D01*
X136778822Y-63718767D01*
X136835359Y-63855258D01*
X136917437Y-63978097D01*
X137021903Y-64082563D01*
X137144742Y-64164641D01*
X137281233Y-64221178D01*
X137426131Y-64250000D01*
X137573869Y-64250000D01*
X137577523Y-64249273D01*
X139147621Y-65819372D01*
X139162499Y-65837501D01*
X139234827Y-65896859D01*
X139317346Y-65940966D01*
X139379722Y-65959888D01*
X139406883Y-65968127D01*
X139499999Y-65977298D01*
X139523331Y-65975000D01*
X149165368Y-65975000D01*
X149167437Y-65978097D01*
X149271903Y-66082563D01*
X149394742Y-66164641D01*
X149531233Y-66221178D01*
X149676131Y-66250000D01*
X149823869Y-66250000D01*
X149968767Y-66221178D01*
X150105258Y-66164641D01*
X150228097Y-66082563D01*
X150332563Y-65978097D01*
X150414641Y-65855258D01*
X150471178Y-65718767D01*
X150500000Y-65573869D01*
X150500000Y-65426131D01*
X150471178Y-65281233D01*
X150414641Y-65144742D01*
X150332563Y-65021903D01*
X150228097Y-64917437D01*
X150105258Y-64835359D01*
X149968767Y-64778822D01*
X149823869Y-64750000D01*
X149676131Y-64750000D01*
X149531233Y-64778822D01*
X149394742Y-64835359D01*
X149271903Y-64917437D01*
X149167437Y-65021903D01*
X149165368Y-65025000D01*
X139696751Y-65025000D01*
X138249273Y-63577523D01*
X138250000Y-63573869D01*
X138250000Y-63426131D01*
X138221178Y-63281233D01*
X138164641Y-63144742D01*
X138082563Y-63021903D01*
X137978097Y-62917437D01*
X137855258Y-62835359D01*
X137718767Y-62778822D01*
X137573869Y-62750000D01*
X137426131Y-62750000D01*
X137422478Y-62750727D01*
X129749273Y-55077523D01*
X129750000Y-55073869D01*
X129750000Y-54926131D01*
X129721178Y-54781233D01*
X129664641Y-54644742D01*
X129656001Y-54631810D01*
X130300000Y-54631810D01*
X130300000Y-54868190D01*
X130346116Y-55100027D01*
X130436574Y-55318413D01*
X130567899Y-55514955D01*
X130735045Y-55682101D01*
X130931587Y-55813426D01*
X131149973Y-55903884D01*
X131381810Y-55950000D01*
X131618190Y-55950000D01*
X131850027Y-55903884D01*
X132068413Y-55813426D01*
X132103396Y-55790051D01*
X132105916Y-55815638D01*
X132168816Y-56022988D01*
X132270958Y-56214084D01*
X132408419Y-56381581D01*
X132575916Y-56519042D01*
X132767012Y-56621184D01*
X132974362Y-56684084D01*
X133190000Y-56705322D01*
X133740000Y-56700000D01*
X134015000Y-56425000D01*
X134015000Y-54775000D01*
X134065000Y-54775000D01*
X134065000Y-56425000D01*
X134340000Y-56700000D01*
X134890000Y-56705322D01*
X135105638Y-56684084D01*
X135312988Y-56621184D01*
X135504084Y-56519042D01*
X135671581Y-56381581D01*
X135809042Y-56214084D01*
X135911184Y-56022988D01*
X135974084Y-55815638D01*
X135995322Y-55600000D01*
X135990000Y-55050000D01*
X135715000Y-54775000D01*
X134065000Y-54775000D01*
X134015000Y-54775000D01*
X133995000Y-54775000D01*
X133995000Y-54725000D01*
X134015000Y-54725000D01*
X134015000Y-53075000D01*
X134065000Y-53075000D01*
X134065000Y-54725000D01*
X135715000Y-54725000D01*
X135990000Y-54450000D01*
X135995322Y-53900000D01*
X135974084Y-53684362D01*
X135911184Y-53477012D01*
X135809042Y-53285916D01*
X135671581Y-53118419D01*
X135504084Y-52980958D01*
X135312988Y-52878816D01*
X135105638Y-52815916D01*
X134890000Y-52794678D01*
X134340000Y-52800000D01*
X134065000Y-53075000D01*
X134015000Y-53075000D01*
X133740000Y-52800000D01*
X133190000Y-52794678D01*
X132974362Y-52815916D01*
X132767012Y-52878816D01*
X132575916Y-52980958D01*
X132408419Y-53118419D01*
X132270958Y-53285916D01*
X132168816Y-53477012D01*
X132105916Y-53684362D01*
X132103396Y-53709949D01*
X132068413Y-53686574D01*
X131850027Y-53596116D01*
X131618190Y-53550000D01*
X131381810Y-53550000D01*
X131149973Y-53596116D01*
X130931587Y-53686574D01*
X130735045Y-53817899D01*
X130567899Y-53985045D01*
X130436574Y-54181587D01*
X130346116Y-54399973D01*
X130300000Y-54631810D01*
X129656001Y-54631810D01*
X129582563Y-54521903D01*
X129478097Y-54417437D01*
X129355258Y-54335359D01*
X129218767Y-54278822D01*
X129073869Y-54250000D01*
X128926131Y-54250000D01*
X128781233Y-54278822D01*
X128644742Y-54335359D01*
X128521903Y-54417437D01*
X128417437Y-54521903D01*
X128335359Y-54644742D01*
X128278822Y-54781233D01*
X128250000Y-54926131D01*
X110600000Y-54926131D01*
X110600000Y-54554036D01*
X110605322Y-54500000D01*
X110600000Y-53800000D01*
X110600000Y-53200000D01*
X110605322Y-52500000D01*
X110600000Y-52445964D01*
X110600000Y-51825000D01*
X135261828Y-51825000D01*
X137844570Y-54407743D01*
X137800000Y-54631810D01*
X137800000Y-54868190D01*
X137846116Y-55100027D01*
X137936574Y-55318413D01*
X138067899Y-55514955D01*
X138235045Y-55682101D01*
X138431587Y-55813426D01*
X138649973Y-55903884D01*
X138881810Y-55950000D01*
X139118190Y-55950000D01*
X139350027Y-55903884D01*
X139568413Y-55813426D01*
X139764955Y-55682101D01*
X139932101Y-55514955D01*
X140063426Y-55318413D01*
X140153884Y-55100027D01*
X140200000Y-54868190D01*
X140200000Y-54631810D01*
X140153884Y-54399973D01*
X140063426Y-54181587D01*
X139932101Y-53985045D01*
X139847056Y-53900000D01*
X140338307Y-53900000D01*
X140338307Y-55600000D01*
X140345065Y-55668612D01*
X140365078Y-55734587D01*
X140397578Y-55795390D01*
X140441315Y-55848685D01*
X140494610Y-55892422D01*
X140555413Y-55924922D01*
X140621388Y-55944935D01*
X140690000Y-55951693D01*
X142390000Y-55951693D01*
X142458612Y-55944935D01*
X142524587Y-55924922D01*
X142571671Y-55899755D01*
X142791378Y-55923266D01*
X143964645Y-54750000D01*
X142791378Y-53576734D01*
X142571671Y-53600245D01*
X142524587Y-53575078D01*
X142458612Y-53555065D01*
X142390000Y-53548307D01*
X140690000Y-53548307D01*
X140621388Y-53555065D01*
X140555413Y-53575078D01*
X140494610Y-53607578D01*
X140441315Y-53651315D01*
X140397578Y-53704610D01*
X140365078Y-53765413D01*
X140345065Y-53831388D01*
X140338307Y-53900000D01*
X139847056Y-53900000D01*
X139764955Y-53817899D01*
X139568413Y-53686574D01*
X139350027Y-53596116D01*
X139118190Y-53550000D01*
X138881810Y-53550000D01*
X138657743Y-53594570D01*
X138604551Y-53541378D01*
X142826734Y-53541378D01*
X144000000Y-54714645D01*
X144014143Y-54700503D01*
X144049498Y-54735858D01*
X144035355Y-54750000D01*
X144049498Y-54764142D01*
X144014143Y-54799498D01*
X144000000Y-54785355D01*
X142826734Y-55958622D01*
X142868592Y-56349782D01*
X143202434Y-56539770D01*
X143566925Y-56660977D01*
X143948060Y-56708747D01*
X144331190Y-56681243D01*
X144701593Y-56579522D01*
X144979806Y-56440167D01*
X145075916Y-56519042D01*
X145267012Y-56621184D01*
X145474362Y-56684084D01*
X145690000Y-56705322D01*
X146240000Y-56700000D01*
X146515000Y-56425000D01*
X146515000Y-54775000D01*
X146565000Y-54775000D01*
X146565000Y-56425000D01*
X146840000Y-56700000D01*
X147390000Y-56705322D01*
X147605638Y-56684084D01*
X147812988Y-56621184D01*
X148004084Y-56519042D01*
X148171581Y-56381581D01*
X148309042Y-56214084D01*
X148411184Y-56022988D01*
X148474084Y-55815638D01*
X148495322Y-55600000D01*
X148490000Y-55050000D01*
X148215000Y-54775000D01*
X146565000Y-54775000D01*
X146515000Y-54775000D01*
X146495000Y-54775000D01*
X146495000Y-54725000D01*
X146515000Y-54725000D01*
X146515000Y-53075000D01*
X146565000Y-53075000D01*
X146565000Y-54725000D01*
X148215000Y-54725000D01*
X148308190Y-54631810D01*
X150300000Y-54631810D01*
X150300000Y-54868190D01*
X150346116Y-55100027D01*
X150436574Y-55318413D01*
X150567899Y-55514955D01*
X150735045Y-55682101D01*
X150931587Y-55813426D01*
X151149973Y-55903884D01*
X151381810Y-55950000D01*
X151618190Y-55950000D01*
X151850027Y-55903884D01*
X152068413Y-55813426D01*
X152103396Y-55790051D01*
X152105916Y-55815638D01*
X152168816Y-56022988D01*
X152270958Y-56214084D01*
X152408419Y-56381581D01*
X152575916Y-56519042D01*
X152767012Y-56621184D01*
X152974362Y-56684084D01*
X153190000Y-56705322D01*
X153740000Y-56700000D01*
X154015000Y-56425000D01*
X154015000Y-54775000D01*
X154065000Y-54775000D01*
X154065000Y-56425000D01*
X154340000Y-56700000D01*
X154890000Y-56705322D01*
X155105638Y-56684084D01*
X155312988Y-56621184D01*
X155504084Y-56519042D01*
X155671581Y-56381581D01*
X155809042Y-56214084D01*
X155911184Y-56022988D01*
X155974084Y-55815638D01*
X155995322Y-55600000D01*
X155990000Y-55050000D01*
X155715000Y-54775000D01*
X154065000Y-54775000D01*
X154015000Y-54775000D01*
X153995000Y-54775000D01*
X153995000Y-54725000D01*
X154015000Y-54725000D01*
X154015000Y-53075000D01*
X154065000Y-53075000D01*
X154065000Y-54725000D01*
X155715000Y-54725000D01*
X155990000Y-54450000D01*
X155995322Y-53900000D01*
X155974084Y-53684362D01*
X155911184Y-53477012D01*
X155809042Y-53285916D01*
X155671581Y-53118419D01*
X155504084Y-52980958D01*
X155312988Y-52878816D01*
X155105638Y-52815916D01*
X154890000Y-52794678D01*
X154340000Y-52800000D01*
X154065000Y-53075000D01*
X154015000Y-53075000D01*
X153740000Y-52800000D01*
X153190000Y-52794678D01*
X152974362Y-52815916D01*
X152767012Y-52878816D01*
X152575916Y-52980958D01*
X152408419Y-53118419D01*
X152270958Y-53285916D01*
X152168816Y-53477012D01*
X152105916Y-53684362D01*
X152103396Y-53709949D01*
X152068413Y-53686574D01*
X151850027Y-53596116D01*
X151618190Y-53550000D01*
X151381810Y-53550000D01*
X151149973Y-53596116D01*
X150931587Y-53686574D01*
X150735045Y-53817899D01*
X150567899Y-53985045D01*
X150436574Y-54181587D01*
X150346116Y-54399973D01*
X150300000Y-54631810D01*
X148308190Y-54631810D01*
X148490000Y-54450000D01*
X148495322Y-53900000D01*
X148474084Y-53684362D01*
X148411184Y-53477012D01*
X148309042Y-53285916D01*
X148171581Y-53118419D01*
X148004084Y-52980958D01*
X147812988Y-52878816D01*
X147605638Y-52815916D01*
X147390000Y-52794678D01*
X146840000Y-52800000D01*
X146565000Y-53075000D01*
X146515000Y-53075000D01*
X146240000Y-52800000D01*
X145690000Y-52794678D01*
X145474362Y-52815916D01*
X145267012Y-52878816D01*
X145075916Y-52980958D01*
X144976850Y-53062260D01*
X144797566Y-52960230D01*
X144433075Y-52839023D01*
X144051940Y-52791253D01*
X143668810Y-52818757D01*
X143298407Y-52920478D01*
X142954965Y-53092506D01*
X142868592Y-53150218D01*
X142826734Y-53541378D01*
X138604551Y-53541378D01*
X136163172Y-51100000D01*
X173900000Y-51100000D01*
X173900000Y-102400000D01*
X171625000Y-102400000D01*
X171625000Y-91892043D01*
X171676431Y-91886977D01*
X171846081Y-91835514D01*
X172002432Y-91751943D01*
X172139475Y-91639475D01*
X172251943Y-91502432D01*
X172335514Y-91346081D01*
X172386977Y-91176431D01*
X172404354Y-91000000D01*
X172404354Y-89000000D01*
X172386977Y-88823569D01*
X172335514Y-88653919D01*
X172251943Y-88497568D01*
X172139475Y-88360525D01*
X172002432Y-88248057D01*
X171846081Y-88164486D01*
X171676431Y-88113023D01*
X171500000Y-88095646D01*
X169500000Y-88095646D01*
X169323569Y-88113023D01*
X169153919Y-88164486D01*
X168997568Y-88248057D01*
X168860525Y-88360525D01*
X168748057Y-88497568D01*
X168664486Y-88653919D01*
X168613023Y-88823569D01*
X168595646Y-89000000D01*
X168595646Y-91000000D01*
X168613023Y-91176431D01*
X168664486Y-91346081D01*
X168748057Y-91502432D01*
X168860525Y-91639475D01*
X168997568Y-91751943D01*
X169153919Y-91835514D01*
X169323569Y-91886977D01*
X169375000Y-91892043D01*
X169375001Y-102400000D01*
X144413173Y-102400000D01*
X147041755Y-99771418D01*
X147106220Y-99798120D01*
X147367037Y-99850000D01*
X147632963Y-99850000D01*
X147893780Y-99798120D01*
X148139465Y-99696354D01*
X148360575Y-99548613D01*
X148548613Y-99360575D01*
X148696354Y-99139465D01*
X148798120Y-98893780D01*
X148837724Y-98694677D01*
X159900000Y-98694677D01*
X159900000Y-99305323D01*
X160019131Y-99904237D01*
X160252815Y-100468401D01*
X160592072Y-100976135D01*
X161023865Y-101407928D01*
X161531599Y-101747185D01*
X162095763Y-101980869D01*
X162694677Y-102100000D01*
X163305323Y-102100000D01*
X163904237Y-101980869D01*
X164468401Y-101747185D01*
X164976135Y-101407928D01*
X165407928Y-100976135D01*
X165747185Y-100468401D01*
X165980869Y-99904237D01*
X166100000Y-99305323D01*
X166100000Y-98694677D01*
X165980869Y-98095763D01*
X165747185Y-97531599D01*
X165407928Y-97023865D01*
X164976135Y-96592072D01*
X164468401Y-96252815D01*
X163904237Y-96019131D01*
X163305323Y-95900000D01*
X162694677Y-95900000D01*
X162095763Y-96019131D01*
X161531599Y-96252815D01*
X161023865Y-96592072D01*
X160592072Y-97023865D01*
X160252815Y-97531599D01*
X160019131Y-98095763D01*
X159900000Y-98694677D01*
X148837724Y-98694677D01*
X148850000Y-98632963D01*
X148850000Y-98367037D01*
X148798120Y-98106220D01*
X148696354Y-97860535D01*
X148548613Y-97639425D01*
X148360575Y-97451387D01*
X148139465Y-97303646D01*
X147893780Y-97201880D01*
X147632963Y-97150000D01*
X147367037Y-97150000D01*
X147106220Y-97201880D01*
X146860535Y-97303646D01*
X146639425Y-97451387D01*
X146451387Y-97639425D01*
X146303646Y-97860535D01*
X146201880Y-98106220D01*
X146150000Y-98367037D01*
X146150000Y-98632963D01*
X146201880Y-98893780D01*
X146228582Y-98958245D01*
X142786827Y-102400000D01*
X139575000Y-102400000D01*
X139575000Y-88488172D01*
X141563172Y-86500000D01*
X146148307Y-86500000D01*
X146148307Y-88500000D01*
X146155065Y-88568612D01*
X146175078Y-88634587D01*
X146207578Y-88695390D01*
X146251315Y-88748685D01*
X146304610Y-88792422D01*
X146365413Y-88824922D01*
X146431388Y-88844935D01*
X146500000Y-88851693D01*
X148500000Y-88851693D01*
X148568612Y-88844935D01*
X148634587Y-88824922D01*
X148695390Y-88792422D01*
X148748685Y-88748685D01*
X148792422Y-88695390D01*
X148824922Y-88634587D01*
X148844935Y-88568612D01*
X148851693Y-88500000D01*
X148851693Y-86500000D01*
X148844935Y-86431388D01*
X148824922Y-86365413D01*
X148792422Y-86304610D01*
X148748685Y-86251315D01*
X148695390Y-86207578D01*
X148634587Y-86175078D01*
X148568612Y-86155065D01*
X148500000Y-86148307D01*
X146500000Y-86148307D01*
X146431388Y-86155065D01*
X146365413Y-86175078D01*
X146304610Y-86207578D01*
X146251315Y-86251315D01*
X146207578Y-86304610D01*
X146175078Y-86365413D01*
X146155065Y-86431388D01*
X146148307Y-86500000D01*
X141563172Y-86500000D01*
X143113173Y-84950000D01*
X155596757Y-84950000D01*
X155625000Y-84952782D01*
X155653243Y-84950000D01*
X155653246Y-84950000D01*
X155737720Y-84941680D01*
X155846108Y-84908801D01*
X155945998Y-84855408D01*
X156033554Y-84783554D01*
X156051565Y-84761607D01*
X159386612Y-81426561D01*
X159408554Y-81408554D01*
X159442782Y-81366847D01*
X159480408Y-81320999D01*
X159533801Y-81221108D01*
X159542944Y-81190966D01*
X159566680Y-81112720D01*
X159575000Y-81028246D01*
X159575000Y-81028243D01*
X159577782Y-81000000D01*
X159575000Y-80971757D01*
X159575000Y-79000000D01*
X168595646Y-79000000D01*
X168595646Y-81000000D01*
X168613023Y-81176431D01*
X168664486Y-81346081D01*
X168748057Y-81502432D01*
X168860525Y-81639475D01*
X168997568Y-81751943D01*
X169153919Y-81835514D01*
X169323569Y-81886977D01*
X169375000Y-81892043D01*
X169375001Y-83466591D01*
X169288821Y-83524174D01*
X169024174Y-83788821D01*
X168816242Y-84100013D01*
X168673016Y-84445791D01*
X168600000Y-84812866D01*
X168600000Y-85187134D01*
X168673016Y-85554209D01*
X168816242Y-85899987D01*
X169024174Y-86211179D01*
X169288821Y-86475826D01*
X169600013Y-86683758D01*
X169945791Y-86826984D01*
X170312866Y-86900000D01*
X170687134Y-86900000D01*
X171054209Y-86826984D01*
X171399987Y-86683758D01*
X171711179Y-86475826D01*
X171975826Y-86211179D01*
X172183758Y-85899987D01*
X172326984Y-85554209D01*
X172400000Y-85187134D01*
X172400000Y-84812866D01*
X172326984Y-84445791D01*
X172183758Y-84100013D01*
X171975826Y-83788821D01*
X171711179Y-83524174D01*
X171625000Y-83466591D01*
X171625000Y-81892043D01*
X171676431Y-81886977D01*
X171846081Y-81835514D01*
X172002432Y-81751943D01*
X172139475Y-81639475D01*
X172251943Y-81502432D01*
X172335514Y-81346081D01*
X172386977Y-81176431D01*
X172404354Y-81000000D01*
X172404354Y-79000000D01*
X172386977Y-78823569D01*
X172335514Y-78653919D01*
X172251943Y-78497568D01*
X172139475Y-78360525D01*
X172002432Y-78248057D01*
X171846081Y-78164486D01*
X171676431Y-78113023D01*
X171500000Y-78095646D01*
X169500000Y-78095646D01*
X169323569Y-78113023D01*
X169153919Y-78164486D01*
X168997568Y-78248057D01*
X168860525Y-78360525D01*
X168748057Y-78497568D01*
X168664486Y-78653919D01*
X168613023Y-78823569D01*
X168595646Y-79000000D01*
X159575000Y-79000000D01*
X159575000Y-74812866D01*
X168600000Y-74812866D01*
X168600000Y-75187134D01*
X168673016Y-75554209D01*
X168816242Y-75899987D01*
X169024174Y-76211179D01*
X169288821Y-76475826D01*
X169600013Y-76683758D01*
X169945791Y-76826984D01*
X170312866Y-76900000D01*
X170687134Y-76900000D01*
X171054209Y-76826984D01*
X171399987Y-76683758D01*
X171711179Y-76475826D01*
X171975826Y-76211179D01*
X172183758Y-75899987D01*
X172326984Y-75554209D01*
X172400000Y-75187134D01*
X172400000Y-74812866D01*
X172326984Y-74445791D01*
X172183758Y-74100013D01*
X171975826Y-73788821D01*
X171711179Y-73524174D01*
X171399987Y-73316242D01*
X171054209Y-73173016D01*
X170687134Y-73100000D01*
X170312866Y-73100000D01*
X169945791Y-73173016D01*
X169600013Y-73316242D01*
X169288821Y-73524174D01*
X169024174Y-73788821D01*
X168816242Y-74100013D01*
X168673016Y-74445791D01*
X168600000Y-74812866D01*
X159575000Y-74812866D01*
X159575000Y-68900000D01*
X163745646Y-68900000D01*
X163745646Y-70600000D01*
X163763023Y-70776431D01*
X163814486Y-70946081D01*
X163898057Y-71102432D01*
X164010525Y-71239475D01*
X164147568Y-71351943D01*
X164303919Y-71435514D01*
X164473569Y-71486977D01*
X164650000Y-71504354D01*
X166350000Y-71504354D01*
X166526431Y-71486977D01*
X166696081Y-71435514D01*
X166852432Y-71351943D01*
X166989475Y-71239475D01*
X167101943Y-71102432D01*
X167182514Y-70951693D01*
X168817486Y-70951693D01*
X168898057Y-71102432D01*
X169010525Y-71239475D01*
X169147568Y-71351943D01*
X169303919Y-71435514D01*
X169473569Y-71486977D01*
X169650000Y-71504354D01*
X171350000Y-71504354D01*
X171526431Y-71486977D01*
X171696081Y-71435514D01*
X171852432Y-71351943D01*
X171989475Y-71239475D01*
X172101943Y-71102432D01*
X172185514Y-70946081D01*
X172236977Y-70776431D01*
X172254354Y-70600000D01*
X172254354Y-68900000D01*
X172236977Y-68723569D01*
X172185514Y-68553919D01*
X172101943Y-68397568D01*
X171989475Y-68260525D01*
X171852432Y-68148057D01*
X171696081Y-68064486D01*
X171526431Y-68013023D01*
X171350000Y-67995646D01*
X169650000Y-67995646D01*
X169473569Y-68013023D01*
X169303919Y-68064486D01*
X169147568Y-68148057D01*
X169010525Y-68260525D01*
X168898057Y-68397568D01*
X168817486Y-68548307D01*
X167182514Y-68548307D01*
X167101943Y-68397568D01*
X166989475Y-68260525D01*
X166852432Y-68148057D01*
X166696081Y-68064486D01*
X166526431Y-68013023D01*
X166350000Y-67995646D01*
X164650000Y-67995646D01*
X164473569Y-68013023D01*
X164303919Y-68064486D01*
X164147568Y-68148057D01*
X164010525Y-68260525D01*
X163898057Y-68397568D01*
X163814486Y-68553919D01*
X163763023Y-68723569D01*
X163745646Y-68900000D01*
X159575000Y-68900000D01*
X159575000Y-62131810D01*
X164300000Y-62131810D01*
X164300000Y-62368190D01*
X164346116Y-62600027D01*
X164436574Y-62818413D01*
X164567899Y-63014955D01*
X164735045Y-63182101D01*
X164931587Y-63313426D01*
X165149973Y-63403884D01*
X165381810Y-63450000D01*
X165618190Y-63450000D01*
X165850027Y-63403884D01*
X166068413Y-63313426D01*
X166264955Y-63182101D01*
X166432101Y-63014955D01*
X166563426Y-62818413D01*
X166653884Y-62600027D01*
X166700000Y-62368190D01*
X166700000Y-62131810D01*
X166653884Y-61899973D01*
X166563426Y-61681587D01*
X166432101Y-61485045D01*
X166347056Y-61400000D01*
X166798307Y-61400000D01*
X166798307Y-63100000D01*
X166805065Y-63168612D01*
X166825078Y-63234587D01*
X166857578Y-63295390D01*
X166901315Y-63348685D01*
X166954610Y-63392422D01*
X167015413Y-63424922D01*
X167081388Y-63444935D01*
X167150000Y-63451693D01*
X168850000Y-63451693D01*
X168918612Y-63444935D01*
X168984587Y-63424922D01*
X169045390Y-63392422D01*
X169098685Y-63348685D01*
X169142422Y-63295390D01*
X169174922Y-63234587D01*
X169194935Y-63168612D01*
X169201693Y-63100000D01*
X169201693Y-61400000D01*
X169298307Y-61400000D01*
X169298307Y-63100000D01*
X169305065Y-63168612D01*
X169325078Y-63234587D01*
X169357578Y-63295390D01*
X169401315Y-63348685D01*
X169454610Y-63392422D01*
X169515413Y-63424922D01*
X169581388Y-63444935D01*
X169650000Y-63451693D01*
X171350000Y-63451693D01*
X171418612Y-63444935D01*
X171484587Y-63424922D01*
X171545390Y-63392422D01*
X171598685Y-63348685D01*
X171642422Y-63295390D01*
X171674922Y-63234587D01*
X171694935Y-63168612D01*
X171701693Y-63100000D01*
X171701693Y-61400000D01*
X171694935Y-61331388D01*
X171674922Y-61265413D01*
X171642422Y-61204610D01*
X171598685Y-61151315D01*
X171545390Y-61107578D01*
X171484587Y-61075078D01*
X171418612Y-61055065D01*
X171350000Y-61048307D01*
X169650000Y-61048307D01*
X169581388Y-61055065D01*
X169515413Y-61075078D01*
X169454610Y-61107578D01*
X169401315Y-61151315D01*
X169357578Y-61204610D01*
X169325078Y-61265413D01*
X169305065Y-61331388D01*
X169298307Y-61400000D01*
X169201693Y-61400000D01*
X169194935Y-61331388D01*
X169174922Y-61265413D01*
X169142422Y-61204610D01*
X169098685Y-61151315D01*
X169045390Y-61107578D01*
X168984587Y-61075078D01*
X168918612Y-61055065D01*
X168850000Y-61048307D01*
X167150000Y-61048307D01*
X167081388Y-61055065D01*
X167015413Y-61075078D01*
X166954610Y-61107578D01*
X166901315Y-61151315D01*
X166857578Y-61204610D01*
X166825078Y-61265413D01*
X166805065Y-61331388D01*
X166798307Y-61400000D01*
X166347056Y-61400000D01*
X166264955Y-61317899D01*
X166068413Y-61186574D01*
X165850027Y-61096116D01*
X165618190Y-61050000D01*
X165381810Y-61050000D01*
X165149973Y-61096116D01*
X164931587Y-61186574D01*
X164735045Y-61317899D01*
X164567899Y-61485045D01*
X164436574Y-61681587D01*
X164346116Y-61899973D01*
X164300000Y-62131810D01*
X159575000Y-62131810D01*
X159575000Y-55809025D01*
X159764955Y-55682101D01*
X159932101Y-55514955D01*
X160063426Y-55318413D01*
X160153884Y-55100027D01*
X160200000Y-54868190D01*
X160200000Y-54631810D01*
X160153884Y-54399973D01*
X160063426Y-54181587D01*
X159932101Y-53985045D01*
X159847056Y-53900000D01*
X160338307Y-53900000D01*
X160338307Y-55600000D01*
X160345065Y-55668612D01*
X160365078Y-55734587D01*
X160397578Y-55795390D01*
X160441315Y-55848685D01*
X160494610Y-55892422D01*
X160555413Y-55924922D01*
X160621388Y-55944935D01*
X160690000Y-55951693D01*
X162390000Y-55951693D01*
X162458612Y-55944935D01*
X162524587Y-55924922D01*
X162585390Y-55892422D01*
X162638685Y-55848685D01*
X162682422Y-55795390D01*
X162714922Y-55734587D01*
X162734935Y-55668612D01*
X162741693Y-55600000D01*
X162741693Y-54620808D01*
X166150000Y-54620808D01*
X166150000Y-55379192D01*
X166297953Y-56123004D01*
X166588174Y-56823659D01*
X167009509Y-57454232D01*
X167545768Y-57990491D01*
X168176341Y-58411826D01*
X168876996Y-58702047D01*
X169620808Y-58850000D01*
X170379192Y-58850000D01*
X171123004Y-58702047D01*
X171823659Y-58411826D01*
X172454232Y-57990491D01*
X172990491Y-57454232D01*
X173411826Y-56823659D01*
X173702047Y-56123004D01*
X173850000Y-55379192D01*
X173850000Y-54620808D01*
X173702047Y-53876996D01*
X173411826Y-53176341D01*
X172990491Y-52545768D01*
X172454232Y-52009509D01*
X171823659Y-51588174D01*
X171123004Y-51297953D01*
X170379192Y-51150000D01*
X169620808Y-51150000D01*
X168876996Y-51297953D01*
X168176341Y-51588174D01*
X167545768Y-52009509D01*
X167009509Y-52545768D01*
X166588174Y-53176341D01*
X166297953Y-53876996D01*
X166150000Y-54620808D01*
X162741693Y-54620808D01*
X162741693Y-53900000D01*
X162734935Y-53831388D01*
X162714922Y-53765413D01*
X162682422Y-53704610D01*
X162638685Y-53651315D01*
X162585390Y-53607578D01*
X162524587Y-53575078D01*
X162458612Y-53555065D01*
X162390000Y-53548307D01*
X160690000Y-53548307D01*
X160621388Y-53555065D01*
X160555413Y-53575078D01*
X160494610Y-53607578D01*
X160441315Y-53651315D01*
X160397578Y-53704610D01*
X160365078Y-53765413D01*
X160345065Y-53831388D01*
X160338307Y-53900000D01*
X159847056Y-53900000D01*
X159764955Y-53817899D01*
X159568413Y-53686574D01*
X159350027Y-53596116D01*
X159118190Y-53550000D01*
X158881810Y-53550000D01*
X158649973Y-53596116D01*
X158431587Y-53686574D01*
X158235045Y-53817899D01*
X158067899Y-53985045D01*
X157936574Y-54181587D01*
X157846116Y-54399973D01*
X157800000Y-54631810D01*
X157800000Y-54868190D01*
X157846116Y-55100027D01*
X157936574Y-55318413D01*
X158067899Y-55514955D01*
X158235045Y-55682101D01*
X158425000Y-55809025D01*
X158425001Y-80761826D01*
X155386828Y-83800000D01*
X142903243Y-83800000D01*
X142875000Y-83797218D01*
X142846757Y-83800000D01*
X142846754Y-83800000D01*
X142762280Y-83808320D01*
X142653892Y-83841199D01*
X142554002Y-83894592D01*
X142466446Y-83966446D01*
X142448440Y-83988387D01*
X138613393Y-87823434D01*
X138591446Y-87841446D01*
X138545972Y-87896858D01*
X138519592Y-87929002D01*
X138493777Y-87977298D01*
X138466199Y-88028893D01*
X138433320Y-88137281D01*
X138425000Y-88221754D01*
X138422218Y-88250000D01*
X138425000Y-88278243D01*
X138425001Y-102400000D01*
X120000000Y-102400000D01*
X119980491Y-102401921D01*
X119961732Y-102407612D01*
X119944443Y-102416853D01*
X119929289Y-102429289D01*
X119916853Y-102444443D01*
X119907612Y-102461732D01*
X119901921Y-102480491D01*
X119900000Y-102500000D01*
X119900000Y-114900000D01*
X111350000Y-114900000D01*
X111350000Y-114844207D01*
X111438829Y-114800106D01*
X111574406Y-114709516D01*
X111706203Y-114241559D01*
X111350000Y-113885356D01*
X111350000Y-113814644D01*
X111741559Y-114206203D01*
X112209516Y-114074406D01*
X112474213Y-113613099D01*
X112643826Y-113109016D01*
X112711839Y-112581529D01*
X112675637Y-112050908D01*
X112536612Y-111537546D01*
X112300106Y-111061171D01*
X112209516Y-110925594D01*
X111741559Y-110793797D01*
X111350000Y-111185356D01*
X111350000Y-111114644D01*
X111706203Y-110758441D01*
X111574406Y-110290484D01*
X111350000Y-110161720D01*
X111350000Y-98000000D01*
X111348079Y-97980491D01*
X111342388Y-97961732D01*
X111333147Y-97944443D01*
X111320711Y-97929289D01*
X111305557Y-97916853D01*
X111288268Y-97907612D01*
X111269509Y-97901921D01*
X111250000Y-97900000D01*
X110744802Y-97900000D01*
X110721178Y-97781233D01*
X110664641Y-97644742D01*
X110582563Y-97521903D01*
X110478097Y-97417437D01*
X110355258Y-97335359D01*
X110218767Y-97278822D01*
X110073869Y-97250000D01*
X109926131Y-97250000D01*
X109922478Y-97250727D01*
X109352384Y-96680634D01*
X109337501Y-96662499D01*
X109265173Y-96603141D01*
X109182654Y-96559034D01*
X109093116Y-96531873D01*
X109023332Y-96525000D01*
X109000000Y-96522702D01*
X108976668Y-96525000D01*
X105023332Y-96525000D01*
X105000000Y-96522702D01*
X104906884Y-96531873D01*
X104817345Y-96559034D01*
X104788602Y-96574398D01*
X104734827Y-96603141D01*
X104662499Y-96662499D01*
X104647625Y-96680624D01*
X104577522Y-96750727D01*
X104573869Y-96750000D01*
X104426131Y-96750000D01*
X104281233Y-96778822D01*
X104144742Y-96835359D01*
X104021903Y-96917437D01*
X103917437Y-97021903D01*
X103835359Y-97144742D01*
X103778822Y-97281233D01*
X103750000Y-97426131D01*
X103721178Y-97281233D01*
X103664641Y-97144742D01*
X103582563Y-97021903D01*
X103478097Y-96917437D01*
X103355258Y-96835359D01*
X103218767Y-96778822D01*
X103073869Y-96750000D01*
X102926131Y-96750000D01*
X102781233Y-96778822D01*
X102644742Y-96835359D01*
X102521903Y-96917437D01*
X102500000Y-96939340D01*
X102478097Y-96917437D01*
X102355258Y-96835359D01*
X102218767Y-96778822D01*
X102073869Y-96750000D01*
X101926131Y-96750000D01*
X101781233Y-96778822D01*
X101644742Y-96835359D01*
X101521903Y-96917437D01*
X101417437Y-97021903D01*
X101335359Y-97144742D01*
X101278822Y-97281233D01*
X101250000Y-97426131D01*
X101250000Y-97573869D01*
X101278822Y-97718767D01*
X101335359Y-97855258D01*
X101365255Y-97900000D01*
X94250000Y-97900000D01*
X94230491Y-97901921D01*
X94211732Y-97907612D01*
X94194443Y-97916853D01*
X94179289Y-97929289D01*
X94166853Y-97944443D01*
X94157612Y-97961732D01*
X94151921Y-97980491D01*
X94150000Y-98000000D01*
X94150000Y-111092284D01*
X93985336Y-111256948D01*
X93771933Y-111576329D01*
X93624938Y-111931206D01*
X93550000Y-112307942D01*
X93550000Y-112692058D01*
X93624938Y-113068794D01*
X93771933Y-113423671D01*
X93985336Y-113743052D01*
X94150000Y-113907716D01*
X94150000Y-114900000D01*
X76100000Y-114900000D01*
X76100000Y-98694677D01*
X83900000Y-98694677D01*
X83900000Y-99305323D01*
X84019131Y-99904237D01*
X84252815Y-100468401D01*
X84592072Y-100976135D01*
X85023865Y-101407928D01*
X85531599Y-101747185D01*
X86095763Y-101980869D01*
X86694677Y-102100000D01*
X87305323Y-102100000D01*
X87904237Y-101980869D01*
X88468401Y-101747185D01*
X88976135Y-101407928D01*
X89407928Y-100976135D01*
X89747185Y-100468401D01*
X89980869Y-99904237D01*
X90100000Y-99305323D01*
X90100000Y-98694677D01*
X89980869Y-98095763D01*
X89747185Y-97531599D01*
X89407928Y-97023865D01*
X88976135Y-96592072D01*
X88574390Y-96323635D01*
X88950000Y-96320000D01*
X89225000Y-96045000D01*
X89225000Y-94395000D01*
X89275000Y-94395000D01*
X89275000Y-96045000D01*
X89550000Y-96320000D01*
X90100000Y-96325322D01*
X90315638Y-96304084D01*
X90522988Y-96241184D01*
X90714084Y-96139042D01*
X90881581Y-96001581D01*
X91019042Y-95834084D01*
X91121184Y-95642988D01*
X91184084Y-95435638D01*
X91205322Y-95220000D01*
X91200000Y-94670000D01*
X90925000Y-94395000D01*
X89275000Y-94395000D01*
X89225000Y-94395000D01*
X87575000Y-94395000D01*
X87300000Y-94670000D01*
X87294678Y-95220000D01*
X87315916Y-95435638D01*
X87378816Y-95642988D01*
X87480958Y-95834084D01*
X87579872Y-95954611D01*
X87305323Y-95900000D01*
X86694677Y-95900000D01*
X86095763Y-96019131D01*
X85531599Y-96252815D01*
X85023865Y-96592072D01*
X84592072Y-97023865D01*
X84252815Y-97531599D01*
X84019131Y-98095763D01*
X83900000Y-98694677D01*
X76100000Y-98694677D01*
X76100000Y-82600000D01*
X84100011Y-82600000D01*
X84100011Y-85978238D01*
X83805627Y-86272623D01*
X83805622Y-86272627D01*
X83577523Y-86500727D01*
X83573869Y-86500000D01*
X83426131Y-86500000D01*
X83281233Y-86528822D01*
X83144742Y-86585359D01*
X83021903Y-86667437D01*
X82917437Y-86771903D01*
X82835359Y-86894742D01*
X82778822Y-87031233D01*
X82750000Y-87176131D01*
X82750000Y-87323869D01*
X82778822Y-87468767D01*
X82835359Y-87605258D01*
X82917437Y-87728097D01*
X83021903Y-87832563D01*
X83144742Y-87914641D01*
X83281233Y-87971178D01*
X83426131Y-88000000D01*
X83573869Y-88000000D01*
X83718767Y-87971178D01*
X83855258Y-87914641D01*
X83978097Y-87832563D01*
X84082563Y-87728097D01*
X84164641Y-87605258D01*
X84221178Y-87468767D01*
X84250000Y-87323869D01*
X84250000Y-87176131D01*
X84249273Y-87172477D01*
X84477373Y-86944378D01*
X84477377Y-86944373D01*
X84894381Y-86527370D01*
X84912511Y-86512491D01*
X84971869Y-86440163D01*
X85015976Y-86357644D01*
X85043137Y-86268106D01*
X85048744Y-86211179D01*
X85052308Y-86174991D01*
X85050010Y-86151659D01*
X85050010Y-54000000D01*
X85073869Y-54000000D01*
X85218767Y-53971178D01*
X85355258Y-53914641D01*
X85478097Y-53832563D01*
X85582563Y-53728097D01*
X85664641Y-53605258D01*
X85721178Y-53468767D01*
X85750000Y-53323869D01*
X85750000Y-53176131D01*
X85721178Y-53031233D01*
X85664641Y-52894742D01*
X85582563Y-52771903D01*
X85478097Y-52667437D01*
X85355258Y-52585359D01*
X85218767Y-52528822D01*
X85073869Y-52500000D01*
X84926131Y-52500000D01*
X84781233Y-52528822D01*
X84644742Y-52585359D01*
X84521903Y-52667437D01*
X84417437Y-52771903D01*
X84350000Y-52872830D01*
X84350000Y-51100000D01*
X92836827Y-51100000D01*
X91363393Y-52573435D01*
X91363393Y-52573435D01*
G37*
X91363393Y-52573435D02*
X91341446Y-52591446D01*
X91294287Y-52648911D01*
X91269592Y-52679002D01*
X91231643Y-52750000D01*
X91216199Y-52778893D01*
X91183320Y-52887281D01*
X91176135Y-52960230D01*
X91172218Y-53000000D01*
X91175000Y-53028243D01*
X91175001Y-58511826D01*
X91000000Y-58686827D01*
X91000000Y-58676131D01*
X90971178Y-58531233D01*
X90914641Y-58394742D01*
X90832563Y-58271903D01*
X90728097Y-58167437D01*
X90605258Y-58085359D01*
X90468767Y-58028822D01*
X90323869Y-58000000D01*
X90176131Y-58000000D01*
X90031233Y-58028822D01*
X89894742Y-58085359D01*
X89771903Y-58167437D01*
X89667437Y-58271903D01*
X89625000Y-58335415D01*
X89582563Y-58271903D01*
X89478097Y-58167437D01*
X89355258Y-58085359D01*
X89218767Y-58028822D01*
X89073869Y-58000000D01*
X88926131Y-58000000D01*
X88781233Y-58028822D01*
X88644742Y-58085359D01*
X88521903Y-58167437D01*
X88417437Y-58271903D01*
X88335359Y-58394742D01*
X88278822Y-58531233D01*
X88250000Y-58676131D01*
X88250000Y-58823869D01*
X88250727Y-58827522D01*
X86180627Y-60897623D01*
X86180622Y-60897627D01*
X85430629Y-61647621D01*
X85412500Y-61662499D01*
X85353142Y-61734827D01*
X85345032Y-61750000D01*
X85309035Y-61817346D01*
X85281873Y-61906884D01*
X85272702Y-62000000D01*
X85275001Y-62023342D01*
X85275000Y-87226668D01*
X85272702Y-87250000D01*
X85275000Y-87273331D01*
X85281873Y-87343115D01*
X85309034Y-87432653D01*
X85353141Y-87515173D01*
X85412499Y-87587501D01*
X85430634Y-87602384D01*
X86680622Y-88852373D01*
X86680627Y-88852377D01*
X87437625Y-89609377D01*
X87452499Y-89627501D01*
X87524827Y-89686859D01*
X87583326Y-89718127D01*
X87607346Y-89730966D01*
X87696884Y-89758127D01*
X87790000Y-89767298D01*
X87813332Y-89765000D01*
X88048307Y-89765000D01*
X88048307Y-90140000D01*
X88055065Y-90208612D01*
X88075078Y-90274587D01*
X88107578Y-90335390D01*
X88151315Y-90388685D01*
X88204610Y-90432422D01*
X88265413Y-90464922D01*
X88331388Y-90484935D01*
X88400000Y-90491693D01*
X90100000Y-90491693D01*
X90168612Y-90484935D01*
X90234587Y-90464922D01*
X90275000Y-90443321D01*
X90275000Y-90676679D01*
X90234587Y-90655078D01*
X90168612Y-90635065D01*
X90100000Y-90628307D01*
X88400000Y-90628307D01*
X88331388Y-90635065D01*
X88265413Y-90655078D01*
X88204610Y-90687578D01*
X88151315Y-90731315D01*
X88107578Y-90784610D01*
X88075078Y-90845413D01*
X88055065Y-90911388D01*
X88048307Y-90980000D01*
X88048307Y-92477189D01*
X87977012Y-92498816D01*
X87785916Y-92600958D01*
X87618419Y-92738419D01*
X87480958Y-92905916D01*
X87378816Y-93097012D01*
X87315916Y-93304362D01*
X87294678Y-93520000D01*
X87300000Y-94070000D01*
X87575000Y-94345000D01*
X89225000Y-94345000D01*
X89225000Y-94325000D01*
X89275000Y-94325000D01*
X89275000Y-94345000D01*
X90925000Y-94345000D01*
X91200000Y-94070000D01*
X91205322Y-93520000D01*
X91184084Y-93304362D01*
X91121184Y-93097012D01*
X91019042Y-92905916D01*
X90881581Y-92738419D01*
X90714084Y-92600958D01*
X90522988Y-92498816D01*
X90451693Y-92477189D01*
X90451693Y-92304177D01*
X90513116Y-92298127D01*
X90602654Y-92270966D01*
X90685173Y-92226859D01*
X90757501Y-92167501D01*
X90772384Y-92149367D01*
X91069371Y-91852380D01*
X91087501Y-91837501D01*
X91146859Y-91765173D01*
X91190966Y-91682654D01*
X91218127Y-91593116D01*
X91225000Y-91523332D01*
X91225000Y-91523331D01*
X91227298Y-91500001D01*
X91225000Y-91476669D01*
X91225000Y-88273331D01*
X91227298Y-88249999D01*
X91218127Y-88156883D01*
X91204822Y-88113023D01*
X91190966Y-88067346D01*
X91146859Y-87984827D01*
X91087501Y-87912499D01*
X91069366Y-87897616D01*
X90852384Y-87680634D01*
X90837501Y-87662499D01*
X90765173Y-87603141D01*
X90682654Y-87559034D01*
X90593116Y-87531873D01*
X90523332Y-87525000D01*
X90500000Y-87522702D01*
X90476668Y-87525000D01*
X90172056Y-87525000D01*
X90182101Y-87514955D01*
X90313426Y-87318413D01*
X90403884Y-87100027D01*
X90450000Y-86868190D01*
X90450000Y-86631810D01*
X90403884Y-86399973D01*
X90313426Y-86181587D01*
X90182101Y-85985045D01*
X90014955Y-85817899D01*
X89818413Y-85686574D01*
X89600027Y-85596116D01*
X89368190Y-85550000D01*
X89131810Y-85550000D01*
X88899973Y-85596116D01*
X88681587Y-85686574D01*
X88485045Y-85817899D01*
X88317899Y-85985045D01*
X88186574Y-86181587D01*
X88096116Y-86399973D01*
X88050000Y-86631810D01*
X88050000Y-86868190D01*
X88096116Y-87100027D01*
X88186574Y-87318413D01*
X88317899Y-87514955D01*
X88327944Y-87525000D01*
X87446752Y-87525000D01*
X86725000Y-86803250D01*
X86725000Y-82290573D01*
X86738389Y-82301561D01*
X87067064Y-82630236D01*
X87085076Y-82652184D01*
X87172632Y-82724038D01*
X87174724Y-82725156D01*
X94925000Y-90475432D01*
X94925000Y-90627509D01*
X94576329Y-90771933D01*
X94256948Y-90985336D01*
X93985336Y-91256948D01*
X93771933Y-91576329D01*
X93624938Y-91931206D01*
X93550000Y-92307942D01*
X93550000Y-92692058D01*
X93624938Y-93068794D01*
X93771933Y-93423671D01*
X93985336Y-93743052D01*
X94256948Y-94014664D01*
X94576329Y-94228067D01*
X94931206Y-94375062D01*
X95307942Y-94450000D01*
X95692058Y-94450000D01*
X96068794Y-94375062D01*
X96423671Y-94228067D01*
X96743052Y-94014664D01*
X97014664Y-93743052D01*
X97228067Y-93423671D01*
X97375062Y-93068794D01*
X97450000Y-92692058D01*
X97450000Y-92307942D01*
X97375062Y-91931206D01*
X97228067Y-91576329D01*
X97014664Y-91256948D01*
X96743052Y-90985336D01*
X96423671Y-90771933D01*
X96075000Y-90627509D01*
X96075000Y-90265501D01*
X96077782Y-90237258D01*
X96075000Y-90209013D01*
X96066680Y-90124539D01*
X96033801Y-90016151D01*
X95995629Y-89944737D01*
X95980408Y-89916260D01*
X95926559Y-89850645D01*
X95908554Y-89828705D01*
X95886613Y-89810699D01*
X92502045Y-86426131D01*
X95750000Y-86426131D01*
X95750000Y-86573869D01*
X95778822Y-86718767D01*
X95835359Y-86855258D01*
X95917437Y-86978097D01*
X96021903Y-87082563D01*
X96025000Y-87084632D01*
X96025000Y-87226667D01*
X96022702Y-87250000D01*
X96025000Y-87273331D01*
X96031873Y-87343115D01*
X96059034Y-87432653D01*
X96103141Y-87515173D01*
X96162499Y-87587501D01*
X96180634Y-87602384D01*
X96397616Y-87819366D01*
X96400000Y-87822271D01*
X96400000Y-89500000D01*
X96401921Y-89519509D01*
X96407612Y-89538268D01*
X96416853Y-89555557D01*
X96429289Y-89570711D01*
X96444443Y-89583147D01*
X96461732Y-89592388D01*
X96480491Y-89598079D01*
X96500000Y-89600000D01*
X107445964Y-89600000D01*
X107500000Y-89605322D01*
X108200000Y-89600000D01*
X108800000Y-89600000D01*
X109500000Y-89605322D01*
X109554036Y-89600000D01*
X110500000Y-89600000D01*
X110519509Y-89598079D01*
X110538268Y-89592388D01*
X110555557Y-89583147D01*
X110570711Y-89570711D01*
X110583147Y-89555557D01*
X110592388Y-89538268D01*
X110598079Y-89519509D01*
X110600000Y-89500000D01*
X110600000Y-88554036D01*
X110605322Y-88500000D01*
X110600000Y-87800000D01*
X110600000Y-87200000D01*
X110605322Y-86500000D01*
X110600000Y-86445964D01*
X110600000Y-85500000D01*
X110598079Y-85480491D01*
X110592388Y-85461732D01*
X110583147Y-85444443D01*
X110570711Y-85429289D01*
X110555557Y-85416853D01*
X110538268Y-85407612D01*
X110519509Y-85401921D01*
X110500000Y-85400000D01*
X109554036Y-85400000D01*
X109500000Y-85394678D01*
X108800000Y-85400000D01*
X108200000Y-85400000D01*
X107500000Y-85394678D01*
X107445964Y-85400000D01*
X96500000Y-85400000D01*
X96480491Y-85401921D01*
X96461732Y-85407612D01*
X96444443Y-85416853D01*
X96429289Y-85429289D01*
X96416853Y-85444443D01*
X96407612Y-85461732D01*
X96401921Y-85480491D01*
X96400000Y-85500000D01*
X96400000Y-85755198D01*
X96281233Y-85778822D01*
X96144742Y-85835359D01*
X96021903Y-85917437D01*
X95917437Y-86021903D01*
X95835359Y-86144742D01*
X95778822Y-86281233D01*
X95750000Y-86426131D01*
X92502045Y-86426131D01*
X87932936Y-81857023D01*
X87914924Y-81835076D01*
X87827368Y-81763222D01*
X87825276Y-81762104D01*
X87700000Y-81636828D01*
X87700000Y-79676131D01*
X103500000Y-79676131D01*
X103500000Y-79823869D01*
X103528822Y-79968767D01*
X103585359Y-80105258D01*
X103667437Y-80228097D01*
X103771903Y-80332563D01*
X103894742Y-80414641D01*
X104031233Y-80471178D01*
X104176131Y-80500000D01*
X104323869Y-80500000D01*
X104327522Y-80499273D01*
X104897625Y-81069377D01*
X104912499Y-81087501D01*
X104984827Y-81146859D01*
X105067346Y-81190966D01*
X105156884Y-81218127D01*
X105250000Y-81227298D01*
X105273332Y-81225000D01*
X122915368Y-81225000D01*
X122917437Y-81228097D01*
X123021903Y-81332563D01*
X123144742Y-81414641D01*
X123281233Y-81471178D01*
X123426131Y-81500000D01*
X123573869Y-81500000D01*
X123718767Y-81471178D01*
X123855258Y-81414641D01*
X123978097Y-81332563D01*
X124082563Y-81228097D01*
X124164641Y-81105258D01*
X124221178Y-80968767D01*
X124250000Y-80823869D01*
X124250000Y-80676131D01*
X124221178Y-80531233D01*
X124164641Y-80394742D01*
X124082563Y-80271903D01*
X123978097Y-80167437D01*
X123855258Y-80085359D01*
X123718767Y-80028822D01*
X123573869Y-80000000D01*
X123426131Y-80000000D01*
X123281233Y-80028822D01*
X123144742Y-80085359D01*
X123021903Y-80167437D01*
X122917437Y-80271903D01*
X122915368Y-80275000D01*
X105446752Y-80275000D01*
X104999273Y-79827522D01*
X105000000Y-79823869D01*
X105000000Y-79676131D01*
X104971178Y-79531233D01*
X104914641Y-79394742D01*
X104832563Y-79271903D01*
X104728097Y-79167437D01*
X104605258Y-79085359D01*
X104468767Y-79028822D01*
X104323869Y-79000000D01*
X104176131Y-79000000D01*
X104031233Y-79028822D01*
X103894742Y-79085359D01*
X103771903Y-79167437D01*
X103667437Y-79271903D01*
X103585359Y-79394742D01*
X103528822Y-79531233D01*
X103500000Y-79676131D01*
X87700000Y-79676131D01*
X87700000Y-73676131D01*
X115500000Y-73676131D01*
X115500000Y-73823869D01*
X115528822Y-73968767D01*
X115585359Y-74105258D01*
X115667437Y-74228097D01*
X115771903Y-74332563D01*
X115835415Y-74375000D01*
X115771903Y-74417437D01*
X115667437Y-74521903D01*
X115585359Y-74644742D01*
X115528822Y-74781233D01*
X115500000Y-74926131D01*
X115500000Y-75073869D01*
X115528822Y-75218767D01*
X115585359Y-75355258D01*
X115667437Y-75478097D01*
X115771903Y-75582563D01*
X115835415Y-75625000D01*
X115771903Y-75667437D01*
X115667437Y-75771903D01*
X115585359Y-75894742D01*
X115528822Y-76031233D01*
X115500000Y-76176131D01*
X115500000Y-76323869D01*
X115528822Y-76468767D01*
X115585359Y-76605258D01*
X115667437Y-76728097D01*
X115771903Y-76832563D01*
X115894742Y-76914641D01*
X116031233Y-76971178D01*
X116176131Y-77000000D01*
X116323869Y-77000000D01*
X116468767Y-76971178D01*
X116605258Y-76914641D01*
X116728097Y-76832563D01*
X116832563Y-76728097D01*
X116834632Y-76725000D01*
X123915368Y-76725000D01*
X123917437Y-76728097D01*
X124021903Y-76832563D01*
X124144742Y-76914641D01*
X124281233Y-76971178D01*
X124426131Y-77000000D01*
X124573869Y-77000000D01*
X124718767Y-76971178D01*
X124855258Y-76914641D01*
X124978097Y-76832563D01*
X125082563Y-76728097D01*
X125164641Y-76605258D01*
X125221178Y-76468767D01*
X125250000Y-76323869D01*
X125250000Y-76176131D01*
X125221178Y-76031233D01*
X125164641Y-75894742D01*
X125082563Y-75771903D01*
X124978097Y-75667437D01*
X124914585Y-75625000D01*
X124978097Y-75582563D01*
X125082563Y-75478097D01*
X125164641Y-75355258D01*
X125221178Y-75218767D01*
X125250000Y-75073869D01*
X125250000Y-74926131D01*
X125221178Y-74781233D01*
X125164641Y-74644742D01*
X125082563Y-74521903D01*
X124978097Y-74417437D01*
X124914585Y-74375000D01*
X124978097Y-74332563D01*
X125082563Y-74228097D01*
X125164641Y-74105258D01*
X125221178Y-73968767D01*
X125250000Y-73823869D01*
X125250000Y-73676131D01*
X125221178Y-73531233D01*
X125164641Y-73394742D01*
X125082563Y-73271903D01*
X124978097Y-73167437D01*
X124855258Y-73085359D01*
X124718767Y-73028822D01*
X124573869Y-73000000D01*
X124426131Y-73000000D01*
X124281233Y-73028822D01*
X124144742Y-73085359D01*
X124021903Y-73167437D01*
X123917437Y-73271903D01*
X123915368Y-73275000D01*
X116834632Y-73275000D01*
X116832563Y-73271903D01*
X116728097Y-73167437D01*
X116605258Y-73085359D01*
X116468767Y-73028822D01*
X116323869Y-73000000D01*
X116176131Y-73000000D01*
X116031233Y-73028822D01*
X115894742Y-73085359D01*
X115771903Y-73167437D01*
X115667437Y-73271903D01*
X115585359Y-73394742D01*
X115528822Y-73531233D01*
X115500000Y-73676131D01*
X87700000Y-73676131D01*
X87700000Y-63613172D01*
X92134448Y-59178725D01*
X92167437Y-59228097D01*
X92271903Y-59332563D01*
X92394742Y-59414641D01*
X92531233Y-59471178D01*
X92676131Y-59500000D01*
X92823869Y-59500000D01*
X92827523Y-59499273D01*
X98397621Y-65069372D01*
X98412499Y-65087501D01*
X98484827Y-65146859D01*
X98567346Y-65190966D01*
X98629722Y-65209888D01*
X98656883Y-65218127D01*
X98749999Y-65227298D01*
X98773331Y-65225000D01*
X122915368Y-65225000D01*
X122917437Y-65228097D01*
X123021903Y-65332563D01*
X123144742Y-65414641D01*
X123281233Y-65471178D01*
X123426131Y-65500000D01*
X123573869Y-65500000D01*
X123718767Y-65471178D01*
X123855258Y-65414641D01*
X123978097Y-65332563D01*
X124082563Y-65228097D01*
X124164641Y-65105258D01*
X124221178Y-64968767D01*
X124250000Y-64823869D01*
X124250000Y-64676131D01*
X124221178Y-64531233D01*
X124164641Y-64394742D01*
X124082563Y-64271903D01*
X123978097Y-64167437D01*
X123855258Y-64085359D01*
X123718767Y-64028822D01*
X123573869Y-64000000D01*
X123426131Y-64000000D01*
X123281233Y-64028822D01*
X123144742Y-64085359D01*
X123021903Y-64167437D01*
X122917437Y-64271903D01*
X122915368Y-64275000D01*
X118035660Y-64275000D01*
X118082563Y-64228097D01*
X118164641Y-64105258D01*
X118221178Y-63968767D01*
X118250000Y-63823869D01*
X118250000Y-63676131D01*
X118221178Y-63531233D01*
X118178712Y-63428712D01*
X118281233Y-63471178D01*
X118426131Y-63500000D01*
X118573869Y-63500000D01*
X118718767Y-63471178D01*
X118855258Y-63414641D01*
X118978097Y-63332563D01*
X119082563Y-63228097D01*
X119164641Y-63105258D01*
X119221178Y-62968767D01*
X119250000Y-62823869D01*
X119250000Y-62676131D01*
X119221178Y-62531233D01*
X119178712Y-62428712D01*
X119281233Y-62471178D01*
X119426131Y-62500000D01*
X119573869Y-62500000D01*
X119718767Y-62471178D01*
X119855258Y-62414641D01*
X119978097Y-62332563D01*
X120082563Y-62228097D01*
X120164641Y-62105258D01*
X120221178Y-61968767D01*
X120250000Y-61823869D01*
X120250000Y-61676131D01*
X120221178Y-61531233D01*
X120178712Y-61428712D01*
X120281233Y-61471178D01*
X120426131Y-61500000D01*
X120573869Y-61500000D01*
X120718767Y-61471178D01*
X120855258Y-61414641D01*
X120978097Y-61332563D01*
X121082563Y-61228097D01*
X121164641Y-61105258D01*
X121221178Y-60968767D01*
X121250000Y-60823869D01*
X121250000Y-60676131D01*
X121221178Y-60531233D01*
X121178712Y-60428712D01*
X121281233Y-60471178D01*
X121426131Y-60500000D01*
X121573869Y-60500000D01*
X121718767Y-60471178D01*
X121855258Y-60414641D01*
X121978097Y-60332563D01*
X122082563Y-60228097D01*
X122164641Y-60105258D01*
X122221178Y-59968767D01*
X122250000Y-59823869D01*
X122250000Y-59676131D01*
X122221178Y-59531233D01*
X122178712Y-59428712D01*
X122281233Y-59471178D01*
X122426131Y-59500000D01*
X122573869Y-59500000D01*
X122718767Y-59471178D01*
X122855258Y-59414641D01*
X122978097Y-59332563D01*
X123082563Y-59228097D01*
X123164641Y-59105258D01*
X123221178Y-58968767D01*
X123250000Y-58823869D01*
X123250000Y-58676131D01*
X123221178Y-58531233D01*
X123164641Y-58394742D01*
X123082563Y-58271903D01*
X122978097Y-58167437D01*
X122855258Y-58085359D01*
X122718767Y-58028822D01*
X122573869Y-58000000D01*
X122426131Y-58000000D01*
X122281233Y-58028822D01*
X122144742Y-58085359D01*
X122021903Y-58167437D01*
X121917437Y-58271903D01*
X121915368Y-58275000D01*
X104834632Y-58275000D01*
X104832563Y-58271903D01*
X104728097Y-58167437D01*
X104605258Y-58085359D01*
X104468767Y-58028822D01*
X104323869Y-58000000D01*
X104176131Y-58000000D01*
X104031233Y-58028822D01*
X103894742Y-58085359D01*
X103771903Y-58167437D01*
X103667437Y-58271903D01*
X103625000Y-58335415D01*
X103582563Y-58271903D01*
X103478097Y-58167437D01*
X103355258Y-58085359D01*
X103218767Y-58028822D01*
X103073869Y-58000000D01*
X102926131Y-58000000D01*
X102781233Y-58028822D01*
X102644742Y-58085359D01*
X102521903Y-58167437D01*
X102417437Y-58271903D01*
X102335359Y-58394742D01*
X102278822Y-58531233D01*
X102250000Y-58676131D01*
X102250000Y-58823869D01*
X102278822Y-58968767D01*
X102335359Y-59105258D01*
X102417437Y-59228097D01*
X102521903Y-59332563D01*
X102644742Y-59414641D01*
X102781233Y-59471178D01*
X102926131Y-59500000D01*
X103073869Y-59500000D01*
X103077522Y-59499273D01*
X103647625Y-60069377D01*
X103662499Y-60087501D01*
X103680622Y-60102374D01*
X103734827Y-60146859D01*
X103817346Y-60190966D01*
X103906884Y-60218127D01*
X104000000Y-60227298D01*
X104023332Y-60225000D01*
X119964340Y-60225000D01*
X119917437Y-60271903D01*
X119915368Y-60275000D01*
X102696751Y-60275000D01*
X101249273Y-58827523D01*
X101250000Y-58823869D01*
X101250000Y-58676131D01*
X101221178Y-58531233D01*
X101164641Y-58394742D01*
X101082563Y-58271903D01*
X100978097Y-58167437D01*
X100855258Y-58085359D01*
X100718767Y-58028822D01*
X100573869Y-58000000D01*
X100426131Y-58000000D01*
X100281233Y-58028822D01*
X100144742Y-58085359D01*
X100021903Y-58167437D01*
X99917437Y-58271903D01*
X99835359Y-58394742D01*
X99778822Y-58531233D01*
X99750000Y-58676131D01*
X99750000Y-58823869D01*
X99778822Y-58968767D01*
X99835359Y-59105258D01*
X99917437Y-59228097D01*
X100021903Y-59332563D01*
X100144742Y-59414641D01*
X100281233Y-59471178D01*
X100426131Y-59500000D01*
X100573869Y-59500000D01*
X100577523Y-59499273D01*
X102147621Y-61069372D01*
X102162499Y-61087501D01*
X102234827Y-61146859D01*
X102317346Y-61190966D01*
X102379722Y-61209888D01*
X102406883Y-61218127D01*
X102499999Y-61227298D01*
X102523331Y-61225000D01*
X118964340Y-61225000D01*
X118917437Y-61271903D01*
X118915368Y-61275000D01*
X99946752Y-61275000D01*
X97499273Y-58827523D01*
X97500000Y-58823869D01*
X97500000Y-58676131D01*
X97471178Y-58531233D01*
X97414641Y-58394742D01*
X97332563Y-58271903D01*
X97228097Y-58167437D01*
X97105258Y-58085359D01*
X96968767Y-58028822D01*
X96823869Y-58000000D01*
X96676131Y-58000000D01*
X96531233Y-58028822D01*
X96394742Y-58085359D01*
X96271903Y-58167437D01*
X96167437Y-58271903D01*
X96125000Y-58335415D01*
X96082563Y-58271903D01*
X95978097Y-58167437D01*
X95855258Y-58085359D01*
X95718767Y-58028822D01*
X95573869Y-58000000D01*
X95426131Y-58000000D01*
X95281233Y-58028822D01*
X95144742Y-58085359D01*
X95021903Y-58167437D01*
X94917437Y-58271903D01*
X94875000Y-58335415D01*
X94832563Y-58271903D01*
X94728097Y-58167437D01*
X94605258Y-58085359D01*
X94468767Y-58028822D01*
X94323869Y-58000000D01*
X94176131Y-58000000D01*
X94031233Y-58028822D01*
X93894742Y-58085359D01*
X93771903Y-58167437D01*
X93667437Y-58271903D01*
X93585359Y-58394742D01*
X93528822Y-58531233D01*
X93500000Y-58676131D01*
X93471178Y-58531233D01*
X93414641Y-58394742D01*
X93332563Y-58271903D01*
X93228097Y-58167437D01*
X93105258Y-58085359D01*
X92968767Y-58028822D01*
X92823869Y-58000000D01*
X92676131Y-58000000D01*
X92531233Y-58028822D01*
X92394742Y-58085359D01*
X92325000Y-58131959D01*
X92325000Y-57580249D01*
X92335359Y-57605258D01*
X92417437Y-57728097D01*
X92521903Y-57832563D01*
X92644742Y-57914641D01*
X92781233Y-57971178D01*
X92926131Y-58000000D01*
X93073869Y-58000000D01*
X93218767Y-57971178D01*
X93355258Y-57914641D01*
X93478097Y-57832563D01*
X93582563Y-57728097D01*
X93584632Y-57725000D01*
X106915368Y-57725000D01*
X106917437Y-57728097D01*
X107021903Y-57832563D01*
X107144742Y-57914641D01*
X107281233Y-57971178D01*
X107426131Y-58000000D01*
X107573869Y-58000000D01*
X107718767Y-57971178D01*
X107855258Y-57914641D01*
X107978097Y-57832563D01*
X108082563Y-57728097D01*
X108164641Y-57605258D01*
X108221178Y-57468767D01*
X108250000Y-57323869D01*
X108250000Y-57176131D01*
X108221178Y-57031233D01*
X108164641Y-56894742D01*
X108082563Y-56771903D01*
X108060660Y-56750000D01*
X108082563Y-56728097D01*
X108164641Y-56605258D01*
X108221178Y-56468767D01*
X108250000Y-56323869D01*
X108250000Y-56176131D01*
X108221178Y-56031233D01*
X108164641Y-55894742D01*
X108082563Y-55771903D01*
X107978097Y-55667437D01*
X107880802Y-55602427D01*
X108200000Y-55600000D01*
X108800000Y-55600000D01*
X109500000Y-55605322D01*
X109554036Y-55600000D01*
X110500000Y-55600000D01*
X110519509Y-55598079D01*
X110538268Y-55592388D01*
X110555557Y-55583147D01*
X110570711Y-55570711D01*
X110583147Y-55555557D01*
X110592388Y-55538268D01*
X110598079Y-55519509D01*
X110600000Y-55500000D01*
X110600000Y-54926131D01*
X128250000Y-54926131D01*
X128250000Y-55073869D01*
X128278822Y-55218767D01*
X128335359Y-55355258D01*
X128417437Y-55478097D01*
X128521903Y-55582563D01*
X128644742Y-55664641D01*
X128781233Y-55721178D01*
X128926131Y-55750000D01*
X129073869Y-55750000D01*
X129077523Y-55749273D01*
X136750727Y-63422478D01*
X136750000Y-63426131D01*
X136750000Y-63573869D01*
X136778822Y-63718767D01*
X136835359Y-63855258D01*
X136917437Y-63978097D01*
X137021903Y-64082563D01*
X137144742Y-64164641D01*
X137281233Y-64221178D01*
X137426131Y-64250000D01*
X137573869Y-64250000D01*
X137577523Y-64249273D01*
X139147621Y-65819372D01*
X139162499Y-65837501D01*
X139234827Y-65896859D01*
X139317346Y-65940966D01*
X139379722Y-65959888D01*
X139406883Y-65968127D01*
X139499999Y-65977298D01*
X139523331Y-65975000D01*
X149165368Y-65975000D01*
X149167437Y-65978097D01*
X149271903Y-66082563D01*
X149394742Y-66164641D01*
X149531233Y-66221178D01*
X149676131Y-66250000D01*
X149823869Y-66250000D01*
X149968767Y-66221178D01*
X150105258Y-66164641D01*
X150228097Y-66082563D01*
X150332563Y-65978097D01*
X150414641Y-65855258D01*
X150471178Y-65718767D01*
X150500000Y-65573869D01*
X150500000Y-65426131D01*
X150471178Y-65281233D01*
X150414641Y-65144742D01*
X150332563Y-65021903D01*
X150228097Y-64917437D01*
X150105258Y-64835359D01*
X149968767Y-64778822D01*
X149823869Y-64750000D01*
X149676131Y-64750000D01*
X149531233Y-64778822D01*
X149394742Y-64835359D01*
X149271903Y-64917437D01*
X149167437Y-65021903D01*
X149165368Y-65025000D01*
X139696751Y-65025000D01*
X138249273Y-63577523D01*
X138250000Y-63573869D01*
X138250000Y-63426131D01*
X138221178Y-63281233D01*
X138164641Y-63144742D01*
X138082563Y-63021903D01*
X137978097Y-62917437D01*
X137855258Y-62835359D01*
X137718767Y-62778822D01*
X137573869Y-62750000D01*
X137426131Y-62750000D01*
X137422478Y-62750727D01*
X129749273Y-55077523D01*
X129750000Y-55073869D01*
X129750000Y-54926131D01*
X129721178Y-54781233D01*
X129664641Y-54644742D01*
X129656001Y-54631810D01*
X130300000Y-54631810D01*
X130300000Y-54868190D01*
X130346116Y-55100027D01*
X130436574Y-55318413D01*
X130567899Y-55514955D01*
X130735045Y-55682101D01*
X130931587Y-55813426D01*
X131149973Y-55903884D01*
X131381810Y-55950000D01*
X131618190Y-55950000D01*
X131850027Y-55903884D01*
X132068413Y-55813426D01*
X132103396Y-55790051D01*
X132105916Y-55815638D01*
X132168816Y-56022988D01*
X132270958Y-56214084D01*
X132408419Y-56381581D01*
X132575916Y-56519042D01*
X132767012Y-56621184D01*
X132974362Y-56684084D01*
X133190000Y-56705322D01*
X133740000Y-56700000D01*
X134015000Y-56425000D01*
X134015000Y-54775000D01*
X134065000Y-54775000D01*
X134065000Y-56425000D01*
X134340000Y-56700000D01*
X134890000Y-56705322D01*
X135105638Y-56684084D01*
X135312988Y-56621184D01*
X135504084Y-56519042D01*
X135671581Y-56381581D01*
X135809042Y-56214084D01*
X135911184Y-56022988D01*
X135974084Y-55815638D01*
X135995322Y-55600000D01*
X135990000Y-55050000D01*
X135715000Y-54775000D01*
X134065000Y-54775000D01*
X134015000Y-54775000D01*
X133995000Y-54775000D01*
X133995000Y-54725000D01*
X134015000Y-54725000D01*
X134015000Y-53075000D01*
X134065000Y-53075000D01*
X134065000Y-54725000D01*
X135715000Y-54725000D01*
X135990000Y-54450000D01*
X135995322Y-53900000D01*
X135974084Y-53684362D01*
X135911184Y-53477012D01*
X135809042Y-53285916D01*
X135671581Y-53118419D01*
X135504084Y-52980958D01*
X135312988Y-52878816D01*
X135105638Y-52815916D01*
X134890000Y-52794678D01*
X134340000Y-52800000D01*
X134065000Y-53075000D01*
X134015000Y-53075000D01*
X133740000Y-52800000D01*
X133190000Y-52794678D01*
X132974362Y-52815916D01*
X132767012Y-52878816D01*
X132575916Y-52980958D01*
X132408419Y-53118419D01*
X132270958Y-53285916D01*
X132168816Y-53477012D01*
X132105916Y-53684362D01*
X132103396Y-53709949D01*
X132068413Y-53686574D01*
X131850027Y-53596116D01*
X131618190Y-53550000D01*
X131381810Y-53550000D01*
X131149973Y-53596116D01*
X130931587Y-53686574D01*
X130735045Y-53817899D01*
X130567899Y-53985045D01*
X130436574Y-54181587D01*
X130346116Y-54399973D01*
X130300000Y-54631810D01*
X129656001Y-54631810D01*
X129582563Y-54521903D01*
X129478097Y-54417437D01*
X129355258Y-54335359D01*
X129218767Y-54278822D01*
X129073869Y-54250000D01*
X128926131Y-54250000D01*
X128781233Y-54278822D01*
X128644742Y-54335359D01*
X128521903Y-54417437D01*
X128417437Y-54521903D01*
X128335359Y-54644742D01*
X128278822Y-54781233D01*
X128250000Y-54926131D01*
X110600000Y-54926131D01*
X110600000Y-54554036D01*
X110605322Y-54500000D01*
X110600000Y-53800000D01*
X110600000Y-53200000D01*
X110605322Y-52500000D01*
X110600000Y-52445964D01*
X110600000Y-51825000D01*
X135261828Y-51825000D01*
X137844570Y-54407743D01*
X137800000Y-54631810D01*
X137800000Y-54868190D01*
X137846116Y-55100027D01*
X137936574Y-55318413D01*
X138067899Y-55514955D01*
X138235045Y-55682101D01*
X138431587Y-55813426D01*
X138649973Y-55903884D01*
X138881810Y-55950000D01*
X139118190Y-55950000D01*
X139350027Y-55903884D01*
X139568413Y-55813426D01*
X139764955Y-55682101D01*
X139932101Y-55514955D01*
X140063426Y-55318413D01*
X140153884Y-55100027D01*
X140200000Y-54868190D01*
X140200000Y-54631810D01*
X140153884Y-54399973D01*
X140063426Y-54181587D01*
X139932101Y-53985045D01*
X139847056Y-53900000D01*
X140338307Y-53900000D01*
X140338307Y-55600000D01*
X140345065Y-55668612D01*
X140365078Y-55734587D01*
X140397578Y-55795390D01*
X140441315Y-55848685D01*
X140494610Y-55892422D01*
X140555413Y-55924922D01*
X140621388Y-55944935D01*
X140690000Y-55951693D01*
X142390000Y-55951693D01*
X142458612Y-55944935D01*
X142524587Y-55924922D01*
X142571671Y-55899755D01*
X142791378Y-55923266D01*
X143964645Y-54750000D01*
X142791378Y-53576734D01*
X142571671Y-53600245D01*
X142524587Y-53575078D01*
X142458612Y-53555065D01*
X142390000Y-53548307D01*
X140690000Y-53548307D01*
X140621388Y-53555065D01*
X140555413Y-53575078D01*
X140494610Y-53607578D01*
X140441315Y-53651315D01*
X140397578Y-53704610D01*
X140365078Y-53765413D01*
X140345065Y-53831388D01*
X140338307Y-53900000D01*
X139847056Y-53900000D01*
X139764955Y-53817899D01*
X139568413Y-53686574D01*
X139350027Y-53596116D01*
X139118190Y-53550000D01*
X138881810Y-53550000D01*
X138657743Y-53594570D01*
X138604551Y-53541378D01*
X142826734Y-53541378D01*
X144000000Y-54714645D01*
X144014143Y-54700503D01*
X144049498Y-54735858D01*
X144035355Y-54750000D01*
X144049498Y-54764142D01*
X144014143Y-54799498D01*
X144000000Y-54785355D01*
X142826734Y-55958622D01*
X142868592Y-56349782D01*
X143202434Y-56539770D01*
X143566925Y-56660977D01*
X143948060Y-56708747D01*
X144331190Y-56681243D01*
X144701593Y-56579522D01*
X144979806Y-56440167D01*
X145075916Y-56519042D01*
X145267012Y-56621184D01*
X145474362Y-56684084D01*
X145690000Y-56705322D01*
X146240000Y-56700000D01*
X146515000Y-56425000D01*
X146515000Y-54775000D01*
X146565000Y-54775000D01*
X146565000Y-56425000D01*
X146840000Y-56700000D01*
X147390000Y-56705322D01*
X147605638Y-56684084D01*
X147812988Y-56621184D01*
X148004084Y-56519042D01*
X148171581Y-56381581D01*
X148309042Y-56214084D01*
X148411184Y-56022988D01*
X148474084Y-55815638D01*
X148495322Y-55600000D01*
X148490000Y-55050000D01*
X148215000Y-54775000D01*
X146565000Y-54775000D01*
X146515000Y-54775000D01*
X146495000Y-54775000D01*
X146495000Y-54725000D01*
X146515000Y-54725000D01*
X146515000Y-53075000D01*
X146565000Y-53075000D01*
X146565000Y-54725000D01*
X148215000Y-54725000D01*
X148308190Y-54631810D01*
X150300000Y-54631810D01*
X150300000Y-54868190D01*
X150346116Y-55100027D01*
X150436574Y-55318413D01*
X150567899Y-55514955D01*
X150735045Y-55682101D01*
X150931587Y-55813426D01*
X151149973Y-55903884D01*
X151381810Y-55950000D01*
X151618190Y-55950000D01*
X151850027Y-55903884D01*
X152068413Y-55813426D01*
X152103396Y-55790051D01*
X152105916Y-55815638D01*
X152168816Y-56022988D01*
X152270958Y-56214084D01*
X152408419Y-56381581D01*
X152575916Y-56519042D01*
X152767012Y-56621184D01*
X152974362Y-56684084D01*
X153190000Y-56705322D01*
X153740000Y-56700000D01*
X154015000Y-56425000D01*
X154015000Y-54775000D01*
X154065000Y-54775000D01*
X154065000Y-56425000D01*
X154340000Y-56700000D01*
X154890000Y-56705322D01*
X155105638Y-56684084D01*
X155312988Y-56621184D01*
X155504084Y-56519042D01*
X155671581Y-56381581D01*
X155809042Y-56214084D01*
X155911184Y-56022988D01*
X155974084Y-55815638D01*
X155995322Y-55600000D01*
X155990000Y-55050000D01*
X155715000Y-54775000D01*
X154065000Y-54775000D01*
X154015000Y-54775000D01*
X153995000Y-54775000D01*
X153995000Y-54725000D01*
X154015000Y-54725000D01*
X154015000Y-53075000D01*
X154065000Y-53075000D01*
X154065000Y-54725000D01*
X155715000Y-54725000D01*
X155990000Y-54450000D01*
X155995322Y-53900000D01*
X155974084Y-53684362D01*
X155911184Y-53477012D01*
X155809042Y-53285916D01*
X155671581Y-53118419D01*
X155504084Y-52980958D01*
X155312988Y-52878816D01*
X155105638Y-52815916D01*
X154890000Y-52794678D01*
X154340000Y-52800000D01*
X154065000Y-53075000D01*
X154015000Y-53075000D01*
X153740000Y-52800000D01*
X153190000Y-52794678D01*
X152974362Y-52815916D01*
X152767012Y-52878816D01*
X152575916Y-52980958D01*
X152408419Y-53118419D01*
X152270958Y-53285916D01*
X152168816Y-53477012D01*
X152105916Y-53684362D01*
X152103396Y-53709949D01*
X152068413Y-53686574D01*
X151850027Y-53596116D01*
X151618190Y-53550000D01*
X151381810Y-53550000D01*
X151149973Y-53596116D01*
X150931587Y-53686574D01*
X150735045Y-53817899D01*
X150567899Y-53985045D01*
X150436574Y-54181587D01*
X150346116Y-54399973D01*
X150300000Y-54631810D01*
X148308190Y-54631810D01*
X148490000Y-54450000D01*
X148495322Y-53900000D01*
X148474084Y-53684362D01*
X148411184Y-53477012D01*
X148309042Y-53285916D01*
X148171581Y-53118419D01*
X148004084Y-52980958D01*
X147812988Y-52878816D01*
X147605638Y-52815916D01*
X147390000Y-52794678D01*
X146840000Y-52800000D01*
X146565000Y-53075000D01*
X146515000Y-53075000D01*
X146240000Y-52800000D01*
X145690000Y-52794678D01*
X145474362Y-52815916D01*
X145267012Y-52878816D01*
X145075916Y-52980958D01*
X144976850Y-53062260D01*
X144797566Y-52960230D01*
X144433075Y-52839023D01*
X144051940Y-52791253D01*
X143668810Y-52818757D01*
X143298407Y-52920478D01*
X142954965Y-53092506D01*
X142868592Y-53150218D01*
X142826734Y-53541378D01*
X138604551Y-53541378D01*
X136163172Y-51100000D01*
X173900000Y-51100000D01*
X173900000Y-102400000D01*
X171625000Y-102400000D01*
X171625000Y-91892043D01*
X171676431Y-91886977D01*
X171846081Y-91835514D01*
X172002432Y-91751943D01*
X172139475Y-91639475D01*
X172251943Y-91502432D01*
X172335514Y-91346081D01*
X172386977Y-91176431D01*
X172404354Y-91000000D01*
X172404354Y-89000000D01*
X172386977Y-88823569D01*
X172335514Y-88653919D01*
X172251943Y-88497568D01*
X172139475Y-88360525D01*
X172002432Y-88248057D01*
X171846081Y-88164486D01*
X171676431Y-88113023D01*
X171500000Y-88095646D01*
X169500000Y-88095646D01*
X169323569Y-88113023D01*
X169153919Y-88164486D01*
X168997568Y-88248057D01*
X168860525Y-88360525D01*
X168748057Y-88497568D01*
X168664486Y-88653919D01*
X168613023Y-88823569D01*
X168595646Y-89000000D01*
X168595646Y-91000000D01*
X168613023Y-91176431D01*
X168664486Y-91346081D01*
X168748057Y-91502432D01*
X168860525Y-91639475D01*
X168997568Y-91751943D01*
X169153919Y-91835514D01*
X169323569Y-91886977D01*
X169375000Y-91892043D01*
X169375001Y-102400000D01*
X144413173Y-102400000D01*
X147041755Y-99771418D01*
X147106220Y-99798120D01*
X147367037Y-99850000D01*
X147632963Y-99850000D01*
X147893780Y-99798120D01*
X148139465Y-99696354D01*
X148360575Y-99548613D01*
X148548613Y-99360575D01*
X148696354Y-99139465D01*
X148798120Y-98893780D01*
X148837724Y-98694677D01*
X159900000Y-98694677D01*
X159900000Y-99305323D01*
X160019131Y-99904237D01*
X160252815Y-100468401D01*
X160592072Y-100976135D01*
X161023865Y-101407928D01*
X161531599Y-101747185D01*
X162095763Y-101980869D01*
X162694677Y-102100000D01*
X163305323Y-102100000D01*
X163904237Y-101980869D01*
X164468401Y-101747185D01*
X164976135Y-101407928D01*
X165407928Y-100976135D01*
X165747185Y-100468401D01*
X165980869Y-99904237D01*
X166100000Y-99305323D01*
X166100000Y-98694677D01*
X165980869Y-98095763D01*
X165747185Y-97531599D01*
X165407928Y-97023865D01*
X164976135Y-96592072D01*
X164468401Y-96252815D01*
X163904237Y-96019131D01*
X163305323Y-95900000D01*
X162694677Y-95900000D01*
X162095763Y-96019131D01*
X161531599Y-96252815D01*
X161023865Y-96592072D01*
X160592072Y-97023865D01*
X160252815Y-97531599D01*
X160019131Y-98095763D01*
X159900000Y-98694677D01*
X148837724Y-98694677D01*
X148850000Y-98632963D01*
X148850000Y-98367037D01*
X148798120Y-98106220D01*
X148696354Y-97860535D01*
X148548613Y-97639425D01*
X148360575Y-97451387D01*
X148139465Y-97303646D01*
X147893780Y-97201880D01*
X147632963Y-97150000D01*
X147367037Y-97150000D01*
X147106220Y-97201880D01*
X146860535Y-97303646D01*
X146639425Y-97451387D01*
X146451387Y-97639425D01*
X146303646Y-97860535D01*
X146201880Y-98106220D01*
X146150000Y-98367037D01*
X146150000Y-98632963D01*
X146201880Y-98893780D01*
X146228582Y-98958245D01*
X142786827Y-102400000D01*
X139575000Y-102400000D01*
X139575000Y-88488172D01*
X141563172Y-86500000D01*
X146148307Y-86500000D01*
X146148307Y-88500000D01*
X146155065Y-88568612D01*
X146175078Y-88634587D01*
X146207578Y-88695390D01*
X146251315Y-88748685D01*
X146304610Y-88792422D01*
X146365413Y-88824922D01*
X146431388Y-88844935D01*
X146500000Y-88851693D01*
X148500000Y-88851693D01*
X148568612Y-88844935D01*
X148634587Y-88824922D01*
X148695390Y-88792422D01*
X148748685Y-88748685D01*
X148792422Y-88695390D01*
X148824922Y-88634587D01*
X148844935Y-88568612D01*
X148851693Y-88500000D01*
X148851693Y-86500000D01*
X148844935Y-86431388D01*
X148824922Y-86365413D01*
X148792422Y-86304610D01*
X148748685Y-86251315D01*
X148695390Y-86207578D01*
X148634587Y-86175078D01*
X148568612Y-86155065D01*
X148500000Y-86148307D01*
X146500000Y-86148307D01*
X146431388Y-86155065D01*
X146365413Y-86175078D01*
X146304610Y-86207578D01*
X146251315Y-86251315D01*
X146207578Y-86304610D01*
X146175078Y-86365413D01*
X146155065Y-86431388D01*
X146148307Y-86500000D01*
X141563172Y-86500000D01*
X143113173Y-84950000D01*
X155596757Y-84950000D01*
X155625000Y-84952782D01*
X155653243Y-84950000D01*
X155653246Y-84950000D01*
X155737720Y-84941680D01*
X155846108Y-84908801D01*
X155945998Y-84855408D01*
X156033554Y-84783554D01*
X156051565Y-84761607D01*
X159386612Y-81426561D01*
X159408554Y-81408554D01*
X159442782Y-81366847D01*
X159480408Y-81320999D01*
X159533801Y-81221108D01*
X159542944Y-81190966D01*
X159566680Y-81112720D01*
X159575000Y-81028246D01*
X159575000Y-81028243D01*
X159577782Y-81000000D01*
X159575000Y-80971757D01*
X159575000Y-79000000D01*
X168595646Y-79000000D01*
X168595646Y-81000000D01*
X168613023Y-81176431D01*
X168664486Y-81346081D01*
X168748057Y-81502432D01*
X168860525Y-81639475D01*
X168997568Y-81751943D01*
X169153919Y-81835514D01*
X169323569Y-81886977D01*
X169375000Y-81892043D01*
X169375001Y-83466591D01*
X169288821Y-83524174D01*
X169024174Y-83788821D01*
X168816242Y-84100013D01*
X168673016Y-84445791D01*
X168600000Y-84812866D01*
X168600000Y-85187134D01*
X168673016Y-85554209D01*
X168816242Y-85899987D01*
X169024174Y-86211179D01*
X169288821Y-86475826D01*
X169600013Y-86683758D01*
X169945791Y-86826984D01*
X170312866Y-86900000D01*
X170687134Y-86900000D01*
X171054209Y-86826984D01*
X171399987Y-86683758D01*
X171711179Y-86475826D01*
X171975826Y-86211179D01*
X172183758Y-85899987D01*
X172326984Y-85554209D01*
X172400000Y-85187134D01*
X172400000Y-84812866D01*
X172326984Y-84445791D01*
X172183758Y-84100013D01*
X171975826Y-83788821D01*
X171711179Y-83524174D01*
X171625000Y-83466591D01*
X171625000Y-81892043D01*
X171676431Y-81886977D01*
X171846081Y-81835514D01*
X172002432Y-81751943D01*
X172139475Y-81639475D01*
X172251943Y-81502432D01*
X172335514Y-81346081D01*
X172386977Y-81176431D01*
X172404354Y-81000000D01*
X172404354Y-79000000D01*
X172386977Y-78823569D01*
X172335514Y-78653919D01*
X172251943Y-78497568D01*
X172139475Y-78360525D01*
X172002432Y-78248057D01*
X171846081Y-78164486D01*
X171676431Y-78113023D01*
X171500000Y-78095646D01*
X169500000Y-78095646D01*
X169323569Y-78113023D01*
X169153919Y-78164486D01*
X168997568Y-78248057D01*
X168860525Y-78360525D01*
X168748057Y-78497568D01*
X168664486Y-78653919D01*
X168613023Y-78823569D01*
X168595646Y-79000000D01*
X159575000Y-79000000D01*
X159575000Y-74812866D01*
X168600000Y-74812866D01*
X168600000Y-75187134D01*
X168673016Y-75554209D01*
X168816242Y-75899987D01*
X169024174Y-76211179D01*
X169288821Y-76475826D01*
X169600013Y-76683758D01*
X169945791Y-76826984D01*
X170312866Y-76900000D01*
X170687134Y-76900000D01*
X171054209Y-76826984D01*
X171399987Y-76683758D01*
X171711179Y-76475826D01*
X171975826Y-76211179D01*
X172183758Y-75899987D01*
X172326984Y-75554209D01*
X172400000Y-75187134D01*
X172400000Y-74812866D01*
X172326984Y-74445791D01*
X172183758Y-74100013D01*
X171975826Y-73788821D01*
X171711179Y-73524174D01*
X171399987Y-73316242D01*
X171054209Y-73173016D01*
X170687134Y-73100000D01*
X170312866Y-73100000D01*
X169945791Y-73173016D01*
X169600013Y-73316242D01*
X169288821Y-73524174D01*
X169024174Y-73788821D01*
X168816242Y-74100013D01*
X168673016Y-74445791D01*
X168600000Y-74812866D01*
X159575000Y-74812866D01*
X159575000Y-68900000D01*
X163745646Y-68900000D01*
X163745646Y-70600000D01*
X163763023Y-70776431D01*
X163814486Y-70946081D01*
X163898057Y-71102432D01*
X164010525Y-71239475D01*
X164147568Y-71351943D01*
X164303919Y-71435514D01*
X164473569Y-71486977D01*
X164650000Y-71504354D01*
X166350000Y-71504354D01*
X166526431Y-71486977D01*
X166696081Y-71435514D01*
X166852432Y-71351943D01*
X166989475Y-71239475D01*
X167101943Y-71102432D01*
X167182514Y-70951693D01*
X168817486Y-70951693D01*
X168898057Y-71102432D01*
X169010525Y-71239475D01*
X169147568Y-71351943D01*
X169303919Y-71435514D01*
X169473569Y-71486977D01*
X169650000Y-71504354D01*
X171350000Y-71504354D01*
X171526431Y-71486977D01*
X171696081Y-71435514D01*
X171852432Y-71351943D01*
X171989475Y-71239475D01*
X172101943Y-71102432D01*
X172185514Y-70946081D01*
X172236977Y-70776431D01*
X172254354Y-70600000D01*
X172254354Y-68900000D01*
X172236977Y-68723569D01*
X172185514Y-68553919D01*
X172101943Y-68397568D01*
X171989475Y-68260525D01*
X171852432Y-68148057D01*
X171696081Y-68064486D01*
X171526431Y-68013023D01*
X171350000Y-67995646D01*
X169650000Y-67995646D01*
X169473569Y-68013023D01*
X169303919Y-68064486D01*
X169147568Y-68148057D01*
X169010525Y-68260525D01*
X168898057Y-68397568D01*
X168817486Y-68548307D01*
X167182514Y-68548307D01*
X167101943Y-68397568D01*
X166989475Y-68260525D01*
X166852432Y-68148057D01*
X166696081Y-68064486D01*
X166526431Y-68013023D01*
X166350000Y-67995646D01*
X164650000Y-67995646D01*
X164473569Y-68013023D01*
X164303919Y-68064486D01*
X164147568Y-68148057D01*
X164010525Y-68260525D01*
X163898057Y-68397568D01*
X163814486Y-68553919D01*
X163763023Y-68723569D01*
X163745646Y-68900000D01*
X159575000Y-68900000D01*
X159575000Y-62131810D01*
X164300000Y-62131810D01*
X164300000Y-62368190D01*
X164346116Y-62600027D01*
X164436574Y-62818413D01*
X164567899Y-63014955D01*
X164735045Y-63182101D01*
X164931587Y-63313426D01*
X165149973Y-63403884D01*
X165381810Y-63450000D01*
X165618190Y-63450000D01*
X165850027Y-63403884D01*
X166068413Y-63313426D01*
X166264955Y-63182101D01*
X166432101Y-63014955D01*
X166563426Y-62818413D01*
X166653884Y-62600027D01*
X166700000Y-62368190D01*
X166700000Y-62131810D01*
X166653884Y-61899973D01*
X166563426Y-61681587D01*
X166432101Y-61485045D01*
X166347056Y-61400000D01*
X166798307Y-61400000D01*
X166798307Y-63100000D01*
X166805065Y-63168612D01*
X166825078Y-63234587D01*
X166857578Y-63295390D01*
X166901315Y-63348685D01*
X166954610Y-63392422D01*
X167015413Y-63424922D01*
X167081388Y-63444935D01*
X167150000Y-63451693D01*
X168850000Y-63451693D01*
X168918612Y-63444935D01*
X168984587Y-63424922D01*
X169045390Y-63392422D01*
X169098685Y-63348685D01*
X169142422Y-63295390D01*
X169174922Y-63234587D01*
X169194935Y-63168612D01*
X169201693Y-63100000D01*
X169201693Y-61400000D01*
X169298307Y-61400000D01*
X169298307Y-63100000D01*
X169305065Y-63168612D01*
X169325078Y-63234587D01*
X169357578Y-63295390D01*
X169401315Y-63348685D01*
X169454610Y-63392422D01*
X169515413Y-63424922D01*
X169581388Y-63444935D01*
X169650000Y-63451693D01*
X171350000Y-63451693D01*
X171418612Y-63444935D01*
X171484587Y-63424922D01*
X171545390Y-63392422D01*
X171598685Y-63348685D01*
X171642422Y-63295390D01*
X171674922Y-63234587D01*
X171694935Y-63168612D01*
X171701693Y-63100000D01*
X171701693Y-61400000D01*
X171694935Y-61331388D01*
X171674922Y-61265413D01*
X171642422Y-61204610D01*
X171598685Y-61151315D01*
X171545390Y-61107578D01*
X171484587Y-61075078D01*
X171418612Y-61055065D01*
X171350000Y-61048307D01*
X169650000Y-61048307D01*
X169581388Y-61055065D01*
X169515413Y-61075078D01*
X169454610Y-61107578D01*
X169401315Y-61151315D01*
X169357578Y-61204610D01*
X169325078Y-61265413D01*
X169305065Y-61331388D01*
X169298307Y-61400000D01*
X169201693Y-61400000D01*
X169194935Y-61331388D01*
X169174922Y-61265413D01*
X169142422Y-61204610D01*
X169098685Y-61151315D01*
X169045390Y-61107578D01*
X168984587Y-61075078D01*
X168918612Y-61055065D01*
X168850000Y-61048307D01*
X167150000Y-61048307D01*
X167081388Y-61055065D01*
X167015413Y-61075078D01*
X166954610Y-61107578D01*
X166901315Y-61151315D01*
X166857578Y-61204610D01*
X166825078Y-61265413D01*
X166805065Y-61331388D01*
X166798307Y-61400000D01*
X166347056Y-61400000D01*
X166264955Y-61317899D01*
X166068413Y-61186574D01*
X165850027Y-61096116D01*
X165618190Y-61050000D01*
X165381810Y-61050000D01*
X165149973Y-61096116D01*
X164931587Y-61186574D01*
X164735045Y-61317899D01*
X164567899Y-61485045D01*
X164436574Y-61681587D01*
X164346116Y-61899973D01*
X164300000Y-62131810D01*
X159575000Y-62131810D01*
X159575000Y-55809025D01*
X159764955Y-55682101D01*
X159932101Y-55514955D01*
X160063426Y-55318413D01*
X160153884Y-55100027D01*
X160200000Y-54868190D01*
X160200000Y-54631810D01*
X160153884Y-54399973D01*
X160063426Y-54181587D01*
X159932101Y-53985045D01*
X159847056Y-53900000D01*
X160338307Y-53900000D01*
X160338307Y-55600000D01*
X160345065Y-55668612D01*
X160365078Y-55734587D01*
X160397578Y-55795390D01*
X160441315Y-55848685D01*
X160494610Y-55892422D01*
X160555413Y-55924922D01*
X160621388Y-55944935D01*
X160690000Y-55951693D01*
X162390000Y-55951693D01*
X162458612Y-55944935D01*
X162524587Y-55924922D01*
X162585390Y-55892422D01*
X162638685Y-55848685D01*
X162682422Y-55795390D01*
X162714922Y-55734587D01*
X162734935Y-55668612D01*
X162741693Y-55600000D01*
X162741693Y-54620808D01*
X166150000Y-54620808D01*
X166150000Y-55379192D01*
X166297953Y-56123004D01*
X166588174Y-56823659D01*
X167009509Y-57454232D01*
X167545768Y-57990491D01*
X168176341Y-58411826D01*
X168876996Y-58702047D01*
X169620808Y-58850000D01*
X170379192Y-58850000D01*
X171123004Y-58702047D01*
X171823659Y-58411826D01*
X172454232Y-57990491D01*
X172990491Y-57454232D01*
X173411826Y-56823659D01*
X173702047Y-56123004D01*
X173850000Y-55379192D01*
X173850000Y-54620808D01*
X173702047Y-53876996D01*
X173411826Y-53176341D01*
X172990491Y-52545768D01*
X172454232Y-52009509D01*
X171823659Y-51588174D01*
X171123004Y-51297953D01*
X170379192Y-51150000D01*
X169620808Y-51150000D01*
X168876996Y-51297953D01*
X168176341Y-51588174D01*
X167545768Y-52009509D01*
X167009509Y-52545768D01*
X166588174Y-53176341D01*
X166297953Y-53876996D01*
X166150000Y-54620808D01*
X162741693Y-54620808D01*
X162741693Y-53900000D01*
X162734935Y-53831388D01*
X162714922Y-53765413D01*
X162682422Y-53704610D01*
X162638685Y-53651315D01*
X162585390Y-53607578D01*
X162524587Y-53575078D01*
X162458612Y-53555065D01*
X162390000Y-53548307D01*
X160690000Y-53548307D01*
X160621388Y-53555065D01*
X160555413Y-53575078D01*
X160494610Y-53607578D01*
X160441315Y-53651315D01*
X160397578Y-53704610D01*
X160365078Y-53765413D01*
X160345065Y-53831388D01*
X160338307Y-53900000D01*
X159847056Y-53900000D01*
X159764955Y-53817899D01*
X159568413Y-53686574D01*
X159350027Y-53596116D01*
X159118190Y-53550000D01*
X158881810Y-53550000D01*
X158649973Y-53596116D01*
X158431587Y-53686574D01*
X158235045Y-53817899D01*
X158067899Y-53985045D01*
X157936574Y-54181587D01*
X157846116Y-54399973D01*
X157800000Y-54631810D01*
X157800000Y-54868190D01*
X157846116Y-55100027D01*
X157936574Y-55318413D01*
X158067899Y-55514955D01*
X158235045Y-55682101D01*
X158425000Y-55809025D01*
X158425001Y-80761826D01*
X155386828Y-83800000D01*
X142903243Y-83800000D01*
X142875000Y-83797218D01*
X142846757Y-83800000D01*
X142846754Y-83800000D01*
X142762280Y-83808320D01*
X142653892Y-83841199D01*
X142554002Y-83894592D01*
X142466446Y-83966446D01*
X142448440Y-83988387D01*
X138613393Y-87823434D01*
X138591446Y-87841446D01*
X138545972Y-87896858D01*
X138519592Y-87929002D01*
X138493777Y-87977298D01*
X138466199Y-88028893D01*
X138433320Y-88137281D01*
X138425000Y-88221754D01*
X138422218Y-88250000D01*
X138425000Y-88278243D01*
X138425001Y-102400000D01*
X120000000Y-102400000D01*
X119980491Y-102401921D01*
X119961732Y-102407612D01*
X119944443Y-102416853D01*
X119929289Y-102429289D01*
X119916853Y-102444443D01*
X119907612Y-102461732D01*
X119901921Y-102480491D01*
X119900000Y-102500000D01*
X119900000Y-114900000D01*
X111350000Y-114900000D01*
X111350000Y-114844207D01*
X111438829Y-114800106D01*
X111574406Y-114709516D01*
X111706203Y-114241559D01*
X111350000Y-113885356D01*
X111350000Y-113814644D01*
X111741559Y-114206203D01*
X112209516Y-114074406D01*
X112474213Y-113613099D01*
X112643826Y-113109016D01*
X112711839Y-112581529D01*
X112675637Y-112050908D01*
X112536612Y-111537546D01*
X112300106Y-111061171D01*
X112209516Y-110925594D01*
X111741559Y-110793797D01*
X111350000Y-111185356D01*
X111350000Y-111114644D01*
X111706203Y-110758441D01*
X111574406Y-110290484D01*
X111350000Y-110161720D01*
X111350000Y-98000000D01*
X111348079Y-97980491D01*
X111342388Y-97961732D01*
X111333147Y-97944443D01*
X111320711Y-97929289D01*
X111305557Y-97916853D01*
X111288268Y-97907612D01*
X111269509Y-97901921D01*
X111250000Y-97900000D01*
X110744802Y-97900000D01*
X110721178Y-97781233D01*
X110664641Y-97644742D01*
X110582563Y-97521903D01*
X110478097Y-97417437D01*
X110355258Y-97335359D01*
X110218767Y-97278822D01*
X110073869Y-97250000D01*
X109926131Y-97250000D01*
X109922478Y-97250727D01*
X109352384Y-96680634D01*
X109337501Y-96662499D01*
X109265173Y-96603141D01*
X109182654Y-96559034D01*
X109093116Y-96531873D01*
X109023332Y-96525000D01*
X109000000Y-96522702D01*
X108976668Y-96525000D01*
X105023332Y-96525000D01*
X105000000Y-96522702D01*
X104906884Y-96531873D01*
X104817345Y-96559034D01*
X104788602Y-96574398D01*
X104734827Y-96603141D01*
X104662499Y-96662499D01*
X104647625Y-96680624D01*
X104577522Y-96750727D01*
X104573869Y-96750000D01*
X104426131Y-96750000D01*
X104281233Y-96778822D01*
X104144742Y-96835359D01*
X104021903Y-96917437D01*
X103917437Y-97021903D01*
X103835359Y-97144742D01*
X103778822Y-97281233D01*
X103750000Y-97426131D01*
X103721178Y-97281233D01*
X103664641Y-97144742D01*
X103582563Y-97021903D01*
X103478097Y-96917437D01*
X103355258Y-96835359D01*
X103218767Y-96778822D01*
X103073869Y-96750000D01*
X102926131Y-96750000D01*
X102781233Y-96778822D01*
X102644742Y-96835359D01*
X102521903Y-96917437D01*
X102500000Y-96939340D01*
X102478097Y-96917437D01*
X102355258Y-96835359D01*
X102218767Y-96778822D01*
X102073869Y-96750000D01*
X101926131Y-96750000D01*
X101781233Y-96778822D01*
X101644742Y-96835359D01*
X101521903Y-96917437D01*
X101417437Y-97021903D01*
X101335359Y-97144742D01*
X101278822Y-97281233D01*
X101250000Y-97426131D01*
X101250000Y-97573869D01*
X101278822Y-97718767D01*
X101335359Y-97855258D01*
X101365255Y-97900000D01*
X94250000Y-97900000D01*
X94230491Y-97901921D01*
X94211732Y-97907612D01*
X94194443Y-97916853D01*
X94179289Y-97929289D01*
X94166853Y-97944443D01*
X94157612Y-97961732D01*
X94151921Y-97980491D01*
X94150000Y-98000000D01*
X94150000Y-111092284D01*
X93985336Y-111256948D01*
X93771933Y-111576329D01*
X93624938Y-111931206D01*
X93550000Y-112307942D01*
X93550000Y-112692058D01*
X93624938Y-113068794D01*
X93771933Y-113423671D01*
X93985336Y-113743052D01*
X94150000Y-113907716D01*
X94150000Y-114900000D01*
X76100000Y-114900000D01*
X76100000Y-98694677D01*
X83900000Y-98694677D01*
X83900000Y-99305323D01*
X84019131Y-99904237D01*
X84252815Y-100468401D01*
X84592072Y-100976135D01*
X85023865Y-101407928D01*
X85531599Y-101747185D01*
X86095763Y-101980869D01*
X86694677Y-102100000D01*
X87305323Y-102100000D01*
X87904237Y-101980869D01*
X88468401Y-101747185D01*
X88976135Y-101407928D01*
X89407928Y-100976135D01*
X89747185Y-100468401D01*
X89980869Y-99904237D01*
X90100000Y-99305323D01*
X90100000Y-98694677D01*
X89980869Y-98095763D01*
X89747185Y-97531599D01*
X89407928Y-97023865D01*
X88976135Y-96592072D01*
X88574390Y-96323635D01*
X88950000Y-96320000D01*
X89225000Y-96045000D01*
X89225000Y-94395000D01*
X89275000Y-94395000D01*
X89275000Y-96045000D01*
X89550000Y-96320000D01*
X90100000Y-96325322D01*
X90315638Y-96304084D01*
X90522988Y-96241184D01*
X90714084Y-96139042D01*
X90881581Y-96001581D01*
X91019042Y-95834084D01*
X91121184Y-95642988D01*
X91184084Y-95435638D01*
X91205322Y-95220000D01*
X91200000Y-94670000D01*
X90925000Y-94395000D01*
X89275000Y-94395000D01*
X89225000Y-94395000D01*
X87575000Y-94395000D01*
X87300000Y-94670000D01*
X87294678Y-95220000D01*
X87315916Y-95435638D01*
X87378816Y-95642988D01*
X87480958Y-95834084D01*
X87579872Y-95954611D01*
X87305323Y-95900000D01*
X86694677Y-95900000D01*
X86095763Y-96019131D01*
X85531599Y-96252815D01*
X85023865Y-96592072D01*
X84592072Y-97023865D01*
X84252815Y-97531599D01*
X84019131Y-98095763D01*
X83900000Y-98694677D01*
X76100000Y-98694677D01*
X76100000Y-82600000D01*
X84100011Y-82600000D01*
X84100011Y-85978238D01*
X83805627Y-86272623D01*
X83805622Y-86272627D01*
X83577523Y-86500727D01*
X83573869Y-86500000D01*
X83426131Y-86500000D01*
X83281233Y-86528822D01*
X83144742Y-86585359D01*
X83021903Y-86667437D01*
X82917437Y-86771903D01*
X82835359Y-86894742D01*
X82778822Y-87031233D01*
X82750000Y-87176131D01*
X82750000Y-87323869D01*
X82778822Y-87468767D01*
X82835359Y-87605258D01*
X82917437Y-87728097D01*
X83021903Y-87832563D01*
X83144742Y-87914641D01*
X83281233Y-87971178D01*
X83426131Y-88000000D01*
X83573869Y-88000000D01*
X83718767Y-87971178D01*
X83855258Y-87914641D01*
X83978097Y-87832563D01*
X84082563Y-87728097D01*
X84164641Y-87605258D01*
X84221178Y-87468767D01*
X84250000Y-87323869D01*
X84250000Y-87176131D01*
X84249273Y-87172477D01*
X84477373Y-86944378D01*
X84477377Y-86944373D01*
X84894381Y-86527370D01*
X84912511Y-86512491D01*
X84971869Y-86440163D01*
X85015976Y-86357644D01*
X85043137Y-86268106D01*
X85048744Y-86211179D01*
X85052308Y-86174991D01*
X85050010Y-86151659D01*
X85050010Y-54000000D01*
X85073869Y-54000000D01*
X85218767Y-53971178D01*
X85355258Y-53914641D01*
X85478097Y-53832563D01*
X85582563Y-53728097D01*
X85664641Y-53605258D01*
X85721178Y-53468767D01*
X85750000Y-53323869D01*
X85750000Y-53176131D01*
X85721178Y-53031233D01*
X85664641Y-52894742D01*
X85582563Y-52771903D01*
X85478097Y-52667437D01*
X85355258Y-52585359D01*
X85218767Y-52528822D01*
X85073869Y-52500000D01*
X84926131Y-52500000D01*
X84781233Y-52528822D01*
X84644742Y-52585359D01*
X84521903Y-52667437D01*
X84417437Y-52771903D01*
X84350000Y-52872830D01*
X84350000Y-51100000D01*
X92836827Y-51100000D01*
X91363393Y-52573435D01*
M02*
