G04 #@! TF.GenerationSoftware,KiCad,Pcbnew,(5.1.2-1)-1*
G04 #@! TF.CreationDate,2020-09-08T18:19:47+03:00*
G04 #@! TF.ProjectId,UAK_0,55414b5f-302e-46b6-9963-61645f706362,rev?*
G04 #@! TF.SameCoordinates,Original*
G04 #@! TF.FileFunction,Soldermask,Top*
G04 #@! TF.FilePolarity,Negative*
%FSLAX46Y46*%
G04 Gerber Fmt 4.6, Leading zero omitted, Abs format (unit mm)*
G04 Created by KiCad (PCBNEW (5.1.2-1)-1) date 2020-09-08 18:19:47*
%MOMM*%
%LPD*%
G04 APERTURE LIST*
%ADD10C,0.100000*%
G04 APERTURE END LIST*
D10*
G36*
X171035787Y-131585462D02*
G01*
X171035790Y-131585463D01*
X171035789Y-131585463D01*
X171682029Y-131853144D01*
X172263631Y-132241758D01*
X172758242Y-132736369D01*
X173146856Y-133317971D01*
X173146856Y-133317972D01*
X173414538Y-133964213D01*
X173551000Y-134650256D01*
X173551000Y-135349744D01*
X173414538Y-136035787D01*
X173356460Y-136176000D01*
X173146856Y-136682029D01*
X172758242Y-137263631D01*
X172263631Y-137758242D01*
X171682029Y-138146856D01*
X171225068Y-138336135D01*
X171035787Y-138414538D01*
X170349744Y-138551000D01*
X169650256Y-138551000D01*
X168964213Y-138414538D01*
X168774932Y-138336135D01*
X168317971Y-138146856D01*
X167736369Y-137758242D01*
X167241758Y-137263631D01*
X166853144Y-136682029D01*
X166643540Y-136176000D01*
X166585462Y-136035787D01*
X166449000Y-135349744D01*
X166449000Y-134650256D01*
X166585462Y-133964213D01*
X166853144Y-133317972D01*
X166853144Y-133317971D01*
X167241758Y-132736369D01*
X167736369Y-132241758D01*
X168317971Y-131853144D01*
X168964211Y-131585463D01*
X168964210Y-131585463D01*
X168964213Y-131585462D01*
X169650256Y-131449000D01*
X170349744Y-131449000D01*
X171035787Y-131585462D01*
X171035787Y-131585462D01*
G37*
G36*
X81035787Y-131585462D02*
G01*
X81035790Y-131585463D01*
X81035789Y-131585463D01*
X81682029Y-131853144D01*
X82263631Y-132241758D01*
X82758242Y-132736369D01*
X83146856Y-133317971D01*
X83146856Y-133317972D01*
X83414538Y-133964213D01*
X83551000Y-134650256D01*
X83551000Y-135349744D01*
X83414538Y-136035787D01*
X83356460Y-136176000D01*
X83146856Y-136682029D01*
X82758242Y-137263631D01*
X82263631Y-137758242D01*
X81682029Y-138146856D01*
X81225068Y-138336135D01*
X81035787Y-138414538D01*
X80349744Y-138551000D01*
X79650256Y-138551000D01*
X78964213Y-138414538D01*
X78774932Y-138336135D01*
X78317971Y-138146856D01*
X77736369Y-137758242D01*
X77241758Y-137263631D01*
X76853144Y-136682029D01*
X76643540Y-136176000D01*
X76585462Y-136035787D01*
X76449000Y-135349744D01*
X76449000Y-134650256D01*
X76585462Y-133964213D01*
X76853144Y-133317972D01*
X76853144Y-133317971D01*
X77241758Y-132736369D01*
X77736369Y-132241758D01*
X78317971Y-131853144D01*
X78964211Y-131585463D01*
X78964210Y-131585463D01*
X78964213Y-131585462D01*
X79650256Y-131449000D01*
X80349744Y-131449000D01*
X81035787Y-131585462D01*
X81035787Y-131585462D01*
G37*
G36*
X163817021Y-132306640D02*
G01*
X164326769Y-132517785D01*
X164326771Y-132517786D01*
X164785534Y-132824321D01*
X165175679Y-133214466D01*
X165244839Y-133317972D01*
X165482215Y-133673231D01*
X165693360Y-134182979D01*
X165801000Y-134724124D01*
X165801000Y-135275876D01*
X165693360Y-135817021D01*
X165483621Y-136323375D01*
X165482214Y-136326771D01*
X165175679Y-136785534D01*
X164785534Y-137175679D01*
X164326771Y-137482214D01*
X164326770Y-137482215D01*
X164326769Y-137482215D01*
X163817021Y-137693360D01*
X163275876Y-137801000D01*
X162724124Y-137801000D01*
X162182979Y-137693360D01*
X161673231Y-137482215D01*
X161673230Y-137482215D01*
X161673229Y-137482214D01*
X161214466Y-137175679D01*
X160824321Y-136785534D01*
X160517786Y-136326771D01*
X160516379Y-136323375D01*
X160306640Y-135817021D01*
X160199000Y-135275876D01*
X160199000Y-134724124D01*
X160306640Y-134182979D01*
X160517785Y-133673231D01*
X160755161Y-133317972D01*
X160824321Y-133214466D01*
X161214466Y-132824321D01*
X161673229Y-132517786D01*
X161673231Y-132517785D01*
X162182979Y-132306640D01*
X162724124Y-132199000D01*
X163275876Y-132199000D01*
X163817021Y-132306640D01*
X163817021Y-132306640D01*
G37*
G36*
X87817021Y-132306640D02*
G01*
X88326769Y-132517785D01*
X88326771Y-132517786D01*
X88785534Y-132824321D01*
X89175679Y-133214466D01*
X89244839Y-133317972D01*
X89482215Y-133673231D01*
X89693360Y-134182979D01*
X89801000Y-134724124D01*
X89801000Y-135275876D01*
X89693360Y-135817021D01*
X89483621Y-136323375D01*
X89482214Y-136326771D01*
X89175679Y-136785534D01*
X88785534Y-137175679D01*
X88326771Y-137482214D01*
X88326770Y-137482215D01*
X88326769Y-137482215D01*
X87817021Y-137693360D01*
X87275876Y-137801000D01*
X86724124Y-137801000D01*
X86182979Y-137693360D01*
X85673231Y-137482215D01*
X85673230Y-137482215D01*
X85673229Y-137482214D01*
X85214466Y-137175679D01*
X84824321Y-136785534D01*
X84517786Y-136326771D01*
X84516379Y-136323375D01*
X84306640Y-135817021D01*
X84199000Y-135275876D01*
X84199000Y-134724124D01*
X84306640Y-134182979D01*
X84517785Y-133673231D01*
X84755161Y-133317972D01*
X84824321Y-133214466D01*
X85214466Y-132824321D01*
X85673229Y-132517786D01*
X85673231Y-132517785D01*
X86182979Y-132306640D01*
X86724124Y-132199000D01*
X87275876Y-132199000D01*
X87817021Y-132306640D01*
X87817021Y-132306640D01*
G37*
G36*
X122041000Y-137401000D02*
G01*
X120239000Y-137401000D01*
X120239000Y-135599000D01*
X122041000Y-135599000D01*
X122041000Y-137401000D01*
X122041000Y-137401000D01*
G37*
G36*
X119501000Y-137401000D02*
G01*
X117699000Y-137401000D01*
X117699000Y-135599000D01*
X119501000Y-135599000D01*
X119501000Y-137401000D01*
X119501000Y-137401000D01*
G37*
G36*
X116961000Y-137401000D02*
G01*
X115159000Y-137401000D01*
X115159000Y-135599000D01*
X116961000Y-135599000D01*
X116961000Y-137401000D01*
X116961000Y-137401000D01*
G37*
G36*
X114421000Y-137401000D02*
G01*
X112619000Y-137401000D01*
X112619000Y-135599000D01*
X114421000Y-135599000D01*
X114421000Y-137401000D01*
X114421000Y-137401000D01*
G37*
G36*
X111881000Y-137401000D02*
G01*
X110079000Y-137401000D01*
X110079000Y-135599000D01*
X111881000Y-135599000D01*
X111881000Y-137401000D01*
X111881000Y-137401000D01*
G37*
G36*
X109341000Y-137401000D02*
G01*
X107539000Y-137401000D01*
X107539000Y-135599000D01*
X109341000Y-135599000D01*
X109341000Y-137401000D01*
X109341000Y-137401000D01*
G37*
G36*
X106801000Y-137401000D02*
G01*
X104999000Y-137401000D01*
X104999000Y-135599000D01*
X106801000Y-135599000D01*
X106801000Y-137401000D01*
X106801000Y-137401000D01*
G37*
G36*
X104261000Y-137401000D02*
G01*
X102459000Y-137401000D01*
X102459000Y-135599000D01*
X104261000Y-135599000D01*
X104261000Y-137401000D01*
X104261000Y-137401000D01*
G37*
G36*
X101721000Y-137401000D02*
G01*
X99919000Y-137401000D01*
X99919000Y-135599000D01*
X101721000Y-135599000D01*
X101721000Y-137401000D01*
X101721000Y-137401000D01*
G37*
G36*
X99181000Y-137401000D02*
G01*
X97379000Y-137401000D01*
X97379000Y-135599000D01*
X99181000Y-135599000D01*
X99181000Y-137401000D01*
X99181000Y-137401000D01*
G37*
G36*
X96641000Y-137401000D02*
G01*
X94839000Y-137401000D01*
X94839000Y-135599000D01*
X96641000Y-135599000D01*
X96641000Y-137401000D01*
X96641000Y-137401000D01*
G37*
G36*
X94101000Y-137401000D02*
G01*
X92299000Y-137401000D01*
X92299000Y-135599000D01*
X94101000Y-135599000D01*
X94101000Y-137401000D01*
X94101000Y-137401000D01*
G37*
G36*
X131410442Y-135605518D02*
G01*
X131476627Y-135612037D01*
X131646466Y-135663557D01*
X131802991Y-135747222D01*
X131838729Y-135776552D01*
X131940186Y-135859814D01*
X132023448Y-135961271D01*
X132052778Y-135997009D01*
X132136443Y-136153534D01*
X132187963Y-136323373D01*
X132205359Y-136500000D01*
X132187963Y-136676627D01*
X132136443Y-136846466D01*
X132052778Y-137002991D01*
X132023448Y-137038729D01*
X131940186Y-137140186D01*
X131867480Y-137199853D01*
X131802991Y-137252778D01*
X131646466Y-137336443D01*
X131476627Y-137387963D01*
X131410443Y-137394481D01*
X131344260Y-137401000D01*
X131255740Y-137401000D01*
X131189557Y-137394481D01*
X131123373Y-137387963D01*
X130953534Y-137336443D01*
X130797009Y-137252778D01*
X130732520Y-137199853D01*
X130659814Y-137140186D01*
X130576552Y-137038729D01*
X130547222Y-137002991D01*
X130463557Y-136846466D01*
X130412037Y-136676627D01*
X130394641Y-136500000D01*
X130412037Y-136323373D01*
X130463557Y-136153534D01*
X130547222Y-135997009D01*
X130576552Y-135961271D01*
X130659814Y-135859814D01*
X130761271Y-135776552D01*
X130797009Y-135747222D01*
X130953534Y-135663557D01*
X131123373Y-135612037D01*
X131189558Y-135605518D01*
X131255740Y-135599000D01*
X131344260Y-135599000D01*
X131410442Y-135605518D01*
X131410442Y-135605518D01*
G37*
G36*
X124581000Y-137401000D02*
G01*
X122779000Y-137401000D01*
X122779000Y-135599000D01*
X124581000Y-135599000D01*
X124581000Y-137401000D01*
X124581000Y-137401000D01*
G37*
G36*
X126333512Y-135603927D02*
G01*
X126482812Y-135633624D01*
X126646784Y-135701544D01*
X126794354Y-135800147D01*
X126919853Y-135925646D01*
X127018456Y-136073216D01*
X127086376Y-136237188D01*
X127121000Y-136411259D01*
X127121000Y-136588741D01*
X127086376Y-136762812D01*
X127018456Y-136926784D01*
X126919853Y-137074354D01*
X126794354Y-137199853D01*
X126646784Y-137298456D01*
X126482812Y-137366376D01*
X126333512Y-137396073D01*
X126308742Y-137401000D01*
X126131258Y-137401000D01*
X126106488Y-137396073D01*
X125957188Y-137366376D01*
X125793216Y-137298456D01*
X125645646Y-137199853D01*
X125520147Y-137074354D01*
X125421544Y-136926784D01*
X125353624Y-136762812D01*
X125319000Y-136588741D01*
X125319000Y-136411259D01*
X125353624Y-136237188D01*
X125421544Y-136073216D01*
X125520147Y-135925646D01*
X125645646Y-135800147D01*
X125793216Y-135701544D01*
X125957188Y-135633624D01*
X126106488Y-135603927D01*
X126131258Y-135599000D01*
X126308742Y-135599000D01*
X126333512Y-135603927D01*
X126333512Y-135603927D01*
G37*
G36*
X129661000Y-137401000D02*
G01*
X127859000Y-137401000D01*
X127859000Y-135599000D01*
X129661000Y-135599000D01*
X129661000Y-137401000D01*
X129661000Y-137401000D01*
G37*
G36*
X138801000Y-136176000D02*
G01*
X138199000Y-136176000D01*
X138199000Y-134824000D01*
X138801000Y-134824000D01*
X138801000Y-136176000D01*
X138801000Y-136176000D01*
G37*
G36*
X137051000Y-136176000D02*
G01*
X136449000Y-136176000D01*
X136449000Y-134824000D01*
X137051000Y-134824000D01*
X137051000Y-136176000D01*
X137051000Y-136176000D01*
G37*
G36*
X136951000Y-133051000D02*
G01*
X136049000Y-133051000D01*
X136049000Y-131949000D01*
X136951000Y-131949000D01*
X136951000Y-133051000D01*
X136951000Y-133051000D01*
G37*
G36*
X138951000Y-133051000D02*
G01*
X138049000Y-133051000D01*
X138049000Y-131949000D01*
X138951000Y-131949000D01*
X138951000Y-133051000D01*
X138951000Y-133051000D01*
G37*
G36*
X134176000Y-132801000D02*
G01*
X132824000Y-132801000D01*
X132824000Y-132199000D01*
X134176000Y-132199000D01*
X134176000Y-132801000D01*
X134176000Y-132801000D01*
G37*
G36*
X134176000Y-131051000D02*
G01*
X132824000Y-131051000D01*
X132824000Y-130449000D01*
X134176000Y-130449000D01*
X134176000Y-131051000D01*
X134176000Y-131051000D01*
G37*
G36*
X137951000Y-130551000D02*
G01*
X137049000Y-130551000D01*
X137049000Y-129449000D01*
X137951000Y-129449000D01*
X137951000Y-130551000D01*
X137951000Y-130551000D01*
G37*
G36*
X98551000Y-130051000D02*
G01*
X96449000Y-130051000D01*
X96449000Y-127949000D01*
X98551000Y-127949000D01*
X98551000Y-130051000D01*
X98551000Y-130051000D01*
G37*
G36*
X108551000Y-130051000D02*
G01*
X106449000Y-130051000D01*
X106449000Y-127949000D01*
X108551000Y-127949000D01*
X108551000Y-130051000D01*
X108551000Y-130051000D01*
G37*
G36*
X126751000Y-128751000D02*
G01*
X124249000Y-128751000D01*
X124249000Y-126249000D01*
X126751000Y-126249000D01*
X126751000Y-128751000D01*
X126751000Y-128751000D01*
G37*
G36*
X170864903Y-126297075D02*
G01*
X171092571Y-126391378D01*
X171297466Y-126528285D01*
X171471715Y-126702534D01*
X171608622Y-126907429D01*
X171702925Y-127135097D01*
X171751000Y-127376787D01*
X171751000Y-127623213D01*
X171702925Y-127864903D01*
X171608622Y-128092571D01*
X171471715Y-128297466D01*
X171297466Y-128471715D01*
X171092571Y-128608622D01*
X171092570Y-128608623D01*
X171092569Y-128608623D01*
X170864903Y-128702925D01*
X170623214Y-128751000D01*
X170376786Y-128751000D01*
X170135097Y-128702925D01*
X169907431Y-128608623D01*
X169907430Y-128608623D01*
X169907429Y-128608622D01*
X169702534Y-128471715D01*
X169528285Y-128297466D01*
X169391378Y-128092571D01*
X169297075Y-127864903D01*
X169249000Y-127623213D01*
X169249000Y-127376787D01*
X169297075Y-127135097D01*
X169391378Y-126907429D01*
X169528285Y-126702534D01*
X169702534Y-126528285D01*
X169907429Y-126391378D01*
X170135097Y-126297075D01*
X170376786Y-126249000D01*
X170623214Y-126249000D01*
X170864903Y-126297075D01*
X170864903Y-126297075D01*
G37*
G36*
X79806564Y-126239389D02*
G01*
X79997833Y-126318615D01*
X79997835Y-126318616D01*
X80169973Y-126433635D01*
X80316365Y-126580027D01*
X80398222Y-126702534D01*
X80431385Y-126752167D01*
X80510611Y-126943436D01*
X80551000Y-127146484D01*
X80551000Y-127353516D01*
X80510611Y-127556564D01*
X80431385Y-127747833D01*
X80431384Y-127747835D01*
X80316365Y-127919973D01*
X80169973Y-128066365D01*
X79997835Y-128181384D01*
X79997834Y-128181385D01*
X79997833Y-128181385D01*
X79806564Y-128260611D01*
X79603516Y-128301000D01*
X79396484Y-128301000D01*
X79193436Y-128260611D01*
X79002167Y-128181385D01*
X79002166Y-128181385D01*
X79002165Y-128181384D01*
X78830027Y-128066365D01*
X78683635Y-127919973D01*
X78568616Y-127747835D01*
X78568615Y-127747833D01*
X78489389Y-127556564D01*
X78449000Y-127353516D01*
X78449000Y-127146484D01*
X78489389Y-126943436D01*
X78568615Y-126752167D01*
X78601779Y-126702534D01*
X78683635Y-126580027D01*
X78830027Y-126433635D01*
X79002165Y-126318616D01*
X79002167Y-126318615D01*
X79193436Y-126239389D01*
X79396484Y-126199000D01*
X79603516Y-126199000D01*
X79806564Y-126239389D01*
X79806564Y-126239389D01*
G37*
G36*
X113176000Y-125801000D02*
G01*
X111824000Y-125801000D01*
X111824000Y-125199000D01*
X113176000Y-125199000D01*
X113176000Y-125801000D01*
X113176000Y-125801000D01*
G37*
G36*
X113176000Y-124051000D02*
G01*
X111824000Y-124051000D01*
X111824000Y-123449000D01*
X113176000Y-123449000D01*
X113176000Y-124051000D01*
X113176000Y-124051000D01*
G37*
G36*
X86051000Y-123551000D02*
G01*
X83949000Y-123551000D01*
X83949000Y-120949000D01*
X86051000Y-120949000D01*
X86051000Y-123551000D01*
X86051000Y-123551000D01*
G37*
G36*
X91301000Y-123551000D02*
G01*
X89199000Y-123551000D01*
X89199000Y-120949000D01*
X91301000Y-120949000D01*
X91301000Y-123551000D01*
X91301000Y-123551000D01*
G37*
G36*
X80551000Y-123301000D02*
G01*
X78449000Y-123301000D01*
X78449000Y-121199000D01*
X80551000Y-121199000D01*
X80551000Y-123301000D01*
X80551000Y-123301000D01*
G37*
G36*
X121051000Y-120801000D02*
G01*
X118949000Y-120801000D01*
X118949000Y-118199000D01*
X121051000Y-118199000D01*
X121051000Y-120801000D01*
X121051000Y-120801000D01*
G37*
G36*
X115801000Y-120801000D02*
G01*
X113699000Y-120801000D01*
X113699000Y-118199000D01*
X115801000Y-118199000D01*
X115801000Y-120801000D01*
X115801000Y-120801000D01*
G37*
G36*
X126751000Y-120751000D02*
G01*
X124249000Y-120751000D01*
X124249000Y-118249000D01*
X126751000Y-118249000D01*
X126751000Y-120751000D01*
X126751000Y-120751000D01*
G37*
G36*
X172051000Y-120051000D02*
G01*
X168949000Y-120051000D01*
X168949000Y-118449000D01*
X172051000Y-118449000D01*
X172051000Y-120051000D01*
X172051000Y-120051000D01*
G37*
G36*
X97806564Y-117989389D02*
G01*
X97997833Y-118068615D01*
X97997835Y-118068616D01*
X98169973Y-118183635D01*
X98316365Y-118330027D01*
X98431385Y-118502167D01*
X98510611Y-118693436D01*
X98551000Y-118896484D01*
X98551000Y-119103516D01*
X98510611Y-119306564D01*
X98431385Y-119497833D01*
X98431384Y-119497835D01*
X98316365Y-119669973D01*
X98169973Y-119816365D01*
X97997835Y-119931384D01*
X97997834Y-119931385D01*
X97997833Y-119931385D01*
X97806564Y-120010611D01*
X97603516Y-120051000D01*
X97396484Y-120051000D01*
X97193436Y-120010611D01*
X97002167Y-119931385D01*
X97002166Y-119931385D01*
X97002165Y-119931384D01*
X96830027Y-119816365D01*
X96683635Y-119669973D01*
X96568616Y-119497835D01*
X96568615Y-119497833D01*
X96489389Y-119306564D01*
X96449000Y-119103516D01*
X96449000Y-118896484D01*
X96489389Y-118693436D01*
X96568615Y-118502167D01*
X96683635Y-118330027D01*
X96830027Y-118183635D01*
X97002165Y-118068616D01*
X97002167Y-118068615D01*
X97193436Y-117989389D01*
X97396484Y-117949000D01*
X97603516Y-117949000D01*
X97806564Y-117989389D01*
X97806564Y-117989389D01*
G37*
G36*
X108551000Y-120051000D02*
G01*
X106449000Y-120051000D01*
X106449000Y-117949000D01*
X108551000Y-117949000D01*
X108551000Y-120051000D01*
X108551000Y-120051000D01*
G37*
G36*
X102051000Y-119676000D02*
G01*
X101449000Y-119676000D01*
X101449000Y-118324000D01*
X102051000Y-118324000D01*
X102051000Y-119676000D01*
X102051000Y-119676000D01*
G37*
G36*
X103801000Y-119676000D02*
G01*
X103199000Y-119676000D01*
X103199000Y-118324000D01*
X103801000Y-118324000D01*
X103801000Y-119676000D01*
X103801000Y-119676000D01*
G37*
G36*
X172051000Y-116551000D02*
G01*
X168949000Y-116551000D01*
X168949000Y-114949000D01*
X172051000Y-114949000D01*
X172051000Y-116551000D01*
X172051000Y-116551000D01*
G37*
G36*
X82926000Y-116051000D02*
G01*
X81574000Y-116051000D01*
X81574000Y-115449000D01*
X82926000Y-115449000D01*
X82926000Y-116051000D01*
X82926000Y-116051000D01*
G37*
G36*
X82926000Y-114301000D02*
G01*
X81574000Y-114301000D01*
X81574000Y-113699000D01*
X82926000Y-113699000D01*
X82926000Y-114301000D01*
X82926000Y-114301000D01*
G37*
G36*
X95875256Y-110891298D02*
G01*
X95981579Y-110912447D01*
X96282042Y-111036903D01*
X96552451Y-111217585D01*
X96782415Y-111447549D01*
X96963097Y-111717958D01*
X97087553Y-112018421D01*
X97151000Y-112337391D01*
X97151000Y-112662609D01*
X97087553Y-112981579D01*
X96963097Y-113282042D01*
X96782415Y-113552451D01*
X96552451Y-113782415D01*
X96282042Y-113963097D01*
X95981579Y-114087553D01*
X95875256Y-114108702D01*
X95662611Y-114151000D01*
X95337389Y-114151000D01*
X95124744Y-114108702D01*
X95018421Y-114087553D01*
X94717958Y-113963097D01*
X94447549Y-113782415D01*
X94217585Y-113552451D01*
X94036903Y-113282042D01*
X93912447Y-112981579D01*
X93849000Y-112662609D01*
X93849000Y-112337391D01*
X93912447Y-112018421D01*
X94036903Y-111717958D01*
X94217585Y-111447549D01*
X94447549Y-111217585D01*
X94717958Y-111036903D01*
X95018421Y-110912447D01*
X95124744Y-110891298D01*
X95337389Y-110849000D01*
X95662611Y-110849000D01*
X95875256Y-110891298D01*
X95875256Y-110891298D01*
G37*
G36*
X110375256Y-110891298D02*
G01*
X110481579Y-110912447D01*
X110782042Y-111036903D01*
X111052451Y-111217585D01*
X111282415Y-111447549D01*
X111463097Y-111717958D01*
X111587553Y-112018421D01*
X111651000Y-112337391D01*
X111651000Y-112662609D01*
X111587553Y-112981579D01*
X111463097Y-113282042D01*
X111282415Y-113552451D01*
X111052451Y-113782415D01*
X110782042Y-113963097D01*
X110481579Y-114087553D01*
X110375256Y-114108702D01*
X110162611Y-114151000D01*
X109837389Y-114151000D01*
X109624744Y-114108702D01*
X109518421Y-114087553D01*
X109217958Y-113963097D01*
X108947549Y-113782415D01*
X108717585Y-113552451D01*
X108536903Y-113282042D01*
X108412447Y-112981579D01*
X108349000Y-112662609D01*
X108349000Y-112337391D01*
X108412447Y-112018421D01*
X108536903Y-111717958D01*
X108717585Y-111447549D01*
X108947549Y-111217585D01*
X109217958Y-111036903D01*
X109518421Y-110912447D01*
X109624744Y-110891298D01*
X109837389Y-110849000D01*
X110162611Y-110849000D01*
X110375256Y-110891298D01*
X110375256Y-110891298D01*
G37*
G36*
X80801000Y-111051000D02*
G01*
X79199000Y-111051000D01*
X79199000Y-108949000D01*
X80801000Y-108949000D01*
X80801000Y-111051000D01*
X80801000Y-111051000D01*
G37*
G36*
X83051000Y-111051000D02*
G01*
X81449000Y-111051000D01*
X81449000Y-108949000D01*
X83051000Y-108949000D01*
X83051000Y-111051000D01*
X83051000Y-111051000D01*
G37*
G36*
X78551000Y-111051000D02*
G01*
X76949000Y-111051000D01*
X76949000Y-108949000D01*
X78551000Y-108949000D01*
X78551000Y-111051000D01*
X78551000Y-111051000D01*
G37*
G36*
X110051000Y-109676000D02*
G01*
X109449000Y-109676000D01*
X109449000Y-108324000D01*
X110051000Y-108324000D01*
X110051000Y-109676000D01*
X110051000Y-109676000D01*
G37*
G36*
X108301000Y-109676000D02*
G01*
X107699000Y-109676000D01*
X107699000Y-108324000D01*
X108301000Y-108324000D01*
X108301000Y-109676000D01*
X108301000Y-109676000D01*
G37*
G36*
X104051000Y-109676000D02*
G01*
X103449000Y-109676000D01*
X103449000Y-108324000D01*
X104051000Y-108324000D01*
X104051000Y-109676000D01*
X104051000Y-109676000D01*
G37*
G36*
X102301000Y-109676000D02*
G01*
X101699000Y-109676000D01*
X101699000Y-108324000D01*
X102301000Y-108324000D01*
X102301000Y-109676000D01*
X102301000Y-109676000D01*
G37*
G36*
X171751000Y-107951000D02*
G01*
X169249000Y-107951000D01*
X169249000Y-105449000D01*
X171751000Y-105449000D01*
X171751000Y-107951000D01*
X171751000Y-107951000D01*
G37*
G36*
X108426000Y-106301000D02*
G01*
X107074000Y-106301000D01*
X107074000Y-105699000D01*
X108426000Y-105699000D01*
X108426000Y-106301000D01*
X108426000Y-106301000D01*
G37*
G36*
X110676000Y-106301000D02*
G01*
X109324000Y-106301000D01*
X109324000Y-105699000D01*
X110676000Y-105699000D01*
X110676000Y-106301000D01*
X110676000Y-106301000D01*
G37*
G36*
X100301000Y-105551000D02*
G01*
X94699000Y-105551000D01*
X94699000Y-102949000D01*
X100301000Y-102949000D01*
X100301000Y-105551000D01*
X100301000Y-105551000D01*
G37*
G36*
X102200800Y-105331600D02*
G01*
X101489200Y-105331600D01*
X101489200Y-103756400D01*
X102200800Y-103756400D01*
X102200800Y-105331600D01*
X102200800Y-105331600D01*
G37*
G36*
X103470800Y-105331600D02*
G01*
X102759200Y-105331600D01*
X102759200Y-103756400D01*
X103470800Y-103756400D01*
X103470800Y-105331600D01*
X103470800Y-105331600D01*
G37*
G36*
X104740800Y-105331600D02*
G01*
X104029200Y-105331600D01*
X104029200Y-103756400D01*
X104740800Y-103756400D01*
X104740800Y-105331600D01*
X104740800Y-105331600D01*
G37*
G36*
X106010800Y-105331600D02*
G01*
X105299200Y-105331600D01*
X105299200Y-103756400D01*
X106010800Y-103756400D01*
X106010800Y-105331600D01*
X106010800Y-105331600D01*
G37*
G36*
X82051000Y-104801000D02*
G01*
X77949000Y-104801000D01*
X77949000Y-102699000D01*
X82051000Y-102699000D01*
X82051000Y-104801000D01*
X82051000Y-104801000D01*
G37*
G36*
X110676000Y-104551000D02*
G01*
X109324000Y-104551000D01*
X109324000Y-103949000D01*
X110676000Y-103949000D01*
X110676000Y-104551000D01*
X110676000Y-104551000D01*
G37*
G36*
X108426000Y-104551000D02*
G01*
X107074000Y-104551000D01*
X107074000Y-103949000D01*
X108426000Y-103949000D01*
X108426000Y-104551000D01*
X108426000Y-104551000D01*
G37*
G36*
X105551000Y-103051000D02*
G01*
X101949000Y-103051000D01*
X101949000Y-100449000D01*
X105551000Y-100449000D01*
X105551000Y-103051000D01*
X105551000Y-103051000D01*
G37*
G36*
X110676000Y-102051000D02*
G01*
X109324000Y-102051000D01*
X109324000Y-101449000D01*
X110676000Y-101449000D01*
X110676000Y-102051000D01*
X110676000Y-102051000D01*
G37*
G36*
X163817021Y-96306640D02*
G01*
X164326769Y-96517785D01*
X164326771Y-96517786D01*
X164785534Y-96824321D01*
X165175679Y-97214466D01*
X165412313Y-97568615D01*
X165482215Y-97673231D01*
X165693360Y-98182979D01*
X165801000Y-98724124D01*
X165801000Y-99275876D01*
X165693360Y-99817021D01*
X165492889Y-100301000D01*
X165482214Y-100326771D01*
X165175679Y-100785534D01*
X164785534Y-101175679D01*
X164326771Y-101482214D01*
X164326770Y-101482215D01*
X164326769Y-101482215D01*
X163817021Y-101693360D01*
X163275876Y-101801000D01*
X162724124Y-101801000D01*
X162182979Y-101693360D01*
X161673231Y-101482215D01*
X161673230Y-101482215D01*
X161673229Y-101482214D01*
X161214466Y-101175679D01*
X160824321Y-100785534D01*
X160517786Y-100326771D01*
X160507111Y-100301000D01*
X160306640Y-99817021D01*
X160199000Y-99275876D01*
X160199000Y-98724124D01*
X160306640Y-98182979D01*
X160517785Y-97673231D01*
X160587687Y-97568615D01*
X160824321Y-97214466D01*
X161214466Y-96824321D01*
X161673229Y-96517786D01*
X161673231Y-96517785D01*
X162182979Y-96306640D01*
X162724124Y-96199000D01*
X163275876Y-96199000D01*
X163817021Y-96306640D01*
X163817021Y-96306640D01*
G37*
G36*
X87817021Y-96306640D02*
G01*
X88326769Y-96517785D01*
X88326771Y-96517786D01*
X88785534Y-96824321D01*
X89175679Y-97214466D01*
X89412313Y-97568615D01*
X89482215Y-97673231D01*
X89693360Y-98182979D01*
X89801000Y-98724124D01*
X89801000Y-99275876D01*
X89693360Y-99817021D01*
X89492889Y-100301000D01*
X89482214Y-100326771D01*
X89175679Y-100785534D01*
X88785534Y-101175679D01*
X88326771Y-101482214D01*
X88326770Y-101482215D01*
X88326769Y-101482215D01*
X87817021Y-101693360D01*
X87275876Y-101801000D01*
X86724124Y-101801000D01*
X86182979Y-101693360D01*
X85673231Y-101482215D01*
X85673230Y-101482215D01*
X85673229Y-101482214D01*
X85214466Y-101175679D01*
X84824321Y-100785534D01*
X84517786Y-100326771D01*
X84507111Y-100301000D01*
X84306640Y-99817021D01*
X84199000Y-99275876D01*
X84199000Y-98724124D01*
X84306640Y-98182979D01*
X84517785Y-97673231D01*
X84587687Y-97568615D01*
X84824321Y-97214466D01*
X85214466Y-96824321D01*
X85673229Y-96517786D01*
X85673231Y-96517785D01*
X86182979Y-96306640D01*
X86724124Y-96199000D01*
X87275876Y-96199000D01*
X87817021Y-96306640D01*
X87817021Y-96306640D01*
G37*
G36*
X108676000Y-101301000D02*
G01*
X107324000Y-101301000D01*
X107324000Y-100699000D01*
X108676000Y-100699000D01*
X108676000Y-101301000D01*
X108676000Y-101301000D01*
G37*
G36*
X100301000Y-101051000D02*
G01*
X94699000Y-101051000D01*
X94699000Y-98449000D01*
X100301000Y-98449000D01*
X100301000Y-101051000D01*
X100301000Y-101051000D01*
G37*
G36*
X110676000Y-100301000D02*
G01*
X109324000Y-100301000D01*
X109324000Y-99699000D01*
X110676000Y-99699000D01*
X110676000Y-100301000D01*
X110676000Y-100301000D01*
G37*
G36*
X106010800Y-99743600D02*
G01*
X105299200Y-99743600D01*
X105299200Y-98168400D01*
X106010800Y-98168400D01*
X106010800Y-99743600D01*
X106010800Y-99743600D01*
G37*
G36*
X104740800Y-99743600D02*
G01*
X104029200Y-99743600D01*
X104029200Y-98168400D01*
X104740800Y-98168400D01*
X104740800Y-99743600D01*
X104740800Y-99743600D01*
G37*
G36*
X103470800Y-99743600D02*
G01*
X102759200Y-99743600D01*
X102759200Y-98168400D01*
X103470800Y-98168400D01*
X103470800Y-99743600D01*
X103470800Y-99743600D01*
G37*
G36*
X102200800Y-99743600D02*
G01*
X101489200Y-99743600D01*
X101489200Y-98168400D01*
X102200800Y-98168400D01*
X102200800Y-99743600D01*
X102200800Y-99743600D01*
G37*
G36*
X108676000Y-99551000D02*
G01*
X107324000Y-99551000D01*
X107324000Y-98949000D01*
X108676000Y-98949000D01*
X108676000Y-99551000D01*
X108676000Y-99551000D01*
G37*
G36*
X147806564Y-97489389D02*
G01*
X147997833Y-97568615D01*
X147997835Y-97568616D01*
X148154399Y-97673229D01*
X148169973Y-97683635D01*
X148316365Y-97830027D01*
X148431385Y-98002167D01*
X148510611Y-98193436D01*
X148551000Y-98396484D01*
X148551000Y-98603516D01*
X148510611Y-98806564D01*
X148451612Y-98949000D01*
X148431384Y-98997835D01*
X148316365Y-99169973D01*
X148169973Y-99316365D01*
X147997835Y-99431384D01*
X147997834Y-99431385D01*
X147997833Y-99431385D01*
X147806564Y-99510611D01*
X147603516Y-99551000D01*
X147396484Y-99551000D01*
X147193436Y-99510611D01*
X147002167Y-99431385D01*
X147002166Y-99431385D01*
X147002165Y-99431384D01*
X146830027Y-99316365D01*
X146683635Y-99169973D01*
X146568616Y-98997835D01*
X146548388Y-98949000D01*
X146489389Y-98806564D01*
X146449000Y-98603516D01*
X146449000Y-98396484D01*
X146489389Y-98193436D01*
X146568615Y-98002167D01*
X146683635Y-97830027D01*
X146830027Y-97683635D01*
X146845601Y-97673229D01*
X147002165Y-97568616D01*
X147002167Y-97568615D01*
X147193436Y-97489389D01*
X147396484Y-97449000D01*
X147603516Y-97449000D01*
X147806564Y-97489389D01*
X147806564Y-97489389D01*
G37*
G36*
X108551000Y-96926000D02*
G01*
X107949000Y-96926000D01*
X107949000Y-95574000D01*
X108551000Y-95574000D01*
X108551000Y-96926000D01*
X108551000Y-96926000D01*
G37*
G36*
X106801000Y-96926000D02*
G01*
X106199000Y-96926000D01*
X106199000Y-95574000D01*
X106801000Y-95574000D01*
X106801000Y-96926000D01*
X106801000Y-96926000D01*
G37*
G36*
X105301000Y-96926000D02*
G01*
X104699000Y-96926000D01*
X104699000Y-95574000D01*
X105301000Y-95574000D01*
X105301000Y-96926000D01*
X105301000Y-96926000D01*
G37*
G36*
X103551000Y-96926000D02*
G01*
X102949000Y-96926000D01*
X102949000Y-95574000D01*
X103551000Y-95574000D01*
X103551000Y-96926000D01*
X103551000Y-96926000D01*
G37*
G36*
X143301000Y-96551000D02*
G01*
X140699000Y-96551000D01*
X140699000Y-94449000D01*
X143301000Y-94449000D01*
X143301000Y-96551000D01*
X143301000Y-96551000D01*
G37*
G36*
X134551000Y-95426000D02*
G01*
X133949000Y-95426000D01*
X133949000Y-94074000D01*
X134551000Y-94074000D01*
X134551000Y-95426000D01*
X134551000Y-95426000D01*
G37*
G36*
X99051000Y-95426000D02*
G01*
X98449000Y-95426000D01*
X98449000Y-94074000D01*
X99051000Y-94074000D01*
X99051000Y-95426000D01*
X99051000Y-95426000D01*
G37*
G36*
X100801000Y-95426000D02*
G01*
X100199000Y-95426000D01*
X100199000Y-94074000D01*
X100801000Y-94074000D01*
X100801000Y-95426000D01*
X100801000Y-95426000D01*
G37*
G36*
X136301000Y-95426000D02*
G01*
X135699000Y-95426000D01*
X135699000Y-94074000D01*
X136301000Y-94074000D01*
X136301000Y-95426000D01*
X136301000Y-95426000D01*
G37*
G36*
X90151000Y-95271000D02*
G01*
X88349000Y-95271000D01*
X88349000Y-93469000D01*
X90151000Y-93469000D01*
X90151000Y-95271000D01*
X90151000Y-95271000D01*
G37*
G36*
X95875256Y-90891298D02*
G01*
X95981579Y-90912447D01*
X96282042Y-91036903D01*
X96552451Y-91217585D01*
X96782415Y-91447549D01*
X96963097Y-91717958D01*
X96963098Y-91717960D01*
X97087553Y-92018422D01*
X97143762Y-92301000D01*
X97151000Y-92337391D01*
X97151000Y-92662609D01*
X97087553Y-92981579D01*
X96963097Y-93282042D01*
X96782415Y-93552451D01*
X96552451Y-93782415D01*
X96282042Y-93963097D01*
X95981579Y-94087553D01*
X95875256Y-94108702D01*
X95662611Y-94151000D01*
X95337389Y-94151000D01*
X95124744Y-94108702D01*
X95018421Y-94087553D01*
X94717958Y-93963097D01*
X94447549Y-93782415D01*
X94217585Y-93552451D01*
X94036903Y-93282042D01*
X93912447Y-92981579D01*
X93849000Y-92662609D01*
X93849000Y-92337391D01*
X93856239Y-92301000D01*
X93912447Y-92018422D01*
X94036902Y-91717960D01*
X94036903Y-91717958D01*
X94217585Y-91447549D01*
X94447549Y-91217585D01*
X94717958Y-91036903D01*
X95018421Y-90912447D01*
X95124744Y-90891298D01*
X95337389Y-90849000D01*
X95662611Y-90849000D01*
X95875256Y-90891298D01*
X95875256Y-90891298D01*
G37*
G36*
X90151000Y-92731000D02*
G01*
X88349000Y-92731000D01*
X88349000Y-90929000D01*
X90151000Y-90929000D01*
X90151000Y-92731000D01*
X90151000Y-92731000D01*
G37*
G36*
X86201000Y-92301000D02*
G01*
X85299000Y-92301000D01*
X85299000Y-91199000D01*
X86201000Y-91199000D01*
X86201000Y-92301000D01*
X86201000Y-92301000D01*
G37*
G36*
X134451000Y-92301000D02*
G01*
X133549000Y-92301000D01*
X133549000Y-91199000D01*
X134451000Y-91199000D01*
X134451000Y-92301000D01*
X134451000Y-92301000D01*
G37*
G36*
X136451000Y-92301000D02*
G01*
X135549000Y-92301000D01*
X135549000Y-91199000D01*
X136451000Y-91199000D01*
X136451000Y-92301000D01*
X136451000Y-92301000D01*
G37*
G36*
X131676000Y-92051000D02*
G01*
X130324000Y-92051000D01*
X130324000Y-91449000D01*
X131676000Y-91449000D01*
X131676000Y-92051000D01*
X131676000Y-92051000D01*
G37*
G36*
X143301000Y-91301000D02*
G01*
X140699000Y-91301000D01*
X140699000Y-89199000D01*
X143301000Y-89199000D01*
X143301000Y-91301000D01*
X143301000Y-91301000D01*
G37*
G36*
X171551000Y-91051000D02*
G01*
X169449000Y-91051000D01*
X169449000Y-88949000D01*
X171551000Y-88949000D01*
X171551000Y-91051000D01*
X171551000Y-91051000D01*
G37*
G36*
X131676000Y-90301000D02*
G01*
X130324000Y-90301000D01*
X130324000Y-89699000D01*
X131676000Y-89699000D01*
X131676000Y-90301000D01*
X131676000Y-90301000D01*
G37*
G36*
X90151000Y-90191000D02*
G01*
X88349000Y-90191000D01*
X88349000Y-88389000D01*
X90151000Y-88389000D01*
X90151000Y-90191000D01*
X90151000Y-90191000D01*
G37*
G36*
X85201000Y-89801000D02*
G01*
X84299000Y-89801000D01*
X84299000Y-88699000D01*
X85201000Y-88699000D01*
X85201000Y-89801000D01*
X85201000Y-89801000D01*
G37*
G36*
X87201000Y-89801000D02*
G01*
X86299000Y-89801000D01*
X86299000Y-88699000D01*
X87201000Y-88699000D01*
X87201000Y-89801000D01*
X87201000Y-89801000D01*
G37*
G36*
X135451000Y-89801000D02*
G01*
X134549000Y-89801000D01*
X134549000Y-88699000D01*
X135451000Y-88699000D01*
X135451000Y-89801000D01*
X135451000Y-89801000D01*
G37*
G36*
X148551000Y-88551000D02*
G01*
X146449000Y-88551000D01*
X146449000Y-86449000D01*
X148551000Y-86449000D01*
X148551000Y-88551000D01*
X148551000Y-88551000D01*
G37*
G36*
X93551000Y-87926000D02*
G01*
X92949000Y-87926000D01*
X92949000Y-86574000D01*
X93551000Y-86574000D01*
X93551000Y-87926000D01*
X93551000Y-87926000D01*
G37*
G36*
X95301000Y-87926000D02*
G01*
X94699000Y-87926000D01*
X94699000Y-86574000D01*
X95301000Y-86574000D01*
X95301000Y-87926000D01*
X95301000Y-87926000D01*
G37*
G36*
X89363512Y-85853927D02*
G01*
X89512812Y-85883624D01*
X89676784Y-85951544D01*
X89824354Y-86050147D01*
X89949853Y-86175646D01*
X90048456Y-86323216D01*
X90116376Y-86487188D01*
X90151000Y-86661259D01*
X90151000Y-86838741D01*
X90116376Y-87012812D01*
X90048456Y-87176784D01*
X89949853Y-87324354D01*
X89824354Y-87449853D01*
X89676784Y-87548456D01*
X89512812Y-87616376D01*
X89363512Y-87646073D01*
X89338742Y-87651000D01*
X89161258Y-87651000D01*
X89136488Y-87646073D01*
X88987188Y-87616376D01*
X88823216Y-87548456D01*
X88675646Y-87449853D01*
X88550147Y-87324354D01*
X88451544Y-87176784D01*
X88383624Y-87012812D01*
X88349000Y-86838741D01*
X88349000Y-86661259D01*
X88383624Y-86487188D01*
X88451544Y-86323216D01*
X88550147Y-86175646D01*
X88675646Y-86050147D01*
X88823216Y-85951544D01*
X88987188Y-85883624D01*
X89136488Y-85853927D01*
X89161258Y-85849000D01*
X89338742Y-85849000D01*
X89363512Y-85853927D01*
X89363512Y-85853927D01*
G37*
G36*
X162301000Y-87051000D02*
G01*
X160699000Y-87051000D01*
X160699000Y-82949000D01*
X162301000Y-82949000D01*
X162301000Y-87051000D01*
X162301000Y-87051000D01*
G37*
G36*
X166801000Y-87051000D02*
G01*
X165199000Y-87051000D01*
X165199000Y-82949000D01*
X166801000Y-82949000D01*
X166801000Y-87051000D01*
X166801000Y-87051000D01*
G37*
G36*
X170806564Y-83989389D02*
G01*
X170997833Y-84068615D01*
X170997835Y-84068616D01*
X171169973Y-84183635D01*
X171316365Y-84330027D01*
X171431385Y-84502167D01*
X171510611Y-84693436D01*
X171551000Y-84896484D01*
X171551000Y-85103516D01*
X171510611Y-85306564D01*
X171431385Y-85497833D01*
X171431384Y-85497835D01*
X171316365Y-85669973D01*
X171169973Y-85816365D01*
X170997835Y-85931384D01*
X170997834Y-85931385D01*
X170997833Y-85931385D01*
X170806564Y-86010611D01*
X170603516Y-86051000D01*
X170396484Y-86051000D01*
X170193436Y-86010611D01*
X170002167Y-85931385D01*
X170002166Y-85931385D01*
X170002165Y-85931384D01*
X169830027Y-85816365D01*
X169683635Y-85669973D01*
X169568616Y-85497835D01*
X169568615Y-85497833D01*
X169489389Y-85306564D01*
X169449000Y-85103516D01*
X169449000Y-84896484D01*
X169489389Y-84693436D01*
X169568615Y-84502167D01*
X169683635Y-84330027D01*
X169830027Y-84183635D01*
X170002165Y-84068616D01*
X170002167Y-84068615D01*
X170193436Y-83989389D01*
X170396484Y-83949000D01*
X170603516Y-83949000D01*
X170806564Y-83989389D01*
X170806564Y-83989389D01*
G37*
G36*
X93551000Y-85176000D02*
G01*
X92949000Y-85176000D01*
X92949000Y-83824000D01*
X93551000Y-83824000D01*
X93551000Y-85176000D01*
X93551000Y-85176000D01*
G37*
G36*
X89301000Y-85176000D02*
G01*
X88699000Y-85176000D01*
X88699000Y-83824000D01*
X89301000Y-83824000D01*
X89301000Y-85176000D01*
X89301000Y-85176000D01*
G37*
G36*
X91051000Y-85176000D02*
G01*
X90449000Y-85176000D01*
X90449000Y-83824000D01*
X91051000Y-83824000D01*
X91051000Y-85176000D01*
X91051000Y-85176000D01*
G37*
G36*
X95301000Y-85176000D02*
G01*
X94699000Y-85176000D01*
X94699000Y-83824000D01*
X95301000Y-83824000D01*
X95301000Y-85176000D01*
X95301000Y-85176000D01*
G37*
G36*
X87051000Y-85176000D02*
G01*
X86449000Y-85176000D01*
X86449000Y-83824000D01*
X87051000Y-83824000D01*
X87051000Y-85176000D01*
X87051000Y-85176000D01*
G37*
G36*
X85301000Y-85176000D02*
G01*
X84699000Y-85176000D01*
X84699000Y-83824000D01*
X85301000Y-83824000D01*
X85301000Y-85176000D01*
X85301000Y-85176000D01*
G37*
G36*
X154551000Y-84051000D02*
G01*
X152949000Y-84051000D01*
X152949000Y-80949000D01*
X154551000Y-80949000D01*
X154551000Y-84051000D01*
X154551000Y-84051000D01*
G37*
G36*
X158051000Y-84051000D02*
G01*
X156449000Y-84051000D01*
X156449000Y-80949000D01*
X158051000Y-80949000D01*
X158051000Y-84051000D01*
X158051000Y-84051000D01*
G37*
G36*
X171551000Y-81051000D02*
G01*
X169449000Y-81051000D01*
X169449000Y-78949000D01*
X171551000Y-78949000D01*
X171551000Y-81051000D01*
X171551000Y-81051000D01*
G37*
G36*
X157801000Y-79301000D02*
G01*
X156699000Y-79301000D01*
X156699000Y-77199000D01*
X157801000Y-77199000D01*
X157801000Y-79301000D01*
X157801000Y-79301000D01*
G37*
G36*
X154301000Y-79301000D02*
G01*
X153199000Y-79301000D01*
X153199000Y-77199000D01*
X154301000Y-77199000D01*
X154301000Y-79301000D01*
X154301000Y-79301000D01*
G37*
G36*
X85348212Y-76706249D02*
G01*
X85442651Y-76734897D01*
X85529687Y-76781418D01*
X85605975Y-76844025D01*
X85668582Y-76920313D01*
X85715103Y-77007348D01*
X85743751Y-77101787D01*
X85751000Y-77175388D01*
X85751000Y-78324612D01*
X85743751Y-78398213D01*
X85715103Y-78492652D01*
X85668582Y-78579687D01*
X85605975Y-78655975D01*
X85529687Y-78718582D01*
X85442652Y-78765103D01*
X85348213Y-78793751D01*
X85250000Y-78803424D01*
X85151788Y-78793751D01*
X85057349Y-78765103D01*
X84970314Y-78718582D01*
X84894026Y-78655975D01*
X84831419Y-78579687D01*
X84784898Y-78492652D01*
X84756250Y-78398213D01*
X84749001Y-78324612D01*
X84749000Y-77175389D01*
X84756249Y-77101788D01*
X84784897Y-77007349D01*
X84831418Y-76920313D01*
X84894025Y-76844025D01*
X84970313Y-76781418D01*
X85057348Y-76734897D01*
X85151787Y-76706249D01*
X85250000Y-76696576D01*
X85348212Y-76706249D01*
X85348212Y-76706249D01*
G37*
G36*
X102261000Y-78801000D02*
G01*
X101259000Y-78801000D01*
X101259000Y-76699000D01*
X102261000Y-76699000D01*
X102261000Y-78801000D01*
X102261000Y-78801000D01*
G37*
G36*
X100991000Y-78801000D02*
G01*
X99989000Y-78801000D01*
X99989000Y-76699000D01*
X100991000Y-76699000D01*
X100991000Y-78801000D01*
X100991000Y-78801000D01*
G37*
G36*
X94641000Y-78801000D02*
G01*
X93639000Y-78801000D01*
X93639000Y-76699000D01*
X94641000Y-76699000D01*
X94641000Y-78801000D01*
X94641000Y-78801000D01*
G37*
G36*
X93371000Y-78801000D02*
G01*
X92369000Y-78801000D01*
X92369000Y-76699000D01*
X93371000Y-76699000D01*
X93371000Y-78801000D01*
X93371000Y-78801000D01*
G37*
G36*
X95911000Y-78801000D02*
G01*
X94909000Y-78801000D01*
X94909000Y-76699000D01*
X95911000Y-76699000D01*
X95911000Y-78801000D01*
X95911000Y-78801000D01*
G37*
G36*
X88291000Y-78801000D02*
G01*
X87289000Y-78801000D01*
X87289000Y-76699000D01*
X88291000Y-76699000D01*
X88291000Y-78801000D01*
X88291000Y-78801000D01*
G37*
G36*
X89561000Y-78801000D02*
G01*
X88559000Y-78801000D01*
X88559000Y-76699000D01*
X89561000Y-76699000D01*
X89561000Y-78801000D01*
X89561000Y-78801000D01*
G37*
G36*
X90831000Y-78801000D02*
G01*
X89829000Y-78801000D01*
X89829000Y-76699000D01*
X90831000Y-76699000D01*
X90831000Y-78801000D01*
X90831000Y-78801000D01*
G37*
G36*
X92101000Y-78801000D02*
G01*
X91099000Y-78801000D01*
X91099000Y-76699000D01*
X92101000Y-76699000D01*
X92101000Y-78801000D01*
X92101000Y-78801000D01*
G37*
G36*
X97181000Y-78801000D02*
G01*
X96179000Y-78801000D01*
X96179000Y-76699000D01*
X97181000Y-76699000D01*
X97181000Y-78801000D01*
X97181000Y-78801000D01*
G37*
G36*
X98451000Y-78801000D02*
G01*
X97449000Y-78801000D01*
X97449000Y-76699000D01*
X98451000Y-76699000D01*
X98451000Y-78801000D01*
X98451000Y-78801000D01*
G37*
G36*
X99721000Y-78801000D02*
G01*
X98719000Y-78801000D01*
X98719000Y-76699000D01*
X99721000Y-76699000D01*
X99721000Y-78801000D01*
X99721000Y-78801000D01*
G37*
G36*
X103531000Y-78801000D02*
G01*
X102529000Y-78801000D01*
X102529000Y-76699000D01*
X103531000Y-76699000D01*
X103531000Y-78801000D01*
X103531000Y-78801000D01*
G37*
G36*
X104801000Y-78801000D02*
G01*
X103799000Y-78801000D01*
X103799000Y-76699000D01*
X104801000Y-76699000D01*
X104801000Y-78801000D01*
X104801000Y-78801000D01*
G37*
G36*
X106071000Y-78801000D02*
G01*
X105069000Y-78801000D01*
X105069000Y-76699000D01*
X106071000Y-76699000D01*
X106071000Y-78801000D01*
X106071000Y-78801000D01*
G37*
G36*
X107341000Y-78801000D02*
G01*
X106339000Y-78801000D01*
X106339000Y-76699000D01*
X107341000Y-76699000D01*
X107341000Y-78801000D01*
X107341000Y-78801000D01*
G37*
G36*
X108611000Y-78801000D02*
G01*
X107609000Y-78801000D01*
X107609000Y-76699000D01*
X108611000Y-76699000D01*
X108611000Y-78801000D01*
X108611000Y-78801000D01*
G37*
G36*
X87021000Y-78801000D02*
G01*
X86019000Y-78801000D01*
X86019000Y-76699000D01*
X87021000Y-76699000D01*
X87021000Y-78801000D01*
X87021000Y-78801000D01*
G37*
G36*
X166801000Y-77051000D02*
G01*
X165199000Y-77051000D01*
X165199000Y-72949000D01*
X166801000Y-72949000D01*
X166801000Y-77051000D01*
X166801000Y-77051000D01*
G37*
G36*
X162301000Y-77051000D02*
G01*
X160699000Y-77051000D01*
X160699000Y-72949000D01*
X162301000Y-72949000D01*
X162301000Y-77051000D01*
X162301000Y-77051000D01*
G37*
G36*
X170806564Y-73989389D02*
G01*
X170997833Y-74068615D01*
X170997835Y-74068616D01*
X171169973Y-74183635D01*
X171316365Y-74330027D01*
X171431385Y-74502167D01*
X171510611Y-74693436D01*
X171551000Y-74896484D01*
X171551000Y-75103516D01*
X171510611Y-75306564D01*
X171431385Y-75497833D01*
X171431384Y-75497835D01*
X171316365Y-75669973D01*
X171169973Y-75816365D01*
X170997835Y-75931384D01*
X170997834Y-75931385D01*
X170997833Y-75931385D01*
X170806564Y-76010611D01*
X170603516Y-76051000D01*
X170396484Y-76051000D01*
X170193436Y-76010611D01*
X170002167Y-75931385D01*
X170002166Y-75931385D01*
X170002165Y-75931384D01*
X169830027Y-75816365D01*
X169683635Y-75669973D01*
X169568616Y-75497835D01*
X169568615Y-75497833D01*
X169489389Y-75306564D01*
X169449000Y-75103516D01*
X169449000Y-74896484D01*
X169489389Y-74693436D01*
X169568615Y-74502167D01*
X169683635Y-74330027D01*
X169830027Y-74183635D01*
X170002165Y-74068616D01*
X170002167Y-74068615D01*
X170193436Y-73989389D01*
X170396484Y-73949000D01*
X170603516Y-73949000D01*
X170806564Y-73989389D01*
X170806564Y-73989389D01*
G37*
G36*
X103801000Y-75501000D02*
G01*
X101699000Y-75501000D01*
X101699000Y-74499000D01*
X103801000Y-74499000D01*
X103801000Y-75501000D01*
X103801000Y-75501000D01*
G37*
G36*
X103801000Y-74231000D02*
G01*
X101699000Y-74231000D01*
X101699000Y-73229000D01*
X103801000Y-73229000D01*
X103801000Y-74231000D01*
X103801000Y-74231000D01*
G37*
G36*
X151926000Y-73801000D02*
G01*
X150574000Y-73801000D01*
X150574000Y-73199000D01*
X151926000Y-73199000D01*
X151926000Y-73801000D01*
X151926000Y-73801000D01*
G37*
G36*
X143176000Y-73801000D02*
G01*
X141824000Y-73801000D01*
X141824000Y-73199000D01*
X143176000Y-73199000D01*
X143176000Y-73801000D01*
X143176000Y-73801000D01*
G37*
G36*
X154801000Y-73676000D02*
G01*
X154199000Y-73676000D01*
X154199000Y-72324000D01*
X154801000Y-72324000D01*
X154801000Y-73676000D01*
X154801000Y-73676000D01*
G37*
G36*
X156551000Y-73676000D02*
G01*
X155949000Y-73676000D01*
X155949000Y-72324000D01*
X156551000Y-72324000D01*
X156551000Y-73676000D01*
X156551000Y-73676000D01*
G37*
G36*
X146051000Y-73676000D02*
G01*
X145449000Y-73676000D01*
X145449000Y-72324000D01*
X146051000Y-72324000D01*
X146051000Y-73676000D01*
X146051000Y-73676000D01*
G37*
G36*
X147801000Y-73676000D02*
G01*
X147199000Y-73676000D01*
X147199000Y-72324000D01*
X147801000Y-72324000D01*
X147801000Y-73676000D01*
X147801000Y-73676000D01*
G37*
G36*
X103801000Y-72961000D02*
G01*
X101699000Y-72961000D01*
X101699000Y-71959000D01*
X103801000Y-71959000D01*
X103801000Y-72961000D01*
X103801000Y-72961000D01*
G37*
G36*
X91726000Y-72726000D02*
G01*
X90274000Y-72726000D01*
X90274000Y-71274000D01*
X91726000Y-71274000D01*
X91726000Y-72726000D01*
X91726000Y-72726000D01*
G37*
G36*
X95226000Y-72726000D02*
G01*
X93774000Y-72726000D01*
X93774000Y-71274000D01*
X95226000Y-71274000D01*
X95226000Y-72726000D01*
X95226000Y-72726000D01*
G37*
G36*
X93476000Y-72726000D02*
G01*
X92024000Y-72726000D01*
X92024000Y-71274000D01*
X93476000Y-71274000D01*
X93476000Y-72726000D01*
X93476000Y-72726000D01*
G37*
G36*
X143176000Y-72051000D02*
G01*
X141824000Y-72051000D01*
X141824000Y-71449000D01*
X143176000Y-71449000D01*
X143176000Y-72051000D01*
X143176000Y-72051000D01*
G37*
G36*
X151926000Y-72051000D02*
G01*
X150574000Y-72051000D01*
X150574000Y-71449000D01*
X151926000Y-71449000D01*
X151926000Y-72051000D01*
X151926000Y-72051000D01*
G37*
G36*
X103801000Y-71691000D02*
G01*
X101699000Y-71691000D01*
X101699000Y-70689000D01*
X103801000Y-70689000D01*
X103801000Y-71691000D01*
X103801000Y-71691000D01*
G37*
G36*
X95226000Y-70976000D02*
G01*
X93774000Y-70976000D01*
X93774000Y-69524000D01*
X95226000Y-69524000D01*
X95226000Y-70976000D01*
X95226000Y-70976000D01*
G37*
G36*
X93476000Y-70976000D02*
G01*
X92024000Y-70976000D01*
X92024000Y-69524000D01*
X93476000Y-69524000D01*
X93476000Y-70976000D01*
X93476000Y-70976000D01*
G37*
G36*
X91726000Y-70976000D02*
G01*
X90274000Y-70976000D01*
X90274000Y-69524000D01*
X91726000Y-69524000D01*
X91726000Y-70976000D01*
X91726000Y-70976000D01*
G37*
G36*
X168901000Y-70651000D02*
G01*
X167099000Y-70651000D01*
X167099000Y-68849000D01*
X168901000Y-68849000D01*
X168901000Y-70651000D01*
X168901000Y-70651000D01*
G37*
G36*
X166401000Y-70651000D02*
G01*
X164599000Y-70651000D01*
X164599000Y-68849000D01*
X166401000Y-68849000D01*
X166401000Y-70651000D01*
X166401000Y-70651000D01*
G37*
G36*
X171401000Y-70651000D02*
G01*
X169599000Y-70651000D01*
X169599000Y-68849000D01*
X171401000Y-68849000D01*
X171401000Y-70651000D01*
X171401000Y-70651000D01*
G37*
G36*
X156701000Y-70551000D02*
G01*
X155799000Y-70551000D01*
X155799000Y-69449000D01*
X156701000Y-69449000D01*
X156701000Y-70551000D01*
X156701000Y-70551000D01*
G37*
G36*
X154701000Y-70551000D02*
G01*
X153799000Y-70551000D01*
X153799000Y-69449000D01*
X154701000Y-69449000D01*
X154701000Y-70551000D01*
X154701000Y-70551000D01*
G37*
G36*
X147951000Y-70551000D02*
G01*
X147049000Y-70551000D01*
X147049000Y-69449000D01*
X147951000Y-69449000D01*
X147951000Y-70551000D01*
X147951000Y-70551000D01*
G37*
G36*
X145951000Y-70551000D02*
G01*
X145049000Y-70551000D01*
X145049000Y-69449000D01*
X145951000Y-69449000D01*
X145951000Y-70551000D01*
X145951000Y-70551000D01*
G37*
G36*
X103801000Y-70421000D02*
G01*
X101699000Y-70421000D01*
X101699000Y-69419000D01*
X103801000Y-69419000D01*
X103801000Y-70421000D01*
X103801000Y-70421000D01*
G37*
G36*
X151926000Y-69551000D02*
G01*
X150574000Y-69551000D01*
X150574000Y-68949000D01*
X151926000Y-68949000D01*
X151926000Y-69551000D01*
X151926000Y-69551000D01*
G37*
G36*
X95226000Y-69226000D02*
G01*
X93774000Y-69226000D01*
X93774000Y-67774000D01*
X95226000Y-67774000D01*
X95226000Y-69226000D01*
X95226000Y-69226000D01*
G37*
G36*
X91726000Y-69226000D02*
G01*
X90274000Y-69226000D01*
X90274000Y-67774000D01*
X91726000Y-67774000D01*
X91726000Y-69226000D01*
X91726000Y-69226000D01*
G37*
G36*
X93476000Y-69226000D02*
G01*
X92024000Y-69226000D01*
X92024000Y-67774000D01*
X93476000Y-67774000D01*
X93476000Y-69226000D01*
X93476000Y-69226000D01*
G37*
G36*
X103801000Y-69151000D02*
G01*
X101699000Y-69151000D01*
X101699000Y-68149000D01*
X103801000Y-68149000D01*
X103801000Y-69151000D01*
X103801000Y-69151000D01*
G37*
G36*
X155701000Y-68051000D02*
G01*
X154799000Y-68051000D01*
X154799000Y-66949000D01*
X155701000Y-66949000D01*
X155701000Y-68051000D01*
X155701000Y-68051000D01*
G37*
G36*
X146951000Y-68051000D02*
G01*
X146049000Y-68051000D01*
X146049000Y-66949000D01*
X146951000Y-66949000D01*
X146951000Y-68051000D01*
X146951000Y-68051000D01*
G37*
G36*
X103801000Y-67881000D02*
G01*
X101699000Y-67881000D01*
X101699000Y-66879000D01*
X103801000Y-66879000D01*
X103801000Y-67881000D01*
X103801000Y-67881000D01*
G37*
G36*
X151926000Y-67801000D02*
G01*
X150574000Y-67801000D01*
X150574000Y-67199000D01*
X151926000Y-67199000D01*
X151926000Y-67801000D01*
X151926000Y-67801000D01*
G37*
G36*
X135151000Y-67101000D02*
G01*
X133349000Y-67101000D01*
X133349000Y-66199000D01*
X135151000Y-66199000D01*
X135151000Y-67101000D01*
X135151000Y-67101000D01*
G37*
G36*
X141926000Y-66801000D02*
G01*
X140574000Y-66801000D01*
X140574000Y-66199000D01*
X141926000Y-66199000D01*
X141926000Y-66801000D01*
X141926000Y-66801000D01*
G37*
G36*
X131926000Y-66801000D02*
G01*
X130574000Y-66801000D01*
X130574000Y-66199000D01*
X131926000Y-66199000D01*
X131926000Y-66801000D01*
X131926000Y-66801000D01*
G37*
G36*
X139426000Y-66801000D02*
G01*
X138074000Y-66801000D01*
X138074000Y-66199000D01*
X139426000Y-66199000D01*
X139426000Y-66801000D01*
X139426000Y-66801000D01*
G37*
G36*
X144426000Y-66801000D02*
G01*
X143074000Y-66801000D01*
X143074000Y-66199000D01*
X144426000Y-66199000D01*
X144426000Y-66801000D01*
X144426000Y-66801000D01*
G37*
G36*
X103801000Y-66611000D02*
G01*
X101699000Y-66611000D01*
X101699000Y-65609000D01*
X103801000Y-65609000D01*
X103801000Y-66611000D01*
X103801000Y-66611000D01*
G37*
G36*
X103801000Y-65341000D02*
G01*
X101699000Y-65341000D01*
X101699000Y-64339000D01*
X103801000Y-64339000D01*
X103801000Y-65341000D01*
X103801000Y-65341000D01*
G37*
G36*
X131926000Y-65051000D02*
G01*
X130574000Y-65051000D01*
X130574000Y-64449000D01*
X131926000Y-64449000D01*
X131926000Y-65051000D01*
X131926000Y-65051000D01*
G37*
G36*
X144426000Y-65051000D02*
G01*
X143074000Y-65051000D01*
X143074000Y-64449000D01*
X144426000Y-64449000D01*
X144426000Y-65051000D01*
X144426000Y-65051000D01*
G37*
G36*
X141926000Y-65051000D02*
G01*
X140574000Y-65051000D01*
X140574000Y-64449000D01*
X141926000Y-64449000D01*
X141926000Y-65051000D01*
X141926000Y-65051000D01*
G37*
G36*
X139426000Y-65051000D02*
G01*
X138074000Y-65051000D01*
X138074000Y-64449000D01*
X139426000Y-64449000D01*
X139426000Y-65051000D01*
X139426000Y-65051000D01*
G37*
G36*
X133851000Y-64801000D02*
G01*
X133349000Y-64801000D01*
X133349000Y-63899000D01*
X133851000Y-63899000D01*
X133851000Y-64801000D01*
X133851000Y-64801000D01*
G37*
G36*
X135151000Y-64801000D02*
G01*
X134649000Y-64801000D01*
X134649000Y-63899000D01*
X135151000Y-63899000D01*
X135151000Y-64801000D01*
X135151000Y-64801000D01*
G37*
G36*
X103801000Y-64071000D02*
G01*
X101699000Y-64071000D01*
X101699000Y-63069000D01*
X103801000Y-63069000D01*
X103801000Y-64071000D01*
X103801000Y-64071000D01*
G37*
G36*
X168901000Y-63151000D02*
G01*
X167099000Y-63151000D01*
X167099000Y-61349000D01*
X168901000Y-61349000D01*
X168901000Y-63151000D01*
X168901000Y-63151000D01*
G37*
G36*
X165613512Y-61353927D02*
G01*
X165762812Y-61383624D01*
X165926784Y-61451544D01*
X166074354Y-61550147D01*
X166199853Y-61675646D01*
X166298456Y-61823216D01*
X166366376Y-61987188D01*
X166401000Y-62161259D01*
X166401000Y-62338741D01*
X166366376Y-62512812D01*
X166298456Y-62676784D01*
X166199853Y-62824354D01*
X166074354Y-62949853D01*
X165926784Y-63048456D01*
X165762812Y-63116376D01*
X165613512Y-63146073D01*
X165588742Y-63151000D01*
X165411258Y-63151000D01*
X165386488Y-63146073D01*
X165237188Y-63116376D01*
X165073216Y-63048456D01*
X164925646Y-62949853D01*
X164800147Y-62824354D01*
X164701544Y-62676784D01*
X164633624Y-62512812D01*
X164599000Y-62338741D01*
X164599000Y-62161259D01*
X164633624Y-61987188D01*
X164701544Y-61823216D01*
X164800147Y-61675646D01*
X164925646Y-61550147D01*
X165073216Y-61451544D01*
X165237188Y-61383624D01*
X165386488Y-61353927D01*
X165411258Y-61349000D01*
X165588742Y-61349000D01*
X165613512Y-61353927D01*
X165613512Y-61353927D01*
G37*
G36*
X171401000Y-63151000D02*
G01*
X169599000Y-63151000D01*
X169599000Y-61349000D01*
X171401000Y-61349000D01*
X171401000Y-63151000D01*
X171401000Y-63151000D01*
G37*
G36*
X87021000Y-61801000D02*
G01*
X86019000Y-61801000D01*
X86019000Y-59699000D01*
X87021000Y-59699000D01*
X87021000Y-61801000D01*
X87021000Y-61801000D01*
G37*
G36*
X85751000Y-61801000D02*
G01*
X84749000Y-61801000D01*
X84749000Y-59699000D01*
X85751000Y-59699000D01*
X85751000Y-61801000D01*
X85751000Y-61801000D01*
G37*
G36*
X88291000Y-61801000D02*
G01*
X87289000Y-61801000D01*
X87289000Y-59699000D01*
X88291000Y-59699000D01*
X88291000Y-61801000D01*
X88291000Y-61801000D01*
G37*
G36*
X89561000Y-61801000D02*
G01*
X88559000Y-61801000D01*
X88559000Y-59699000D01*
X89561000Y-59699000D01*
X89561000Y-61801000D01*
X89561000Y-61801000D01*
G37*
G36*
X90831000Y-61801000D02*
G01*
X89829000Y-61801000D01*
X89829000Y-59699000D01*
X90831000Y-59699000D01*
X90831000Y-61801000D01*
X90831000Y-61801000D01*
G37*
G36*
X107341000Y-61801000D02*
G01*
X106339000Y-61801000D01*
X106339000Y-59699000D01*
X107341000Y-59699000D01*
X107341000Y-61801000D01*
X107341000Y-61801000D01*
G37*
G36*
X95911000Y-61801000D02*
G01*
X94909000Y-61801000D01*
X94909000Y-59699000D01*
X95911000Y-59699000D01*
X95911000Y-61801000D01*
X95911000Y-61801000D01*
G37*
G36*
X108611000Y-61801000D02*
G01*
X107609000Y-61801000D01*
X107609000Y-59699000D01*
X108611000Y-59699000D01*
X108611000Y-61801000D01*
X108611000Y-61801000D01*
G37*
G36*
X106071000Y-61801000D02*
G01*
X105069000Y-61801000D01*
X105069000Y-59699000D01*
X106071000Y-59699000D01*
X106071000Y-61801000D01*
X106071000Y-61801000D01*
G37*
G36*
X104801000Y-61801000D02*
G01*
X103799000Y-61801000D01*
X103799000Y-59699000D01*
X104801000Y-59699000D01*
X104801000Y-61801000D01*
X104801000Y-61801000D01*
G37*
G36*
X103531000Y-61801000D02*
G01*
X102529000Y-61801000D01*
X102529000Y-59699000D01*
X103531000Y-59699000D01*
X103531000Y-61801000D01*
X103531000Y-61801000D01*
G37*
G36*
X102261000Y-61801000D02*
G01*
X101259000Y-61801000D01*
X101259000Y-59699000D01*
X102261000Y-59699000D01*
X102261000Y-61801000D01*
X102261000Y-61801000D01*
G37*
G36*
X100991000Y-61801000D02*
G01*
X99989000Y-61801000D01*
X99989000Y-59699000D01*
X100991000Y-59699000D01*
X100991000Y-61801000D01*
X100991000Y-61801000D01*
G37*
G36*
X92101000Y-61801000D02*
G01*
X91099000Y-61801000D01*
X91099000Y-59699000D01*
X92101000Y-59699000D01*
X92101000Y-61801000D01*
X92101000Y-61801000D01*
G37*
G36*
X93371000Y-61801000D02*
G01*
X92369000Y-61801000D01*
X92369000Y-59699000D01*
X93371000Y-59699000D01*
X93371000Y-61801000D01*
X93371000Y-61801000D01*
G37*
G36*
X99721000Y-61801000D02*
G01*
X98719000Y-61801000D01*
X98719000Y-59699000D01*
X99721000Y-59699000D01*
X99721000Y-61801000D01*
X99721000Y-61801000D01*
G37*
G36*
X98451000Y-61801000D02*
G01*
X97449000Y-61801000D01*
X97449000Y-59699000D01*
X98451000Y-59699000D01*
X98451000Y-61801000D01*
X98451000Y-61801000D01*
G37*
G36*
X97181000Y-61801000D02*
G01*
X96179000Y-61801000D01*
X96179000Y-59699000D01*
X97181000Y-59699000D01*
X97181000Y-61801000D01*
X97181000Y-61801000D01*
G37*
G36*
X94641000Y-61801000D02*
G01*
X93639000Y-61801000D01*
X93639000Y-59699000D01*
X94641000Y-59699000D01*
X94641000Y-61801000D01*
X94641000Y-61801000D01*
G37*
G36*
X147301000Y-61551000D02*
G01*
X145699000Y-61551000D01*
X145699000Y-57949000D01*
X147301000Y-57949000D01*
X147301000Y-61551000D01*
X147301000Y-61551000D01*
G37*
G36*
X140051000Y-61551000D02*
G01*
X138449000Y-61551000D01*
X138449000Y-57949000D01*
X140051000Y-57949000D01*
X140051000Y-61551000D01*
X140051000Y-61551000D01*
G37*
G36*
X155051000Y-61051000D02*
G01*
X152949000Y-61051000D01*
X152949000Y-58449000D01*
X155051000Y-58449000D01*
X155051000Y-61051000D01*
X155051000Y-61051000D01*
G37*
G36*
X160301000Y-61051000D02*
G01*
X158199000Y-61051000D01*
X158199000Y-58449000D01*
X160301000Y-58449000D01*
X160301000Y-61051000D01*
X160301000Y-61051000D01*
G37*
G36*
X129676000Y-60051000D02*
G01*
X128324000Y-60051000D01*
X128324000Y-59449000D01*
X129676000Y-59449000D01*
X129676000Y-60051000D01*
X129676000Y-60051000D01*
G37*
G36*
X132176000Y-60051000D02*
G01*
X130824000Y-60051000D01*
X130824000Y-59449000D01*
X132176000Y-59449000D01*
X132176000Y-60051000D01*
X132176000Y-60051000D01*
G37*
G36*
X134676000Y-60051000D02*
G01*
X133324000Y-60051000D01*
X133324000Y-59449000D01*
X134676000Y-59449000D01*
X134676000Y-60051000D01*
X134676000Y-60051000D01*
G37*
G36*
X171035787Y-51585462D02*
G01*
X171035790Y-51585463D01*
X171035789Y-51585463D01*
X171682029Y-51853144D01*
X172263631Y-52241758D01*
X172758242Y-52736369D01*
X173146856Y-53317971D01*
X173146856Y-53317972D01*
X173414538Y-53964213D01*
X173551000Y-54650256D01*
X173551000Y-55349744D01*
X173414538Y-56035787D01*
X173414537Y-56035789D01*
X173146856Y-56682029D01*
X172758242Y-57263631D01*
X172263631Y-57758242D01*
X171682029Y-58146856D01*
X171309892Y-58301000D01*
X171035787Y-58414538D01*
X170349744Y-58551000D01*
X169650256Y-58551000D01*
X168964213Y-58414538D01*
X168690108Y-58301000D01*
X168317971Y-58146856D01*
X167736369Y-57758242D01*
X167241758Y-57263631D01*
X166853144Y-56682029D01*
X166585463Y-56035789D01*
X166585462Y-56035787D01*
X166449000Y-55349744D01*
X166449000Y-54650256D01*
X166585462Y-53964213D01*
X166853144Y-53317972D01*
X166853144Y-53317971D01*
X167241758Y-52736369D01*
X167736369Y-52241758D01*
X168317971Y-51853144D01*
X168964211Y-51585463D01*
X168964210Y-51585463D01*
X168964213Y-51585462D01*
X169650256Y-51449000D01*
X170349744Y-51449000D01*
X171035787Y-51585462D01*
X171035787Y-51585462D01*
G37*
G36*
X81035787Y-51585462D02*
G01*
X81035790Y-51585463D01*
X81035789Y-51585463D01*
X81682029Y-51853144D01*
X82263631Y-52241758D01*
X82758242Y-52736369D01*
X83146856Y-53317971D01*
X83146856Y-53317972D01*
X83414538Y-53964213D01*
X83551000Y-54650256D01*
X83551000Y-55349744D01*
X83414538Y-56035787D01*
X83414537Y-56035789D01*
X83146856Y-56682029D01*
X82758242Y-57263631D01*
X82263631Y-57758242D01*
X81682029Y-58146856D01*
X81309892Y-58301000D01*
X81035787Y-58414538D01*
X80349744Y-58551000D01*
X79650256Y-58551000D01*
X78964213Y-58414538D01*
X78690108Y-58301000D01*
X78317971Y-58146856D01*
X77736369Y-57758242D01*
X77241758Y-57263631D01*
X76853144Y-56682029D01*
X76585463Y-56035789D01*
X76585462Y-56035787D01*
X76449000Y-55349744D01*
X76449000Y-54650256D01*
X76585462Y-53964213D01*
X76853144Y-53317972D01*
X76853144Y-53317971D01*
X77241758Y-52736369D01*
X77736369Y-52241758D01*
X78317971Y-51853144D01*
X78964211Y-51585463D01*
X78964210Y-51585463D01*
X78964213Y-51585462D01*
X79650256Y-51449000D01*
X80349744Y-51449000D01*
X81035787Y-51585462D01*
X81035787Y-51585462D01*
G37*
G36*
X134676000Y-58301000D02*
G01*
X133324000Y-58301000D01*
X133324000Y-57699000D01*
X134676000Y-57699000D01*
X134676000Y-58301000D01*
X134676000Y-58301000D01*
G37*
G36*
X132176000Y-58301000D02*
G01*
X130824000Y-58301000D01*
X130824000Y-57699000D01*
X132176000Y-57699000D01*
X132176000Y-58301000D01*
X132176000Y-58301000D01*
G37*
G36*
X129676000Y-58301000D02*
G01*
X128324000Y-58301000D01*
X128324000Y-57699000D01*
X129676000Y-57699000D01*
X129676000Y-58301000D01*
X129676000Y-58301000D01*
G37*
G36*
X99051000Y-57176000D02*
G01*
X98449000Y-57176000D01*
X98449000Y-55824000D01*
X99051000Y-55824000D01*
X99051000Y-57176000D01*
X99051000Y-57176000D01*
G37*
G36*
X100801000Y-57176000D02*
G01*
X100199000Y-57176000D01*
X100199000Y-55824000D01*
X100801000Y-55824000D01*
X100801000Y-57176000D01*
X100801000Y-57176000D01*
G37*
G36*
X154941000Y-55651000D02*
G01*
X153139000Y-55651000D01*
X153139000Y-53849000D01*
X154941000Y-53849000D01*
X154941000Y-55651000D01*
X154941000Y-55651000D01*
G37*
G36*
X151613512Y-53853927D02*
G01*
X151762812Y-53883624D01*
X151926784Y-53951544D01*
X152074354Y-54050147D01*
X152199853Y-54175646D01*
X152298456Y-54323216D01*
X152366376Y-54487188D01*
X152396073Y-54636488D01*
X152398812Y-54650256D01*
X152401000Y-54661259D01*
X152401000Y-54838741D01*
X152366376Y-55012812D01*
X152298456Y-55176784D01*
X152199853Y-55324354D01*
X152074354Y-55449853D01*
X151926784Y-55548456D01*
X151762812Y-55616376D01*
X151613512Y-55646073D01*
X151588742Y-55651000D01*
X151411258Y-55651000D01*
X151386488Y-55646073D01*
X151237188Y-55616376D01*
X151073216Y-55548456D01*
X150925646Y-55449853D01*
X150800147Y-55324354D01*
X150701544Y-55176784D01*
X150633624Y-55012812D01*
X150599000Y-54838741D01*
X150599000Y-54661259D01*
X150601189Y-54650256D01*
X150603927Y-54636488D01*
X150633624Y-54487188D01*
X150701544Y-54323216D01*
X150800147Y-54175646D01*
X150925646Y-54050147D01*
X151073216Y-53951544D01*
X151237188Y-53883624D01*
X151386488Y-53853927D01*
X151411258Y-53849000D01*
X151588742Y-53849000D01*
X151613512Y-53853927D01*
X151613512Y-53853927D01*
G37*
G36*
X142441000Y-55651000D02*
G01*
X140639000Y-55651000D01*
X140639000Y-53849000D01*
X142441000Y-53849000D01*
X142441000Y-55651000D01*
X142441000Y-55651000D01*
G37*
G36*
X147441000Y-55651000D02*
G01*
X145639000Y-55651000D01*
X145639000Y-53849000D01*
X147441000Y-53849000D01*
X147441000Y-55651000D01*
X147441000Y-55651000D01*
G37*
G36*
X139113512Y-53853927D02*
G01*
X139262812Y-53883624D01*
X139426784Y-53951544D01*
X139574354Y-54050147D01*
X139699853Y-54175646D01*
X139798456Y-54323216D01*
X139866376Y-54487188D01*
X139896073Y-54636488D01*
X139898812Y-54650256D01*
X139901000Y-54661259D01*
X139901000Y-54838741D01*
X139866376Y-55012812D01*
X139798456Y-55176784D01*
X139699853Y-55324354D01*
X139574354Y-55449853D01*
X139426784Y-55548456D01*
X139262812Y-55616376D01*
X139113512Y-55646073D01*
X139088742Y-55651000D01*
X138911258Y-55651000D01*
X138886488Y-55646073D01*
X138737188Y-55616376D01*
X138573216Y-55548456D01*
X138425646Y-55449853D01*
X138300147Y-55324354D01*
X138201544Y-55176784D01*
X138133624Y-55012812D01*
X138099000Y-54838741D01*
X138099000Y-54661259D01*
X138101189Y-54650256D01*
X138103927Y-54636488D01*
X138133624Y-54487188D01*
X138201544Y-54323216D01*
X138300147Y-54175646D01*
X138425646Y-54050147D01*
X138573216Y-53951544D01*
X138737188Y-53883624D01*
X138886488Y-53853927D01*
X138911258Y-53849000D01*
X139088742Y-53849000D01*
X139113512Y-53853927D01*
X139113512Y-53853927D01*
G37*
G36*
X144113512Y-53853927D02*
G01*
X144262812Y-53883624D01*
X144426784Y-53951544D01*
X144574354Y-54050147D01*
X144699853Y-54175646D01*
X144798456Y-54323216D01*
X144866376Y-54487188D01*
X144896073Y-54636488D01*
X144898812Y-54650256D01*
X144901000Y-54661259D01*
X144901000Y-54838741D01*
X144866376Y-55012812D01*
X144798456Y-55176784D01*
X144699853Y-55324354D01*
X144574354Y-55449853D01*
X144426784Y-55548456D01*
X144262812Y-55616376D01*
X144113512Y-55646073D01*
X144088742Y-55651000D01*
X143911258Y-55651000D01*
X143886488Y-55646073D01*
X143737188Y-55616376D01*
X143573216Y-55548456D01*
X143425646Y-55449853D01*
X143300147Y-55324354D01*
X143201544Y-55176784D01*
X143133624Y-55012812D01*
X143099000Y-54838741D01*
X143099000Y-54661259D01*
X143101189Y-54650256D01*
X143103927Y-54636488D01*
X143133624Y-54487188D01*
X143201544Y-54323216D01*
X143300147Y-54175646D01*
X143425646Y-54050147D01*
X143573216Y-53951544D01*
X143737188Y-53883624D01*
X143886488Y-53853927D01*
X143911258Y-53849000D01*
X144088742Y-53849000D01*
X144113512Y-53853927D01*
X144113512Y-53853927D01*
G37*
G36*
X134941000Y-55651000D02*
G01*
X133139000Y-55651000D01*
X133139000Y-53849000D01*
X134941000Y-53849000D01*
X134941000Y-55651000D01*
X134941000Y-55651000D01*
G37*
G36*
X131613512Y-53853927D02*
G01*
X131762812Y-53883624D01*
X131926784Y-53951544D01*
X132074354Y-54050147D01*
X132199853Y-54175646D01*
X132298456Y-54323216D01*
X132366376Y-54487188D01*
X132396073Y-54636488D01*
X132398812Y-54650256D01*
X132401000Y-54661259D01*
X132401000Y-54838741D01*
X132366376Y-55012812D01*
X132298456Y-55176784D01*
X132199853Y-55324354D01*
X132074354Y-55449853D01*
X131926784Y-55548456D01*
X131762812Y-55616376D01*
X131613512Y-55646073D01*
X131588742Y-55651000D01*
X131411258Y-55651000D01*
X131386488Y-55646073D01*
X131237188Y-55616376D01*
X131073216Y-55548456D01*
X130925646Y-55449853D01*
X130800147Y-55324354D01*
X130701544Y-55176784D01*
X130633624Y-55012812D01*
X130599000Y-54838741D01*
X130599000Y-54661259D01*
X130601189Y-54650256D01*
X130603927Y-54636488D01*
X130633624Y-54487188D01*
X130701544Y-54323216D01*
X130800147Y-54175646D01*
X130925646Y-54050147D01*
X131073216Y-53951544D01*
X131237188Y-53883624D01*
X131386488Y-53853927D01*
X131411258Y-53849000D01*
X131588742Y-53849000D01*
X131613512Y-53853927D01*
X131613512Y-53853927D01*
G37*
G36*
X162441000Y-55651000D02*
G01*
X160639000Y-55651000D01*
X160639000Y-53849000D01*
X162441000Y-53849000D01*
X162441000Y-55651000D01*
X162441000Y-55651000D01*
G37*
G36*
X159113512Y-53853927D02*
G01*
X159262812Y-53883624D01*
X159426784Y-53951544D01*
X159574354Y-54050147D01*
X159699853Y-54175646D01*
X159798456Y-54323216D01*
X159866376Y-54487188D01*
X159896073Y-54636488D01*
X159898812Y-54650256D01*
X159901000Y-54661259D01*
X159901000Y-54838741D01*
X159866376Y-55012812D01*
X159798456Y-55176784D01*
X159699853Y-55324354D01*
X159574354Y-55449853D01*
X159426784Y-55548456D01*
X159262812Y-55616376D01*
X159113512Y-55646073D01*
X159088742Y-55651000D01*
X158911258Y-55651000D01*
X158886488Y-55646073D01*
X158737188Y-55616376D01*
X158573216Y-55548456D01*
X158425646Y-55449853D01*
X158300147Y-55324354D01*
X158201544Y-55176784D01*
X158133624Y-55012812D01*
X158099000Y-54838741D01*
X158099000Y-54661259D01*
X158101189Y-54650256D01*
X158103927Y-54636488D01*
X158133624Y-54487188D01*
X158201544Y-54323216D01*
X158300147Y-54175646D01*
X158425646Y-54050147D01*
X158573216Y-53951544D01*
X158737188Y-53883624D01*
X158886488Y-53853927D01*
X158911258Y-53849000D01*
X159088742Y-53849000D01*
X159113512Y-53853927D01*
X159113512Y-53853927D01*
G37*
G36*
X104801000Y-54176000D02*
G01*
X104199000Y-54176000D01*
X104199000Y-52824000D01*
X104801000Y-52824000D01*
X104801000Y-54176000D01*
X104801000Y-54176000D01*
G37*
G36*
X103051000Y-54176000D02*
G01*
X102449000Y-54176000D01*
X102449000Y-52824000D01*
X103051000Y-52824000D01*
X103051000Y-54176000D01*
X103051000Y-54176000D01*
G37*
G36*
X100801000Y-54176000D02*
G01*
X100199000Y-54176000D01*
X100199000Y-52824000D01*
X100801000Y-52824000D01*
X100801000Y-54176000D01*
X100801000Y-54176000D01*
G37*
G36*
X99051000Y-54176000D02*
G01*
X98449000Y-54176000D01*
X98449000Y-52824000D01*
X99051000Y-52824000D01*
X99051000Y-54176000D01*
X99051000Y-54176000D01*
G37*
M02*
