G04 #@! TF.GenerationSoftware,KiCad,Pcbnew,(5.1.4)-1*
G04 #@! TF.CreationDate,2020-11-07T23:49:10+03:00*
G04 #@! TF.ProjectId,UAK_2,55414b5f-322e-46b6-9963-61645f706362,rev?*
G04 #@! TF.SameCoordinates,Original*
G04 #@! TF.FileFunction,Soldermask,Top*
G04 #@! TF.FilePolarity,Negative*
%FSLAX46Y46*%
G04 Gerber Fmt 4.6, Leading zero omitted, Abs format (unit mm)*
G04 Created by KiCad (PCBNEW (5.1.4)-1) date 2020-11-07 23:49:10*
%MOMM*%
%LPD*%
G04 APERTURE LIST*
%ADD10C,0.100000*%
G04 APERTURE END LIST*
D10*
G36*
X81035787Y-131585462D02*
G01*
X81035790Y-131585463D01*
X81035789Y-131585463D01*
X81682029Y-131853144D01*
X82263631Y-132241758D01*
X82758242Y-132736369D01*
X83146856Y-133317971D01*
X83146856Y-133317972D01*
X83414538Y-133964213D01*
X83551000Y-134650256D01*
X83551000Y-135349744D01*
X83414538Y-136035787D01*
X83356460Y-136176000D01*
X83146856Y-136682029D01*
X82758242Y-137263631D01*
X82263631Y-137758242D01*
X81682029Y-138146856D01*
X81225068Y-138336135D01*
X81035787Y-138414538D01*
X80349744Y-138551000D01*
X79650256Y-138551000D01*
X78964213Y-138414538D01*
X78774932Y-138336135D01*
X78317971Y-138146856D01*
X77736369Y-137758242D01*
X77241758Y-137263631D01*
X76853144Y-136682029D01*
X76643540Y-136176000D01*
X76585462Y-136035787D01*
X76449000Y-135349744D01*
X76449000Y-134650256D01*
X76585462Y-133964213D01*
X76853144Y-133317972D01*
X76853144Y-133317971D01*
X77241758Y-132736369D01*
X77736369Y-132241758D01*
X78317971Y-131853144D01*
X78964211Y-131585463D01*
X78964210Y-131585463D01*
X78964213Y-131585462D01*
X79650256Y-131449000D01*
X80349744Y-131449000D01*
X81035787Y-131585462D01*
X81035787Y-131585462D01*
G37*
G36*
X171035787Y-131585462D02*
G01*
X171035790Y-131585463D01*
X171035789Y-131585463D01*
X171682029Y-131853144D01*
X172263631Y-132241758D01*
X172758242Y-132736369D01*
X173146856Y-133317971D01*
X173146856Y-133317972D01*
X173414538Y-133964213D01*
X173551000Y-134650256D01*
X173551000Y-135349744D01*
X173414538Y-136035787D01*
X173356460Y-136176000D01*
X173146856Y-136682029D01*
X172758242Y-137263631D01*
X172263631Y-137758242D01*
X171682029Y-138146856D01*
X171225068Y-138336135D01*
X171035787Y-138414538D01*
X170349744Y-138551000D01*
X169650256Y-138551000D01*
X168964213Y-138414538D01*
X168774932Y-138336135D01*
X168317971Y-138146856D01*
X167736369Y-137758242D01*
X167241758Y-137263631D01*
X166853144Y-136682029D01*
X166643540Y-136176000D01*
X166585462Y-136035787D01*
X166449000Y-135349744D01*
X166449000Y-134650256D01*
X166585462Y-133964213D01*
X166853144Y-133317972D01*
X166853144Y-133317971D01*
X167241758Y-132736369D01*
X167736369Y-132241758D01*
X168317971Y-131853144D01*
X168964211Y-131585463D01*
X168964210Y-131585463D01*
X168964213Y-131585462D01*
X169650256Y-131449000D01*
X170349744Y-131449000D01*
X171035787Y-131585462D01*
X171035787Y-131585462D01*
G37*
G36*
X164067021Y-132306640D02*
G01*
X164576769Y-132517785D01*
X164576771Y-132517786D01*
X165035534Y-132824321D01*
X165425679Y-133214466D01*
X165494839Y-133317972D01*
X165732215Y-133673231D01*
X165943360Y-134182979D01*
X166051000Y-134724124D01*
X166051000Y-135275876D01*
X165943360Y-135817021D01*
X165733621Y-136323375D01*
X165732214Y-136326771D01*
X165425679Y-136785534D01*
X165035534Y-137175679D01*
X164576771Y-137482214D01*
X164576770Y-137482215D01*
X164576769Y-137482215D01*
X164067021Y-137693360D01*
X163525876Y-137801000D01*
X162974124Y-137801000D01*
X162432979Y-137693360D01*
X161923231Y-137482215D01*
X161923230Y-137482215D01*
X161923229Y-137482214D01*
X161464466Y-137175679D01*
X161074321Y-136785534D01*
X160767786Y-136326771D01*
X160766379Y-136323375D01*
X160556640Y-135817021D01*
X160449000Y-135275876D01*
X160449000Y-134724124D01*
X160556640Y-134182979D01*
X160767785Y-133673231D01*
X161005161Y-133317972D01*
X161074321Y-133214466D01*
X161464466Y-132824321D01*
X161923229Y-132517786D01*
X161923231Y-132517785D01*
X162432979Y-132306640D01*
X162974124Y-132199000D01*
X163525876Y-132199000D01*
X164067021Y-132306640D01*
X164067021Y-132306640D01*
G37*
G36*
X87567021Y-132306640D02*
G01*
X88076769Y-132517785D01*
X88076771Y-132517786D01*
X88535534Y-132824321D01*
X88925679Y-133214466D01*
X88994839Y-133317972D01*
X89232215Y-133673231D01*
X89443360Y-134182979D01*
X89551000Y-134724124D01*
X89551000Y-135275876D01*
X89443360Y-135817021D01*
X89233621Y-136323375D01*
X89232214Y-136326771D01*
X88925679Y-136785534D01*
X88535534Y-137175679D01*
X88076771Y-137482214D01*
X88076770Y-137482215D01*
X88076769Y-137482215D01*
X87567021Y-137693360D01*
X87025876Y-137801000D01*
X86474124Y-137801000D01*
X85932979Y-137693360D01*
X85423231Y-137482215D01*
X85423230Y-137482215D01*
X85423229Y-137482214D01*
X84964466Y-137175679D01*
X84574321Y-136785534D01*
X84267786Y-136326771D01*
X84266379Y-136323375D01*
X84056640Y-135817021D01*
X83949000Y-135275876D01*
X83949000Y-134724124D01*
X84056640Y-134182979D01*
X84267785Y-133673231D01*
X84505161Y-133317972D01*
X84574321Y-133214466D01*
X84964466Y-132824321D01*
X85423229Y-132517786D01*
X85423231Y-132517785D01*
X85932979Y-132306640D01*
X86474124Y-132199000D01*
X87025876Y-132199000D01*
X87567021Y-132306640D01*
X87567021Y-132306640D01*
G37*
G36*
X131111000Y-137401000D02*
G01*
X129309000Y-137401000D01*
X129309000Y-135599000D01*
X131111000Y-135599000D01*
X131111000Y-137401000D01*
X131111000Y-137401000D01*
G37*
G36*
X113331000Y-137401000D02*
G01*
X111529000Y-137401000D01*
X111529000Y-135599000D01*
X113331000Y-135599000D01*
X113331000Y-137401000D01*
X113331000Y-137401000D01*
G37*
G36*
X127783512Y-135603927D02*
G01*
X127932812Y-135633624D01*
X128096784Y-135701544D01*
X128244354Y-135800147D01*
X128369853Y-135925646D01*
X128468456Y-136073216D01*
X128536376Y-136237188D01*
X128571000Y-136411259D01*
X128571000Y-136588741D01*
X128536376Y-136762812D01*
X128468456Y-136926784D01*
X128369853Y-137074354D01*
X128244354Y-137199853D01*
X128096784Y-137298456D01*
X127932812Y-137366376D01*
X127783512Y-137396073D01*
X127758742Y-137401000D01*
X127581258Y-137401000D01*
X127556488Y-137396073D01*
X127407188Y-137366376D01*
X127243216Y-137298456D01*
X127095646Y-137199853D01*
X126970147Y-137074354D01*
X126871544Y-136926784D01*
X126803624Y-136762812D01*
X126769000Y-136588741D01*
X126769000Y-136411259D01*
X126803624Y-136237188D01*
X126871544Y-136073216D01*
X126970147Y-135925646D01*
X127095646Y-135800147D01*
X127243216Y-135701544D01*
X127407188Y-135633624D01*
X127556488Y-135603927D01*
X127581258Y-135599000D01*
X127758742Y-135599000D01*
X127783512Y-135603927D01*
X127783512Y-135603927D01*
G37*
G36*
X126031000Y-137401000D02*
G01*
X124229000Y-137401000D01*
X124229000Y-135599000D01*
X126031000Y-135599000D01*
X126031000Y-137401000D01*
X126031000Y-137401000D01*
G37*
G36*
X123491000Y-137401000D02*
G01*
X121689000Y-137401000D01*
X121689000Y-135599000D01*
X123491000Y-135599000D01*
X123491000Y-137401000D01*
X123491000Y-137401000D01*
G37*
G36*
X120951000Y-137401000D02*
G01*
X119149000Y-137401000D01*
X119149000Y-135599000D01*
X120951000Y-135599000D01*
X120951000Y-137401000D01*
X120951000Y-137401000D01*
G37*
G36*
X118411000Y-137401000D02*
G01*
X116609000Y-137401000D01*
X116609000Y-135599000D01*
X118411000Y-135599000D01*
X118411000Y-137401000D01*
X118411000Y-137401000D01*
G37*
G36*
X115871000Y-137401000D02*
G01*
X114069000Y-137401000D01*
X114069000Y-135599000D01*
X115871000Y-135599000D01*
X115871000Y-137401000D01*
X115871000Y-137401000D01*
G37*
G36*
X108251000Y-137401000D02*
G01*
X106449000Y-137401000D01*
X106449000Y-135599000D01*
X108251000Y-135599000D01*
X108251000Y-137401000D01*
X108251000Y-137401000D01*
G37*
G36*
X132860442Y-135605518D02*
G01*
X132926627Y-135612037D01*
X133096466Y-135663557D01*
X133252991Y-135747222D01*
X133288729Y-135776552D01*
X133390186Y-135859814D01*
X133473448Y-135961271D01*
X133502778Y-135997009D01*
X133586443Y-136153534D01*
X133637963Y-136323373D01*
X133655359Y-136500000D01*
X133637963Y-136676627D01*
X133586443Y-136846466D01*
X133502778Y-137002991D01*
X133473448Y-137038729D01*
X133390186Y-137140186D01*
X133317480Y-137199853D01*
X133252991Y-137252778D01*
X133096466Y-137336443D01*
X132926627Y-137387963D01*
X132860443Y-137394481D01*
X132794260Y-137401000D01*
X132705740Y-137401000D01*
X132639557Y-137394481D01*
X132573373Y-137387963D01*
X132403534Y-137336443D01*
X132247009Y-137252778D01*
X132182520Y-137199853D01*
X132109814Y-137140186D01*
X132026552Y-137038729D01*
X131997222Y-137002991D01*
X131913557Y-136846466D01*
X131862037Y-136676627D01*
X131844641Y-136500000D01*
X131862037Y-136323373D01*
X131913557Y-136153534D01*
X131997222Y-135997009D01*
X132026552Y-135961271D01*
X132109814Y-135859814D01*
X132211271Y-135776552D01*
X132247009Y-135747222D01*
X132403534Y-135663557D01*
X132573373Y-135612037D01*
X132639558Y-135605518D01*
X132705740Y-135599000D01*
X132794260Y-135599000D01*
X132860442Y-135605518D01*
X132860442Y-135605518D01*
G37*
G36*
X95551000Y-137401000D02*
G01*
X93749000Y-137401000D01*
X93749000Y-135599000D01*
X95551000Y-135599000D01*
X95551000Y-137401000D01*
X95551000Y-137401000D01*
G37*
G36*
X98091000Y-137401000D02*
G01*
X96289000Y-137401000D01*
X96289000Y-135599000D01*
X98091000Y-135599000D01*
X98091000Y-137401000D01*
X98091000Y-137401000D01*
G37*
G36*
X103171000Y-137401000D02*
G01*
X101369000Y-137401000D01*
X101369000Y-135599000D01*
X103171000Y-135599000D01*
X103171000Y-137401000D01*
X103171000Y-137401000D01*
G37*
G36*
X110791000Y-137401000D02*
G01*
X108989000Y-137401000D01*
X108989000Y-135599000D01*
X110791000Y-135599000D01*
X110791000Y-137401000D01*
X110791000Y-137401000D01*
G37*
G36*
X105711000Y-137401000D02*
G01*
X103909000Y-137401000D01*
X103909000Y-135599000D01*
X105711000Y-135599000D01*
X105711000Y-137401000D01*
X105711000Y-137401000D01*
G37*
G36*
X100631000Y-137401000D02*
G01*
X98829000Y-137401000D01*
X98829000Y-135599000D01*
X100631000Y-135599000D01*
X100631000Y-137401000D01*
X100631000Y-137401000D01*
G37*
G36*
X140801000Y-136176000D02*
G01*
X140199000Y-136176000D01*
X140199000Y-134824000D01*
X140801000Y-134824000D01*
X140801000Y-136176000D01*
X140801000Y-136176000D01*
G37*
G36*
X139051000Y-136176000D02*
G01*
X138449000Y-136176000D01*
X138449000Y-134824000D01*
X139051000Y-134824000D01*
X139051000Y-136176000D01*
X139051000Y-136176000D01*
G37*
G36*
X140951000Y-133051000D02*
G01*
X140049000Y-133051000D01*
X140049000Y-131949000D01*
X140951000Y-131949000D01*
X140951000Y-133051000D01*
X140951000Y-133051000D01*
G37*
G36*
X138951000Y-133051000D02*
G01*
X138049000Y-133051000D01*
X138049000Y-131949000D01*
X138951000Y-131949000D01*
X138951000Y-133051000D01*
X138951000Y-133051000D01*
G37*
G36*
X136176000Y-132801000D02*
G01*
X134824000Y-132801000D01*
X134824000Y-132199000D01*
X136176000Y-132199000D01*
X136176000Y-132801000D01*
X136176000Y-132801000D01*
G37*
G36*
X136176000Y-131051000D02*
G01*
X134824000Y-131051000D01*
X134824000Y-130449000D01*
X136176000Y-130449000D01*
X136176000Y-131051000D01*
X136176000Y-131051000D01*
G37*
G36*
X139951000Y-130551000D02*
G01*
X139049000Y-130551000D01*
X139049000Y-129449000D01*
X139951000Y-129449000D01*
X139951000Y-130551000D01*
X139951000Y-130551000D01*
G37*
G36*
X82901000Y-130171000D02*
G01*
X81099000Y-130171000D01*
X81099000Y-128369000D01*
X82901000Y-128369000D01*
X82901000Y-130171000D01*
X82901000Y-130171000D01*
G37*
G36*
X98551000Y-130051000D02*
G01*
X96449000Y-130051000D01*
X96449000Y-127949000D01*
X98551000Y-127949000D01*
X98551000Y-130051000D01*
X98551000Y-130051000D01*
G37*
G36*
X108551000Y-130051000D02*
G01*
X106449000Y-130051000D01*
X106449000Y-127949000D01*
X108551000Y-127949000D01*
X108551000Y-130051000D01*
X108551000Y-130051000D01*
G37*
G36*
X126751000Y-128751000D02*
G01*
X124249000Y-128751000D01*
X124249000Y-126249000D01*
X126751000Y-126249000D01*
X126751000Y-128751000D01*
X126751000Y-128751000D01*
G37*
G36*
X170864903Y-126297075D02*
G01*
X171092571Y-126391378D01*
X171297466Y-126528285D01*
X171471715Y-126702534D01*
X171608622Y-126907429D01*
X171702925Y-127135097D01*
X171751000Y-127376787D01*
X171751000Y-127623213D01*
X171702925Y-127864903D01*
X171608622Y-128092571D01*
X171471715Y-128297466D01*
X171297466Y-128471715D01*
X171092571Y-128608622D01*
X171092570Y-128608623D01*
X171092569Y-128608623D01*
X170864903Y-128702925D01*
X170623214Y-128751000D01*
X170376786Y-128751000D01*
X170135097Y-128702925D01*
X169907431Y-128608623D01*
X169907430Y-128608623D01*
X169907429Y-128608622D01*
X169702534Y-128471715D01*
X169528285Y-128297466D01*
X169391378Y-128092571D01*
X169297075Y-127864903D01*
X169249000Y-127623213D01*
X169249000Y-127376787D01*
X169297075Y-127135097D01*
X169391378Y-126907429D01*
X169528285Y-126702534D01*
X169702534Y-126528285D01*
X169907429Y-126391378D01*
X170135097Y-126297075D01*
X170376786Y-126249000D01*
X170623214Y-126249000D01*
X170864903Y-126297075D01*
X170864903Y-126297075D01*
G37*
G36*
X82901000Y-127631000D02*
G01*
X81099000Y-127631000D01*
X81099000Y-125829000D01*
X82901000Y-125829000D01*
X82901000Y-127631000D01*
X82901000Y-127631000D01*
G37*
G36*
X113176000Y-125801000D02*
G01*
X111824000Y-125801000D01*
X111824000Y-125199000D01*
X113176000Y-125199000D01*
X113176000Y-125801000D01*
X113176000Y-125801000D01*
G37*
G36*
X82901000Y-125091000D02*
G01*
X81099000Y-125091000D01*
X81099000Y-123289000D01*
X82901000Y-123289000D01*
X82901000Y-125091000D01*
X82901000Y-125091000D01*
G37*
G36*
X79201000Y-124701000D02*
G01*
X78099000Y-124701000D01*
X78099000Y-123099000D01*
X79201000Y-123099000D01*
X79201000Y-124701000D01*
X79201000Y-124701000D01*
G37*
G36*
X77401000Y-124701000D02*
G01*
X76299000Y-124701000D01*
X76299000Y-123099000D01*
X77401000Y-123099000D01*
X77401000Y-124701000D01*
X77401000Y-124701000D01*
G37*
G36*
X113176000Y-124051000D02*
G01*
X111824000Y-124051000D01*
X111824000Y-123449000D01*
X113176000Y-123449000D01*
X113176000Y-124051000D01*
X113176000Y-124051000D01*
G37*
G36*
X82901000Y-122551000D02*
G01*
X81099000Y-122551000D01*
X81099000Y-120749000D01*
X82901000Y-120749000D01*
X82901000Y-122551000D01*
X82901000Y-122551000D01*
G37*
G36*
X78301000Y-121701000D02*
G01*
X77199000Y-121701000D01*
X77199000Y-120099000D01*
X78301000Y-120099000D01*
X78301000Y-121701000D01*
X78301000Y-121701000D01*
G37*
G36*
X126751000Y-120751000D02*
G01*
X124249000Y-120751000D01*
X124249000Y-118249000D01*
X126751000Y-118249000D01*
X126751000Y-120751000D01*
X126751000Y-120751000D01*
G37*
G36*
X97806564Y-117989389D02*
G01*
X97997833Y-118068615D01*
X97997835Y-118068616D01*
X98169973Y-118183635D01*
X98316365Y-118330027D01*
X98431385Y-118502167D01*
X98510611Y-118693436D01*
X98551000Y-118896484D01*
X98551000Y-119103516D01*
X98510611Y-119306564D01*
X98431385Y-119497833D01*
X98431384Y-119497835D01*
X98316365Y-119669973D01*
X98169973Y-119816365D01*
X97997835Y-119931384D01*
X97997834Y-119931385D01*
X97997833Y-119931385D01*
X97806564Y-120010611D01*
X97603516Y-120051000D01*
X97396484Y-120051000D01*
X97193436Y-120010611D01*
X97002167Y-119931385D01*
X97002166Y-119931385D01*
X97002165Y-119931384D01*
X96830027Y-119816365D01*
X96683635Y-119669973D01*
X96568616Y-119497835D01*
X96568615Y-119497833D01*
X96489389Y-119306564D01*
X96449000Y-119103516D01*
X96449000Y-118896484D01*
X96489389Y-118693436D01*
X96568615Y-118502167D01*
X96683635Y-118330027D01*
X96830027Y-118183635D01*
X97002165Y-118068616D01*
X97002167Y-118068615D01*
X97193436Y-117989389D01*
X97396484Y-117949000D01*
X97603516Y-117949000D01*
X97806564Y-117989389D01*
X97806564Y-117989389D01*
G37*
G36*
X172051000Y-120051000D02*
G01*
X168949000Y-120051000D01*
X168949000Y-118449000D01*
X172051000Y-118449000D01*
X172051000Y-120051000D01*
X172051000Y-120051000D01*
G37*
G36*
X108551000Y-120051000D02*
G01*
X106449000Y-120051000D01*
X106449000Y-117949000D01*
X108551000Y-117949000D01*
X108551000Y-120051000D01*
X108551000Y-120051000D01*
G37*
G36*
X82901000Y-120011000D02*
G01*
X81099000Y-120011000D01*
X81099000Y-118209000D01*
X82901000Y-118209000D01*
X82901000Y-120011000D01*
X82901000Y-120011000D01*
G37*
G36*
X103801000Y-119676000D02*
G01*
X103199000Y-119676000D01*
X103199000Y-118324000D01*
X103801000Y-118324000D01*
X103801000Y-119676000D01*
X103801000Y-119676000D01*
G37*
G36*
X102051000Y-119676000D02*
G01*
X101449000Y-119676000D01*
X101449000Y-118324000D01*
X102051000Y-118324000D01*
X102051000Y-119676000D01*
X102051000Y-119676000D01*
G37*
G36*
X82901000Y-117471000D02*
G01*
X81099000Y-117471000D01*
X81099000Y-115669000D01*
X82901000Y-115669000D01*
X82901000Y-117471000D01*
X82901000Y-117471000D01*
G37*
G36*
X90176000Y-117051000D02*
G01*
X88824000Y-117051000D01*
X88824000Y-116449000D01*
X90176000Y-116449000D01*
X90176000Y-117051000D01*
X90176000Y-117051000D01*
G37*
G36*
X172051000Y-116551000D02*
G01*
X168949000Y-116551000D01*
X168949000Y-114949000D01*
X172051000Y-114949000D01*
X172051000Y-116551000D01*
X172051000Y-116551000D01*
G37*
G36*
X90176000Y-115301000D02*
G01*
X88824000Y-115301000D01*
X88824000Y-114699000D01*
X90176000Y-114699000D01*
X90176000Y-115301000D01*
X90176000Y-115301000D01*
G37*
G36*
X82901000Y-114931000D02*
G01*
X81099000Y-114931000D01*
X81099000Y-113129000D01*
X82901000Y-113129000D01*
X82901000Y-114931000D01*
X82901000Y-114931000D01*
G37*
G36*
X82901000Y-112391000D02*
G01*
X81099000Y-112391000D01*
X81099000Y-110589000D01*
X82901000Y-110589000D01*
X82901000Y-112391000D01*
X82901000Y-112391000D01*
G37*
G36*
X90051000Y-111801000D02*
G01*
X88449000Y-111801000D01*
X88449000Y-109699000D01*
X90051000Y-109699000D01*
X90051000Y-111801000D01*
X90051000Y-111801000D01*
G37*
G36*
X92301000Y-111801000D02*
G01*
X90699000Y-111801000D01*
X90699000Y-109699000D01*
X92301000Y-109699000D01*
X92301000Y-111801000D01*
X92301000Y-111801000D01*
G37*
G36*
X87801000Y-111801000D02*
G01*
X86199000Y-111801000D01*
X86199000Y-109699000D01*
X87801000Y-109699000D01*
X87801000Y-111801000D01*
X87801000Y-111801000D01*
G37*
G36*
X104926000Y-111051000D02*
G01*
X103574000Y-111051000D01*
X103574000Y-110449000D01*
X104926000Y-110449000D01*
X104926000Y-111051000D01*
X104926000Y-111051000D01*
G37*
G36*
X101926000Y-111051000D02*
G01*
X100574000Y-111051000D01*
X100574000Y-110449000D01*
X101926000Y-110449000D01*
X101926000Y-111051000D01*
X101926000Y-111051000D01*
G37*
G36*
X82901000Y-109851000D02*
G01*
X81099000Y-109851000D01*
X81099000Y-108049000D01*
X82901000Y-108049000D01*
X82901000Y-109851000D01*
X82901000Y-109851000D01*
G37*
G36*
X104926000Y-109301000D02*
G01*
X103574000Y-109301000D01*
X103574000Y-108699000D01*
X104926000Y-108699000D01*
X104926000Y-109301000D01*
X104926000Y-109301000D01*
G37*
G36*
X101926000Y-109301000D02*
G01*
X100574000Y-109301000D01*
X100574000Y-108699000D01*
X101926000Y-108699000D01*
X101926000Y-109301000D01*
X101926000Y-109301000D01*
G37*
G36*
X171751000Y-107951000D02*
G01*
X169249000Y-107951000D01*
X169249000Y-105449000D01*
X171751000Y-105449000D01*
X171751000Y-107951000D01*
X171751000Y-107951000D01*
G37*
G36*
X82901000Y-107311000D02*
G01*
X81099000Y-107311000D01*
X81099000Y-105509000D01*
X82901000Y-105509000D01*
X82901000Y-107311000D01*
X82901000Y-107311000D01*
G37*
G36*
X109601000Y-106551000D02*
G01*
X108399000Y-106551000D01*
X108399000Y-103849000D01*
X109601000Y-103849000D01*
X109601000Y-106551000D01*
X109601000Y-106551000D01*
G37*
G36*
X101926000Y-106551000D02*
G01*
X100574000Y-106551000D01*
X100574000Y-105949000D01*
X101926000Y-105949000D01*
X101926000Y-106551000D01*
X101926000Y-106551000D01*
G37*
G36*
X104926000Y-106551000D02*
G01*
X103574000Y-106551000D01*
X103574000Y-105949000D01*
X104926000Y-105949000D01*
X104926000Y-106551000D01*
X104926000Y-106551000D01*
G37*
G36*
X112201000Y-106551000D02*
G01*
X110999000Y-106551000D01*
X110999000Y-105749000D01*
X112201000Y-105749000D01*
X112201000Y-106551000D01*
X112201000Y-106551000D01*
G37*
G36*
X115926000Y-106301000D02*
G01*
X114574000Y-106301000D01*
X114574000Y-105699000D01*
X115926000Y-105699000D01*
X115926000Y-106301000D01*
X115926000Y-106301000D01*
G37*
G36*
X118926000Y-106301000D02*
G01*
X117574000Y-106301000D01*
X117574000Y-105699000D01*
X118926000Y-105699000D01*
X118926000Y-106301000D01*
X118926000Y-106301000D01*
G37*
G36*
X91301000Y-105551000D02*
G01*
X87199000Y-105551000D01*
X87199000Y-103449000D01*
X91301000Y-103449000D01*
X91301000Y-105551000D01*
X91301000Y-105551000D01*
G37*
G36*
X101926000Y-104801000D02*
G01*
X100574000Y-104801000D01*
X100574000Y-104199000D01*
X101926000Y-104199000D01*
X101926000Y-104801000D01*
X101926000Y-104801000D01*
G37*
G36*
X104926000Y-104801000D02*
G01*
X103574000Y-104801000D01*
X103574000Y-104199000D01*
X104926000Y-104199000D01*
X104926000Y-104801000D01*
X104926000Y-104801000D01*
G37*
G36*
X82901000Y-104771000D02*
G01*
X81099000Y-104771000D01*
X81099000Y-102969000D01*
X82901000Y-102969000D01*
X82901000Y-104771000D01*
X82901000Y-104771000D01*
G37*
G36*
X112201000Y-104651000D02*
G01*
X110999000Y-104651000D01*
X110999000Y-103849000D01*
X112201000Y-103849000D01*
X112201000Y-104651000D01*
X112201000Y-104651000D01*
G37*
G36*
X118926000Y-104551000D02*
G01*
X117574000Y-104551000D01*
X117574000Y-103949000D01*
X118926000Y-103949000D01*
X118926000Y-104551000D01*
X118926000Y-104551000D01*
G37*
G36*
X115926000Y-104551000D02*
G01*
X114574000Y-104551000D01*
X114574000Y-103949000D01*
X115926000Y-103949000D01*
X115926000Y-104551000D01*
X115926000Y-104551000D01*
G37*
G36*
X82901000Y-102231000D02*
G01*
X81099000Y-102231000D01*
X81099000Y-100429000D01*
X82901000Y-100429000D01*
X82901000Y-102231000D01*
X82901000Y-102231000D01*
G37*
G36*
X166767021Y-96306640D02*
G01*
X167264763Y-96512812D01*
X167276771Y-96517786D01*
X167735534Y-96824321D01*
X168125679Y-97214466D01*
X168432214Y-97673229D01*
X168432215Y-97673231D01*
X168643360Y-98182979D01*
X168751000Y-98724124D01*
X168751000Y-99275876D01*
X168643360Y-99817021D01*
X168432215Y-100326769D01*
X168432214Y-100326771D01*
X168125679Y-100785534D01*
X167735534Y-101175679D01*
X167276771Y-101482214D01*
X167276770Y-101482215D01*
X167276769Y-101482215D01*
X166767021Y-101693360D01*
X166225876Y-101801000D01*
X165674124Y-101801000D01*
X165132979Y-101693360D01*
X164623231Y-101482215D01*
X164623230Y-101482215D01*
X164623229Y-101482214D01*
X164164466Y-101175679D01*
X163774321Y-100785534D01*
X163467786Y-100326771D01*
X163467785Y-100326769D01*
X163256640Y-99817021D01*
X163149000Y-99275876D01*
X163149000Y-98724124D01*
X163256640Y-98182979D01*
X163467785Y-97673231D01*
X163467786Y-97673229D01*
X163774321Y-97214466D01*
X164164466Y-96824321D01*
X164623229Y-96517786D01*
X164635237Y-96512812D01*
X165132979Y-96306640D01*
X165674124Y-96199000D01*
X166225876Y-96199000D01*
X166767021Y-96306640D01*
X166767021Y-96306640D01*
G37*
G36*
X87767021Y-96306640D02*
G01*
X88264763Y-96512812D01*
X88276771Y-96517786D01*
X88735534Y-96824321D01*
X89125679Y-97214466D01*
X89432214Y-97673229D01*
X89432215Y-97673231D01*
X89643360Y-98182979D01*
X89751000Y-98724124D01*
X89751000Y-99275876D01*
X89643360Y-99817021D01*
X89432215Y-100326769D01*
X89432214Y-100326771D01*
X89125679Y-100785534D01*
X88735534Y-101175679D01*
X88276771Y-101482214D01*
X88276770Y-101482215D01*
X88276769Y-101482215D01*
X87767021Y-101693360D01*
X87225876Y-101801000D01*
X86674124Y-101801000D01*
X86132979Y-101693360D01*
X85623231Y-101482215D01*
X85623230Y-101482215D01*
X85623229Y-101482214D01*
X85164466Y-101175679D01*
X84774321Y-100785534D01*
X84467786Y-100326771D01*
X84467785Y-100326769D01*
X84256640Y-99817021D01*
X84149000Y-99275876D01*
X84149000Y-98724124D01*
X84256640Y-98182979D01*
X84467785Y-97673231D01*
X84467786Y-97673229D01*
X84774321Y-97214466D01*
X85164466Y-96824321D01*
X85623229Y-96517786D01*
X85635237Y-96512812D01*
X86132979Y-96306640D01*
X86674124Y-96199000D01*
X87225876Y-96199000D01*
X87767021Y-96306640D01*
X87767021Y-96306640D01*
G37*
G36*
X101551000Y-101301000D02*
G01*
X99449000Y-101301000D01*
X99449000Y-98699000D01*
X101551000Y-98699000D01*
X101551000Y-101301000D01*
X101551000Y-101301000D01*
G37*
G36*
X106801000Y-101301000D02*
G01*
X104699000Y-101301000D01*
X104699000Y-98699000D01*
X106801000Y-98699000D01*
X106801000Y-101301000D01*
X106801000Y-101301000D01*
G37*
G36*
X111801000Y-100801000D02*
G01*
X110699000Y-100801000D01*
X110699000Y-99199000D01*
X111801000Y-99199000D01*
X111801000Y-100801000D01*
X111801000Y-100801000D01*
G37*
G36*
X109801000Y-100801000D02*
G01*
X108699000Y-100801000D01*
X108699000Y-99199000D01*
X109801000Y-99199000D01*
X109801000Y-100801000D01*
X109801000Y-100801000D01*
G37*
G36*
X147806564Y-97989389D02*
G01*
X147997833Y-98068615D01*
X147997835Y-98068616D01*
X148168990Y-98182978D01*
X148169973Y-98183635D01*
X148316365Y-98330027D01*
X148431385Y-98502167D01*
X148510611Y-98693436D01*
X148551000Y-98896484D01*
X148551000Y-99103516D01*
X148510611Y-99306564D01*
X148431385Y-99497833D01*
X148431384Y-99497835D01*
X148316365Y-99669973D01*
X148169973Y-99816365D01*
X147997835Y-99931384D01*
X147997834Y-99931385D01*
X147997833Y-99931385D01*
X147806564Y-100010611D01*
X147603516Y-100051000D01*
X147396484Y-100051000D01*
X147193436Y-100010611D01*
X147002167Y-99931385D01*
X147002166Y-99931385D01*
X147002165Y-99931384D01*
X146830027Y-99816365D01*
X146683635Y-99669973D01*
X146568616Y-99497835D01*
X146568615Y-99497833D01*
X146489389Y-99306564D01*
X146449000Y-99103516D01*
X146449000Y-98896484D01*
X146489389Y-98693436D01*
X146568615Y-98502167D01*
X146683635Y-98330027D01*
X146830027Y-98183635D01*
X146831010Y-98182978D01*
X147002165Y-98068616D01*
X147002167Y-98068615D01*
X147193436Y-97989389D01*
X147396484Y-97949000D01*
X147603516Y-97949000D01*
X147806564Y-97989389D01*
X147806564Y-97989389D01*
G37*
G36*
X82901000Y-99691000D02*
G01*
X81099000Y-99691000D01*
X81099000Y-97889000D01*
X82901000Y-97889000D01*
X82901000Y-99691000D01*
X82901000Y-99691000D01*
G37*
G36*
X82113512Y-95353927D02*
G01*
X82262812Y-95383624D01*
X82426784Y-95451544D01*
X82574354Y-95550147D01*
X82699853Y-95675646D01*
X82798456Y-95823216D01*
X82866376Y-95987188D01*
X82901000Y-96161259D01*
X82901000Y-96338741D01*
X82866376Y-96512812D01*
X82798456Y-96676784D01*
X82699853Y-96824354D01*
X82574354Y-96949853D01*
X82426784Y-97048456D01*
X82262812Y-97116376D01*
X82113512Y-97146073D01*
X82088742Y-97151000D01*
X81911258Y-97151000D01*
X81886488Y-97146073D01*
X81737188Y-97116376D01*
X81573216Y-97048456D01*
X81425646Y-96949853D01*
X81300147Y-96824354D01*
X81201544Y-96676784D01*
X81133624Y-96512812D01*
X81099000Y-96338741D01*
X81099000Y-96161259D01*
X81133624Y-95987188D01*
X81201544Y-95823216D01*
X81300147Y-95675646D01*
X81425646Y-95550147D01*
X81573216Y-95451544D01*
X81737188Y-95383624D01*
X81886488Y-95353927D01*
X81911258Y-95349000D01*
X82088742Y-95349000D01*
X82113512Y-95353927D01*
X82113512Y-95353927D01*
G37*
G36*
X136301000Y-95926000D02*
G01*
X135699000Y-95926000D01*
X135699000Y-94574000D01*
X136301000Y-94574000D01*
X136301000Y-95926000D01*
X136301000Y-95926000D01*
G37*
G36*
X134551000Y-95926000D02*
G01*
X133949000Y-95926000D01*
X133949000Y-94574000D01*
X134551000Y-94574000D01*
X134551000Y-95926000D01*
X134551000Y-95926000D01*
G37*
G36*
X143051000Y-95551000D02*
G01*
X140949000Y-95551000D01*
X140949000Y-94449000D01*
X143051000Y-94449000D01*
X143051000Y-95551000D01*
X143051000Y-95551000D01*
G37*
G36*
X94701000Y-95551000D02*
G01*
X93799000Y-95551000D01*
X93799000Y-94449000D01*
X94701000Y-94449000D01*
X94701000Y-95551000D01*
X94701000Y-95551000D01*
G37*
G36*
X82901000Y-94271000D02*
G01*
X81099000Y-94271000D01*
X81099000Y-92469000D01*
X82901000Y-92469000D01*
X82901000Y-94271000D01*
X82901000Y-94271000D01*
G37*
G36*
X164067021Y-87806640D02*
G01*
X164576769Y-88017785D01*
X164576771Y-88017786D01*
X165035534Y-88324321D01*
X165425679Y-88714466D01*
X165582389Y-88949000D01*
X165732215Y-89173231D01*
X165943360Y-89682979D01*
X166051000Y-90224124D01*
X166051000Y-90775876D01*
X165943360Y-91317021D01*
X165771884Y-91731000D01*
X165732214Y-91826771D01*
X165425679Y-92285534D01*
X165035534Y-92675679D01*
X164576771Y-92982214D01*
X164576770Y-92982215D01*
X164576769Y-92982215D01*
X164067021Y-93193360D01*
X163525876Y-93301000D01*
X162974124Y-93301000D01*
X162432979Y-93193360D01*
X161923231Y-92982215D01*
X161923230Y-92982215D01*
X161923229Y-92982214D01*
X161464466Y-92675679D01*
X161074321Y-92285534D01*
X160767786Y-91826771D01*
X160728116Y-91731000D01*
X160556640Y-91317021D01*
X160449000Y-90775876D01*
X160449000Y-90224124D01*
X160556640Y-89682979D01*
X160767785Y-89173231D01*
X160917611Y-88949000D01*
X161074321Y-88714466D01*
X161464466Y-88324321D01*
X161923229Y-88017786D01*
X161923231Y-88017785D01*
X162432979Y-87806640D01*
X162974124Y-87699000D01*
X163525876Y-87699000D01*
X164067021Y-87806640D01*
X164067021Y-87806640D01*
G37*
G36*
X87567021Y-87806640D02*
G01*
X88076769Y-88017785D01*
X88076771Y-88017786D01*
X88535534Y-88324321D01*
X88925679Y-88714466D01*
X89082389Y-88949000D01*
X89232215Y-89173231D01*
X89443360Y-89682979D01*
X89551000Y-90224124D01*
X89551000Y-90775876D01*
X89443360Y-91317021D01*
X89271884Y-91731000D01*
X89232214Y-91826771D01*
X88925679Y-92285534D01*
X88535534Y-92675679D01*
X88076771Y-92982214D01*
X88076770Y-92982215D01*
X88076769Y-92982215D01*
X87567021Y-93193360D01*
X87025876Y-93301000D01*
X86474124Y-93301000D01*
X85932979Y-93193360D01*
X85423231Y-92982215D01*
X85423230Y-92982215D01*
X85423229Y-92982214D01*
X84964466Y-92675679D01*
X84574321Y-92285534D01*
X84267786Y-91826771D01*
X84228116Y-91731000D01*
X84056640Y-91317021D01*
X83949000Y-90775876D01*
X83949000Y-90224124D01*
X84056640Y-89682979D01*
X84267785Y-89173231D01*
X84417611Y-88949000D01*
X84574321Y-88714466D01*
X84964466Y-88324321D01*
X85423229Y-88017786D01*
X85423231Y-88017785D01*
X85932979Y-87806640D01*
X86474124Y-87699000D01*
X87025876Y-87699000D01*
X87567021Y-87806640D01*
X87567021Y-87806640D01*
G37*
G36*
X95701000Y-93051000D02*
G01*
X94799000Y-93051000D01*
X94799000Y-91949000D01*
X95701000Y-91949000D01*
X95701000Y-93051000D01*
X95701000Y-93051000D01*
G37*
G36*
X93701000Y-93051000D02*
G01*
X92799000Y-93051000D01*
X92799000Y-91949000D01*
X93701000Y-91949000D01*
X93701000Y-93051000D01*
X93701000Y-93051000D01*
G37*
G36*
X136451000Y-92801000D02*
G01*
X135549000Y-92801000D01*
X135549000Y-91699000D01*
X136451000Y-91699000D01*
X136451000Y-92801000D01*
X136451000Y-92801000D01*
G37*
G36*
X134451000Y-92801000D02*
G01*
X133549000Y-92801000D01*
X133549000Y-91699000D01*
X134451000Y-91699000D01*
X134451000Y-92801000D01*
X134451000Y-92801000D01*
G37*
G36*
X131676000Y-92551000D02*
G01*
X130324000Y-92551000D01*
X130324000Y-91949000D01*
X131676000Y-91949000D01*
X131676000Y-92551000D01*
X131676000Y-92551000D01*
G37*
G36*
X143051000Y-92051000D02*
G01*
X140949000Y-92051000D01*
X140949000Y-90949000D01*
X143051000Y-90949000D01*
X143051000Y-92051000D01*
X143051000Y-92051000D01*
G37*
G36*
X82901000Y-91731000D02*
G01*
X81099000Y-91731000D01*
X81099000Y-89929000D01*
X82901000Y-89929000D01*
X82901000Y-91731000D01*
X82901000Y-91731000D01*
G37*
G36*
X171551000Y-91051000D02*
G01*
X169449000Y-91051000D01*
X169449000Y-88949000D01*
X171551000Y-88949000D01*
X171551000Y-91051000D01*
X171551000Y-91051000D01*
G37*
G36*
X131676000Y-90801000D02*
G01*
X130324000Y-90801000D01*
X130324000Y-90199000D01*
X131676000Y-90199000D01*
X131676000Y-90801000D01*
X131676000Y-90801000D01*
G37*
G36*
X135451000Y-90301000D02*
G01*
X134549000Y-90301000D01*
X134549000Y-89199000D01*
X135451000Y-89199000D01*
X135451000Y-90301000D01*
X135451000Y-90301000D01*
G37*
G36*
X148551000Y-89551000D02*
G01*
X146449000Y-89551000D01*
X146449000Y-86449000D01*
X148551000Y-86449000D01*
X148551000Y-89551000D01*
X148551000Y-89551000D01*
G37*
G36*
X82901000Y-89191000D02*
G01*
X81099000Y-89191000D01*
X81099000Y-87389000D01*
X82901000Y-87389000D01*
X82901000Y-89191000D01*
X82901000Y-89191000D01*
G37*
G36*
X95301000Y-87926000D02*
G01*
X94699000Y-87926000D01*
X94699000Y-86574000D01*
X95301000Y-86574000D01*
X95301000Y-87926000D01*
X95301000Y-87926000D01*
G37*
G36*
X93551000Y-87926000D02*
G01*
X92949000Y-87926000D01*
X92949000Y-86574000D01*
X93551000Y-86574000D01*
X93551000Y-87926000D01*
X93551000Y-87926000D01*
G37*
G36*
X82113512Y-84853927D02*
G01*
X82262812Y-84883624D01*
X82426784Y-84951544D01*
X82574354Y-85050147D01*
X82699853Y-85175646D01*
X82798456Y-85323216D01*
X82866376Y-85487188D01*
X82901000Y-85661259D01*
X82901000Y-85838741D01*
X82866376Y-86012812D01*
X82798456Y-86176784D01*
X82699853Y-86324354D01*
X82574354Y-86449853D01*
X82426784Y-86548456D01*
X82262812Y-86616376D01*
X82113512Y-86646073D01*
X82088742Y-86651000D01*
X81911258Y-86651000D01*
X81886488Y-86646073D01*
X81737188Y-86616376D01*
X81573216Y-86548456D01*
X81425646Y-86449853D01*
X81300147Y-86324354D01*
X81201544Y-86176784D01*
X81133624Y-86012812D01*
X81099000Y-85838741D01*
X81099000Y-85661259D01*
X81133624Y-85487188D01*
X81201544Y-85323216D01*
X81300147Y-85175646D01*
X81425646Y-85050147D01*
X81573216Y-84951544D01*
X81737188Y-84883624D01*
X81886488Y-84853927D01*
X81911258Y-84849000D01*
X82088742Y-84849000D01*
X82113512Y-84853927D01*
X82113512Y-84853927D01*
G37*
G36*
X170806564Y-83989389D02*
G01*
X170997833Y-84068615D01*
X170997835Y-84068616D01*
X171169973Y-84183635D01*
X171316365Y-84330027D01*
X171431385Y-84502167D01*
X171510611Y-84693436D01*
X171551000Y-84896484D01*
X171551000Y-85103516D01*
X171510611Y-85306564D01*
X171435794Y-85487188D01*
X171431384Y-85497835D01*
X171316365Y-85669973D01*
X171169973Y-85816365D01*
X170997835Y-85931384D01*
X170997834Y-85931385D01*
X170997833Y-85931385D01*
X170806564Y-86010611D01*
X170603516Y-86051000D01*
X170396484Y-86051000D01*
X170193436Y-86010611D01*
X170002167Y-85931385D01*
X170002166Y-85931385D01*
X170002165Y-85931384D01*
X169830027Y-85816365D01*
X169683635Y-85669973D01*
X169568616Y-85497835D01*
X169564206Y-85487188D01*
X169489389Y-85306564D01*
X169449000Y-85103516D01*
X169449000Y-84896484D01*
X169489389Y-84693436D01*
X169568615Y-84502167D01*
X169683635Y-84330027D01*
X169830027Y-84183635D01*
X170002165Y-84068616D01*
X170002167Y-84068615D01*
X170193436Y-83989389D01*
X170396484Y-83949000D01*
X170603516Y-83949000D01*
X170806564Y-83989389D01*
X170806564Y-83989389D01*
G37*
G36*
X87051000Y-85176000D02*
G01*
X86449000Y-85176000D01*
X86449000Y-83824000D01*
X87051000Y-83824000D01*
X87051000Y-85176000D01*
X87051000Y-85176000D01*
G37*
G36*
X89301000Y-85176000D02*
G01*
X88699000Y-85176000D01*
X88699000Y-83824000D01*
X89301000Y-83824000D01*
X89301000Y-85176000D01*
X89301000Y-85176000D01*
G37*
G36*
X93551000Y-85176000D02*
G01*
X92949000Y-85176000D01*
X92949000Y-83824000D01*
X93551000Y-83824000D01*
X93551000Y-85176000D01*
X93551000Y-85176000D01*
G37*
G36*
X95301000Y-85176000D02*
G01*
X94699000Y-85176000D01*
X94699000Y-83824000D01*
X95301000Y-83824000D01*
X95301000Y-85176000D01*
X95301000Y-85176000D01*
G37*
G36*
X91051000Y-85176000D02*
G01*
X90449000Y-85176000D01*
X90449000Y-83824000D01*
X91051000Y-83824000D01*
X91051000Y-85176000D01*
X91051000Y-85176000D01*
G37*
G36*
X85301000Y-85176000D02*
G01*
X84699000Y-85176000D01*
X84699000Y-83824000D01*
X85301000Y-83824000D01*
X85301000Y-85176000D01*
X85301000Y-85176000D01*
G37*
G36*
X153951000Y-81451000D02*
G01*
X151049000Y-81451000D01*
X151049000Y-78549000D01*
X153951000Y-78549000D01*
X153951000Y-81451000D01*
X153951000Y-81451000D01*
G37*
G36*
X148751000Y-81451000D02*
G01*
X145849000Y-81451000D01*
X145849000Y-78549000D01*
X148751000Y-78549000D01*
X148751000Y-81451000D01*
X148751000Y-81451000D01*
G37*
G36*
X137651000Y-81451000D02*
G01*
X134749000Y-81451000D01*
X134749000Y-78549000D01*
X137651000Y-78549000D01*
X137651000Y-81451000D01*
X137651000Y-81451000D01*
G37*
G36*
X132451000Y-81451000D02*
G01*
X129549000Y-81451000D01*
X129549000Y-78549000D01*
X132451000Y-78549000D01*
X132451000Y-81451000D01*
X132451000Y-81451000D01*
G37*
G36*
X171551000Y-81051000D02*
G01*
X169449000Y-81051000D01*
X169449000Y-78949000D01*
X171551000Y-78949000D01*
X171551000Y-81051000D01*
X171551000Y-81051000D01*
G37*
G36*
X164051000Y-79301000D02*
G01*
X162449000Y-79301000D01*
X162449000Y-76199000D01*
X164051000Y-76199000D01*
X164051000Y-79301000D01*
X164051000Y-79301000D01*
G37*
G36*
X160551000Y-79301000D02*
G01*
X158949000Y-79301000D01*
X158949000Y-76199000D01*
X160551000Y-76199000D01*
X160551000Y-79301000D01*
X160551000Y-79301000D01*
G37*
G36*
X85348212Y-76706249D02*
G01*
X85442651Y-76734897D01*
X85529687Y-76781418D01*
X85605975Y-76844025D01*
X85668582Y-76920313D01*
X85715103Y-77007348D01*
X85743751Y-77101787D01*
X85751000Y-77175388D01*
X85751000Y-78324612D01*
X85743751Y-78398213D01*
X85715103Y-78492652D01*
X85668582Y-78579687D01*
X85605975Y-78655975D01*
X85529687Y-78718582D01*
X85442652Y-78765103D01*
X85348213Y-78793751D01*
X85250000Y-78803424D01*
X85151788Y-78793751D01*
X85057349Y-78765103D01*
X84970314Y-78718582D01*
X84894026Y-78655975D01*
X84831419Y-78579687D01*
X84784898Y-78492652D01*
X84756250Y-78398213D01*
X84749001Y-78324612D01*
X84749000Y-77175389D01*
X84756249Y-77101788D01*
X84784897Y-77007349D01*
X84831418Y-76920313D01*
X84894025Y-76844025D01*
X84970313Y-76781418D01*
X85057348Y-76734897D01*
X85151787Y-76706249D01*
X85250000Y-76696576D01*
X85348212Y-76706249D01*
X85348212Y-76706249D01*
G37*
G36*
X89561000Y-78801000D02*
G01*
X88559000Y-78801000D01*
X88559000Y-76699000D01*
X89561000Y-76699000D01*
X89561000Y-78801000D01*
X89561000Y-78801000D01*
G37*
G36*
X108611000Y-78801000D02*
G01*
X107609000Y-78801000D01*
X107609000Y-76699000D01*
X108611000Y-76699000D01*
X108611000Y-78801000D01*
X108611000Y-78801000D01*
G37*
G36*
X87021000Y-78801000D02*
G01*
X86019000Y-78801000D01*
X86019000Y-76699000D01*
X87021000Y-76699000D01*
X87021000Y-78801000D01*
X87021000Y-78801000D01*
G37*
G36*
X88291000Y-78801000D02*
G01*
X87289000Y-78801000D01*
X87289000Y-76699000D01*
X88291000Y-76699000D01*
X88291000Y-78801000D01*
X88291000Y-78801000D01*
G37*
G36*
X90831000Y-78801000D02*
G01*
X89829000Y-78801000D01*
X89829000Y-76699000D01*
X90831000Y-76699000D01*
X90831000Y-78801000D01*
X90831000Y-78801000D01*
G37*
G36*
X92101000Y-78801000D02*
G01*
X91099000Y-78801000D01*
X91099000Y-76699000D01*
X92101000Y-76699000D01*
X92101000Y-78801000D01*
X92101000Y-78801000D01*
G37*
G36*
X93371000Y-78801000D02*
G01*
X92369000Y-78801000D01*
X92369000Y-76699000D01*
X93371000Y-76699000D01*
X93371000Y-78801000D01*
X93371000Y-78801000D01*
G37*
G36*
X94641000Y-78801000D02*
G01*
X93639000Y-78801000D01*
X93639000Y-76699000D01*
X94641000Y-76699000D01*
X94641000Y-78801000D01*
X94641000Y-78801000D01*
G37*
G36*
X97181000Y-78801000D02*
G01*
X96179000Y-78801000D01*
X96179000Y-76699000D01*
X97181000Y-76699000D01*
X97181000Y-78801000D01*
X97181000Y-78801000D01*
G37*
G36*
X99721000Y-78801000D02*
G01*
X98719000Y-78801000D01*
X98719000Y-76699000D01*
X99721000Y-76699000D01*
X99721000Y-78801000D01*
X99721000Y-78801000D01*
G37*
G36*
X95911000Y-78801000D02*
G01*
X94909000Y-78801000D01*
X94909000Y-76699000D01*
X95911000Y-76699000D01*
X95911000Y-78801000D01*
X95911000Y-78801000D01*
G37*
G36*
X107341000Y-78801000D02*
G01*
X106339000Y-78801000D01*
X106339000Y-76699000D01*
X107341000Y-76699000D01*
X107341000Y-78801000D01*
X107341000Y-78801000D01*
G37*
G36*
X106071000Y-78801000D02*
G01*
X105069000Y-78801000D01*
X105069000Y-76699000D01*
X106071000Y-76699000D01*
X106071000Y-78801000D01*
X106071000Y-78801000D01*
G37*
G36*
X104801000Y-78801000D02*
G01*
X103799000Y-78801000D01*
X103799000Y-76699000D01*
X104801000Y-76699000D01*
X104801000Y-78801000D01*
X104801000Y-78801000D01*
G37*
G36*
X103531000Y-78801000D02*
G01*
X102529000Y-78801000D01*
X102529000Y-76699000D01*
X103531000Y-76699000D01*
X103531000Y-78801000D01*
X103531000Y-78801000D01*
G37*
G36*
X102261000Y-78801000D02*
G01*
X101259000Y-78801000D01*
X101259000Y-76699000D01*
X102261000Y-76699000D01*
X102261000Y-78801000D01*
X102261000Y-78801000D01*
G37*
G36*
X100991000Y-78801000D02*
G01*
X99989000Y-78801000D01*
X99989000Y-76699000D01*
X100991000Y-76699000D01*
X100991000Y-78801000D01*
X100991000Y-78801000D01*
G37*
G36*
X98451000Y-78801000D02*
G01*
X97449000Y-78801000D01*
X97449000Y-76699000D01*
X98451000Y-76699000D01*
X98451000Y-78801000D01*
X98451000Y-78801000D01*
G37*
G36*
X170806564Y-73989389D02*
G01*
X170997833Y-74068615D01*
X170997835Y-74068616D01*
X171169973Y-74183635D01*
X171316365Y-74330027D01*
X171431385Y-74502167D01*
X171510611Y-74693436D01*
X171551000Y-74896484D01*
X171551000Y-75103516D01*
X171510611Y-75306564D01*
X171431385Y-75497833D01*
X171431384Y-75497835D01*
X171316365Y-75669973D01*
X171169973Y-75816365D01*
X170997835Y-75931384D01*
X170997834Y-75931385D01*
X170997833Y-75931385D01*
X170806564Y-76010611D01*
X170603516Y-76051000D01*
X170396484Y-76051000D01*
X170193436Y-76010611D01*
X170002167Y-75931385D01*
X170002166Y-75931385D01*
X170002165Y-75931384D01*
X169830027Y-75816365D01*
X169683635Y-75669973D01*
X169568616Y-75497835D01*
X169568615Y-75497833D01*
X169489389Y-75306564D01*
X169449000Y-75103516D01*
X169449000Y-74896484D01*
X169489389Y-74693436D01*
X169568615Y-74502167D01*
X169683635Y-74330027D01*
X169830027Y-74183635D01*
X170002165Y-74068616D01*
X170002167Y-74068615D01*
X170193436Y-73989389D01*
X170396484Y-73949000D01*
X170603516Y-73949000D01*
X170806564Y-73989389D01*
X170806564Y-73989389D01*
G37*
G36*
X103801000Y-75501000D02*
G01*
X101699000Y-75501000D01*
X101699000Y-74499000D01*
X103801000Y-74499000D01*
X103801000Y-75501000D01*
X103801000Y-75501000D01*
G37*
G36*
X163801000Y-74551000D02*
G01*
X162699000Y-74551000D01*
X162699000Y-72449000D01*
X163801000Y-72449000D01*
X163801000Y-74551000D01*
X163801000Y-74551000D01*
G37*
G36*
X160301000Y-74551000D02*
G01*
X159199000Y-74551000D01*
X159199000Y-72449000D01*
X160301000Y-72449000D01*
X160301000Y-74551000D01*
X160301000Y-74551000D01*
G37*
G36*
X103801000Y-74231000D02*
G01*
X101699000Y-74231000D01*
X101699000Y-73229000D01*
X103801000Y-73229000D01*
X103801000Y-74231000D01*
X103801000Y-74231000D01*
G37*
G36*
X151926000Y-73801000D02*
G01*
X150574000Y-73801000D01*
X150574000Y-73199000D01*
X151926000Y-73199000D01*
X151926000Y-73801000D01*
X151926000Y-73801000D01*
G37*
G36*
X143176000Y-73801000D02*
G01*
X141824000Y-73801000D01*
X141824000Y-73199000D01*
X143176000Y-73199000D01*
X143176000Y-73801000D01*
X143176000Y-73801000D01*
G37*
G36*
X147801000Y-73676000D02*
G01*
X147199000Y-73676000D01*
X147199000Y-72324000D01*
X147801000Y-72324000D01*
X147801000Y-73676000D01*
X147801000Y-73676000D01*
G37*
G36*
X154801000Y-73676000D02*
G01*
X154199000Y-73676000D01*
X154199000Y-72324000D01*
X154801000Y-72324000D01*
X154801000Y-73676000D01*
X154801000Y-73676000D01*
G37*
G36*
X146051000Y-73676000D02*
G01*
X145449000Y-73676000D01*
X145449000Y-72324000D01*
X146051000Y-72324000D01*
X146051000Y-73676000D01*
X146051000Y-73676000D01*
G37*
G36*
X156551000Y-73676000D02*
G01*
X155949000Y-73676000D01*
X155949000Y-72324000D01*
X156551000Y-72324000D01*
X156551000Y-73676000D01*
X156551000Y-73676000D01*
G37*
G36*
X103801000Y-72961000D02*
G01*
X101699000Y-72961000D01*
X101699000Y-71959000D01*
X103801000Y-71959000D01*
X103801000Y-72961000D01*
X103801000Y-72961000D01*
G37*
G36*
X93476000Y-72726000D02*
G01*
X92024000Y-72726000D01*
X92024000Y-71274000D01*
X93476000Y-71274000D01*
X93476000Y-72726000D01*
X93476000Y-72726000D01*
G37*
G36*
X91726000Y-72726000D02*
G01*
X90274000Y-72726000D01*
X90274000Y-71274000D01*
X91726000Y-71274000D01*
X91726000Y-72726000D01*
X91726000Y-72726000D01*
G37*
G36*
X95226000Y-72726000D02*
G01*
X93774000Y-72726000D01*
X93774000Y-71274000D01*
X95226000Y-71274000D01*
X95226000Y-72726000D01*
X95226000Y-72726000D01*
G37*
G36*
X143176000Y-72051000D02*
G01*
X141824000Y-72051000D01*
X141824000Y-71449000D01*
X143176000Y-71449000D01*
X143176000Y-72051000D01*
X143176000Y-72051000D01*
G37*
G36*
X151926000Y-72051000D02*
G01*
X150574000Y-72051000D01*
X150574000Y-71449000D01*
X151926000Y-71449000D01*
X151926000Y-72051000D01*
X151926000Y-72051000D01*
G37*
G36*
X103801000Y-71691000D02*
G01*
X101699000Y-71691000D01*
X101699000Y-70689000D01*
X103801000Y-70689000D01*
X103801000Y-71691000D01*
X103801000Y-71691000D01*
G37*
G36*
X95226000Y-70976000D02*
G01*
X93774000Y-70976000D01*
X93774000Y-69524000D01*
X95226000Y-69524000D01*
X95226000Y-70976000D01*
X95226000Y-70976000D01*
G37*
G36*
X93476000Y-70976000D02*
G01*
X92024000Y-70976000D01*
X92024000Y-69524000D01*
X93476000Y-69524000D01*
X93476000Y-70976000D01*
X93476000Y-70976000D01*
G37*
G36*
X91726000Y-70976000D02*
G01*
X90274000Y-70976000D01*
X90274000Y-69524000D01*
X91726000Y-69524000D01*
X91726000Y-70976000D01*
X91726000Y-70976000D01*
G37*
G36*
X166401000Y-70651000D02*
G01*
X164599000Y-70651000D01*
X164599000Y-68849000D01*
X166401000Y-68849000D01*
X166401000Y-70651000D01*
X166401000Y-70651000D01*
G37*
G36*
X168901000Y-70651000D02*
G01*
X167099000Y-70651000D01*
X167099000Y-68849000D01*
X168901000Y-68849000D01*
X168901000Y-70651000D01*
X168901000Y-70651000D01*
G37*
G36*
X171401000Y-70651000D02*
G01*
X169599000Y-70651000D01*
X169599000Y-68849000D01*
X171401000Y-68849000D01*
X171401000Y-70651000D01*
X171401000Y-70651000D01*
G37*
G36*
X154701000Y-70551000D02*
G01*
X153799000Y-70551000D01*
X153799000Y-69449000D01*
X154701000Y-69449000D01*
X154701000Y-70551000D01*
X154701000Y-70551000D01*
G37*
G36*
X147951000Y-70551000D02*
G01*
X147049000Y-70551000D01*
X147049000Y-69449000D01*
X147951000Y-69449000D01*
X147951000Y-70551000D01*
X147951000Y-70551000D01*
G37*
G36*
X156701000Y-70551000D02*
G01*
X155799000Y-70551000D01*
X155799000Y-69449000D01*
X156701000Y-69449000D01*
X156701000Y-70551000D01*
X156701000Y-70551000D01*
G37*
G36*
X145951000Y-70551000D02*
G01*
X145049000Y-70551000D01*
X145049000Y-69449000D01*
X145951000Y-69449000D01*
X145951000Y-70551000D01*
X145951000Y-70551000D01*
G37*
G36*
X103801000Y-70421000D02*
G01*
X101699000Y-70421000D01*
X101699000Y-69419000D01*
X103801000Y-69419000D01*
X103801000Y-70421000D01*
X103801000Y-70421000D01*
G37*
G36*
X151926000Y-69551000D02*
G01*
X150574000Y-69551000D01*
X150574000Y-68949000D01*
X151926000Y-68949000D01*
X151926000Y-69551000D01*
X151926000Y-69551000D01*
G37*
G36*
X95226000Y-69226000D02*
G01*
X93774000Y-69226000D01*
X93774000Y-67774000D01*
X95226000Y-67774000D01*
X95226000Y-69226000D01*
X95226000Y-69226000D01*
G37*
G36*
X93476000Y-69226000D02*
G01*
X92024000Y-69226000D01*
X92024000Y-67774000D01*
X93476000Y-67774000D01*
X93476000Y-69226000D01*
X93476000Y-69226000D01*
G37*
G36*
X91726000Y-69226000D02*
G01*
X90274000Y-69226000D01*
X90274000Y-67774000D01*
X91726000Y-67774000D01*
X91726000Y-69226000D01*
X91726000Y-69226000D01*
G37*
G36*
X103801000Y-69151000D02*
G01*
X101699000Y-69151000D01*
X101699000Y-68149000D01*
X103801000Y-68149000D01*
X103801000Y-69151000D01*
X103801000Y-69151000D01*
G37*
G36*
X155701000Y-68051000D02*
G01*
X154799000Y-68051000D01*
X154799000Y-66949000D01*
X155701000Y-66949000D01*
X155701000Y-68051000D01*
X155701000Y-68051000D01*
G37*
G36*
X146951000Y-68051000D02*
G01*
X146049000Y-68051000D01*
X146049000Y-66949000D01*
X146951000Y-66949000D01*
X146951000Y-68051000D01*
X146951000Y-68051000D01*
G37*
G36*
X103801000Y-67881000D02*
G01*
X101699000Y-67881000D01*
X101699000Y-66879000D01*
X103801000Y-66879000D01*
X103801000Y-67881000D01*
X103801000Y-67881000D01*
G37*
G36*
X151926000Y-67801000D02*
G01*
X150574000Y-67801000D01*
X150574000Y-67199000D01*
X151926000Y-67199000D01*
X151926000Y-67801000D01*
X151926000Y-67801000D01*
G37*
G36*
X136051000Y-67701000D02*
G01*
X133349000Y-67701000D01*
X133349000Y-66499000D01*
X136051000Y-66499000D01*
X136051000Y-67701000D01*
X136051000Y-67701000D01*
G37*
G36*
X141926000Y-67301000D02*
G01*
X140574000Y-67301000D01*
X140574000Y-66699000D01*
X141926000Y-66699000D01*
X141926000Y-67301000D01*
X141926000Y-67301000D01*
G37*
G36*
X144426000Y-67301000D02*
G01*
X143074000Y-67301000D01*
X143074000Y-66699000D01*
X144426000Y-66699000D01*
X144426000Y-67301000D01*
X144426000Y-67301000D01*
G37*
G36*
X139426000Y-67301000D02*
G01*
X138074000Y-67301000D01*
X138074000Y-66699000D01*
X139426000Y-66699000D01*
X139426000Y-67301000D01*
X139426000Y-67301000D01*
G37*
G36*
X130926000Y-67301000D02*
G01*
X129574000Y-67301000D01*
X129574000Y-66699000D01*
X130926000Y-66699000D01*
X130926000Y-67301000D01*
X130926000Y-67301000D01*
G37*
G36*
X103801000Y-66611000D02*
G01*
X101699000Y-66611000D01*
X101699000Y-65609000D01*
X103801000Y-65609000D01*
X103801000Y-66611000D01*
X103801000Y-66611000D01*
G37*
G36*
X130926000Y-65551000D02*
G01*
X129574000Y-65551000D01*
X129574000Y-64949000D01*
X130926000Y-64949000D01*
X130926000Y-65551000D01*
X130926000Y-65551000D01*
G37*
G36*
X144426000Y-65551000D02*
G01*
X143074000Y-65551000D01*
X143074000Y-64949000D01*
X144426000Y-64949000D01*
X144426000Y-65551000D01*
X144426000Y-65551000D01*
G37*
G36*
X139426000Y-65551000D02*
G01*
X138074000Y-65551000D01*
X138074000Y-64949000D01*
X139426000Y-64949000D01*
X139426000Y-65551000D01*
X139426000Y-65551000D01*
G37*
G36*
X141926000Y-65551000D02*
G01*
X140574000Y-65551000D01*
X140574000Y-64949000D01*
X141926000Y-64949000D01*
X141926000Y-65551000D01*
X141926000Y-65551000D01*
G37*
G36*
X103801000Y-65341000D02*
G01*
X101699000Y-65341000D01*
X101699000Y-64339000D01*
X103801000Y-64339000D01*
X103801000Y-65341000D01*
X103801000Y-65341000D01*
G37*
G36*
X136051000Y-65101000D02*
G01*
X135249000Y-65101000D01*
X135249000Y-63899000D01*
X136051000Y-63899000D01*
X136051000Y-65101000D01*
X136051000Y-65101000D01*
G37*
G36*
X134151000Y-65101000D02*
G01*
X133349000Y-65101000D01*
X133349000Y-63899000D01*
X134151000Y-63899000D01*
X134151000Y-65101000D01*
X134151000Y-65101000D01*
G37*
G36*
X103801000Y-64071000D02*
G01*
X101699000Y-64071000D01*
X101699000Y-63069000D01*
X103801000Y-63069000D01*
X103801000Y-64071000D01*
X103801000Y-64071000D01*
G37*
G36*
X165613512Y-61353927D02*
G01*
X165762812Y-61383624D01*
X165926784Y-61451544D01*
X166074354Y-61550147D01*
X166199853Y-61675646D01*
X166298456Y-61823216D01*
X166366376Y-61987188D01*
X166401000Y-62161259D01*
X166401000Y-62338741D01*
X166366376Y-62512812D01*
X166298456Y-62676784D01*
X166199853Y-62824354D01*
X166074354Y-62949853D01*
X165926784Y-63048456D01*
X165762812Y-63116376D01*
X165613512Y-63146073D01*
X165588742Y-63151000D01*
X165411258Y-63151000D01*
X165386488Y-63146073D01*
X165237188Y-63116376D01*
X165073216Y-63048456D01*
X164925646Y-62949853D01*
X164800147Y-62824354D01*
X164701544Y-62676784D01*
X164633624Y-62512812D01*
X164599000Y-62338741D01*
X164599000Y-62161259D01*
X164633624Y-61987188D01*
X164701544Y-61823216D01*
X164800147Y-61675646D01*
X164925646Y-61550147D01*
X165073216Y-61451544D01*
X165237188Y-61383624D01*
X165386488Y-61353927D01*
X165411258Y-61349000D01*
X165588742Y-61349000D01*
X165613512Y-61353927D01*
X165613512Y-61353927D01*
G37*
G36*
X168901000Y-63151000D02*
G01*
X167099000Y-63151000D01*
X167099000Y-61349000D01*
X168901000Y-61349000D01*
X168901000Y-63151000D01*
X168901000Y-63151000D01*
G37*
G36*
X171401000Y-63151000D02*
G01*
X169599000Y-63151000D01*
X169599000Y-61349000D01*
X171401000Y-61349000D01*
X171401000Y-63151000D01*
X171401000Y-63151000D01*
G37*
G36*
X106071000Y-61801000D02*
G01*
X105069000Y-61801000D01*
X105069000Y-59699000D01*
X106071000Y-59699000D01*
X106071000Y-61801000D01*
X106071000Y-61801000D01*
G37*
G36*
X107341000Y-61801000D02*
G01*
X106339000Y-61801000D01*
X106339000Y-59699000D01*
X107341000Y-59699000D01*
X107341000Y-61801000D01*
X107341000Y-61801000D01*
G37*
G36*
X108611000Y-61801000D02*
G01*
X107609000Y-61801000D01*
X107609000Y-59699000D01*
X108611000Y-59699000D01*
X108611000Y-61801000D01*
X108611000Y-61801000D01*
G37*
G36*
X93371000Y-61801000D02*
G01*
X92369000Y-61801000D01*
X92369000Y-59699000D01*
X93371000Y-59699000D01*
X93371000Y-61801000D01*
X93371000Y-61801000D01*
G37*
G36*
X92101000Y-61801000D02*
G01*
X91099000Y-61801000D01*
X91099000Y-59699000D01*
X92101000Y-59699000D01*
X92101000Y-61801000D01*
X92101000Y-61801000D01*
G37*
G36*
X90831000Y-61801000D02*
G01*
X89829000Y-61801000D01*
X89829000Y-59699000D01*
X90831000Y-59699000D01*
X90831000Y-61801000D01*
X90831000Y-61801000D01*
G37*
G36*
X95911000Y-61801000D02*
G01*
X94909000Y-61801000D01*
X94909000Y-59699000D01*
X95911000Y-59699000D01*
X95911000Y-61801000D01*
X95911000Y-61801000D01*
G37*
G36*
X97181000Y-61801000D02*
G01*
X96179000Y-61801000D01*
X96179000Y-59699000D01*
X97181000Y-59699000D01*
X97181000Y-61801000D01*
X97181000Y-61801000D01*
G37*
G36*
X98451000Y-61801000D02*
G01*
X97449000Y-61801000D01*
X97449000Y-59699000D01*
X98451000Y-59699000D01*
X98451000Y-61801000D01*
X98451000Y-61801000D01*
G37*
G36*
X100991000Y-61801000D02*
G01*
X99989000Y-61801000D01*
X99989000Y-59699000D01*
X100991000Y-59699000D01*
X100991000Y-61801000D01*
X100991000Y-61801000D01*
G37*
G36*
X103531000Y-61801000D02*
G01*
X102529000Y-61801000D01*
X102529000Y-59699000D01*
X103531000Y-59699000D01*
X103531000Y-61801000D01*
X103531000Y-61801000D01*
G37*
G36*
X102261000Y-61801000D02*
G01*
X101259000Y-61801000D01*
X101259000Y-59699000D01*
X102261000Y-59699000D01*
X102261000Y-61801000D01*
X102261000Y-61801000D01*
G37*
G36*
X89561000Y-61801000D02*
G01*
X88559000Y-61801000D01*
X88559000Y-59699000D01*
X89561000Y-59699000D01*
X89561000Y-61801000D01*
X89561000Y-61801000D01*
G37*
G36*
X88291000Y-61801000D02*
G01*
X87289000Y-61801000D01*
X87289000Y-59699000D01*
X88291000Y-59699000D01*
X88291000Y-61801000D01*
X88291000Y-61801000D01*
G37*
G36*
X87021000Y-61801000D02*
G01*
X86019000Y-61801000D01*
X86019000Y-59699000D01*
X87021000Y-59699000D01*
X87021000Y-61801000D01*
X87021000Y-61801000D01*
G37*
G36*
X85751000Y-61801000D02*
G01*
X84749000Y-61801000D01*
X84749000Y-59699000D01*
X85751000Y-59699000D01*
X85751000Y-61801000D01*
X85751000Y-61801000D01*
G37*
G36*
X94641000Y-61801000D02*
G01*
X93639000Y-61801000D01*
X93639000Y-59699000D01*
X94641000Y-59699000D01*
X94641000Y-61801000D01*
X94641000Y-61801000D01*
G37*
G36*
X104801000Y-61801000D02*
G01*
X103799000Y-61801000D01*
X103799000Y-59699000D01*
X104801000Y-59699000D01*
X104801000Y-61801000D01*
X104801000Y-61801000D01*
G37*
G36*
X99721000Y-61801000D02*
G01*
X98719000Y-61801000D01*
X98719000Y-59699000D01*
X99721000Y-59699000D01*
X99721000Y-61801000D01*
X99721000Y-61801000D01*
G37*
G36*
X140051000Y-61551000D02*
G01*
X138449000Y-61551000D01*
X138449000Y-57949000D01*
X140051000Y-57949000D01*
X140051000Y-61551000D01*
X140051000Y-61551000D01*
G37*
G36*
X147301000Y-61551000D02*
G01*
X145699000Y-61551000D01*
X145699000Y-57949000D01*
X147301000Y-57949000D01*
X147301000Y-61551000D01*
X147301000Y-61551000D01*
G37*
G36*
X160301000Y-61051000D02*
G01*
X158199000Y-61051000D01*
X158199000Y-58449000D01*
X160301000Y-58449000D01*
X160301000Y-61051000D01*
X160301000Y-61051000D01*
G37*
G36*
X155051000Y-61051000D02*
G01*
X152949000Y-61051000D01*
X152949000Y-58449000D01*
X155051000Y-58449000D01*
X155051000Y-61051000D01*
X155051000Y-61051000D01*
G37*
G36*
X127176000Y-60051000D02*
G01*
X125824000Y-60051000D01*
X125824000Y-59449000D01*
X127176000Y-59449000D01*
X127176000Y-60051000D01*
X127176000Y-60051000D01*
G37*
G36*
X129676000Y-60051000D02*
G01*
X128324000Y-60051000D01*
X128324000Y-59449000D01*
X129676000Y-59449000D01*
X129676000Y-60051000D01*
X129676000Y-60051000D01*
G37*
G36*
X132176000Y-60051000D02*
G01*
X130824000Y-60051000D01*
X130824000Y-59449000D01*
X132176000Y-59449000D01*
X132176000Y-60051000D01*
X132176000Y-60051000D01*
G37*
G36*
X81035787Y-51585462D02*
G01*
X81035790Y-51585463D01*
X81035789Y-51585463D01*
X81682029Y-51853144D01*
X82263631Y-52241758D01*
X82758242Y-52736369D01*
X83146856Y-53317971D01*
X83146856Y-53317972D01*
X83414538Y-53964213D01*
X83551000Y-54650256D01*
X83551000Y-55349744D01*
X83414538Y-56035787D01*
X83414537Y-56035789D01*
X83146856Y-56682029D01*
X82758242Y-57263631D01*
X82263631Y-57758242D01*
X81682029Y-58146856D01*
X81309892Y-58301000D01*
X81035787Y-58414538D01*
X80349744Y-58551000D01*
X79650256Y-58551000D01*
X78964213Y-58414538D01*
X78690108Y-58301000D01*
X78317971Y-58146856D01*
X77736369Y-57758242D01*
X77241758Y-57263631D01*
X76853144Y-56682029D01*
X76585463Y-56035789D01*
X76585462Y-56035787D01*
X76449000Y-55349744D01*
X76449000Y-54650256D01*
X76585462Y-53964213D01*
X76853144Y-53317972D01*
X76853144Y-53317971D01*
X77241758Y-52736369D01*
X77736369Y-52241758D01*
X78317971Y-51853144D01*
X78964211Y-51585463D01*
X78964210Y-51585463D01*
X78964213Y-51585462D01*
X79650256Y-51449000D01*
X80349744Y-51449000D01*
X81035787Y-51585462D01*
X81035787Y-51585462D01*
G37*
G36*
X171035787Y-51585462D02*
G01*
X171035790Y-51585463D01*
X171035789Y-51585463D01*
X171682029Y-51853144D01*
X172263631Y-52241758D01*
X172758242Y-52736369D01*
X173146856Y-53317971D01*
X173146856Y-53317972D01*
X173414538Y-53964213D01*
X173551000Y-54650256D01*
X173551000Y-55349744D01*
X173414538Y-56035787D01*
X173414537Y-56035789D01*
X173146856Y-56682029D01*
X172758242Y-57263631D01*
X172263631Y-57758242D01*
X171682029Y-58146856D01*
X171309892Y-58301000D01*
X171035787Y-58414538D01*
X170349744Y-58551000D01*
X169650256Y-58551000D01*
X168964213Y-58414538D01*
X168690108Y-58301000D01*
X168317971Y-58146856D01*
X167736369Y-57758242D01*
X167241758Y-57263631D01*
X166853144Y-56682029D01*
X166585463Y-56035789D01*
X166585462Y-56035787D01*
X166449000Y-55349744D01*
X166449000Y-54650256D01*
X166585462Y-53964213D01*
X166853144Y-53317972D01*
X166853144Y-53317971D01*
X167241758Y-52736369D01*
X167736369Y-52241758D01*
X168317971Y-51853144D01*
X168964211Y-51585463D01*
X168964210Y-51585463D01*
X168964213Y-51585462D01*
X169650256Y-51449000D01*
X170349744Y-51449000D01*
X171035787Y-51585462D01*
X171035787Y-51585462D01*
G37*
G36*
X132176000Y-58301000D02*
G01*
X130824000Y-58301000D01*
X130824000Y-57699000D01*
X132176000Y-57699000D01*
X132176000Y-58301000D01*
X132176000Y-58301000D01*
G37*
G36*
X129676000Y-58301000D02*
G01*
X128324000Y-58301000D01*
X128324000Y-57699000D01*
X129676000Y-57699000D01*
X129676000Y-58301000D01*
X129676000Y-58301000D01*
G37*
G36*
X127176000Y-58301000D02*
G01*
X125824000Y-58301000D01*
X125824000Y-57699000D01*
X127176000Y-57699000D01*
X127176000Y-58301000D01*
X127176000Y-58301000D01*
G37*
G36*
X100801000Y-57176000D02*
G01*
X100199000Y-57176000D01*
X100199000Y-55824000D01*
X100801000Y-55824000D01*
X100801000Y-57176000D01*
X100801000Y-57176000D01*
G37*
G36*
X99051000Y-57176000D02*
G01*
X98449000Y-57176000D01*
X98449000Y-55824000D01*
X99051000Y-55824000D01*
X99051000Y-57176000D01*
X99051000Y-57176000D01*
G37*
G36*
X147441000Y-55651000D02*
G01*
X145639000Y-55651000D01*
X145639000Y-53849000D01*
X147441000Y-53849000D01*
X147441000Y-55651000D01*
X147441000Y-55651000D01*
G37*
G36*
X132441000Y-55651000D02*
G01*
X130639000Y-55651000D01*
X130639000Y-53849000D01*
X132441000Y-53849000D01*
X132441000Y-55651000D01*
X132441000Y-55651000D01*
G37*
G36*
X136613512Y-53853927D02*
G01*
X136762812Y-53883624D01*
X136926784Y-53951544D01*
X137074354Y-54050147D01*
X137199853Y-54175646D01*
X137298456Y-54323216D01*
X137366376Y-54487188D01*
X137396073Y-54636488D01*
X137398812Y-54650256D01*
X137401000Y-54661259D01*
X137401000Y-54838741D01*
X137366376Y-55012812D01*
X137298456Y-55176784D01*
X137199853Y-55324354D01*
X137074354Y-55449853D01*
X136926784Y-55548456D01*
X136762812Y-55616376D01*
X136613512Y-55646073D01*
X136588742Y-55651000D01*
X136411258Y-55651000D01*
X136386488Y-55646073D01*
X136237188Y-55616376D01*
X136073216Y-55548456D01*
X135925646Y-55449853D01*
X135800147Y-55324354D01*
X135701544Y-55176784D01*
X135633624Y-55012812D01*
X135599000Y-54838741D01*
X135599000Y-54661259D01*
X135601189Y-54650256D01*
X135603927Y-54636488D01*
X135633624Y-54487188D01*
X135701544Y-54323216D01*
X135800147Y-54175646D01*
X135925646Y-54050147D01*
X136073216Y-53951544D01*
X136237188Y-53883624D01*
X136386488Y-53853927D01*
X136411258Y-53849000D01*
X136588742Y-53849000D01*
X136613512Y-53853927D01*
X136613512Y-53853927D01*
G37*
G36*
X139941000Y-55651000D02*
G01*
X138139000Y-55651000D01*
X138139000Y-53849000D01*
X139941000Y-53849000D01*
X139941000Y-55651000D01*
X139941000Y-55651000D01*
G37*
G36*
X144113512Y-53853927D02*
G01*
X144262812Y-53883624D01*
X144426784Y-53951544D01*
X144574354Y-54050147D01*
X144699853Y-54175646D01*
X144798456Y-54323216D01*
X144866376Y-54487188D01*
X144896073Y-54636488D01*
X144898812Y-54650256D01*
X144901000Y-54661259D01*
X144901000Y-54838741D01*
X144866376Y-55012812D01*
X144798456Y-55176784D01*
X144699853Y-55324354D01*
X144574354Y-55449853D01*
X144426784Y-55548456D01*
X144262812Y-55616376D01*
X144113512Y-55646073D01*
X144088742Y-55651000D01*
X143911258Y-55651000D01*
X143886488Y-55646073D01*
X143737188Y-55616376D01*
X143573216Y-55548456D01*
X143425646Y-55449853D01*
X143300147Y-55324354D01*
X143201544Y-55176784D01*
X143133624Y-55012812D01*
X143099000Y-54838741D01*
X143099000Y-54661259D01*
X143101189Y-54650256D01*
X143103927Y-54636488D01*
X143133624Y-54487188D01*
X143201544Y-54323216D01*
X143300147Y-54175646D01*
X143425646Y-54050147D01*
X143573216Y-53951544D01*
X143737188Y-53883624D01*
X143886488Y-53853927D01*
X143911258Y-53849000D01*
X144088742Y-53849000D01*
X144113512Y-53853927D01*
X144113512Y-53853927D01*
G37*
G36*
X151613512Y-53853927D02*
G01*
X151762812Y-53883624D01*
X151926784Y-53951544D01*
X152074354Y-54050147D01*
X152199853Y-54175646D01*
X152298456Y-54323216D01*
X152366376Y-54487188D01*
X152396073Y-54636488D01*
X152398812Y-54650256D01*
X152401000Y-54661259D01*
X152401000Y-54838741D01*
X152366376Y-55012812D01*
X152298456Y-55176784D01*
X152199853Y-55324354D01*
X152074354Y-55449853D01*
X151926784Y-55548456D01*
X151762812Y-55616376D01*
X151613512Y-55646073D01*
X151588742Y-55651000D01*
X151411258Y-55651000D01*
X151386488Y-55646073D01*
X151237188Y-55616376D01*
X151073216Y-55548456D01*
X150925646Y-55449853D01*
X150800147Y-55324354D01*
X150701544Y-55176784D01*
X150633624Y-55012812D01*
X150599000Y-54838741D01*
X150599000Y-54661259D01*
X150601189Y-54650256D01*
X150603927Y-54636488D01*
X150633624Y-54487188D01*
X150701544Y-54323216D01*
X150800147Y-54175646D01*
X150925646Y-54050147D01*
X151073216Y-53951544D01*
X151237188Y-53883624D01*
X151386488Y-53853927D01*
X151411258Y-53849000D01*
X151588742Y-53849000D01*
X151613512Y-53853927D01*
X151613512Y-53853927D01*
G37*
G36*
X154941000Y-55651000D02*
G01*
X153139000Y-55651000D01*
X153139000Y-53849000D01*
X154941000Y-53849000D01*
X154941000Y-55651000D01*
X154941000Y-55651000D01*
G37*
G36*
X159113512Y-53853927D02*
G01*
X159262812Y-53883624D01*
X159426784Y-53951544D01*
X159574354Y-54050147D01*
X159699853Y-54175646D01*
X159798456Y-54323216D01*
X159866376Y-54487188D01*
X159896073Y-54636488D01*
X159898812Y-54650256D01*
X159901000Y-54661259D01*
X159901000Y-54838741D01*
X159866376Y-55012812D01*
X159798456Y-55176784D01*
X159699853Y-55324354D01*
X159574354Y-55449853D01*
X159426784Y-55548456D01*
X159262812Y-55616376D01*
X159113512Y-55646073D01*
X159088742Y-55651000D01*
X158911258Y-55651000D01*
X158886488Y-55646073D01*
X158737188Y-55616376D01*
X158573216Y-55548456D01*
X158425646Y-55449853D01*
X158300147Y-55324354D01*
X158201544Y-55176784D01*
X158133624Y-55012812D01*
X158099000Y-54838741D01*
X158099000Y-54661259D01*
X158101189Y-54650256D01*
X158103927Y-54636488D01*
X158133624Y-54487188D01*
X158201544Y-54323216D01*
X158300147Y-54175646D01*
X158425646Y-54050147D01*
X158573216Y-53951544D01*
X158737188Y-53883624D01*
X158886488Y-53853927D01*
X158911258Y-53849000D01*
X159088742Y-53849000D01*
X159113512Y-53853927D01*
X159113512Y-53853927D01*
G37*
G36*
X162441000Y-55651000D02*
G01*
X160639000Y-55651000D01*
X160639000Y-53849000D01*
X162441000Y-53849000D01*
X162441000Y-55651000D01*
X162441000Y-55651000D01*
G37*
G36*
X129113512Y-53853927D02*
G01*
X129262812Y-53883624D01*
X129426784Y-53951544D01*
X129574354Y-54050147D01*
X129699853Y-54175646D01*
X129798456Y-54323216D01*
X129866376Y-54487188D01*
X129896073Y-54636488D01*
X129898812Y-54650256D01*
X129901000Y-54661259D01*
X129901000Y-54838741D01*
X129866376Y-55012812D01*
X129798456Y-55176784D01*
X129699853Y-55324354D01*
X129574354Y-55449853D01*
X129426784Y-55548456D01*
X129262812Y-55616376D01*
X129113512Y-55646073D01*
X129088742Y-55651000D01*
X128911258Y-55651000D01*
X128886488Y-55646073D01*
X128737188Y-55616376D01*
X128573216Y-55548456D01*
X128425646Y-55449853D01*
X128300147Y-55324354D01*
X128201544Y-55176784D01*
X128133624Y-55012812D01*
X128099000Y-54838741D01*
X128099000Y-54661259D01*
X128101189Y-54650256D01*
X128103927Y-54636488D01*
X128133624Y-54487188D01*
X128201544Y-54323216D01*
X128300147Y-54175646D01*
X128425646Y-54050147D01*
X128573216Y-53951544D01*
X128737188Y-53883624D01*
X128886488Y-53853927D01*
X128911258Y-53849000D01*
X129088742Y-53849000D01*
X129113512Y-53853927D01*
X129113512Y-53853927D01*
G37*
G36*
X100801000Y-54176000D02*
G01*
X100199000Y-54176000D01*
X100199000Y-52824000D01*
X100801000Y-52824000D01*
X100801000Y-54176000D01*
X100801000Y-54176000D01*
G37*
G36*
X99051000Y-54176000D02*
G01*
X98449000Y-54176000D01*
X98449000Y-52824000D01*
X99051000Y-52824000D01*
X99051000Y-54176000D01*
X99051000Y-54176000D01*
G37*
G36*
X103051000Y-54176000D02*
G01*
X102449000Y-54176000D01*
X102449000Y-52824000D01*
X103051000Y-52824000D01*
X103051000Y-54176000D01*
X103051000Y-54176000D01*
G37*
G36*
X104801000Y-54176000D02*
G01*
X104199000Y-54176000D01*
X104199000Y-52824000D01*
X104801000Y-52824000D01*
X104801000Y-54176000D01*
X104801000Y-54176000D01*
G37*
M02*
