G04 #@! TF.GenerationSoftware,KiCad,Pcbnew,(5.1.4)-1*
G04 #@! TF.CreationDate,2020-11-07T23:49:10+03:00*
G04 #@! TF.ProjectId,UAK_2,55414b5f-322e-46b6-9963-61645f706362,rev?*
G04 #@! TF.SameCoordinates,Original*
G04 #@! TF.FileFunction,Legend,Bot*
G04 #@! TF.FilePolarity,Positive*
%FSLAX46Y46*%
G04 Gerber Fmt 4.6, Leading zero omitted, Abs format (unit mm)*
G04 Created by KiCad (PCBNEW (5.1.4)-1) date 2020-11-07 23:49:10*
%MOMM*%
%LPD*%
G04 APERTURE LIST*
%ADD10C,0.120000*%
%ADD11C,0.150000*%
%ADD12C,0.010000*%
%ADD13C,0.300000*%
G04 APERTURE END LIST*
D10*
X156250000Y-65750000D02*
X156250000Y-66750000D01*
X157000000Y-65750000D02*
X157000000Y-66750000D01*
X157000000Y-66250000D02*
X156250000Y-65750000D01*
X161500000Y-66250000D02*
X161500000Y-65250000D01*
X157000000Y-65250000D02*
X157000000Y-65500000D01*
X156500000Y-65250000D02*
X156500000Y-65500000D01*
X156500000Y-65250000D02*
X156250000Y-65250000D01*
X156250000Y-65500000D02*
X156500000Y-65250000D01*
X157000000Y-65250000D02*
X156750000Y-65250000D01*
X156750000Y-65500000D02*
X157000000Y-65250000D01*
X154000000Y-66250000D02*
X161500000Y-66250000D01*
X156250000Y-66750000D02*
X157000000Y-66250000D01*
X154000000Y-66250000D02*
X154000000Y-63250000D01*
X159000000Y-65250000D02*
X159000000Y-64250000D01*
X161500000Y-65250000D02*
X161500000Y-64250000D01*
X160000000Y-64250000D02*
X160000000Y-64500000D01*
X160000000Y-64250000D02*
X159750000Y-64250000D01*
X159750000Y-64500000D02*
X160000000Y-64250000D01*
X160500000Y-64250000D02*
X160500000Y-64500000D01*
X160500000Y-64250000D02*
X160250000Y-64250000D01*
X160250000Y-64500000D02*
X160500000Y-64250000D01*
X159000000Y-65250000D02*
X161500000Y-65250000D01*
X160500000Y-64750000D02*
X160500000Y-65750000D01*
X160500000Y-65250000D02*
X159750000Y-64750000D01*
X159750000Y-65750000D02*
X160500000Y-65250000D01*
X159750000Y-64750000D02*
X159750000Y-65750000D01*
D11*
X151500000Y-66750000D02*
X149750000Y-66750000D01*
X149750000Y-66750000D02*
X148250000Y-67250000D01*
X151500000Y-65750000D02*
X151500000Y-66750000D01*
X146500000Y-65750000D02*
X146500000Y-66750000D01*
X146500000Y-66750000D02*
X148000000Y-66750000D01*
X131250000Y-63000000D02*
X129750000Y-63500000D01*
X131750000Y-63000000D02*
X131250000Y-63000000D01*
X131750000Y-62000000D02*
X131750000Y-63000000D01*
X129000000Y-63000000D02*
X129500000Y-63000000D01*
X129000000Y-62000000D02*
X129000000Y-63000000D01*
X91011785Y-91111904D02*
X91278452Y-90730952D01*
X91468928Y-91111904D02*
X91468928Y-90311904D01*
X91164166Y-90311904D01*
X91087976Y-90350000D01*
X91049880Y-90388095D01*
X91011785Y-90464285D01*
X91011785Y-90578571D01*
X91049880Y-90654761D01*
X91087976Y-90692857D01*
X91164166Y-90730952D01*
X91468928Y-90730952D01*
X90745119Y-90311904D02*
X90211785Y-91111904D01*
X90211785Y-90311904D02*
X90745119Y-91111904D01*
X91642738Y-87811904D02*
X91185595Y-87811904D01*
X91414166Y-88611904D02*
X91414166Y-87811904D01*
X90995119Y-87811904D02*
X90461785Y-88611904D01*
X90461785Y-87811904D02*
X90995119Y-88611904D01*
X91771309Y-85311904D02*
X91276071Y-85311904D01*
X91542738Y-85616666D01*
X91428452Y-85616666D01*
X91352261Y-85654761D01*
X91314166Y-85692857D01*
X91276071Y-85769047D01*
X91276071Y-85959523D01*
X91314166Y-86035714D01*
X91352261Y-86073809D01*
X91428452Y-86111904D01*
X91657023Y-86111904D01*
X91733214Y-86073809D01*
X91771309Y-86035714D01*
X91047500Y-85311904D02*
X90780833Y-86111904D01*
X90514166Y-85311904D01*
X90323690Y-85311904D02*
X89828452Y-85311904D01*
X90095119Y-85616666D01*
X89980833Y-85616666D01*
X89904642Y-85654761D01*
X89866547Y-85692857D01*
X89828452Y-85769047D01*
X89828452Y-85959523D01*
X89866547Y-86035714D01*
X89904642Y-86073809D01*
X89980833Y-86111904D01*
X90209404Y-86111904D01*
X90285595Y-86073809D01*
X90323690Y-86035714D01*
X88876071Y-86111904D02*
X88876071Y-85311904D01*
X88495119Y-86111904D02*
X88495119Y-85311904D01*
X88037976Y-86111904D01*
X88037976Y-85311904D01*
X91176071Y-92850000D02*
X91252261Y-92811904D01*
X91366547Y-92811904D01*
X91480833Y-92850000D01*
X91557023Y-92926190D01*
X91595119Y-93002380D01*
X91633214Y-93154761D01*
X91633214Y-93269047D01*
X91595119Y-93421428D01*
X91557023Y-93497619D01*
X91480833Y-93573809D01*
X91366547Y-93611904D01*
X91290357Y-93611904D01*
X91176071Y-93573809D01*
X91137976Y-93535714D01*
X91137976Y-93269047D01*
X91290357Y-93269047D01*
X90795119Y-93611904D02*
X90795119Y-92811904D01*
X90337976Y-93611904D01*
X90337976Y-92811904D01*
X89957023Y-93611904D02*
X89957023Y-92811904D01*
X89766547Y-92811904D01*
X89652261Y-92850000D01*
X89576071Y-92926190D01*
X89537976Y-93002380D01*
X89499880Y-93154761D01*
X89499880Y-93269047D01*
X89537976Y-93421428D01*
X89576071Y-93497619D01*
X89652261Y-93573809D01*
X89766547Y-93611904D01*
X89957023Y-93611904D01*
X165750119Y-86388095D02*
X165712023Y-86350000D01*
X165635833Y-86311904D01*
X165445357Y-86311904D01*
X165369166Y-86350000D01*
X165331071Y-86388095D01*
X165292976Y-86464285D01*
X165292976Y-86540476D01*
X165331071Y-86654761D01*
X165788214Y-87111904D01*
X165292976Y-87111904D01*
X164988214Y-86388095D02*
X164950119Y-86350000D01*
X164873928Y-86311904D01*
X164683452Y-86311904D01*
X164607261Y-86350000D01*
X164569166Y-86388095D01*
X164531071Y-86464285D01*
X164531071Y-86540476D01*
X164569166Y-86654761D01*
X165026309Y-87111904D01*
X164531071Y-87111904D01*
X164035833Y-86311904D02*
X163959642Y-86311904D01*
X163883452Y-86350000D01*
X163845357Y-86388095D01*
X163807261Y-86464285D01*
X163769166Y-86616666D01*
X163769166Y-86807142D01*
X163807261Y-86959523D01*
X163845357Y-87035714D01*
X163883452Y-87073809D01*
X163959642Y-87111904D01*
X164035833Y-87111904D01*
X164112023Y-87073809D01*
X164150119Y-87035714D01*
X164188214Y-86959523D01*
X164226309Y-86807142D01*
X164226309Y-86616666D01*
X164188214Y-86464285D01*
X164150119Y-86388095D01*
X164112023Y-86350000D01*
X164035833Y-86311904D01*
X163616785Y-87188095D02*
X163007261Y-87188095D01*
X162816785Y-87111904D02*
X162816785Y-86311904D01*
X162359642Y-87111904D01*
X162359642Y-86311904D01*
X161369166Y-87111904D02*
X161369166Y-86311904D01*
X160988214Y-87111904D02*
X160988214Y-86311904D01*
X160531071Y-87111904D01*
X160531071Y-86311904D01*
X165750119Y-84638095D02*
X165712023Y-84600000D01*
X165635833Y-84561904D01*
X165445357Y-84561904D01*
X165369166Y-84600000D01*
X165331071Y-84638095D01*
X165292976Y-84714285D01*
X165292976Y-84790476D01*
X165331071Y-84904761D01*
X165788214Y-85361904D01*
X165292976Y-85361904D01*
X164988214Y-84638095D02*
X164950119Y-84600000D01*
X164873928Y-84561904D01*
X164683452Y-84561904D01*
X164607261Y-84600000D01*
X164569166Y-84638095D01*
X164531071Y-84714285D01*
X164531071Y-84790476D01*
X164569166Y-84904761D01*
X165026309Y-85361904D01*
X164531071Y-85361904D01*
X164035833Y-84561904D02*
X163959642Y-84561904D01*
X163883452Y-84600000D01*
X163845357Y-84638095D01*
X163807261Y-84714285D01*
X163769166Y-84866666D01*
X163769166Y-85057142D01*
X163807261Y-85209523D01*
X163845357Y-85285714D01*
X163883452Y-85323809D01*
X163959642Y-85361904D01*
X164035833Y-85361904D01*
X164112023Y-85323809D01*
X164150119Y-85285714D01*
X164188214Y-85209523D01*
X164226309Y-85057142D01*
X164226309Y-84866666D01*
X164188214Y-84714285D01*
X164150119Y-84638095D01*
X164112023Y-84600000D01*
X164035833Y-84561904D01*
X163616785Y-85438095D02*
X163007261Y-85438095D01*
X162435833Y-85361904D02*
X162816785Y-85361904D01*
X162816785Y-84561904D01*
X161559642Y-85361904D02*
X161559642Y-84561904D01*
X161178690Y-85361904D02*
X161178690Y-84561904D01*
X160721547Y-85361904D01*
X160721547Y-84561904D01*
X165750119Y-79638095D02*
X165712023Y-79600000D01*
X165635833Y-79561904D01*
X165445357Y-79561904D01*
X165369166Y-79600000D01*
X165331071Y-79638095D01*
X165292976Y-79714285D01*
X165292976Y-79790476D01*
X165331071Y-79904761D01*
X165788214Y-80361904D01*
X165292976Y-80361904D01*
X164988214Y-79638095D02*
X164950119Y-79600000D01*
X164873928Y-79561904D01*
X164683452Y-79561904D01*
X164607261Y-79600000D01*
X164569166Y-79638095D01*
X164531071Y-79714285D01*
X164531071Y-79790476D01*
X164569166Y-79904761D01*
X165026309Y-80361904D01*
X164531071Y-80361904D01*
X164035833Y-79561904D02*
X163959642Y-79561904D01*
X163883452Y-79600000D01*
X163845357Y-79638095D01*
X163807261Y-79714285D01*
X163769166Y-79866666D01*
X163769166Y-80057142D01*
X163807261Y-80209523D01*
X163845357Y-80285714D01*
X163883452Y-80323809D01*
X163959642Y-80361904D01*
X164035833Y-80361904D01*
X164112023Y-80323809D01*
X164150119Y-80285714D01*
X164188214Y-80209523D01*
X164226309Y-80057142D01*
X164226309Y-79866666D01*
X164188214Y-79714285D01*
X164150119Y-79638095D01*
X164112023Y-79600000D01*
X164035833Y-79561904D01*
X163616785Y-80438095D02*
X163007261Y-80438095D01*
X162435833Y-80361904D02*
X162816785Y-80361904D01*
X162816785Y-79561904D01*
X161407261Y-79561904D02*
X161254880Y-79561904D01*
X161178690Y-79600000D01*
X161102500Y-79676190D01*
X161064404Y-79828571D01*
X161064404Y-80095238D01*
X161102500Y-80247619D01*
X161178690Y-80323809D01*
X161254880Y-80361904D01*
X161407261Y-80361904D01*
X161483452Y-80323809D01*
X161559642Y-80247619D01*
X161597738Y-80095238D01*
X161597738Y-79828571D01*
X161559642Y-79676190D01*
X161483452Y-79600000D01*
X161407261Y-79561904D01*
X160721547Y-79561904D02*
X160721547Y-80209523D01*
X160683452Y-80285714D01*
X160645357Y-80323809D01*
X160569166Y-80361904D01*
X160416785Y-80361904D01*
X160340595Y-80323809D01*
X160302500Y-80285714D01*
X160264404Y-80209523D01*
X160264404Y-79561904D01*
X159997738Y-79561904D02*
X159540595Y-79561904D01*
X159769166Y-80361904D02*
X159769166Y-79561904D01*
X165750119Y-74638095D02*
X165712023Y-74600000D01*
X165635833Y-74561904D01*
X165445357Y-74561904D01*
X165369166Y-74600000D01*
X165331071Y-74638095D01*
X165292976Y-74714285D01*
X165292976Y-74790476D01*
X165331071Y-74904761D01*
X165788214Y-75361904D01*
X165292976Y-75361904D01*
X164988214Y-74638095D02*
X164950119Y-74600000D01*
X164873928Y-74561904D01*
X164683452Y-74561904D01*
X164607261Y-74600000D01*
X164569166Y-74638095D01*
X164531071Y-74714285D01*
X164531071Y-74790476D01*
X164569166Y-74904761D01*
X165026309Y-75361904D01*
X164531071Y-75361904D01*
X164035833Y-74561904D02*
X163959642Y-74561904D01*
X163883452Y-74600000D01*
X163845357Y-74638095D01*
X163807261Y-74714285D01*
X163769166Y-74866666D01*
X163769166Y-75057142D01*
X163807261Y-75209523D01*
X163845357Y-75285714D01*
X163883452Y-75323809D01*
X163959642Y-75361904D01*
X164035833Y-75361904D01*
X164112023Y-75323809D01*
X164150119Y-75285714D01*
X164188214Y-75209523D01*
X164226309Y-75057142D01*
X164226309Y-74866666D01*
X164188214Y-74714285D01*
X164150119Y-74638095D01*
X164112023Y-74600000D01*
X164035833Y-74561904D01*
X163616785Y-75438095D02*
X163007261Y-75438095D01*
X162816785Y-75361904D02*
X162816785Y-74561904D01*
X162359642Y-75361904D01*
X162359642Y-74561904D01*
X160912023Y-75361904D02*
X161178690Y-74980952D01*
X161369166Y-75361904D02*
X161369166Y-74561904D01*
X161064404Y-74561904D01*
X160988214Y-74600000D01*
X160950119Y-74638095D01*
X160912023Y-74714285D01*
X160912023Y-74828571D01*
X160950119Y-74904761D01*
X160988214Y-74942857D01*
X161064404Y-74980952D01*
X161369166Y-74980952D01*
X160569166Y-74942857D02*
X160302500Y-74942857D01*
X160188214Y-75361904D02*
X160569166Y-75361904D01*
X160569166Y-74561904D01*
X160188214Y-74561904D01*
X159464404Y-75361904D02*
X159845357Y-75361904D01*
X159845357Y-74561904D01*
X159235833Y-75133333D02*
X158854880Y-75133333D01*
X159312023Y-75361904D02*
X159045357Y-74561904D01*
X158778690Y-75361904D01*
X158359642Y-74980952D02*
X158359642Y-75361904D01*
X158626309Y-74561904D02*
X158359642Y-74980952D01*
X158092976Y-74561904D01*
X161442857Y-58554642D02*
X161480952Y-58668928D01*
X161519047Y-58707023D01*
X161595238Y-58745119D01*
X161709523Y-58745119D01*
X161785714Y-58707023D01*
X161823809Y-58668928D01*
X161861904Y-58592738D01*
X161861904Y-58287976D01*
X161061904Y-58287976D01*
X161061904Y-58554642D01*
X161100000Y-58630833D01*
X161138095Y-58668928D01*
X161214285Y-58707023D01*
X161290476Y-58707023D01*
X161366666Y-58668928D01*
X161404761Y-58630833D01*
X161442857Y-58554642D01*
X161442857Y-58287976D01*
X161061904Y-59087976D02*
X161709523Y-59087976D01*
X161785714Y-59126071D01*
X161823809Y-59164166D01*
X161861904Y-59240357D01*
X161861904Y-59392738D01*
X161823809Y-59468928D01*
X161785714Y-59507023D01*
X161709523Y-59545119D01*
X161061904Y-59545119D01*
X161061904Y-59811785D02*
X161061904Y-60268928D01*
X161861904Y-60040357D02*
X161061904Y-60040357D01*
X161061904Y-60421309D02*
X161061904Y-60878452D01*
X161861904Y-60649880D02*
X161061904Y-60649880D01*
X161938095Y-60954642D02*
X161938095Y-61564166D01*
X161861904Y-62135595D02*
X161861904Y-61754642D01*
X161061904Y-61754642D01*
X161442857Y-62402261D02*
X161442857Y-62668928D01*
X161861904Y-62783214D02*
X161861904Y-62402261D01*
X161061904Y-62402261D01*
X161061904Y-62783214D01*
X161861904Y-63126071D02*
X161061904Y-63126071D01*
X161061904Y-63316547D01*
X161100000Y-63430833D01*
X161176190Y-63507023D01*
X161252380Y-63545119D01*
X161404761Y-63583214D01*
X161519047Y-63583214D01*
X161671428Y-63545119D01*
X161747619Y-63507023D01*
X161823809Y-63430833D01*
X161861904Y-63316547D01*
X161861904Y-63126071D01*
X159361904Y-58707023D02*
X159361904Y-58249880D01*
X159361904Y-58478452D02*
X158561904Y-58478452D01*
X158676190Y-58402261D01*
X158752380Y-58326071D01*
X158790476Y-58249880D01*
X158638095Y-59011785D02*
X158600000Y-59049880D01*
X158561904Y-59126071D01*
X158561904Y-59316547D01*
X158600000Y-59392738D01*
X158638095Y-59430833D01*
X158714285Y-59468928D01*
X158790476Y-59468928D01*
X158904761Y-59430833D01*
X159361904Y-58973690D01*
X159361904Y-59468928D01*
X158561904Y-59697500D02*
X159361904Y-59964166D01*
X158561904Y-60230833D01*
X158561904Y-61259404D02*
X158561904Y-61411785D01*
X158600000Y-61487976D01*
X158676190Y-61564166D01*
X158828571Y-61602261D01*
X159095238Y-61602261D01*
X159247619Y-61564166D01*
X159323809Y-61487976D01*
X159361904Y-61411785D01*
X159361904Y-61259404D01*
X159323809Y-61183214D01*
X159247619Y-61107023D01*
X159095238Y-61068928D01*
X158828571Y-61068928D01*
X158676190Y-61107023D01*
X158600000Y-61183214D01*
X158561904Y-61259404D01*
X158561904Y-61945119D02*
X159209523Y-61945119D01*
X159285714Y-61983214D01*
X159323809Y-62021309D01*
X159361904Y-62097500D01*
X159361904Y-62249880D01*
X159323809Y-62326071D01*
X159285714Y-62364166D01*
X159209523Y-62402261D01*
X158561904Y-62402261D01*
X158561904Y-62668928D02*
X158561904Y-63126071D01*
X159361904Y-62897500D02*
X158561904Y-62897500D01*
X153561904Y-58668928D02*
X153561904Y-58287976D01*
X153942857Y-58249880D01*
X153904761Y-58287976D01*
X153866666Y-58364166D01*
X153866666Y-58554642D01*
X153904761Y-58630833D01*
X153942857Y-58668928D01*
X154019047Y-58707023D01*
X154209523Y-58707023D01*
X154285714Y-58668928D01*
X154323809Y-58630833D01*
X154361904Y-58554642D01*
X154361904Y-58364166D01*
X154323809Y-58287976D01*
X154285714Y-58249880D01*
X153561904Y-58935595D02*
X154361904Y-59202261D01*
X153561904Y-59468928D01*
X154438095Y-59545119D02*
X154438095Y-60154642D01*
X153561904Y-60497500D02*
X153561904Y-60649880D01*
X153600000Y-60726071D01*
X153676190Y-60802261D01*
X153828571Y-60840357D01*
X154095238Y-60840357D01*
X154247619Y-60802261D01*
X154323809Y-60726071D01*
X154361904Y-60649880D01*
X154361904Y-60497500D01*
X154323809Y-60421309D01*
X154247619Y-60345119D01*
X154095238Y-60307023D01*
X153828571Y-60307023D01*
X153676190Y-60345119D01*
X153600000Y-60421309D01*
X153561904Y-60497500D01*
X153561904Y-61183214D02*
X154209523Y-61183214D01*
X154285714Y-61221309D01*
X154323809Y-61259404D01*
X154361904Y-61335595D01*
X154361904Y-61487976D01*
X154323809Y-61564166D01*
X154285714Y-61602261D01*
X154209523Y-61640357D01*
X153561904Y-61640357D01*
X153561904Y-61907023D02*
X153561904Y-62364166D01*
X154361904Y-62135595D02*
X153561904Y-62135595D01*
X146442857Y-58287976D02*
X146442857Y-58554642D01*
X146861904Y-58668928D02*
X146861904Y-58287976D01*
X146061904Y-58287976D01*
X146061904Y-58668928D01*
X146061904Y-58935595D02*
X146861904Y-59468928D01*
X146061904Y-59468928D02*
X146861904Y-58935595D01*
X146061904Y-59659404D02*
X146061904Y-60116547D01*
X146861904Y-59887976D02*
X146061904Y-59887976D01*
X146938095Y-60192738D02*
X146938095Y-60802261D01*
X146442857Y-61259404D02*
X146480952Y-61373690D01*
X146519047Y-61411785D01*
X146595238Y-61449880D01*
X146709523Y-61449880D01*
X146785714Y-61411785D01*
X146823809Y-61373690D01*
X146861904Y-61297500D01*
X146861904Y-60992738D01*
X146061904Y-60992738D01*
X146061904Y-61259404D01*
X146100000Y-61335595D01*
X146138095Y-61373690D01*
X146214285Y-61411785D01*
X146290476Y-61411785D01*
X146366666Y-61373690D01*
X146404761Y-61335595D01*
X146442857Y-61259404D01*
X146442857Y-60992738D01*
X146061904Y-61792738D02*
X146709523Y-61792738D01*
X146785714Y-61830833D01*
X146823809Y-61868928D01*
X146861904Y-61945119D01*
X146861904Y-62097500D01*
X146823809Y-62173690D01*
X146785714Y-62211785D01*
X146709523Y-62249880D01*
X146061904Y-62249880D01*
X146061904Y-62516547D02*
X146061904Y-62973690D01*
X146861904Y-62745119D02*
X146061904Y-62745119D01*
X146061904Y-63126071D02*
X146061904Y-63583214D01*
X146861904Y-63354642D02*
X146061904Y-63354642D01*
X146061904Y-64002261D02*
X146061904Y-64154642D01*
X146100000Y-64230833D01*
X146176190Y-64307023D01*
X146328571Y-64345119D01*
X146595238Y-64345119D01*
X146747619Y-64307023D01*
X146823809Y-64230833D01*
X146861904Y-64154642D01*
X146861904Y-64002261D01*
X146823809Y-63926071D01*
X146747619Y-63849880D01*
X146595238Y-63811785D01*
X146328571Y-63811785D01*
X146176190Y-63849880D01*
X146100000Y-63926071D01*
X146061904Y-64002261D01*
X146861904Y-64687976D02*
X146061904Y-64687976D01*
X146861904Y-65145119D01*
X146061904Y-65145119D01*
X136061904Y-58668928D02*
X136061904Y-58287976D01*
X136442857Y-58249880D01*
X136404761Y-58287976D01*
X136366666Y-58364166D01*
X136366666Y-58554642D01*
X136404761Y-58630833D01*
X136442857Y-58668928D01*
X136519047Y-58707023D01*
X136709523Y-58707023D01*
X136785714Y-58668928D01*
X136823809Y-58630833D01*
X136861904Y-58554642D01*
X136861904Y-58364166D01*
X136823809Y-58287976D01*
X136785714Y-58249880D01*
X136061904Y-58935595D02*
X136861904Y-59202261D01*
X136061904Y-59468928D01*
X136061904Y-60497500D02*
X136061904Y-60649880D01*
X136100000Y-60726071D01*
X136176190Y-60802261D01*
X136328571Y-60840357D01*
X136595238Y-60840357D01*
X136747619Y-60802261D01*
X136823809Y-60726071D01*
X136861904Y-60649880D01*
X136861904Y-60497500D01*
X136823809Y-60421309D01*
X136747619Y-60345119D01*
X136595238Y-60307023D01*
X136328571Y-60307023D01*
X136176190Y-60345119D01*
X136100000Y-60421309D01*
X136061904Y-60497500D01*
X136061904Y-61183214D02*
X136709523Y-61183214D01*
X136785714Y-61221309D01*
X136823809Y-61259404D01*
X136861904Y-61335595D01*
X136861904Y-61487976D01*
X136823809Y-61564166D01*
X136785714Y-61602261D01*
X136709523Y-61640357D01*
X136061904Y-61640357D01*
X136061904Y-61907023D02*
X136061904Y-62364166D01*
X136861904Y-62135595D02*
X136061904Y-62135595D01*
X151100000Y-58707023D02*
X151061904Y-58630833D01*
X151061904Y-58516547D01*
X151100000Y-58402261D01*
X151176190Y-58326071D01*
X151252380Y-58287976D01*
X151404761Y-58249880D01*
X151519047Y-58249880D01*
X151671428Y-58287976D01*
X151747619Y-58326071D01*
X151823809Y-58402261D01*
X151861904Y-58516547D01*
X151861904Y-58592738D01*
X151823809Y-58707023D01*
X151785714Y-58745119D01*
X151519047Y-58745119D01*
X151519047Y-58592738D01*
X151861904Y-59087976D02*
X151061904Y-59087976D01*
X151861904Y-59545119D01*
X151061904Y-59545119D01*
X151861904Y-59926071D02*
X151061904Y-59926071D01*
X151061904Y-60116547D01*
X151100000Y-60230833D01*
X151176190Y-60307023D01*
X151252380Y-60345119D01*
X151404761Y-60383214D01*
X151519047Y-60383214D01*
X151671428Y-60345119D01*
X151747619Y-60307023D01*
X151823809Y-60230833D01*
X151861904Y-60116547D01*
X151861904Y-59926071D01*
X143600000Y-58707023D02*
X143561904Y-58630833D01*
X143561904Y-58516547D01*
X143600000Y-58402261D01*
X143676190Y-58326071D01*
X143752380Y-58287976D01*
X143904761Y-58249880D01*
X144019047Y-58249880D01*
X144171428Y-58287976D01*
X144247619Y-58326071D01*
X144323809Y-58402261D01*
X144361904Y-58516547D01*
X144361904Y-58592738D01*
X144323809Y-58707023D01*
X144285714Y-58745119D01*
X144019047Y-58745119D01*
X144019047Y-58592738D01*
X144361904Y-59087976D02*
X143561904Y-59087976D01*
X144361904Y-59545119D01*
X143561904Y-59545119D01*
X144361904Y-59926071D02*
X143561904Y-59926071D01*
X143561904Y-60116547D01*
X143600000Y-60230833D01*
X143676190Y-60307023D01*
X143752380Y-60345119D01*
X143904761Y-60383214D01*
X144019047Y-60383214D01*
X144171428Y-60345119D01*
X144247619Y-60307023D01*
X144323809Y-60230833D01*
X144361904Y-60116547D01*
X144361904Y-59926071D01*
X139361904Y-58668928D02*
X139361904Y-58287976D01*
X138561904Y-58287976D01*
X138942857Y-58935595D02*
X138942857Y-59202261D01*
X139361904Y-59316547D02*
X139361904Y-58935595D01*
X138561904Y-58935595D01*
X138561904Y-59316547D01*
X139361904Y-59659404D02*
X138561904Y-59659404D01*
X138561904Y-59849880D01*
X138600000Y-59964166D01*
X138676190Y-60040357D01*
X138752380Y-60078452D01*
X138904761Y-60116547D01*
X139019047Y-60116547D01*
X139171428Y-60078452D01*
X139247619Y-60040357D01*
X139323809Y-59964166D01*
X139361904Y-59849880D01*
X139361904Y-59659404D01*
X139438095Y-60268928D02*
X139438095Y-60878452D01*
X138561904Y-60992738D02*
X139361904Y-61183214D01*
X138790476Y-61335595D01*
X139361904Y-61487976D01*
X138561904Y-61678452D01*
X139323809Y-61945119D02*
X139361904Y-62059404D01*
X139361904Y-62249880D01*
X139323809Y-62326071D01*
X139285714Y-62364166D01*
X139209523Y-62402261D01*
X139133333Y-62402261D01*
X139057142Y-62364166D01*
X139019047Y-62326071D01*
X138980952Y-62249880D01*
X138942857Y-62097500D01*
X138904761Y-62021309D01*
X138866666Y-61983214D01*
X138790476Y-61945119D01*
X138714285Y-61945119D01*
X138638095Y-61983214D01*
X138600000Y-62021309D01*
X138561904Y-62097500D01*
X138561904Y-62287976D01*
X138600000Y-62402261D01*
X138638095Y-62707023D02*
X138600000Y-62745119D01*
X138561904Y-62821309D01*
X138561904Y-63011785D01*
X138600000Y-63087976D01*
X138638095Y-63126071D01*
X138714285Y-63164166D01*
X138790476Y-63164166D01*
X138904761Y-63126071D01*
X139361904Y-62668928D01*
X139361904Y-63164166D01*
X138904761Y-63621309D02*
X138866666Y-63545119D01*
X138828571Y-63507023D01*
X138752380Y-63468928D01*
X138714285Y-63468928D01*
X138638095Y-63507023D01*
X138600000Y-63545119D01*
X138561904Y-63621309D01*
X138561904Y-63773690D01*
X138600000Y-63849880D01*
X138638095Y-63887976D01*
X138714285Y-63926071D01*
X138752380Y-63926071D01*
X138828571Y-63887976D01*
X138866666Y-63849880D01*
X138904761Y-63773690D01*
X138904761Y-63621309D01*
X138942857Y-63545119D01*
X138980952Y-63507023D01*
X139057142Y-63468928D01*
X139209523Y-63468928D01*
X139285714Y-63507023D01*
X139323809Y-63545119D01*
X139361904Y-63621309D01*
X139361904Y-63773690D01*
X139323809Y-63849880D01*
X139285714Y-63887976D01*
X139209523Y-63926071D01*
X139057142Y-63926071D01*
X138980952Y-63887976D01*
X138942857Y-63849880D01*
X138904761Y-63773690D01*
X139361904Y-64687976D02*
X139361904Y-64230833D01*
X139361904Y-64459404D02*
X138561904Y-64459404D01*
X138676190Y-64383214D01*
X138752380Y-64307023D01*
X138790476Y-64230833D01*
X138638095Y-64992738D02*
X138600000Y-65030833D01*
X138561904Y-65107023D01*
X138561904Y-65297500D01*
X138600000Y-65373690D01*
X138638095Y-65411785D01*
X138714285Y-65449880D01*
X138790476Y-65449880D01*
X138904761Y-65411785D01*
X139361904Y-64954642D01*
X139361904Y-65449880D01*
X129361904Y-58287976D02*
X128561904Y-58287976D01*
X128561904Y-58478452D01*
X128600000Y-58592738D01*
X128676190Y-58668928D01*
X128752380Y-58707023D01*
X128904761Y-58745119D01*
X129019047Y-58745119D01*
X129171428Y-58707023D01*
X129247619Y-58668928D01*
X129323809Y-58592738D01*
X129361904Y-58478452D01*
X129361904Y-58287976D01*
X128561904Y-59240357D02*
X128561904Y-59392738D01*
X128600000Y-59468928D01*
X128676190Y-59545119D01*
X128828571Y-59583214D01*
X129095238Y-59583214D01*
X129247619Y-59545119D01*
X129323809Y-59468928D01*
X129361904Y-59392738D01*
X129361904Y-59240357D01*
X129323809Y-59164166D01*
X129247619Y-59087976D01*
X129095238Y-59049880D01*
X128828571Y-59049880D01*
X128676190Y-59087976D01*
X128600000Y-59164166D01*
X128561904Y-59240357D01*
X128561904Y-60078452D02*
X128561904Y-60230833D01*
X128600000Y-60307023D01*
X128676190Y-60383214D01*
X128828571Y-60421309D01*
X129095238Y-60421309D01*
X129247619Y-60383214D01*
X129323809Y-60307023D01*
X129361904Y-60230833D01*
X129361904Y-60078452D01*
X129323809Y-60002261D01*
X129247619Y-59926071D01*
X129095238Y-59887976D01*
X128828571Y-59887976D01*
X128676190Y-59926071D01*
X128600000Y-60002261D01*
X128561904Y-60078452D01*
X129361904Y-61221309D02*
X128980952Y-60954642D01*
X129361904Y-60764166D02*
X128561904Y-60764166D01*
X128561904Y-61068928D01*
X128600000Y-61145119D01*
X128638095Y-61183214D01*
X128714285Y-61221309D01*
X128828571Y-61221309D01*
X128904761Y-61183214D01*
X128942857Y-61145119D01*
X128980952Y-61068928D01*
X128980952Y-60764166D01*
X131100000Y-58707023D02*
X131061904Y-58630833D01*
X131061904Y-58516547D01*
X131100000Y-58402261D01*
X131176190Y-58326071D01*
X131252380Y-58287976D01*
X131404761Y-58249880D01*
X131519047Y-58249880D01*
X131671428Y-58287976D01*
X131747619Y-58326071D01*
X131823809Y-58402261D01*
X131861904Y-58516547D01*
X131861904Y-58592738D01*
X131823809Y-58707023D01*
X131785714Y-58745119D01*
X131519047Y-58745119D01*
X131519047Y-58592738D01*
X131861904Y-59087976D02*
X131061904Y-59087976D01*
X131861904Y-59545119D01*
X131061904Y-59545119D01*
X131861904Y-59926071D02*
X131061904Y-59926071D01*
X131061904Y-60116547D01*
X131100000Y-60230833D01*
X131176190Y-60307023D01*
X131252380Y-60345119D01*
X131404761Y-60383214D01*
X131519047Y-60383214D01*
X131671428Y-60345119D01*
X131747619Y-60307023D01*
X131823809Y-60230833D01*
X131861904Y-60116547D01*
X131861904Y-59926071D01*
X104835714Y-55942857D02*
X104721428Y-55980952D01*
X104683333Y-56019047D01*
X104645238Y-56095238D01*
X104645238Y-56209523D01*
X104683333Y-56285714D01*
X104721428Y-56323809D01*
X104797619Y-56361904D01*
X105102380Y-56361904D01*
X105102380Y-55561904D01*
X104835714Y-55561904D01*
X104759523Y-55600000D01*
X104721428Y-55638095D01*
X104683333Y-55714285D01*
X104683333Y-55790476D01*
X104721428Y-55866666D01*
X104759523Y-55904761D01*
X104835714Y-55942857D01*
X105102380Y-55942857D01*
X104150000Y-55561904D02*
X103997619Y-55561904D01*
X103921428Y-55600000D01*
X103845238Y-55676190D01*
X103807142Y-55828571D01*
X103807142Y-56095238D01*
X103845238Y-56247619D01*
X103921428Y-56323809D01*
X103997619Y-56361904D01*
X104150000Y-56361904D01*
X104226190Y-56323809D01*
X104302380Y-56247619D01*
X104340476Y-56095238D01*
X104340476Y-55828571D01*
X104302380Y-55676190D01*
X104226190Y-55600000D01*
X104150000Y-55561904D01*
X103311904Y-55561904D02*
X103159523Y-55561904D01*
X103083333Y-55600000D01*
X103007142Y-55676190D01*
X102969047Y-55828571D01*
X102969047Y-56095238D01*
X103007142Y-56247619D01*
X103083333Y-56323809D01*
X103159523Y-56361904D01*
X103311904Y-56361904D01*
X103388095Y-56323809D01*
X103464285Y-56247619D01*
X103502380Y-56095238D01*
X103502380Y-55828571D01*
X103464285Y-55676190D01*
X103388095Y-55600000D01*
X103311904Y-55561904D01*
X102740476Y-55561904D02*
X102283333Y-55561904D01*
X102511904Y-56361904D02*
X102511904Y-55561904D01*
X104661904Y-90361904D02*
X104928571Y-89980952D01*
X105119047Y-90361904D02*
X105119047Y-89561904D01*
X104814285Y-89561904D01*
X104738095Y-89600000D01*
X104700000Y-89638095D01*
X104661904Y-89714285D01*
X104661904Y-89828571D01*
X104700000Y-89904761D01*
X104738095Y-89942857D01*
X104814285Y-89980952D01*
X105119047Y-89980952D01*
X104319047Y-89942857D02*
X104052380Y-89942857D01*
X103938095Y-90361904D02*
X104319047Y-90361904D01*
X104319047Y-89561904D01*
X103938095Y-89561904D01*
X103633333Y-90323809D02*
X103519047Y-90361904D01*
X103328571Y-90361904D01*
X103252380Y-90323809D01*
X103214285Y-90285714D01*
X103176190Y-90209523D01*
X103176190Y-90133333D01*
X103214285Y-90057142D01*
X103252380Y-90019047D01*
X103328571Y-89980952D01*
X103480952Y-89942857D01*
X103557142Y-89904761D01*
X103595238Y-89866666D01*
X103633333Y-89790476D01*
X103633333Y-89714285D01*
X103595238Y-89638095D01*
X103557142Y-89600000D01*
X103480952Y-89561904D01*
X103290476Y-89561904D01*
X103176190Y-89600000D01*
X102833333Y-89942857D02*
X102566666Y-89942857D01*
X102452380Y-90361904D02*
X102833333Y-90361904D01*
X102833333Y-89561904D01*
X102452380Y-89561904D01*
X102223809Y-89561904D02*
X101766666Y-89561904D01*
X101995238Y-90361904D02*
X101995238Y-89561904D01*
X148761904Y-136952380D02*
X148761904Y-137761904D01*
X148714285Y-137857142D01*
X148666666Y-137904761D01*
X148571428Y-137952380D01*
X148380952Y-137952380D01*
X148285714Y-137904761D01*
X148238095Y-137857142D01*
X148190476Y-137761904D01*
X148190476Y-136952380D01*
X147761904Y-137666666D02*
X147285714Y-137666666D01*
X147857142Y-137952380D02*
X147523809Y-136952380D01*
X147190476Y-137952380D01*
X146857142Y-137952380D02*
X146857142Y-136952380D01*
X146285714Y-137952380D02*
X146714285Y-137380952D01*
X146285714Y-136952380D02*
X146857142Y-137523809D01*
X145857142Y-137857142D02*
X145809523Y-137904761D01*
X145857142Y-137952380D01*
X145904761Y-137904761D01*
X145857142Y-137857142D01*
X145857142Y-137952380D01*
X145428571Y-137047619D02*
X145380952Y-137000000D01*
X145285714Y-136952380D01*
X145047619Y-136952380D01*
X144952380Y-137000000D01*
X144904761Y-137047619D01*
X144857142Y-137142857D01*
X144857142Y-137238095D01*
X144904761Y-137380952D01*
X145476190Y-137952380D01*
X144857142Y-137952380D01*
X144095238Y-137428571D02*
X143952380Y-137476190D01*
X143904761Y-137523809D01*
X143857142Y-137619047D01*
X143857142Y-137761904D01*
X143904761Y-137857142D01*
X143952380Y-137904761D01*
X144047619Y-137952380D01*
X144428571Y-137952380D01*
X144428571Y-136952380D01*
X144095238Y-136952380D01*
X144000000Y-137000000D01*
X143952380Y-137047619D01*
X143904761Y-137142857D01*
X143904761Y-137238095D01*
X143952380Y-137333333D01*
X144000000Y-137380952D01*
X144095238Y-137428571D01*
X144428571Y-137428571D01*
X143428571Y-137857142D02*
X143380952Y-137904761D01*
X143428571Y-137952380D01*
X143476190Y-137904761D01*
X143428571Y-137857142D01*
X143428571Y-137952380D01*
X142952380Y-137952380D02*
X142952380Y-136952380D01*
X142619047Y-137666666D01*
X142285714Y-136952380D01*
X142285714Y-137952380D01*
X141809523Y-137952380D02*
X141809523Y-136952380D01*
X141238095Y-137952380D01*
X141238095Y-136952380D01*
D10*
X156000000Y-93500000D02*
G75*
G03X156000000Y-93500000I-8500000J0D01*
G01*
D11*
X83250000Y-94750000D02*
X83250000Y-93750000D01*
X83250000Y-94750000D02*
X82250000Y-94750000D01*
X83250000Y-84500000D02*
X83250000Y-85500000D01*
X83250000Y-84500000D02*
X82250000Y-84500000D01*
D12*
G36*
X141457465Y-70923986D02*
G01*
X141425004Y-70934957D01*
X141384480Y-70964721D01*
X141347190Y-71007055D01*
X141320309Y-71053186D01*
X141314143Y-71070502D01*
X141311854Y-71090228D01*
X141309815Y-71132012D01*
X141308026Y-71195825D01*
X141306487Y-71281640D01*
X141305197Y-71389427D01*
X141304158Y-71519160D01*
X141303370Y-71670810D01*
X141302833Y-71844349D01*
X141302547Y-72039750D01*
X141302497Y-72164108D01*
X141302435Y-73216000D01*
X141236658Y-73216000D01*
X141233655Y-72279250D01*
X141230652Y-71342501D01*
X141204040Y-71303667D01*
X141158035Y-71254384D01*
X141101166Y-71221567D01*
X141038003Y-71206826D01*
X140973118Y-71211772D01*
X140956581Y-71216465D01*
X140916279Y-71238731D01*
X140876929Y-71275314D01*
X140844981Y-71319140D01*
X140828362Y-71357153D01*
X140825868Y-71377626D01*
X140823671Y-71420028D01*
X140821771Y-71484379D01*
X140820167Y-71570698D01*
X140818859Y-71679005D01*
X140817847Y-71809320D01*
X140817131Y-71961664D01*
X140816710Y-72136055D01*
X140816584Y-72307674D01*
X140816522Y-73216000D01*
X140739218Y-73216000D01*
X140739218Y-72554110D01*
X140739012Y-72390327D01*
X140738396Y-72248498D01*
X140737369Y-72128642D01*
X140735933Y-72030778D01*
X140734086Y-71954927D01*
X140731830Y-71901109D01*
X140729165Y-71869342D01*
X140727472Y-71861132D01*
X140696369Y-71808514D01*
X140649657Y-71768334D01*
X140591587Y-71743365D01*
X140535987Y-71736174D01*
X140469102Y-71744537D01*
X140415071Y-71770447D01*
X140371878Y-71815138D01*
X140351621Y-71848929D01*
X140348182Y-71856286D01*
X140345140Y-71865020D01*
X140342471Y-71876456D01*
X140340149Y-71891915D01*
X140338152Y-71912720D01*
X140336454Y-71940194D01*
X140335031Y-71975659D01*
X140333859Y-72020438D01*
X140332915Y-72075853D01*
X140332173Y-72143227D01*
X140331609Y-72223882D01*
X140331199Y-72319142D01*
X140330919Y-72430328D01*
X140330744Y-72558764D01*
X140330650Y-72705771D01*
X140330614Y-72872673D01*
X140330609Y-72993946D01*
X140330625Y-73174740D01*
X140330688Y-73334723D01*
X140330819Y-73475169D01*
X140331042Y-73597354D01*
X140331378Y-73702553D01*
X140331850Y-73792041D01*
X140332479Y-73867094D01*
X140333289Y-73928986D01*
X140334301Y-73978994D01*
X140335537Y-74018392D01*
X140337019Y-74048455D01*
X140338771Y-74070460D01*
X140340813Y-74085680D01*
X140343169Y-74095392D01*
X140345860Y-74100870D01*
X140348908Y-74103390D01*
X140349935Y-74103772D01*
X140366301Y-74107225D01*
X140401170Y-74113606D01*
X140451427Y-74122402D01*
X140513957Y-74133100D01*
X140585649Y-74145189D01*
X140663387Y-74158156D01*
X140744058Y-74171488D01*
X140824549Y-74184673D01*
X140901744Y-74197198D01*
X140972531Y-74208551D01*
X141033796Y-74218220D01*
X141082424Y-74225691D01*
X141115302Y-74230452D01*
X141129039Y-74232000D01*
X141142346Y-74228052D01*
X141138221Y-74212949D01*
X141138072Y-74212674D01*
X141127454Y-74195806D01*
X141107251Y-74165789D01*
X141080736Y-74127432D01*
X141061079Y-74099478D01*
X141027933Y-74052612D01*
X140994660Y-74005481D01*
X140966429Y-73965409D01*
X140955876Y-73950391D01*
X140931261Y-73915440D01*
X140899484Y-73870503D01*
X140866207Y-73823581D01*
X140855609Y-73808671D01*
X140794083Y-73722168D01*
X140830151Y-73729383D01*
X140863935Y-73737319D01*
X140904202Y-73748314D01*
X140915913Y-73751805D01*
X140950073Y-73761709D01*
X141001665Y-73775966D01*
X141066724Y-73793542D01*
X141141288Y-73813401D01*
X141221391Y-73834506D01*
X141303069Y-73855822D01*
X141382357Y-73876314D01*
X141455292Y-73894946D01*
X141517909Y-73910682D01*
X141566244Y-73922486D01*
X141591363Y-73928272D01*
X141632409Y-73937243D01*
X141664060Y-73943157D01*
X141686036Y-73944264D01*
X141698056Y-73938817D01*
X141699839Y-73925068D01*
X141691104Y-73901268D01*
X141671570Y-73865670D01*
X141640956Y-73816525D01*
X141598981Y-73752086D01*
X141551427Y-73679826D01*
X141507718Y-73612712D01*
X141468863Y-73551792D01*
X141436298Y-73499420D01*
X141411458Y-73457952D01*
X141395779Y-73429741D01*
X141390697Y-73417143D01*
X141390984Y-73416725D01*
X141405720Y-73417698D01*
X141436139Y-73423390D01*
X141476621Y-73432696D01*
X141492627Y-73436731D01*
X141630656Y-73472350D01*
X141748850Y-73502873D01*
X141848763Y-73528701D01*
X141931953Y-73550239D01*
X141999975Y-73567887D01*
X142054385Y-73582049D01*
X142075479Y-73587559D01*
X142170857Y-73612417D01*
X142272579Y-73638780D01*
X142374477Y-73665058D01*
X142470385Y-73689663D01*
X142554136Y-73711007D01*
X142589000Y-73719827D01*
X142637366Y-73732079D01*
X142679110Y-73742757D01*
X142708662Y-73750429D01*
X142718761Y-73753146D01*
X142722547Y-73753285D01*
X142725805Y-73750384D01*
X142728574Y-73742918D01*
X142730894Y-73729361D01*
X142732805Y-73708190D01*
X142734345Y-73677878D01*
X142735555Y-73636902D01*
X142736474Y-73583735D01*
X142737141Y-73516853D01*
X142737596Y-73434730D01*
X142737878Y-73335843D01*
X142738027Y-73218665D01*
X142738082Y-73081671D01*
X142738087Y-73006918D01*
X142738087Y-72255217D01*
X142679353Y-72255217D01*
X142586218Y-72265280D01*
X142502468Y-72295207D01*
X142428680Y-72344608D01*
X142365434Y-72413092D01*
X142313308Y-72500268D01*
X142311672Y-72503695D01*
X142304203Y-72520066D01*
X142298310Y-72535875D01*
X142293806Y-72553864D01*
X142290502Y-72576777D01*
X142288211Y-72607356D01*
X142286745Y-72648343D01*
X142285917Y-72702481D01*
X142285539Y-72772512D01*
X142285423Y-72861178D01*
X142285413Y-72887456D01*
X142285338Y-72981160D01*
X142285078Y-73055113D01*
X142284475Y-73111651D01*
X142283370Y-73153110D01*
X142281606Y-73181826D01*
X142279026Y-73200135D01*
X142275471Y-73210373D01*
X142270784Y-73214876D01*
X142264806Y-73215981D01*
X142263218Y-73216000D01*
X142240942Y-73216002D01*
X142232848Y-73216004D01*
X142231532Y-73205229D01*
X142230152Y-73173972D01*
X142228733Y-73123839D01*
X142227298Y-73056435D01*
X142225871Y-72973366D01*
X142224475Y-72876236D01*
X142223134Y-72766652D01*
X142221873Y-72646218D01*
X142220713Y-72516539D01*
X142219680Y-72379222D01*
X142219044Y-72279257D01*
X142213522Y-71342505D01*
X142182422Y-71295516D01*
X142139638Y-71249355D01*
X142086070Y-71219467D01*
X142026450Y-71206405D01*
X141965511Y-71210723D01*
X141907986Y-71232975D01*
X141872575Y-71259246D01*
X141860880Y-71269915D01*
X141850619Y-71279611D01*
X141841688Y-71289769D01*
X141833986Y-71301828D01*
X141827412Y-71317225D01*
X141821863Y-71337397D01*
X141817239Y-71363782D01*
X141813437Y-71397816D01*
X141810355Y-71440938D01*
X141807893Y-71494584D01*
X141805947Y-71560193D01*
X141804417Y-71639200D01*
X141803201Y-71733045D01*
X141802196Y-71843164D01*
X141801302Y-71970994D01*
X141800417Y-72117972D01*
X141799438Y-72285537D01*
X141799392Y-72293320D01*
X141793870Y-73220423D01*
X141760739Y-73220422D01*
X141727609Y-73220421D01*
X141722087Y-72137898D01*
X141716565Y-71055376D01*
X141686184Y-71009471D01*
X141658065Y-70976368D01*
X141623865Y-70948225D01*
X141612080Y-70941261D01*
X141564213Y-70925171D01*
X141509559Y-70919307D01*
X141457465Y-70923986D01*
X141457465Y-70923986D01*
G37*
X141457465Y-70923986D02*
X141425004Y-70934957D01*
X141384480Y-70964721D01*
X141347190Y-71007055D01*
X141320309Y-71053186D01*
X141314143Y-71070502D01*
X141311854Y-71090228D01*
X141309815Y-71132012D01*
X141308026Y-71195825D01*
X141306487Y-71281640D01*
X141305197Y-71389427D01*
X141304158Y-71519160D01*
X141303370Y-71670810D01*
X141302833Y-71844349D01*
X141302547Y-72039750D01*
X141302497Y-72164108D01*
X141302435Y-73216000D01*
X141236658Y-73216000D01*
X141233655Y-72279250D01*
X141230652Y-71342501D01*
X141204040Y-71303667D01*
X141158035Y-71254384D01*
X141101166Y-71221567D01*
X141038003Y-71206826D01*
X140973118Y-71211772D01*
X140956581Y-71216465D01*
X140916279Y-71238731D01*
X140876929Y-71275314D01*
X140844981Y-71319140D01*
X140828362Y-71357153D01*
X140825868Y-71377626D01*
X140823671Y-71420028D01*
X140821771Y-71484379D01*
X140820167Y-71570698D01*
X140818859Y-71679005D01*
X140817847Y-71809320D01*
X140817131Y-71961664D01*
X140816710Y-72136055D01*
X140816584Y-72307674D01*
X140816522Y-73216000D01*
X140739218Y-73216000D01*
X140739218Y-72554110D01*
X140739012Y-72390327D01*
X140738396Y-72248498D01*
X140737369Y-72128642D01*
X140735933Y-72030778D01*
X140734086Y-71954927D01*
X140731830Y-71901109D01*
X140729165Y-71869342D01*
X140727472Y-71861132D01*
X140696369Y-71808514D01*
X140649657Y-71768334D01*
X140591587Y-71743365D01*
X140535987Y-71736174D01*
X140469102Y-71744537D01*
X140415071Y-71770447D01*
X140371878Y-71815138D01*
X140351621Y-71848929D01*
X140348182Y-71856286D01*
X140345140Y-71865020D01*
X140342471Y-71876456D01*
X140340149Y-71891915D01*
X140338152Y-71912720D01*
X140336454Y-71940194D01*
X140335031Y-71975659D01*
X140333859Y-72020438D01*
X140332915Y-72075853D01*
X140332173Y-72143227D01*
X140331609Y-72223882D01*
X140331199Y-72319142D01*
X140330919Y-72430328D01*
X140330744Y-72558764D01*
X140330650Y-72705771D01*
X140330614Y-72872673D01*
X140330609Y-72993946D01*
X140330625Y-73174740D01*
X140330688Y-73334723D01*
X140330819Y-73475169D01*
X140331042Y-73597354D01*
X140331378Y-73702553D01*
X140331850Y-73792041D01*
X140332479Y-73867094D01*
X140333289Y-73928986D01*
X140334301Y-73978994D01*
X140335537Y-74018392D01*
X140337019Y-74048455D01*
X140338771Y-74070460D01*
X140340813Y-74085680D01*
X140343169Y-74095392D01*
X140345860Y-74100870D01*
X140348908Y-74103390D01*
X140349935Y-74103772D01*
X140366301Y-74107225D01*
X140401170Y-74113606D01*
X140451427Y-74122402D01*
X140513957Y-74133100D01*
X140585649Y-74145189D01*
X140663387Y-74158156D01*
X140744058Y-74171488D01*
X140824549Y-74184673D01*
X140901744Y-74197198D01*
X140972531Y-74208551D01*
X141033796Y-74218220D01*
X141082424Y-74225691D01*
X141115302Y-74230452D01*
X141129039Y-74232000D01*
X141142346Y-74228052D01*
X141138221Y-74212949D01*
X141138072Y-74212674D01*
X141127454Y-74195806D01*
X141107251Y-74165789D01*
X141080736Y-74127432D01*
X141061079Y-74099478D01*
X141027933Y-74052612D01*
X140994660Y-74005481D01*
X140966429Y-73965409D01*
X140955876Y-73950391D01*
X140931261Y-73915440D01*
X140899484Y-73870503D01*
X140866207Y-73823581D01*
X140855609Y-73808671D01*
X140794083Y-73722168D01*
X140830151Y-73729383D01*
X140863935Y-73737319D01*
X140904202Y-73748314D01*
X140915913Y-73751805D01*
X140950073Y-73761709D01*
X141001665Y-73775966D01*
X141066724Y-73793542D01*
X141141288Y-73813401D01*
X141221391Y-73834506D01*
X141303069Y-73855822D01*
X141382357Y-73876314D01*
X141455292Y-73894946D01*
X141517909Y-73910682D01*
X141566244Y-73922486D01*
X141591363Y-73928272D01*
X141632409Y-73937243D01*
X141664060Y-73943157D01*
X141686036Y-73944264D01*
X141698056Y-73938817D01*
X141699839Y-73925068D01*
X141691104Y-73901268D01*
X141671570Y-73865670D01*
X141640956Y-73816525D01*
X141598981Y-73752086D01*
X141551427Y-73679826D01*
X141507718Y-73612712D01*
X141468863Y-73551792D01*
X141436298Y-73499420D01*
X141411458Y-73457952D01*
X141395779Y-73429741D01*
X141390697Y-73417143D01*
X141390984Y-73416725D01*
X141405720Y-73417698D01*
X141436139Y-73423390D01*
X141476621Y-73432696D01*
X141492627Y-73436731D01*
X141630656Y-73472350D01*
X141748850Y-73502873D01*
X141848763Y-73528701D01*
X141931953Y-73550239D01*
X141999975Y-73567887D01*
X142054385Y-73582049D01*
X142075479Y-73587559D01*
X142170857Y-73612417D01*
X142272579Y-73638780D01*
X142374477Y-73665058D01*
X142470385Y-73689663D01*
X142554136Y-73711007D01*
X142589000Y-73719827D01*
X142637366Y-73732079D01*
X142679110Y-73742757D01*
X142708662Y-73750429D01*
X142718761Y-73753146D01*
X142722547Y-73753285D01*
X142725805Y-73750384D01*
X142728574Y-73742918D01*
X142730894Y-73729361D01*
X142732805Y-73708190D01*
X142734345Y-73677878D01*
X142735555Y-73636902D01*
X142736474Y-73583735D01*
X142737141Y-73516853D01*
X142737596Y-73434730D01*
X142737878Y-73335843D01*
X142738027Y-73218665D01*
X142738082Y-73081671D01*
X142738087Y-73006918D01*
X142738087Y-72255217D01*
X142679353Y-72255217D01*
X142586218Y-72265280D01*
X142502468Y-72295207D01*
X142428680Y-72344608D01*
X142365434Y-72413092D01*
X142313308Y-72500268D01*
X142311672Y-72503695D01*
X142304203Y-72520066D01*
X142298310Y-72535875D01*
X142293806Y-72553864D01*
X142290502Y-72576777D01*
X142288211Y-72607356D01*
X142286745Y-72648343D01*
X142285917Y-72702481D01*
X142285539Y-72772512D01*
X142285423Y-72861178D01*
X142285413Y-72887456D01*
X142285338Y-72981160D01*
X142285078Y-73055113D01*
X142284475Y-73111651D01*
X142283370Y-73153110D01*
X142281606Y-73181826D01*
X142279026Y-73200135D01*
X142275471Y-73210373D01*
X142270784Y-73214876D01*
X142264806Y-73215981D01*
X142263218Y-73216000D01*
X142240942Y-73216002D01*
X142232848Y-73216004D01*
X142231532Y-73205229D01*
X142230152Y-73173972D01*
X142228733Y-73123839D01*
X142227298Y-73056435D01*
X142225871Y-72973366D01*
X142224475Y-72876236D01*
X142223134Y-72766652D01*
X142221873Y-72646218D01*
X142220713Y-72516539D01*
X142219680Y-72379222D01*
X142219044Y-72279257D01*
X142213522Y-71342505D01*
X142182422Y-71295516D01*
X142139638Y-71249355D01*
X142086070Y-71219467D01*
X142026450Y-71206405D01*
X141965511Y-71210723D01*
X141907986Y-71232975D01*
X141872575Y-71259246D01*
X141860880Y-71269915D01*
X141850619Y-71279611D01*
X141841688Y-71289769D01*
X141833986Y-71301828D01*
X141827412Y-71317225D01*
X141821863Y-71337397D01*
X141817239Y-71363782D01*
X141813437Y-71397816D01*
X141810355Y-71440938D01*
X141807893Y-71494584D01*
X141805947Y-71560193D01*
X141804417Y-71639200D01*
X141803201Y-71733045D01*
X141802196Y-71843164D01*
X141801302Y-71970994D01*
X141800417Y-72117972D01*
X141799438Y-72285537D01*
X141799392Y-72293320D01*
X141793870Y-73220423D01*
X141760739Y-73220422D01*
X141727609Y-73220421D01*
X141722087Y-72137898D01*
X141716565Y-71055376D01*
X141686184Y-71009471D01*
X141658065Y-70976368D01*
X141623865Y-70948225D01*
X141612080Y-70941261D01*
X141564213Y-70925171D01*
X141509559Y-70919307D01*
X141457465Y-70923986D01*
G36*
X141857692Y-73733353D02*
G01*
X141867632Y-73754331D01*
X141886515Y-73787021D01*
X141912584Y-73828164D01*
X141913921Y-73830197D01*
X141978619Y-73928789D01*
X142035209Y-74015776D01*
X142082995Y-74090060D01*
X142121282Y-74150542D01*
X142149376Y-74196122D01*
X142166581Y-74225702D01*
X142172203Y-74238184D01*
X142172096Y-74238455D01*
X142159832Y-74238451D01*
X142135102Y-74233000D01*
X142129965Y-74231543D01*
X142101883Y-74224047D01*
X142059733Y-74213661D01*
X142011023Y-74202216D01*
X141992652Y-74198038D01*
X141932717Y-74184540D01*
X141866234Y-74169568D01*
X141806349Y-74156081D01*
X141799392Y-74154514D01*
X141758515Y-74145297D01*
X141701377Y-74132397D01*
X141633260Y-74117007D01*
X141559443Y-74100321D01*
X141485312Y-74083556D01*
X141418938Y-74068678D01*
X141360387Y-74055816D01*
X141312884Y-74045657D01*
X141279653Y-74038888D01*
X141263920Y-74036195D01*
X141263099Y-74036239D01*
X141268623Y-74045552D01*
X141285212Y-74070371D01*
X141311140Y-74108190D01*
X141344683Y-74156508D01*
X141384116Y-74212822D01*
X141413191Y-74254087D01*
X141455585Y-74314407D01*
X141493182Y-74368470D01*
X141524268Y-74413764D01*
X141547131Y-74447779D01*
X141560057Y-74468005D01*
X141562300Y-74472596D01*
X141550919Y-74472254D01*
X141521543Y-74469210D01*
X141478039Y-74463921D01*
X141424273Y-74456846D01*
X141394983Y-74452814D01*
X141318265Y-74442168D01*
X141231301Y-74430207D01*
X141144844Y-74418403D01*
X141070522Y-74408347D01*
X140994055Y-74398019D01*
X140906871Y-74386163D01*
X140820130Y-74374300D01*
X140750261Y-74364682D01*
X140680676Y-74355133D01*
X140608898Y-74345414D01*
X140538447Y-74335987D01*
X140472843Y-74327314D01*
X140415605Y-74319859D01*
X140370252Y-74314084D01*
X140340303Y-74310451D01*
X140329622Y-74309393D01*
X140327943Y-74319554D01*
X140329540Y-74347470D01*
X140333847Y-74389145D01*
X140340297Y-74440583D01*
X140348324Y-74497789D01*
X140357360Y-74556767D01*
X140366840Y-74613522D01*
X140376196Y-74664058D01*
X140384863Y-74704380D01*
X140386664Y-74711653D01*
X140428553Y-74839675D01*
X140486920Y-74958444D01*
X140563554Y-75070962D01*
X140660247Y-75180232D01*
X140674747Y-75194714D01*
X140771965Y-75290514D01*
X140774918Y-75570192D01*
X140777870Y-75849869D01*
X141567479Y-75852791D01*
X142357087Y-75855712D01*
X142357722Y-75569182D01*
X142358356Y-75282651D01*
X142436523Y-75200362D01*
X142513849Y-75108674D01*
X142579063Y-75008105D01*
X142634014Y-74895109D01*
X142680552Y-74766143D01*
X142702123Y-74691285D01*
X142710915Y-74657448D01*
X142717835Y-74627164D01*
X142723149Y-74597092D01*
X142727122Y-74563894D01*
X142730021Y-74524228D01*
X142732110Y-74474755D01*
X142733656Y-74412133D01*
X142734924Y-74333023D01*
X142735759Y-74268522D01*
X142739615Y-73957175D01*
X142691916Y-73945148D01*
X142638349Y-73931541D01*
X142566800Y-73913209D01*
X142480655Y-73891023D01*
X142383299Y-73865853D01*
X142368131Y-73861924D01*
X142241176Y-73828994D01*
X142134497Y-73801242D01*
X142046972Y-73778371D01*
X141977477Y-73760086D01*
X141924892Y-73746089D01*
X141888094Y-73736085D01*
X141865960Y-73729777D01*
X141858454Y-73727350D01*
X141857692Y-73733353D01*
X141857692Y-73733353D01*
G37*
X141857692Y-73733353D02*
X141867632Y-73754331D01*
X141886515Y-73787021D01*
X141912584Y-73828164D01*
X141913921Y-73830197D01*
X141978619Y-73928789D01*
X142035209Y-74015776D01*
X142082995Y-74090060D01*
X142121282Y-74150542D01*
X142149376Y-74196122D01*
X142166581Y-74225702D01*
X142172203Y-74238184D01*
X142172096Y-74238455D01*
X142159832Y-74238451D01*
X142135102Y-74233000D01*
X142129965Y-74231543D01*
X142101883Y-74224047D01*
X142059733Y-74213661D01*
X142011023Y-74202216D01*
X141992652Y-74198038D01*
X141932717Y-74184540D01*
X141866234Y-74169568D01*
X141806349Y-74156081D01*
X141799392Y-74154514D01*
X141758515Y-74145297D01*
X141701377Y-74132397D01*
X141633260Y-74117007D01*
X141559443Y-74100321D01*
X141485312Y-74083556D01*
X141418938Y-74068678D01*
X141360387Y-74055816D01*
X141312884Y-74045657D01*
X141279653Y-74038888D01*
X141263920Y-74036195D01*
X141263099Y-74036239D01*
X141268623Y-74045552D01*
X141285212Y-74070371D01*
X141311140Y-74108190D01*
X141344683Y-74156508D01*
X141384116Y-74212822D01*
X141413191Y-74254087D01*
X141455585Y-74314407D01*
X141493182Y-74368470D01*
X141524268Y-74413764D01*
X141547131Y-74447779D01*
X141560057Y-74468005D01*
X141562300Y-74472596D01*
X141550919Y-74472254D01*
X141521543Y-74469210D01*
X141478039Y-74463921D01*
X141424273Y-74456846D01*
X141394983Y-74452814D01*
X141318265Y-74442168D01*
X141231301Y-74430207D01*
X141144844Y-74418403D01*
X141070522Y-74408347D01*
X140994055Y-74398019D01*
X140906871Y-74386163D01*
X140820130Y-74374300D01*
X140750261Y-74364682D01*
X140680676Y-74355133D01*
X140608898Y-74345414D01*
X140538447Y-74335987D01*
X140472843Y-74327314D01*
X140415605Y-74319859D01*
X140370252Y-74314084D01*
X140340303Y-74310451D01*
X140329622Y-74309393D01*
X140327943Y-74319554D01*
X140329540Y-74347470D01*
X140333847Y-74389145D01*
X140340297Y-74440583D01*
X140348324Y-74497789D01*
X140357360Y-74556767D01*
X140366840Y-74613522D01*
X140376196Y-74664058D01*
X140384863Y-74704380D01*
X140386664Y-74711653D01*
X140428553Y-74839675D01*
X140486920Y-74958444D01*
X140563554Y-75070962D01*
X140660247Y-75180232D01*
X140674747Y-75194714D01*
X140771965Y-75290514D01*
X140774918Y-75570192D01*
X140777870Y-75849869D01*
X141567479Y-75852791D01*
X142357087Y-75855712D01*
X142357722Y-75569182D01*
X142358356Y-75282651D01*
X142436523Y-75200362D01*
X142513849Y-75108674D01*
X142579063Y-75008105D01*
X142634014Y-74895109D01*
X142680552Y-74766143D01*
X142702123Y-74691285D01*
X142710915Y-74657448D01*
X142717835Y-74627164D01*
X142723149Y-74597092D01*
X142727122Y-74563894D01*
X142730021Y-74524228D01*
X142732110Y-74474755D01*
X142733656Y-74412133D01*
X142734924Y-74333023D01*
X142735759Y-74268522D01*
X142739615Y-73957175D01*
X142691916Y-73945148D01*
X142638349Y-73931541D01*
X142566800Y-73913209D01*
X142480655Y-73891023D01*
X142383299Y-73865853D01*
X142368131Y-73861924D01*
X142241176Y-73828994D01*
X142134497Y-73801242D01*
X142046972Y-73778371D01*
X141977477Y-73760086D01*
X141924892Y-73746089D01*
X141888094Y-73736085D01*
X141865960Y-73729777D01*
X141858454Y-73727350D01*
X141857692Y-73733353D01*
G36*
X141633716Y-67488870D02*
G01*
X141598744Y-67499618D01*
X141568805Y-67512337D01*
X141527857Y-67534003D01*
X141490760Y-67559190D01*
X141469566Y-67578307D01*
X141460850Y-67589474D01*
X141448369Y-67607628D01*
X141431535Y-67633768D01*
X141409758Y-67668894D01*
X141382451Y-67714006D01*
X141349024Y-67770103D01*
X141308889Y-67838185D01*
X141261456Y-67919251D01*
X141206137Y-68014302D01*
X141142343Y-68124337D01*
X141069485Y-68250355D01*
X140986975Y-68393357D01*
X140894223Y-68554342D01*
X140874394Y-68588782D01*
X140812493Y-68696264D01*
X140743423Y-68816127D01*
X140670381Y-68942828D01*
X140596563Y-69070826D01*
X140525164Y-69194577D01*
X140459382Y-69308539D01*
X140419040Y-69378391D01*
X140341730Y-69512227D01*
X140259230Y-69655068D01*
X140172911Y-69804539D01*
X140084145Y-69958264D01*
X139994304Y-70113867D01*
X139904759Y-70268972D01*
X139816881Y-70421203D01*
X139732042Y-70568183D01*
X139651615Y-70707538D01*
X139576970Y-70836891D01*
X139509478Y-70953866D01*
X139450512Y-71056087D01*
X139408590Y-71128782D01*
X139311658Y-71296870D01*
X139215997Y-71462699D01*
X139123014Y-71623830D01*
X139034118Y-71777824D01*
X138950719Y-71922240D01*
X138874224Y-72054639D01*
X138806043Y-72172581D01*
X138751847Y-72266261D01*
X138715129Y-72329735D01*
X138669054Y-72409442D01*
X138615298Y-72502481D01*
X138555536Y-72605951D01*
X138491443Y-72716949D01*
X138424696Y-72832575D01*
X138356968Y-72949926D01*
X138289937Y-73066103D01*
X138254432Y-73127652D01*
X138186801Y-73244888D01*
X138116222Y-73367202D01*
X138044581Y-73491330D01*
X137973761Y-73614011D01*
X137905645Y-73731980D01*
X137842119Y-73841976D01*
X137785064Y-73940735D01*
X137736367Y-74024994D01*
X137718842Y-74055304D01*
X137661733Y-74154102D01*
X137596955Y-74266238D01*
X137527859Y-74385909D01*
X137457795Y-74507311D01*
X137390113Y-74624640D01*
X137328162Y-74732092D01*
X137307696Y-74767608D01*
X137249929Y-74867847D01*
X137186336Y-74978159D01*
X137120015Y-75093171D01*
X137054065Y-75207511D01*
X136991585Y-75315806D01*
X136935673Y-75412683D01*
X136914077Y-75450089D01*
X136730435Y-75768134D01*
X136730435Y-76937652D01*
X146669565Y-76937652D01*
X146669565Y-76104635D01*
X146018000Y-76104635D01*
X146007081Y-76104973D01*
X145974823Y-76105306D01*
X145921974Y-76105631D01*
X145849280Y-76105949D01*
X145757491Y-76106258D01*
X145647353Y-76106557D01*
X145519614Y-76106846D01*
X145375023Y-76107124D01*
X145214326Y-76107390D01*
X145038272Y-76107643D01*
X144847608Y-76107882D01*
X144643081Y-76108107D01*
X144425441Y-76108317D01*
X144195434Y-76108510D01*
X143953807Y-76108687D01*
X143701310Y-76108846D01*
X143438689Y-76108986D01*
X143166692Y-76109107D01*
X142886068Y-76109207D01*
X142597563Y-76109287D01*
X142301925Y-76109345D01*
X141999902Y-76109380D01*
X141700000Y-76109391D01*
X141392472Y-76109379D01*
X141090600Y-76109344D01*
X140795132Y-76109287D01*
X140506814Y-76109208D01*
X140226396Y-76109108D01*
X139954625Y-76108988D01*
X139692248Y-76108850D01*
X139440014Y-76108692D01*
X139198669Y-76108518D01*
X138968962Y-76108327D01*
X138751640Y-76108119D01*
X138547452Y-76107897D01*
X138357144Y-76107661D01*
X138181465Y-76107411D01*
X138021162Y-76107148D01*
X137876983Y-76106874D01*
X137749675Y-76106589D01*
X137639987Y-76106293D01*
X137548666Y-76105988D01*
X137476460Y-76105675D01*
X137424116Y-76105354D01*
X137392383Y-76105026D01*
X137382000Y-76104700D01*
X137384040Y-76100024D01*
X137390468Y-76087732D01*
X137401750Y-76067001D01*
X137418351Y-76037009D01*
X137440734Y-75996934D01*
X137469366Y-75945952D01*
X137504711Y-75883240D01*
X137547234Y-75807977D01*
X137597400Y-75719339D01*
X137655673Y-75616504D01*
X137722519Y-75498649D01*
X137798402Y-75364951D01*
X137883786Y-75214588D01*
X137979138Y-75046737D01*
X138084922Y-74860575D01*
X138092985Y-74846386D01*
X138164890Y-74719848D01*
X138246004Y-74577080D01*
X138334634Y-74421063D01*
X138429088Y-74254778D01*
X138527674Y-74081203D01*
X138628698Y-73903319D01*
X138730469Y-73724107D01*
X138831293Y-73546546D01*
X138929479Y-73373617D01*
X139023334Y-73208299D01*
X139087921Y-73094521D01*
X139181135Y-72930316D01*
X139283211Y-72750516D01*
X139392099Y-72558727D01*
X139505753Y-72358559D01*
X139622121Y-72153619D01*
X139739156Y-71947516D01*
X139854809Y-71743857D01*
X139967032Y-71546251D01*
X140073774Y-71358305D01*
X140172988Y-71183629D01*
X140219824Y-71101174D01*
X140305453Y-70950423D01*
X140393272Y-70795806D01*
X140481995Y-70639584D01*
X140570340Y-70484020D01*
X140657021Y-70331376D01*
X140740754Y-70183914D01*
X140820255Y-70043895D01*
X140894238Y-69913582D01*
X140961421Y-69795236D01*
X141020518Y-69691121D01*
X141070244Y-69603497D01*
X141078914Y-69588217D01*
X141141019Y-69478780D01*
X141205566Y-69365073D01*
X141270622Y-69250503D01*
X141334252Y-69138474D01*
X141394522Y-69032392D01*
X141449496Y-68935663D01*
X141497240Y-68851692D01*
X141532261Y-68790139D01*
X141697372Y-68500061D01*
X141868470Y-68801182D01*
X141909012Y-68872512D01*
X141958553Y-68959638D01*
X142015160Y-69059167D01*
X142076904Y-69167702D01*
X142141850Y-69281848D01*
X142208069Y-69398211D01*
X142273628Y-69513393D01*
X142335085Y-69621348D01*
X142395427Y-69727353D01*
X142456096Y-69833970D01*
X142515521Y-69938438D01*
X142572133Y-70037996D01*
X142624364Y-70129884D01*
X142670643Y-70211341D01*
X142709402Y-70279607D01*
X142739070Y-70331922D01*
X142743178Y-70339174D01*
X142774122Y-70393771D01*
X142814034Y-70464123D01*
X142860957Y-70546785D01*
X142912936Y-70638315D01*
X142968016Y-70735269D01*
X143024242Y-70834204D01*
X143079657Y-70931677D01*
X143090314Y-70950419D01*
X143324875Y-71362881D01*
X143088909Y-71601984D01*
X143021666Y-71670276D01*
X142968248Y-71725079D01*
X142926858Y-71768521D01*
X142895703Y-71802730D01*
X142872989Y-71829834D01*
X142856920Y-71851962D01*
X142845702Y-71871241D01*
X142837541Y-71889801D01*
X142831424Y-71907348D01*
X142816227Y-71973498D01*
X142810106Y-72052817D01*
X142809899Y-72073000D01*
X142813317Y-72146203D01*
X142824455Y-72215170D01*
X142844620Y-72282145D01*
X142875122Y-72349373D01*
X142917270Y-72419101D01*
X142972373Y-72493573D01*
X143041740Y-72575034D01*
X143126681Y-72665731D01*
X143196787Y-72736591D01*
X143252526Y-72792365D01*
X143303876Y-72844496D01*
X143348471Y-72890524D01*
X143383945Y-72927985D01*
X143407932Y-72954418D01*
X143417292Y-72966018D01*
X143434822Y-73011919D01*
X143436291Y-73067761D01*
X143423248Y-73130157D01*
X143397244Y-73195722D01*
X143359829Y-73261069D01*
X143312554Y-73322812D01*
X143256970Y-73377563D01*
X143214092Y-73409820D01*
X143172336Y-73437453D01*
X143187982Y-73498883D01*
X143195534Y-73533039D01*
X143198852Y-73557710D01*
X143197920Y-73566022D01*
X143185236Y-73565719D01*
X143159194Y-73558625D01*
X143141021Y-73552180D01*
X143082545Y-73520545D01*
X143025484Y-73473157D01*
X142975988Y-73415840D01*
X142946741Y-73368286D01*
X142923118Y-73328011D01*
X142902740Y-73308621D01*
X142884181Y-73309417D01*
X142866555Y-73328835D01*
X142861887Y-73345104D01*
X142866852Y-73368670D01*
X142882649Y-73404957D01*
X142883998Y-73407720D01*
X142933009Y-73487499D01*
X142993267Y-73549055D01*
X143038148Y-73579471D01*
X143070444Y-73600064D01*
X143081999Y-73613790D01*
X143072726Y-73621622D01*
X143042531Y-73624532D01*
X143033955Y-73624608D01*
X143001010Y-73626887D01*
X142958033Y-73632887D01*
X142911224Y-73641358D01*
X142866781Y-73651049D01*
X142830904Y-73660707D01*
X142809792Y-73669081D01*
X142808249Y-73670176D01*
X142801058Y-73687919D01*
X142803639Y-73711816D01*
X142814549Y-73728995D01*
X142814860Y-73729193D01*
X142828428Y-73729262D01*
X142858461Y-73725475D01*
X142899817Y-73718556D01*
X142926723Y-73713441D01*
X142981718Y-73703219D01*
X143037561Y-73693943D01*
X143084660Y-73687175D01*
X143097000Y-73685720D01*
X143163261Y-73678600D01*
X143130131Y-73699538D01*
X143092237Y-73729404D01*
X143055009Y-73769105D01*
X143020387Y-73815047D01*
X142990307Y-73863637D01*
X142966710Y-73911281D01*
X142951532Y-73954386D01*
X142946712Y-73989358D01*
X142954189Y-74012603D01*
X142959056Y-74016713D01*
X142982405Y-74020397D01*
X143004542Y-74003327D01*
X143024007Y-73966835D01*
X143028871Y-73953036D01*
X143047040Y-73909410D01*
X143072323Y-73863366D01*
X143086189Y-73842699D01*
X143115205Y-73808394D01*
X143149541Y-73775207D01*
X143184092Y-73747340D01*
X143213752Y-73728996D01*
X143230395Y-73724000D01*
X143240922Y-73733726D01*
X143253353Y-73758842D01*
X143261897Y-73783776D01*
X143279275Y-73843553D01*
X143334905Y-73823219D01*
X143436154Y-73775204D01*
X143532314Y-73708309D01*
X143620027Y-73625675D01*
X143695935Y-73530440D01*
X143753962Y-73431348D01*
X143779437Y-73364750D01*
X143799736Y-73282555D01*
X143814246Y-73190779D01*
X143822353Y-73095435D01*
X143823445Y-73002537D01*
X143816910Y-72918100D01*
X143810217Y-72879174D01*
X143797658Y-72829077D01*
X143781507Y-72783339D01*
X143759823Y-72739176D01*
X143730663Y-72693804D01*
X143692085Y-72644441D01*
X143642145Y-72588302D01*
X143578902Y-72522603D01*
X143521229Y-72465043D01*
X143465079Y-72408913D01*
X143412517Y-72355025D01*
X143366181Y-72306189D01*
X143328708Y-72265215D01*
X143302737Y-72234912D01*
X143293154Y-72222087D01*
X143273510Y-72188559D01*
X143253792Y-72149731D01*
X143237044Y-72112258D01*
X143226311Y-72082797D01*
X143224000Y-72070900D01*
X143231500Y-72060316D01*
X143252038Y-72037408D01*
X143282676Y-72005103D01*
X143320471Y-71966325D01*
X143362484Y-71923999D01*
X143405774Y-71881050D01*
X143447402Y-71840402D01*
X143484426Y-71804982D01*
X143513906Y-71777713D01*
X143532902Y-71761521D01*
X143538230Y-71758321D01*
X143546637Y-71767549D01*
X143564217Y-71793472D01*
X143589375Y-71833503D01*
X143620513Y-71885055D01*
X143656034Y-71945540D01*
X143686475Y-71998517D01*
X143715547Y-72049609D01*
X143754217Y-72117599D01*
X143801176Y-72200181D01*
X143855111Y-72295050D01*
X143914713Y-72399899D01*
X143978670Y-72512423D01*
X144045671Y-72630315D01*
X144114407Y-72751269D01*
X144183565Y-72872980D01*
X144215320Y-72928869D01*
X144284574Y-73050748D01*
X144362931Y-73188623D01*
X144448572Y-73339292D01*
X144539675Y-73499555D01*
X144634422Y-73666211D01*
X144730993Y-73836059D01*
X144827566Y-74005898D01*
X144922323Y-74172526D01*
X145013444Y-74332743D01*
X145099108Y-74483347D01*
X145106899Y-74497043D01*
X145225432Y-74705424D01*
X145333501Y-74895427D01*
X145431569Y-75067867D01*
X145520098Y-75223563D01*
X145599550Y-75363329D01*
X145670389Y-75487983D01*
X145733077Y-75598340D01*
X145788077Y-75695217D01*
X145835852Y-75779431D01*
X145876864Y-75851798D01*
X145911575Y-75913134D01*
X145940450Y-75964256D01*
X145963950Y-76005980D01*
X145982538Y-76039123D01*
X145996677Y-76064501D01*
X146006829Y-76082930D01*
X146013457Y-76095226D01*
X146017024Y-76102207D01*
X146018000Y-76104635D01*
X146669565Y-76104635D01*
X146669565Y-75779923D01*
X146505307Y-75494635D01*
X146467981Y-75429840D01*
X146421322Y-75348897D01*
X146367048Y-75254781D01*
X146306874Y-75150470D01*
X146242519Y-75038939D01*
X146175700Y-74923164D01*
X146108133Y-74806121D01*
X146041536Y-74690786D01*
X146012556Y-74640608D01*
X145945036Y-74523686D01*
X145874247Y-74401065D01*
X145802149Y-74276143D01*
X145730701Y-74152315D01*
X145661861Y-74032978D01*
X145597590Y-73921526D01*
X145539846Y-73821358D01*
X145490588Y-73735867D01*
X145477394Y-73712956D01*
X145421032Y-73615121D01*
X145356717Y-73503551D01*
X145287555Y-73383632D01*
X145216652Y-73260748D01*
X145147114Y-73140283D01*
X145082048Y-73027621D01*
X145044129Y-72962000D01*
X144994110Y-72875438D01*
X144935090Y-72773264D01*
X144869102Y-72658998D01*
X144798177Y-72536160D01*
X144724349Y-72408272D01*
X144649649Y-72278854D01*
X144576112Y-72151426D01*
X144505768Y-72029510D01*
X144483075Y-71990174D01*
X144417927Y-71877257D01*
X144351822Y-71762708D01*
X144286335Y-71649257D01*
X144223044Y-71539635D01*
X144163525Y-71436574D01*
X144109357Y-71342805D01*
X144062117Y-71261058D01*
X144023380Y-71194065D01*
X144004776Y-71161913D01*
X143966773Y-71096212D01*
X143919916Y-71015123D01*
X143866372Y-70922397D01*
X143808305Y-70821788D01*
X143747882Y-70717049D01*
X143687269Y-70611932D01*
X143628631Y-70510189D01*
X143615997Y-70488261D01*
X143562256Y-70395000D01*
X143509577Y-70303625D01*
X143459486Y-70216783D01*
X143413512Y-70137122D01*
X143373184Y-70067289D01*
X143340030Y-70009931D01*
X143315577Y-69967697D01*
X143306843Y-69952652D01*
X143287584Y-69919451D01*
X143258807Y-69869733D01*
X143222027Y-69806119D01*
X143178755Y-69731228D01*
X143130506Y-69647679D01*
X143078791Y-69558091D01*
X143025126Y-69465084D01*
X142994230Y-69411521D01*
X142875826Y-69206223D01*
X142767998Y-69019263D01*
X142670287Y-68849849D01*
X142582235Y-68697185D01*
X142503385Y-68560477D01*
X142433278Y-68438932D01*
X142371455Y-68331754D01*
X142317459Y-68238150D01*
X142270831Y-68157325D01*
X142231114Y-68088486D01*
X142197848Y-68030837D01*
X142170576Y-67983585D01*
X142148840Y-67945936D01*
X142132182Y-67917095D01*
X142120142Y-67896267D01*
X142112263Y-67882659D01*
X142108672Y-67876478D01*
X142095334Y-67853468D01*
X142074135Y-67816748D01*
X142048216Y-67771762D01*
X142025867Y-67732913D01*
X141976695Y-67652784D01*
X141931052Y-67591451D01*
X141886003Y-67546589D01*
X141838616Y-67515872D01*
X141785956Y-67496975D01*
X141725092Y-67487574D01*
X141715429Y-67486862D01*
X141669030Y-67485240D01*
X141633716Y-67488870D01*
X141633716Y-67488870D01*
G37*
X141633716Y-67488870D02*
X141598744Y-67499618D01*
X141568805Y-67512337D01*
X141527857Y-67534003D01*
X141490760Y-67559190D01*
X141469566Y-67578307D01*
X141460850Y-67589474D01*
X141448369Y-67607628D01*
X141431535Y-67633768D01*
X141409758Y-67668894D01*
X141382451Y-67714006D01*
X141349024Y-67770103D01*
X141308889Y-67838185D01*
X141261456Y-67919251D01*
X141206137Y-68014302D01*
X141142343Y-68124337D01*
X141069485Y-68250355D01*
X140986975Y-68393357D01*
X140894223Y-68554342D01*
X140874394Y-68588782D01*
X140812493Y-68696264D01*
X140743423Y-68816127D01*
X140670381Y-68942828D01*
X140596563Y-69070826D01*
X140525164Y-69194577D01*
X140459382Y-69308539D01*
X140419040Y-69378391D01*
X140341730Y-69512227D01*
X140259230Y-69655068D01*
X140172911Y-69804539D01*
X140084145Y-69958264D01*
X139994304Y-70113867D01*
X139904759Y-70268972D01*
X139816881Y-70421203D01*
X139732042Y-70568183D01*
X139651615Y-70707538D01*
X139576970Y-70836891D01*
X139509478Y-70953866D01*
X139450512Y-71056087D01*
X139408590Y-71128782D01*
X139311658Y-71296870D01*
X139215997Y-71462699D01*
X139123014Y-71623830D01*
X139034118Y-71777824D01*
X138950719Y-71922240D01*
X138874224Y-72054639D01*
X138806043Y-72172581D01*
X138751847Y-72266261D01*
X138715129Y-72329735D01*
X138669054Y-72409442D01*
X138615298Y-72502481D01*
X138555536Y-72605951D01*
X138491443Y-72716949D01*
X138424696Y-72832575D01*
X138356968Y-72949926D01*
X138289937Y-73066103D01*
X138254432Y-73127652D01*
X138186801Y-73244888D01*
X138116222Y-73367202D01*
X138044581Y-73491330D01*
X137973761Y-73614011D01*
X137905645Y-73731980D01*
X137842119Y-73841976D01*
X137785064Y-73940735D01*
X137736367Y-74024994D01*
X137718842Y-74055304D01*
X137661733Y-74154102D01*
X137596955Y-74266238D01*
X137527859Y-74385909D01*
X137457795Y-74507311D01*
X137390113Y-74624640D01*
X137328162Y-74732092D01*
X137307696Y-74767608D01*
X137249929Y-74867847D01*
X137186336Y-74978159D01*
X137120015Y-75093171D01*
X137054065Y-75207511D01*
X136991585Y-75315806D01*
X136935673Y-75412683D01*
X136914077Y-75450089D01*
X136730435Y-75768134D01*
X136730435Y-76937652D01*
X146669565Y-76937652D01*
X146669565Y-76104635D01*
X146018000Y-76104635D01*
X146007081Y-76104973D01*
X145974823Y-76105306D01*
X145921974Y-76105631D01*
X145849280Y-76105949D01*
X145757491Y-76106258D01*
X145647353Y-76106557D01*
X145519614Y-76106846D01*
X145375023Y-76107124D01*
X145214326Y-76107390D01*
X145038272Y-76107643D01*
X144847608Y-76107882D01*
X144643081Y-76108107D01*
X144425441Y-76108317D01*
X144195434Y-76108510D01*
X143953807Y-76108687D01*
X143701310Y-76108846D01*
X143438689Y-76108986D01*
X143166692Y-76109107D01*
X142886068Y-76109207D01*
X142597563Y-76109287D01*
X142301925Y-76109345D01*
X141999902Y-76109380D01*
X141700000Y-76109391D01*
X141392472Y-76109379D01*
X141090600Y-76109344D01*
X140795132Y-76109287D01*
X140506814Y-76109208D01*
X140226396Y-76109108D01*
X139954625Y-76108988D01*
X139692248Y-76108850D01*
X139440014Y-76108692D01*
X139198669Y-76108518D01*
X138968962Y-76108327D01*
X138751640Y-76108119D01*
X138547452Y-76107897D01*
X138357144Y-76107661D01*
X138181465Y-76107411D01*
X138021162Y-76107148D01*
X137876983Y-76106874D01*
X137749675Y-76106589D01*
X137639987Y-76106293D01*
X137548666Y-76105988D01*
X137476460Y-76105675D01*
X137424116Y-76105354D01*
X137392383Y-76105026D01*
X137382000Y-76104700D01*
X137384040Y-76100024D01*
X137390468Y-76087732D01*
X137401750Y-76067001D01*
X137418351Y-76037009D01*
X137440734Y-75996934D01*
X137469366Y-75945952D01*
X137504711Y-75883240D01*
X137547234Y-75807977D01*
X137597400Y-75719339D01*
X137655673Y-75616504D01*
X137722519Y-75498649D01*
X137798402Y-75364951D01*
X137883786Y-75214588D01*
X137979138Y-75046737D01*
X138084922Y-74860575D01*
X138092985Y-74846386D01*
X138164890Y-74719848D01*
X138246004Y-74577080D01*
X138334634Y-74421063D01*
X138429088Y-74254778D01*
X138527674Y-74081203D01*
X138628698Y-73903319D01*
X138730469Y-73724107D01*
X138831293Y-73546546D01*
X138929479Y-73373617D01*
X139023334Y-73208299D01*
X139087921Y-73094521D01*
X139181135Y-72930316D01*
X139283211Y-72750516D01*
X139392099Y-72558727D01*
X139505753Y-72358559D01*
X139622121Y-72153619D01*
X139739156Y-71947516D01*
X139854809Y-71743857D01*
X139967032Y-71546251D01*
X140073774Y-71358305D01*
X140172988Y-71183629D01*
X140219824Y-71101174D01*
X140305453Y-70950423D01*
X140393272Y-70795806D01*
X140481995Y-70639584D01*
X140570340Y-70484020D01*
X140657021Y-70331376D01*
X140740754Y-70183914D01*
X140820255Y-70043895D01*
X140894238Y-69913582D01*
X140961421Y-69795236D01*
X141020518Y-69691121D01*
X141070244Y-69603497D01*
X141078914Y-69588217D01*
X141141019Y-69478780D01*
X141205566Y-69365073D01*
X141270622Y-69250503D01*
X141334252Y-69138474D01*
X141394522Y-69032392D01*
X141449496Y-68935663D01*
X141497240Y-68851692D01*
X141532261Y-68790139D01*
X141697372Y-68500061D01*
X141868470Y-68801182D01*
X141909012Y-68872512D01*
X141958553Y-68959638D01*
X142015160Y-69059167D01*
X142076904Y-69167702D01*
X142141850Y-69281848D01*
X142208069Y-69398211D01*
X142273628Y-69513393D01*
X142335085Y-69621348D01*
X142395427Y-69727353D01*
X142456096Y-69833970D01*
X142515521Y-69938438D01*
X142572133Y-70037996D01*
X142624364Y-70129884D01*
X142670643Y-70211341D01*
X142709402Y-70279607D01*
X142739070Y-70331922D01*
X142743178Y-70339174D01*
X142774122Y-70393771D01*
X142814034Y-70464123D01*
X142860957Y-70546785D01*
X142912936Y-70638315D01*
X142968016Y-70735269D01*
X143024242Y-70834204D01*
X143079657Y-70931677D01*
X143090314Y-70950419D01*
X143324875Y-71362881D01*
X143088909Y-71601984D01*
X143021666Y-71670276D01*
X142968248Y-71725079D01*
X142926858Y-71768521D01*
X142895703Y-71802730D01*
X142872989Y-71829834D01*
X142856920Y-71851962D01*
X142845702Y-71871241D01*
X142837541Y-71889801D01*
X142831424Y-71907348D01*
X142816227Y-71973498D01*
X142810106Y-72052817D01*
X142809899Y-72073000D01*
X142813317Y-72146203D01*
X142824455Y-72215170D01*
X142844620Y-72282145D01*
X142875122Y-72349373D01*
X142917270Y-72419101D01*
X142972373Y-72493573D01*
X143041740Y-72575034D01*
X143126681Y-72665731D01*
X143196787Y-72736591D01*
X143252526Y-72792365D01*
X143303876Y-72844496D01*
X143348471Y-72890524D01*
X143383945Y-72927985D01*
X143407932Y-72954418D01*
X143417292Y-72966018D01*
X143434822Y-73011919D01*
X143436291Y-73067761D01*
X143423248Y-73130157D01*
X143397244Y-73195722D01*
X143359829Y-73261069D01*
X143312554Y-73322812D01*
X143256970Y-73377563D01*
X143214092Y-73409820D01*
X143172336Y-73437453D01*
X143187982Y-73498883D01*
X143195534Y-73533039D01*
X143198852Y-73557710D01*
X143197920Y-73566022D01*
X143185236Y-73565719D01*
X143159194Y-73558625D01*
X143141021Y-73552180D01*
X143082545Y-73520545D01*
X143025484Y-73473157D01*
X142975988Y-73415840D01*
X142946741Y-73368286D01*
X142923118Y-73328011D01*
X142902740Y-73308621D01*
X142884181Y-73309417D01*
X142866555Y-73328835D01*
X142861887Y-73345104D01*
X142866852Y-73368670D01*
X142882649Y-73404957D01*
X142883998Y-73407720D01*
X142933009Y-73487499D01*
X142993267Y-73549055D01*
X143038148Y-73579471D01*
X143070444Y-73600064D01*
X143081999Y-73613790D01*
X143072726Y-73621622D01*
X143042531Y-73624532D01*
X143033955Y-73624608D01*
X143001010Y-73626887D01*
X142958033Y-73632887D01*
X142911224Y-73641358D01*
X142866781Y-73651049D01*
X142830904Y-73660707D01*
X142809792Y-73669081D01*
X142808249Y-73670176D01*
X142801058Y-73687919D01*
X142803639Y-73711816D01*
X142814549Y-73728995D01*
X142814860Y-73729193D01*
X142828428Y-73729262D01*
X142858461Y-73725475D01*
X142899817Y-73718556D01*
X142926723Y-73713441D01*
X142981718Y-73703219D01*
X143037561Y-73693943D01*
X143084660Y-73687175D01*
X143097000Y-73685720D01*
X143163261Y-73678600D01*
X143130131Y-73699538D01*
X143092237Y-73729404D01*
X143055009Y-73769105D01*
X143020387Y-73815047D01*
X142990307Y-73863637D01*
X142966710Y-73911281D01*
X142951532Y-73954386D01*
X142946712Y-73989358D01*
X142954189Y-74012603D01*
X142959056Y-74016713D01*
X142982405Y-74020397D01*
X143004542Y-74003327D01*
X143024007Y-73966835D01*
X143028871Y-73953036D01*
X143047040Y-73909410D01*
X143072323Y-73863366D01*
X143086189Y-73842699D01*
X143115205Y-73808394D01*
X143149541Y-73775207D01*
X143184092Y-73747340D01*
X143213752Y-73728996D01*
X143230395Y-73724000D01*
X143240922Y-73733726D01*
X143253353Y-73758842D01*
X143261897Y-73783776D01*
X143279275Y-73843553D01*
X143334905Y-73823219D01*
X143436154Y-73775204D01*
X143532314Y-73708309D01*
X143620027Y-73625675D01*
X143695935Y-73530440D01*
X143753962Y-73431348D01*
X143779437Y-73364750D01*
X143799736Y-73282555D01*
X143814246Y-73190779D01*
X143822353Y-73095435D01*
X143823445Y-73002537D01*
X143816910Y-72918100D01*
X143810217Y-72879174D01*
X143797658Y-72829077D01*
X143781507Y-72783339D01*
X143759823Y-72739176D01*
X143730663Y-72693804D01*
X143692085Y-72644441D01*
X143642145Y-72588302D01*
X143578902Y-72522603D01*
X143521229Y-72465043D01*
X143465079Y-72408913D01*
X143412517Y-72355025D01*
X143366181Y-72306189D01*
X143328708Y-72265215D01*
X143302737Y-72234912D01*
X143293154Y-72222087D01*
X143273510Y-72188559D01*
X143253792Y-72149731D01*
X143237044Y-72112258D01*
X143226311Y-72082797D01*
X143224000Y-72070900D01*
X143231500Y-72060316D01*
X143252038Y-72037408D01*
X143282676Y-72005103D01*
X143320471Y-71966325D01*
X143362484Y-71923999D01*
X143405774Y-71881050D01*
X143447402Y-71840402D01*
X143484426Y-71804982D01*
X143513906Y-71777713D01*
X143532902Y-71761521D01*
X143538230Y-71758321D01*
X143546637Y-71767549D01*
X143564217Y-71793472D01*
X143589375Y-71833503D01*
X143620513Y-71885055D01*
X143656034Y-71945540D01*
X143686475Y-71998517D01*
X143715547Y-72049609D01*
X143754217Y-72117599D01*
X143801176Y-72200181D01*
X143855111Y-72295050D01*
X143914713Y-72399899D01*
X143978670Y-72512423D01*
X144045671Y-72630315D01*
X144114407Y-72751269D01*
X144183565Y-72872980D01*
X144215320Y-72928869D01*
X144284574Y-73050748D01*
X144362931Y-73188623D01*
X144448572Y-73339292D01*
X144539675Y-73499555D01*
X144634422Y-73666211D01*
X144730993Y-73836059D01*
X144827566Y-74005898D01*
X144922323Y-74172526D01*
X145013444Y-74332743D01*
X145099108Y-74483347D01*
X145106899Y-74497043D01*
X145225432Y-74705424D01*
X145333501Y-74895427D01*
X145431569Y-75067867D01*
X145520098Y-75223563D01*
X145599550Y-75363329D01*
X145670389Y-75487983D01*
X145733077Y-75598340D01*
X145788077Y-75695217D01*
X145835852Y-75779431D01*
X145876864Y-75851798D01*
X145911575Y-75913134D01*
X145940450Y-75964256D01*
X145963950Y-76005980D01*
X145982538Y-76039123D01*
X145996677Y-76064501D01*
X146006829Y-76082930D01*
X146013457Y-76095226D01*
X146017024Y-76102207D01*
X146018000Y-76104635D01*
X146669565Y-76104635D01*
X146669565Y-75779923D01*
X146505307Y-75494635D01*
X146467981Y-75429840D01*
X146421322Y-75348897D01*
X146367048Y-75254781D01*
X146306874Y-75150470D01*
X146242519Y-75038939D01*
X146175700Y-74923164D01*
X146108133Y-74806121D01*
X146041536Y-74690786D01*
X146012556Y-74640608D01*
X145945036Y-74523686D01*
X145874247Y-74401065D01*
X145802149Y-74276143D01*
X145730701Y-74152315D01*
X145661861Y-74032978D01*
X145597590Y-73921526D01*
X145539846Y-73821358D01*
X145490588Y-73735867D01*
X145477394Y-73712956D01*
X145421032Y-73615121D01*
X145356717Y-73503551D01*
X145287555Y-73383632D01*
X145216652Y-73260748D01*
X145147114Y-73140283D01*
X145082048Y-73027621D01*
X145044129Y-72962000D01*
X144994110Y-72875438D01*
X144935090Y-72773264D01*
X144869102Y-72658998D01*
X144798177Y-72536160D01*
X144724349Y-72408272D01*
X144649649Y-72278854D01*
X144576112Y-72151426D01*
X144505768Y-72029510D01*
X144483075Y-71990174D01*
X144417927Y-71877257D01*
X144351822Y-71762708D01*
X144286335Y-71649257D01*
X144223044Y-71539635D01*
X144163525Y-71436574D01*
X144109357Y-71342805D01*
X144062117Y-71261058D01*
X144023380Y-71194065D01*
X144004776Y-71161913D01*
X143966773Y-71096212D01*
X143919916Y-71015123D01*
X143866372Y-70922397D01*
X143808305Y-70821788D01*
X143747882Y-70717049D01*
X143687269Y-70611932D01*
X143628631Y-70510189D01*
X143615997Y-70488261D01*
X143562256Y-70395000D01*
X143509577Y-70303625D01*
X143459486Y-70216783D01*
X143413512Y-70137122D01*
X143373184Y-70067289D01*
X143340030Y-70009931D01*
X143315577Y-69967697D01*
X143306843Y-69952652D01*
X143287584Y-69919451D01*
X143258807Y-69869733D01*
X143222027Y-69806119D01*
X143178755Y-69731228D01*
X143130506Y-69647679D01*
X143078791Y-69558091D01*
X143025126Y-69465084D01*
X142994230Y-69411521D01*
X142875826Y-69206223D01*
X142767998Y-69019263D01*
X142670287Y-68849849D01*
X142582235Y-68697185D01*
X142503385Y-68560477D01*
X142433278Y-68438932D01*
X142371455Y-68331754D01*
X142317459Y-68238150D01*
X142270831Y-68157325D01*
X142231114Y-68088486D01*
X142197848Y-68030837D01*
X142170576Y-67983585D01*
X142148840Y-67945936D01*
X142132182Y-67917095D01*
X142120142Y-67896267D01*
X142112263Y-67882659D01*
X142108672Y-67876478D01*
X142095334Y-67853468D01*
X142074135Y-67816748D01*
X142048216Y-67771762D01*
X142025867Y-67732913D01*
X141976695Y-67652784D01*
X141931052Y-67591451D01*
X141886003Y-67546589D01*
X141838616Y-67515872D01*
X141785956Y-67496975D01*
X141725092Y-67487574D01*
X141715429Y-67486862D01*
X141669030Y-67485240D01*
X141633716Y-67488870D01*
D11*
X174500000Y-75500000D02*
X174000000Y-75000000D01*
X174500000Y-74500000D02*
X174500000Y-75500000D01*
X174000000Y-75000000D02*
X174500000Y-74500000D01*
X174000000Y-72000000D02*
X173000000Y-72000000D01*
X174000000Y-72000000D02*
X174000000Y-73000000D01*
X174000000Y-83000000D02*
X174000000Y-82000000D01*
X166000000Y-72000000D02*
X167000000Y-72000000D01*
X166000000Y-72000000D02*
X166000000Y-73000000D01*
X166000000Y-83000000D02*
X166000000Y-82000000D01*
X166000000Y-83000000D02*
X167000000Y-83000000D01*
X174000000Y-83000000D02*
X173000000Y-83000000D01*
X121250000Y-131000000D02*
X121250000Y-130000000D01*
X121250000Y-131000000D02*
X122250000Y-131000000D01*
X121250000Y-103250000D02*
X122250000Y-103250000D01*
X121250000Y-103250000D02*
X121250000Y-104250000D01*
X174250000Y-103250000D02*
X174250000Y-104250000D01*
X174250000Y-103250000D02*
X173250000Y-103250000D01*
X174250000Y-131000000D02*
X173250000Y-131000000D01*
X174250000Y-131000000D02*
X174250000Y-130000000D01*
D12*
G36*
X123547262Y-68177352D02*
G01*
X123363778Y-68212183D01*
X123288922Y-68305304D01*
X123275000Y-68500000D01*
X123290615Y-68701138D01*
X123369683Y-68790219D01*
X123550749Y-68822907D01*
X123780122Y-68808308D01*
X123877380Y-68716885D01*
X123896771Y-68535701D01*
X123891911Y-68500000D01*
X123656000Y-68500000D01*
X123591571Y-68582206D01*
X123571333Y-68584666D01*
X123489127Y-68520237D01*
X123486667Y-68500000D01*
X123551096Y-68417793D01*
X123571333Y-68415333D01*
X123653540Y-68479762D01*
X123656000Y-68500000D01*
X123891911Y-68500000D01*
X123873893Y-68367663D01*
X123808854Y-68217968D01*
X123679416Y-68171227D01*
X123547262Y-68177352D01*
X123547262Y-68177352D01*
G37*
X123547262Y-68177352D02*
X123363778Y-68212183D01*
X123288922Y-68305304D01*
X123275000Y-68500000D01*
X123290615Y-68701138D01*
X123369683Y-68790219D01*
X123550749Y-68822907D01*
X123780122Y-68808308D01*
X123877380Y-68716885D01*
X123896771Y-68535701D01*
X123891911Y-68500000D01*
X123656000Y-68500000D01*
X123591571Y-68582206D01*
X123571333Y-68584666D01*
X123489127Y-68520237D01*
X123486667Y-68500000D01*
X123551096Y-68417793D01*
X123571333Y-68415333D01*
X123653540Y-68479762D01*
X123656000Y-68500000D01*
X123891911Y-68500000D01*
X123873893Y-68367663D01*
X123808854Y-68217968D01*
X123679416Y-68171227D01*
X123547262Y-68177352D01*
G36*
X101601293Y-67787861D02*
G01*
X101563164Y-67957402D01*
X101558000Y-68119000D01*
X101558000Y-68500000D01*
X101177000Y-68500000D01*
X100925878Y-68516620D01*
X100811492Y-68573134D01*
X100796000Y-68627000D01*
X100845862Y-68710707D01*
X101015403Y-68748836D01*
X101177000Y-68754000D01*
X101558000Y-68754000D01*
X101558000Y-69177333D01*
X101571596Y-69443551D01*
X101618668Y-69573577D01*
X101685000Y-69600666D01*
X101741847Y-69574064D01*
X101779277Y-69476363D01*
X101800951Y-69280727D01*
X101810528Y-68960315D01*
X101812000Y-68669333D01*
X101808373Y-68252456D01*
X101795050Y-67977966D01*
X101768372Y-67819025D01*
X101724680Y-67748793D01*
X101685000Y-67738000D01*
X101601293Y-67787861D01*
X101601293Y-67787861D01*
G37*
X101601293Y-67787861D02*
X101563164Y-67957402D01*
X101558000Y-68119000D01*
X101558000Y-68500000D01*
X101177000Y-68500000D01*
X100925878Y-68516620D01*
X100811492Y-68573134D01*
X100796000Y-68627000D01*
X100845862Y-68710707D01*
X101015403Y-68748836D01*
X101177000Y-68754000D01*
X101558000Y-68754000D01*
X101558000Y-69177333D01*
X101571596Y-69443551D01*
X101618668Y-69573577D01*
X101685000Y-69600666D01*
X101741847Y-69574064D01*
X101779277Y-69476363D01*
X101800951Y-69280727D01*
X101810528Y-68960315D01*
X101812000Y-68669333D01*
X101808373Y-68252456D01*
X101795050Y-67977966D01*
X101768372Y-67819025D01*
X101724680Y-67748793D01*
X101685000Y-67738000D01*
X101601293Y-67787861D01*
G36*
X106926174Y-67813674D02*
G01*
X106895885Y-68005137D01*
X106892000Y-68119000D01*
X106892000Y-68500000D01*
X106468667Y-68500000D01*
X106202448Y-68513595D01*
X106072423Y-68560668D01*
X106045333Y-68627000D01*
X106090653Y-68706865D01*
X106247561Y-68745873D01*
X106468667Y-68754000D01*
X106892000Y-68754000D01*
X106892000Y-69177333D01*
X106907230Y-69418820D01*
X106946169Y-69572098D01*
X106976667Y-69600666D01*
X107014869Y-69519707D01*
X107042825Y-69291254D01*
X107058568Y-68936944D01*
X107061333Y-68669333D01*
X107053974Y-68249109D01*
X107033205Y-67941593D01*
X107000995Y-67768421D01*
X106976667Y-67738000D01*
X106926174Y-67813674D01*
X106926174Y-67813674D01*
G37*
X106926174Y-67813674D02*
X106895885Y-68005137D01*
X106892000Y-68119000D01*
X106892000Y-68500000D01*
X106468667Y-68500000D01*
X106202448Y-68513595D01*
X106072423Y-68560668D01*
X106045333Y-68627000D01*
X106090653Y-68706865D01*
X106247561Y-68745873D01*
X106468667Y-68754000D01*
X106892000Y-68754000D01*
X106892000Y-69177333D01*
X106907230Y-69418820D01*
X106946169Y-69572098D01*
X106976667Y-69600666D01*
X107014869Y-69519707D01*
X107042825Y-69291254D01*
X107058568Y-68936944D01*
X107061333Y-68669333D01*
X107053974Y-68249109D01*
X107033205Y-67941593D01*
X107000995Y-67768421D01*
X106976667Y-67738000D01*
X106926174Y-67813674D01*
G36*
X109550840Y-67813674D02*
G01*
X109520552Y-68005137D01*
X109516667Y-68119000D01*
X109516667Y-68500000D01*
X109093333Y-68500000D01*
X108827115Y-68513595D01*
X108697089Y-68560668D01*
X108670000Y-68627000D01*
X108715320Y-68706865D01*
X108872227Y-68745873D01*
X109093333Y-68754000D01*
X109516667Y-68754000D01*
X109516667Y-69177333D01*
X109531896Y-69418820D01*
X109570835Y-69572098D01*
X109601333Y-69600666D01*
X109639536Y-69519707D01*
X109667492Y-69291254D01*
X109683235Y-68936944D01*
X109686000Y-68669333D01*
X109678640Y-68249109D01*
X109657872Y-67941593D01*
X109625662Y-67768421D01*
X109601333Y-67738000D01*
X109550840Y-67813674D01*
X109550840Y-67813674D01*
G37*
X109550840Y-67813674D02*
X109520552Y-68005137D01*
X109516667Y-68119000D01*
X109516667Y-68500000D01*
X109093333Y-68500000D01*
X108827115Y-68513595D01*
X108697089Y-68560668D01*
X108670000Y-68627000D01*
X108715320Y-68706865D01*
X108872227Y-68745873D01*
X109093333Y-68754000D01*
X109516667Y-68754000D01*
X109516667Y-69177333D01*
X109531896Y-69418820D01*
X109570835Y-69572098D01*
X109601333Y-69600666D01*
X109639536Y-69519707D01*
X109667492Y-69291254D01*
X109683235Y-68936944D01*
X109686000Y-68669333D01*
X109678640Y-68249109D01*
X109657872Y-67941593D01*
X109625662Y-67768421D01*
X109601333Y-67738000D01*
X109550840Y-67813674D01*
G36*
X112130774Y-67254529D02*
G01*
X112094522Y-67344816D01*
X112072020Y-67525908D01*
X112060379Y-67822852D01*
X112056709Y-68260697D01*
X112056667Y-68330666D01*
X112056667Y-69431333D01*
X111464000Y-69431333D01*
X111159976Y-69442520D01*
X110949899Y-69472504D01*
X110871334Y-69515917D01*
X110871333Y-69516000D01*
X110950925Y-69557232D01*
X111169831Y-69586431D01*
X111498246Y-69600090D01*
X111591000Y-69600666D01*
X112310667Y-69600666D01*
X112310667Y-68415333D01*
X112308125Y-67937278D01*
X112298765Y-67604244D01*
X112279989Y-67391970D01*
X112249197Y-67276195D01*
X112203790Y-67232660D01*
X112183667Y-67230000D01*
X112130774Y-67254529D01*
X112130774Y-67254529D01*
G37*
X112130774Y-67254529D02*
X112094522Y-67344816D01*
X112072020Y-67525908D01*
X112060379Y-67822852D01*
X112056709Y-68260697D01*
X112056667Y-68330666D01*
X112056667Y-69431333D01*
X111464000Y-69431333D01*
X111159976Y-69442520D01*
X110949899Y-69472504D01*
X110871334Y-69515917D01*
X110871333Y-69516000D01*
X110950925Y-69557232D01*
X111169831Y-69586431D01*
X111498246Y-69600090D01*
X111591000Y-69600666D01*
X112310667Y-69600666D01*
X112310667Y-68415333D01*
X112308125Y-67937278D01*
X112298765Y-67604244D01*
X112279989Y-67391970D01*
X112249197Y-67276195D01*
X112203790Y-67232660D01*
X112183667Y-67230000D01*
X112130774Y-67254529D01*
G36*
X99491886Y-67396947D02*
G01*
X99465838Y-67634549D01*
X99448751Y-68013614D01*
X99441520Y-68520281D01*
X99441333Y-68627000D01*
X99446642Y-69155775D01*
X99461971Y-69559514D01*
X99486427Y-69824358D01*
X99519115Y-69936447D01*
X99526000Y-69939333D01*
X99560115Y-69857052D01*
X99586162Y-69619450D01*
X99603249Y-69240385D01*
X99610481Y-68733718D01*
X99610667Y-68627000D01*
X99605358Y-68098224D01*
X99590029Y-67694485D01*
X99565573Y-67429641D01*
X99532885Y-67317552D01*
X99526000Y-67314666D01*
X99491886Y-67396947D01*
X99491886Y-67396947D01*
G37*
X99491886Y-67396947D02*
X99465838Y-67634549D01*
X99448751Y-68013614D01*
X99441520Y-68520281D01*
X99441333Y-68627000D01*
X99446642Y-69155775D01*
X99461971Y-69559514D01*
X99486427Y-69824358D01*
X99519115Y-69936447D01*
X99526000Y-69939333D01*
X99560115Y-69857052D01*
X99586162Y-69619450D01*
X99603249Y-69240385D01*
X99610481Y-68733718D01*
X99610667Y-68627000D01*
X99605358Y-68098224D01*
X99590029Y-67694485D01*
X99565573Y-67429641D01*
X99532885Y-67317552D01*
X99526000Y-67314666D01*
X99491886Y-67396947D01*
G36*
X98869833Y-67230131D02*
G01*
X98438290Y-67296570D01*
X98097781Y-67478656D01*
X97865517Y-67751126D01*
X97758710Y-68088717D01*
X97794572Y-68466168D01*
X97881155Y-68681236D01*
X97963695Y-68866770D01*
X97957732Y-68983108D01*
X97881155Y-69085865D01*
X97814009Y-69227315D01*
X97767217Y-69446624D01*
X97744874Y-69688024D01*
X97751072Y-69895753D01*
X97789907Y-70014045D01*
X97812284Y-70024000D01*
X97896236Y-69967786D01*
X98068967Y-69816780D01*
X98301045Y-69597433D01*
X98447284Y-69453283D01*
X99018000Y-68882567D01*
X99018000Y-69410950D01*
X99030409Y-69689794D01*
X99063053Y-69879750D01*
X99102667Y-69939333D01*
X99136405Y-69856954D01*
X99162264Y-69618675D01*
X99179412Y-69237784D01*
X99187020Y-68727566D01*
X99187333Y-68584666D01*
X99187333Y-67484000D01*
X99018000Y-67484000D01*
X99018000Y-68537777D01*
X98489449Y-69071068D01*
X98253322Y-69296471D01*
X98064219Y-69452875D01*
X97949947Y-69518420D01*
X97929793Y-69511044D01*
X97962924Y-69394736D01*
X98084292Y-69225659D01*
X98119677Y-69187064D01*
X98282555Y-68981424D01*
X98338488Y-68828676D01*
X98279074Y-68756381D01*
X98251680Y-68754000D01*
X98164357Y-68683413D01*
X98061473Y-68508948D01*
X98040569Y-68461716D01*
X97977124Y-68127281D01*
X98061070Y-67834811D01*
X98270881Y-67614371D01*
X98585033Y-67496028D01*
X98740506Y-67484000D01*
X99018000Y-67484000D01*
X99187333Y-67484000D01*
X99187333Y-67230000D01*
X98869833Y-67230131D01*
X98869833Y-67230131D01*
G37*
X98869833Y-67230131D02*
X98438290Y-67296570D01*
X98097781Y-67478656D01*
X97865517Y-67751126D01*
X97758710Y-68088717D01*
X97794572Y-68466168D01*
X97881155Y-68681236D01*
X97963695Y-68866770D01*
X97957732Y-68983108D01*
X97881155Y-69085865D01*
X97814009Y-69227315D01*
X97767217Y-69446624D01*
X97744874Y-69688024D01*
X97751072Y-69895753D01*
X97789907Y-70014045D01*
X97812284Y-70024000D01*
X97896236Y-69967786D01*
X98068967Y-69816780D01*
X98301045Y-69597433D01*
X98447284Y-69453283D01*
X99018000Y-68882567D01*
X99018000Y-69410950D01*
X99030409Y-69689794D01*
X99063053Y-69879750D01*
X99102667Y-69939333D01*
X99136405Y-69856954D01*
X99162264Y-69618675D01*
X99179412Y-69237784D01*
X99187020Y-68727566D01*
X99187333Y-68584666D01*
X99187333Y-67484000D01*
X99018000Y-67484000D01*
X99018000Y-68537777D01*
X98489449Y-69071068D01*
X98253322Y-69296471D01*
X98064219Y-69452875D01*
X97949947Y-69518420D01*
X97929793Y-69511044D01*
X97962924Y-69394736D01*
X98084292Y-69225659D01*
X98119677Y-69187064D01*
X98282555Y-68981424D01*
X98338488Y-68828676D01*
X98279074Y-68756381D01*
X98251680Y-68754000D01*
X98164357Y-68683413D01*
X98061473Y-68508948D01*
X98040569Y-68461716D01*
X97977124Y-68127281D01*
X98061070Y-67834811D01*
X98270881Y-67614371D01*
X98585033Y-67496028D01*
X98740506Y-67484000D01*
X99018000Y-67484000D01*
X99187333Y-67484000D01*
X99187333Y-67230000D01*
X98869833Y-67230131D01*
G36*
X100887123Y-67233627D02*
G01*
X100612633Y-67246950D01*
X100453692Y-67273628D01*
X100383461Y-67317320D01*
X100372667Y-67357000D01*
X100400645Y-67416222D01*
X100503148Y-67454244D01*
X100708027Y-67475244D01*
X101043134Y-67483398D01*
X101219333Y-67484000D01*
X102066000Y-67484000D01*
X102066000Y-69854666D01*
X101219333Y-69854666D01*
X100826014Y-69862716D01*
X100541650Y-69885238D01*
X100390638Y-69919793D01*
X100372667Y-69939333D01*
X100453626Y-69977535D01*
X100682079Y-70005491D01*
X101036389Y-70021234D01*
X101304000Y-70024000D01*
X102235333Y-70024000D01*
X102235333Y-67230000D01*
X101304000Y-67230000D01*
X100887123Y-67233627D01*
X100887123Y-67233627D01*
G37*
X100887123Y-67233627D02*
X100612633Y-67246950D01*
X100453692Y-67273628D01*
X100383461Y-67317320D01*
X100372667Y-67357000D01*
X100400645Y-67416222D01*
X100503148Y-67454244D01*
X100708027Y-67475244D01*
X101043134Y-67483398D01*
X101219333Y-67484000D01*
X102066000Y-67484000D01*
X102066000Y-69854666D01*
X101219333Y-69854666D01*
X100826014Y-69862716D01*
X100541650Y-69885238D01*
X100390638Y-69919793D01*
X100372667Y-69939333D01*
X100453626Y-69977535D01*
X100682079Y-70005491D01*
X101036389Y-70021234D01*
X101304000Y-70024000D01*
X102235333Y-70024000D01*
X102235333Y-67230000D01*
X101304000Y-67230000D01*
X100887123Y-67233627D01*
G36*
X103669509Y-67327567D02*
G01*
X103473425Y-67382202D01*
X103306739Y-67502470D01*
X103244821Y-67562153D01*
X103052774Y-67866512D01*
X102988899Y-68237651D01*
X103060291Y-68623968D01*
X103089215Y-68693689D01*
X103218654Y-68875637D01*
X103405467Y-69026889D01*
X103609256Y-69130283D01*
X103789623Y-69168656D01*
X103906170Y-69124845D01*
X103928667Y-69050333D01*
X103858622Y-68945882D01*
X103766860Y-68923333D01*
X103591096Y-68852682D01*
X103403103Y-68677092D01*
X103247564Y-68451107D01*
X103169160Y-68229272D01*
X103166667Y-68190657D01*
X103242483Y-67937629D01*
X103437240Y-67706639D01*
X103701904Y-67541119D01*
X103964487Y-67483999D01*
X104267333Y-67484000D01*
X104267333Y-68754000D01*
X104272812Y-69271558D01*
X104288604Y-69665174D01*
X104313744Y-69920374D01*
X104347267Y-70022682D01*
X104352000Y-70024000D01*
X104385739Y-69941621D01*
X104411597Y-69703342D01*
X104428745Y-69322451D01*
X104436353Y-68812233D01*
X104436667Y-68669333D01*
X104436667Y-67314666D01*
X103964487Y-67314666D01*
X103669509Y-67327567D01*
X103669509Y-67327567D01*
G37*
X103669509Y-67327567D02*
X103473425Y-67382202D01*
X103306739Y-67502470D01*
X103244821Y-67562153D01*
X103052774Y-67866512D01*
X102988899Y-68237651D01*
X103060291Y-68623968D01*
X103089215Y-68693689D01*
X103218654Y-68875637D01*
X103405467Y-69026889D01*
X103609256Y-69130283D01*
X103789623Y-69168656D01*
X103906170Y-69124845D01*
X103928667Y-69050333D01*
X103858622Y-68945882D01*
X103766860Y-68923333D01*
X103591096Y-68852682D01*
X103403103Y-68677092D01*
X103247564Y-68451107D01*
X103169160Y-68229272D01*
X103166667Y-68190657D01*
X103242483Y-67937629D01*
X103437240Y-67706639D01*
X103701904Y-67541119D01*
X103964487Y-67483999D01*
X104267333Y-67484000D01*
X104267333Y-68754000D01*
X104272812Y-69271558D01*
X104288604Y-69665174D01*
X104313744Y-69920374D01*
X104347267Y-70022682D01*
X104352000Y-70024000D01*
X104385739Y-69941621D01*
X104411597Y-69703342D01*
X104428745Y-69322451D01*
X104436353Y-68812233D01*
X104436667Y-68669333D01*
X104436667Y-67314666D01*
X103964487Y-67314666D01*
X103669509Y-67327567D01*
G36*
X104741959Y-67312470D02*
G01*
X104716285Y-67551379D01*
X104699086Y-67933976D01*
X104691134Y-68447507D01*
X104690667Y-68627000D01*
X104695665Y-69177682D01*
X104710144Y-69601293D01*
X104733332Y-69885081D01*
X104764455Y-70016294D01*
X104775333Y-70024000D01*
X104808708Y-69941529D01*
X104834382Y-69702620D01*
X104851581Y-69320023D01*
X104859533Y-68806492D01*
X104860000Y-68627000D01*
X104855002Y-68076317D01*
X104840523Y-67652706D01*
X104817335Y-67368918D01*
X104786212Y-67237705D01*
X104775333Y-67230000D01*
X104741959Y-67312470D01*
X104741959Y-67312470D01*
G37*
X104741959Y-67312470D02*
X104716285Y-67551379D01*
X104699086Y-67933976D01*
X104691134Y-68447507D01*
X104690667Y-68627000D01*
X104695665Y-69177682D01*
X104710144Y-69601293D01*
X104733332Y-69885081D01*
X104764455Y-70016294D01*
X104775333Y-70024000D01*
X104808708Y-69941529D01*
X104834382Y-69702620D01*
X104851581Y-69320023D01*
X104859533Y-68806492D01*
X104860000Y-68627000D01*
X104855002Y-68076317D01*
X104840523Y-67652706D01*
X104817335Y-67368918D01*
X104786212Y-67237705D01*
X104775333Y-67230000D01*
X104741959Y-67312470D01*
G36*
X106136457Y-67233627D02*
G01*
X105861967Y-67246950D01*
X105703025Y-67273628D01*
X105632794Y-67317320D01*
X105622000Y-67357000D01*
X105649978Y-67416222D01*
X105752481Y-67454244D01*
X105957360Y-67475244D01*
X106292468Y-67483398D01*
X106468667Y-67484000D01*
X107315333Y-67484000D01*
X107315333Y-69854666D01*
X106468667Y-69854666D01*
X106075347Y-69862716D01*
X105790983Y-69885238D01*
X105639972Y-69919793D01*
X105622000Y-69939333D01*
X105702959Y-69977535D01*
X105931412Y-70005491D01*
X106285722Y-70021234D01*
X106553333Y-70024000D01*
X107484667Y-70024000D01*
X107484667Y-67230000D01*
X106553333Y-67230000D01*
X106136457Y-67233627D01*
X106136457Y-67233627D01*
G37*
X106136457Y-67233627D02*
X105861967Y-67246950D01*
X105703025Y-67273628D01*
X105632794Y-67317320D01*
X105622000Y-67357000D01*
X105649978Y-67416222D01*
X105752481Y-67454244D01*
X105957360Y-67475244D01*
X106292468Y-67483398D01*
X106468667Y-67484000D01*
X107315333Y-67484000D01*
X107315333Y-69854666D01*
X106468667Y-69854666D01*
X106075347Y-69862716D01*
X105790983Y-69885238D01*
X105639972Y-69919793D01*
X105622000Y-69939333D01*
X105702959Y-69977535D01*
X105931412Y-70005491D01*
X106285722Y-70021234D01*
X106553333Y-70024000D01*
X107484667Y-70024000D01*
X107484667Y-67230000D01*
X106553333Y-67230000D01*
X106136457Y-67233627D01*
G36*
X108761123Y-67233627D02*
G01*
X108486633Y-67246950D01*
X108327692Y-67273628D01*
X108257461Y-67317320D01*
X108246667Y-67357000D01*
X108274645Y-67416222D01*
X108377148Y-67454244D01*
X108582027Y-67475244D01*
X108917134Y-67483398D01*
X109093333Y-67484000D01*
X109940000Y-67484000D01*
X109940000Y-69854666D01*
X109093333Y-69854666D01*
X108700014Y-69862716D01*
X108415650Y-69885238D01*
X108264638Y-69919793D01*
X108246667Y-69939333D01*
X108327626Y-69977535D01*
X108556079Y-70005491D01*
X108910389Y-70021234D01*
X109178000Y-70024000D01*
X110109333Y-70024000D01*
X110109333Y-67230000D01*
X109178000Y-67230000D01*
X108761123Y-67233627D01*
X108761123Y-67233627D01*
G37*
X108761123Y-67233627D02*
X108486633Y-67246950D01*
X108327692Y-67273628D01*
X108257461Y-67317320D01*
X108246667Y-67357000D01*
X108274645Y-67416222D01*
X108377148Y-67454244D01*
X108582027Y-67475244D01*
X108917134Y-67483398D01*
X109093333Y-67484000D01*
X109940000Y-67484000D01*
X109940000Y-69854666D01*
X109093333Y-69854666D01*
X108700014Y-69862716D01*
X108415650Y-69885238D01*
X108264638Y-69919793D01*
X108246667Y-69939333D01*
X108327626Y-69977535D01*
X108556079Y-70005491D01*
X108910389Y-70021234D01*
X109178000Y-70024000D01*
X110109333Y-70024000D01*
X110109333Y-67230000D01*
X109178000Y-67230000D01*
X108761123Y-67233627D01*
G36*
X111240525Y-69864030D02*
G01*
X110992335Y-69889784D01*
X110876232Y-69928421D01*
X110871333Y-69939333D01*
X110950925Y-69980565D01*
X111169831Y-70009764D01*
X111498246Y-70023423D01*
X111591000Y-70024000D01*
X111941475Y-70014636D01*
X112189666Y-69988882D01*
X112305768Y-69950245D01*
X112310667Y-69939333D01*
X112231075Y-69898101D01*
X112012169Y-69868902D01*
X111683754Y-69855243D01*
X111591000Y-69854666D01*
X111240525Y-69864030D01*
X111240525Y-69864030D01*
G37*
X111240525Y-69864030D02*
X110992335Y-69889784D01*
X110876232Y-69928421D01*
X110871333Y-69939333D01*
X110950925Y-69980565D01*
X111169831Y-70009764D01*
X111498246Y-70023423D01*
X111591000Y-70024000D01*
X111941475Y-70014636D01*
X112189666Y-69988882D01*
X112305768Y-69950245D01*
X112310667Y-69939333D01*
X112231075Y-69898101D01*
X112012169Y-69868902D01*
X111683754Y-69855243D01*
X111591000Y-69854666D01*
X111240525Y-69864030D01*
G36*
X112615959Y-67312470D02*
G01*
X112590285Y-67551379D01*
X112573086Y-67933976D01*
X112565134Y-68447507D01*
X112564667Y-68627000D01*
X112569665Y-69177682D01*
X112584144Y-69601293D01*
X112607332Y-69885081D01*
X112638455Y-70016294D01*
X112649333Y-70024000D01*
X112682708Y-69941529D01*
X112708382Y-69702620D01*
X112725581Y-69320023D01*
X112733533Y-68806492D01*
X112734000Y-68627000D01*
X112729002Y-68076317D01*
X112714523Y-67652706D01*
X112691335Y-67368918D01*
X112660212Y-67237705D01*
X112649333Y-67230000D01*
X112615959Y-67312470D01*
X112615959Y-67312470D01*
G37*
X112615959Y-67312470D02*
X112590285Y-67551379D01*
X112573086Y-67933976D01*
X112565134Y-68447507D01*
X112564667Y-68627000D01*
X112569665Y-69177682D01*
X112584144Y-69601293D01*
X112607332Y-69885081D01*
X112638455Y-70016294D01*
X112649333Y-70024000D01*
X112682708Y-69941529D01*
X112708382Y-69702620D01*
X112725581Y-69320023D01*
X112733533Y-68806492D01*
X112734000Y-68627000D01*
X112729002Y-68076317D01*
X112714523Y-67652706D01*
X112691335Y-67368918D01*
X112660212Y-67237705D01*
X112649333Y-67230000D01*
X112615959Y-67312470D01*
G36*
X114259952Y-67282279D02*
G01*
X113917039Y-67421508D01*
X113668057Y-67621276D01*
X113634033Y-67667428D01*
X113563618Y-67869144D01*
X113518441Y-68185852D01*
X113498668Y-68565727D01*
X113504470Y-68956945D01*
X113536016Y-69307683D01*
X113593476Y-69566117D01*
X113627597Y-69638133D01*
X113883735Y-69877356D01*
X114264633Y-70002992D01*
X114558317Y-70024000D01*
X114935333Y-70024000D01*
X114935333Y-67484000D01*
X114766000Y-67484000D01*
X114766000Y-68669333D01*
X114764749Y-69162444D01*
X114753470Y-69507378D01*
X114720872Y-69725287D01*
X114655665Y-69837325D01*
X114546558Y-69864642D01*
X114382262Y-69828391D01*
X114183395Y-69760820D01*
X113938507Y-69602216D01*
X113749055Y-69350857D01*
X113665875Y-69076049D01*
X113665333Y-69054537D01*
X113699704Y-68941425D01*
X113813847Y-68958577D01*
X113956682Y-69053026D01*
X114155286Y-69155025D01*
X114327482Y-69166740D01*
X114421857Y-69088464D01*
X114427333Y-69050333D01*
X114357593Y-68944710D01*
X114271122Y-68923333D01*
X114096224Y-68863859D01*
X113969417Y-68762563D01*
X113876369Y-68638789D01*
X113906016Y-68551867D01*
X114017467Y-68466230D01*
X114198142Y-68365114D01*
X114319172Y-68330666D01*
X114413779Y-68262084D01*
X114427333Y-68197961D01*
X114365313Y-68114362D01*
X114196290Y-68131607D01*
X113945819Y-68245172D01*
X113855833Y-68299101D01*
X113717836Y-68371704D01*
X113670343Y-68321541D01*
X113665333Y-68199105D01*
X113741429Y-67939138D01*
X113937383Y-67704474D01*
X114204699Y-67538582D01*
X114463154Y-67484000D01*
X114766000Y-67484000D01*
X114935333Y-67484000D01*
X114935333Y-67230000D01*
X114636281Y-67230000D01*
X114259952Y-67282279D01*
X114259952Y-67282279D01*
G37*
X114259952Y-67282279D02*
X113917039Y-67421508D01*
X113668057Y-67621276D01*
X113634033Y-67667428D01*
X113563618Y-67869144D01*
X113518441Y-68185852D01*
X113498668Y-68565727D01*
X113504470Y-68956945D01*
X113536016Y-69307683D01*
X113593476Y-69566117D01*
X113627597Y-69638133D01*
X113883735Y-69877356D01*
X114264633Y-70002992D01*
X114558317Y-70024000D01*
X114935333Y-70024000D01*
X114935333Y-67484000D01*
X114766000Y-67484000D01*
X114766000Y-68669333D01*
X114764749Y-69162444D01*
X114753470Y-69507378D01*
X114720872Y-69725287D01*
X114655665Y-69837325D01*
X114546558Y-69864642D01*
X114382262Y-69828391D01*
X114183395Y-69760820D01*
X113938507Y-69602216D01*
X113749055Y-69350857D01*
X113665875Y-69076049D01*
X113665333Y-69054537D01*
X113699704Y-68941425D01*
X113813847Y-68958577D01*
X113956682Y-69053026D01*
X114155286Y-69155025D01*
X114327482Y-69166740D01*
X114421857Y-69088464D01*
X114427333Y-69050333D01*
X114357593Y-68944710D01*
X114271122Y-68923333D01*
X114096224Y-68863859D01*
X113969417Y-68762563D01*
X113876369Y-68638789D01*
X113906016Y-68551867D01*
X114017467Y-68466230D01*
X114198142Y-68365114D01*
X114319172Y-68330666D01*
X114413779Y-68262084D01*
X114427333Y-68197961D01*
X114365313Y-68114362D01*
X114196290Y-68131607D01*
X113945819Y-68245172D01*
X113855833Y-68299101D01*
X113717836Y-68371704D01*
X113670343Y-68321541D01*
X113665333Y-68199105D01*
X113741429Y-67939138D01*
X113937383Y-67704474D01*
X114204699Y-67538582D01*
X114463154Y-67484000D01*
X114766000Y-67484000D01*
X114935333Y-67484000D01*
X114935333Y-67230000D01*
X114636281Y-67230000D01*
X114259952Y-67282279D01*
G36*
X115240262Y-67397045D02*
G01*
X115214403Y-67635324D01*
X115197255Y-68016215D01*
X115189647Y-68526433D01*
X115189333Y-68669333D01*
X115194482Y-69209147D01*
X115209375Y-69622883D01*
X115233180Y-69897255D01*
X115265069Y-70018976D01*
X115274000Y-70024000D01*
X115307739Y-69941621D01*
X115333597Y-69703342D01*
X115350745Y-69322451D01*
X115358353Y-68812233D01*
X115358667Y-68669333D01*
X115353518Y-68129519D01*
X115338626Y-67715782D01*
X115314820Y-67441410D01*
X115282931Y-67319690D01*
X115274000Y-67314666D01*
X115240262Y-67397045D01*
X115240262Y-67397045D01*
G37*
X115240262Y-67397045D02*
X115214403Y-67635324D01*
X115197255Y-68016215D01*
X115189647Y-68526433D01*
X115189333Y-68669333D01*
X115194482Y-69209147D01*
X115209375Y-69622883D01*
X115233180Y-69897255D01*
X115265069Y-70018976D01*
X115274000Y-70024000D01*
X115307739Y-69941621D01*
X115333597Y-69703342D01*
X115350745Y-69322451D01*
X115358353Y-68812233D01*
X115358667Y-68669333D01*
X115353518Y-68129519D01*
X115338626Y-67715782D01*
X115314820Y-67441410D01*
X115282931Y-67319690D01*
X115274000Y-67314666D01*
X115240262Y-67397045D01*
G36*
X122047292Y-67107833D02*
G01*
X121979600Y-67162266D01*
X121883155Y-67354215D01*
X121944616Y-67553382D01*
X122092015Y-67689419D01*
X122306030Y-67829647D01*
X122048789Y-68046101D01*
X121791548Y-68262554D01*
X121643533Y-68079763D01*
X121469844Y-67947900D01*
X121343512Y-67955301D01*
X121227462Y-68072360D01*
X121214759Y-68247217D01*
X121294544Y-68412650D01*
X121430962Y-68496651D01*
X121560166Y-68558248D01*
X121541591Y-68663741D01*
X121538091Y-68669333D01*
X121472196Y-68854801D01*
X121455963Y-68996570D01*
X121445595Y-69129973D01*
X121386228Y-69143889D01*
X121237993Y-69054838D01*
X120978013Y-68938657D01*
X120779226Y-68955337D01*
X120666582Y-69097881D01*
X120650333Y-69219666D01*
X120679384Y-69409811D01*
X120791979Y-69490625D01*
X120850599Y-69502001D01*
X121043841Y-69488877D01*
X121142699Y-69438501D01*
X121271427Y-69353468D01*
X121352965Y-69421752D01*
X121390722Y-69558333D01*
X121431185Y-69770000D01*
X117349026Y-69770000D01*
X118296398Y-69219666D01*
X119243771Y-68669333D01*
X120010552Y-68669333D01*
X120383634Y-68664432D01*
X120616457Y-68646543D01*
X120737895Y-68610882D01*
X120776824Y-68552667D01*
X120777333Y-68542333D01*
X120749067Y-68482634D01*
X120645568Y-68444504D01*
X120438790Y-68423656D01*
X120100684Y-68415804D01*
X119946332Y-68415333D01*
X119115331Y-68415333D01*
X117914332Y-69104405D01*
X117511239Y-69342398D01*
X117165731Y-69559211D01*
X116902455Y-69738337D01*
X116746058Y-69863270D01*
X116713333Y-69908738D01*
X116735898Y-69930471D01*
X116810427Y-69949393D01*
X116947175Y-69965687D01*
X117156395Y-69979533D01*
X117448342Y-69991113D01*
X117833268Y-70000607D01*
X118321429Y-70008197D01*
X118923077Y-70014064D01*
X119648467Y-70018389D01*
X120507852Y-70021353D01*
X121511486Y-70023138D01*
X122669624Y-70023923D01*
X123238875Y-70024000D01*
X124448792Y-70023779D01*
X125500294Y-70022962D01*
X126404298Y-70021320D01*
X127171724Y-70018622D01*
X127813488Y-70014637D01*
X128340509Y-70009134D01*
X128763704Y-70001884D01*
X129093992Y-69992656D01*
X129342290Y-69981220D01*
X129519517Y-69967344D01*
X129636590Y-69950799D01*
X129704427Y-69931354D01*
X129733946Y-69908779D01*
X129737042Y-69886842D01*
X129657471Y-69798959D01*
X129455935Y-69646542D01*
X129158449Y-69447374D01*
X128791025Y-69219239D01*
X128566667Y-69086765D01*
X127423667Y-68423845D01*
X126516157Y-68419589D01*
X126111744Y-68420797D01*
X125850444Y-68431459D01*
X125706131Y-68455306D01*
X125652682Y-68496074D01*
X125657382Y-68542333D01*
X125717981Y-68605235D01*
X125860900Y-68644326D01*
X126115688Y-68664165D01*
X126480643Y-68669333D01*
X127255169Y-68669333D01*
X128143751Y-69185168D01*
X128489416Y-69386923D01*
X128778353Y-69557631D01*
X128980846Y-69679590D01*
X129067176Y-69735095D01*
X129067611Y-69735501D01*
X128998167Y-69745922D01*
X128783942Y-69755081D01*
X128449486Y-69762469D01*
X128019349Y-69767581D01*
X127518081Y-69769911D01*
X127395445Y-69770000D01*
X126816845Y-69769178D01*
X126385926Y-69765371D01*
X126081035Y-69756563D01*
X125994805Y-69749757D01*
X125058612Y-69749757D01*
X124975389Y-69763315D01*
X124865575Y-69747749D01*
X124864264Y-69718847D01*
X124977581Y-69698635D01*
X125026542Y-69712163D01*
X125058612Y-69749757D01*
X125994805Y-69749757D01*
X125880522Y-69740737D01*
X125762736Y-69715878D01*
X125706027Y-69679970D01*
X125688743Y-69630997D01*
X125688000Y-69611033D01*
X125684816Y-69600666D01*
X125434000Y-69600666D01*
X125403022Y-69670356D01*
X125377556Y-69657111D01*
X125367423Y-69556631D01*
X125377556Y-69544222D01*
X125427890Y-69555844D01*
X125434000Y-69600666D01*
X125684816Y-69600666D01*
X125622740Y-69398597D01*
X125453316Y-69298320D01*
X125219262Y-69332783D01*
X125208885Y-69337388D01*
X125044027Y-69400826D01*
X125042420Y-69400437D01*
X124648730Y-69400437D01*
X124626048Y-69603545D01*
X124621038Y-69619930D01*
X124557458Y-69812333D01*
X124532883Y-69713050D01*
X124291997Y-69713050D01*
X124234396Y-69760316D01*
X124041928Y-69769999D01*
X124039979Y-69770000D01*
X123811772Y-69738965D01*
X123740667Y-69652058D01*
X123813844Y-69525260D01*
X123987417Y-69442438D01*
X124083279Y-69431333D01*
X124177607Y-69497196D01*
X124248667Y-69600666D01*
X124291997Y-69713050D01*
X124532883Y-69713050D01*
X124505379Y-69601939D01*
X124395255Y-69408561D01*
X124223983Y-69263272D01*
X124041215Y-69182446D01*
X123890098Y-69200634D01*
X123761833Y-69264829D01*
X123587289Y-69414301D01*
X123501945Y-69582329D01*
X123425405Y-69732962D01*
X123268394Y-69770000D01*
X123126012Y-69753174D01*
X123124115Y-69675650D01*
X123160645Y-69611882D01*
X123222736Y-69408149D01*
X123161157Y-69251152D01*
X122999346Y-69189355D01*
X122957879Y-69192561D01*
X122805839Y-69282129D01*
X122731938Y-69449855D01*
X122755589Y-69622931D01*
X122823092Y-69698027D01*
X122807913Y-69733418D01*
X122642512Y-69751805D01*
X122345323Y-69751355D01*
X122301333Y-69749936D01*
X121666333Y-69727666D01*
X121640594Y-69463111D01*
X121656538Y-69219666D01*
X120946667Y-69219666D01*
X120904333Y-69262000D01*
X120862000Y-69219666D01*
X120904333Y-69177333D01*
X120946667Y-69219666D01*
X121656538Y-69219666D01*
X121657917Y-69198621D01*
X121735222Y-68922825D01*
X121739521Y-68912778D01*
X121864187Y-68627000D01*
X121871094Y-68885233D01*
X121933893Y-69167822D01*
X122101538Y-69319781D01*
X122259000Y-69346666D01*
X122481810Y-69284002D01*
X122611110Y-69128602D01*
X122646214Y-68929356D01*
X122639425Y-68907301D01*
X122365167Y-68907301D01*
X122343667Y-69008000D01*
X122235767Y-69089482D01*
X122146780Y-69040765D01*
X122132000Y-68970663D01*
X122179816Y-68828998D01*
X122210817Y-68799949D01*
X122311201Y-68805652D01*
X122365167Y-68907301D01*
X122639425Y-68907301D01*
X122586434Y-68735153D01*
X122431083Y-68594884D01*
X122270120Y-68555231D01*
X122091196Y-68510136D01*
X122067294Y-68410514D01*
X122196398Y-68265177D01*
X122363047Y-68149355D01*
X122747002Y-67996315D01*
X123195957Y-67945584D01*
X123634617Y-68004647D01*
X123679884Y-68018453D01*
X123914881Y-68140656D01*
X124147000Y-68332219D01*
X124329636Y-68546288D01*
X124416183Y-68736008D01*
X124418000Y-68760512D01*
X124451835Y-68894561D01*
X124495940Y-68923333D01*
X124572364Y-68997341D01*
X124627065Y-69177372D01*
X124648730Y-69400437D01*
X125042420Y-69400437D01*
X124949368Y-69377923D01*
X124887266Y-69239325D01*
X124841455Y-69050869D01*
X124807002Y-68850941D01*
X124831784Y-68778646D01*
X124891191Y-68787505D01*
X125099189Y-68796668D01*
X125235882Y-68670084D01*
X125264667Y-68530617D01*
X125211770Y-68337235D01*
X125073421Y-68274470D01*
X124880129Y-68349543D01*
X124794692Y-68419380D01*
X124645568Y-68533064D01*
X124587891Y-68509779D01*
X124587333Y-68499048D01*
X124533273Y-68358773D01*
X124410816Y-68196019D01*
X124234299Y-68008126D01*
X124474316Y-67893088D01*
X124665612Y-67743801D01*
X124706217Y-67596888D01*
X124474445Y-67596888D01*
X124462822Y-67647223D01*
X124418000Y-67653333D01*
X124348310Y-67622355D01*
X124361556Y-67596888D01*
X124462035Y-67586755D01*
X124474445Y-67596888D01*
X124706217Y-67596888D01*
X124714333Y-67567525D01*
X124684090Y-67415320D01*
X124560244Y-67347288D01*
X124446404Y-67331008D01*
X124214549Y-67369381D01*
X124096155Y-67527470D01*
X124097578Y-67750398D01*
X124058840Y-67833180D01*
X123994667Y-67831195D01*
X123816672Y-67791764D01*
X123634833Y-67758085D01*
X123475919Y-67703945D01*
X123397888Y-67630881D01*
X123429249Y-67576778D01*
X123492291Y-67568666D01*
X123549128Y-67496722D01*
X123555791Y-67335833D01*
X123501879Y-67161429D01*
X123364482Y-67104547D01*
X123317333Y-67103000D01*
X123170327Y-67126713D01*
X123118297Y-67232041D01*
X123117209Y-67369508D01*
X123102599Y-67561914D01*
X123003139Y-67652825D01*
X122873792Y-67687008D01*
X122624711Y-67729011D01*
X122505390Y-67716833D01*
X122481579Y-67638413D01*
X122498778Y-67554978D01*
X122500220Y-67399333D01*
X122216667Y-67399333D01*
X122185689Y-67469023D01*
X122160222Y-67455777D01*
X122150089Y-67355298D01*
X122160222Y-67342888D01*
X122210557Y-67354511D01*
X122216667Y-67399333D01*
X122500220Y-67399333D01*
X122500973Y-67318147D01*
X122399504Y-67144292D01*
X122234801Y-67063994D01*
X122047292Y-67107833D01*
X122047292Y-67107833D01*
G37*
X122047292Y-67107833D02*
X121979600Y-67162266D01*
X121883155Y-67354215D01*
X121944616Y-67553382D01*
X122092015Y-67689419D01*
X122306030Y-67829647D01*
X122048789Y-68046101D01*
X121791548Y-68262554D01*
X121643533Y-68079763D01*
X121469844Y-67947900D01*
X121343512Y-67955301D01*
X121227462Y-68072360D01*
X121214759Y-68247217D01*
X121294544Y-68412650D01*
X121430962Y-68496651D01*
X121560166Y-68558248D01*
X121541591Y-68663741D01*
X121538091Y-68669333D01*
X121472196Y-68854801D01*
X121455963Y-68996570D01*
X121445595Y-69129973D01*
X121386228Y-69143889D01*
X121237993Y-69054838D01*
X120978013Y-68938657D01*
X120779226Y-68955337D01*
X120666582Y-69097881D01*
X120650333Y-69219666D01*
X120679384Y-69409811D01*
X120791979Y-69490625D01*
X120850599Y-69502001D01*
X121043841Y-69488877D01*
X121142699Y-69438501D01*
X121271427Y-69353468D01*
X121352965Y-69421752D01*
X121390722Y-69558333D01*
X121431185Y-69770000D01*
X117349026Y-69770000D01*
X118296398Y-69219666D01*
X119243771Y-68669333D01*
X120010552Y-68669333D01*
X120383634Y-68664432D01*
X120616457Y-68646543D01*
X120737895Y-68610882D01*
X120776824Y-68552667D01*
X120777333Y-68542333D01*
X120749067Y-68482634D01*
X120645568Y-68444504D01*
X120438790Y-68423656D01*
X120100684Y-68415804D01*
X119946332Y-68415333D01*
X119115331Y-68415333D01*
X117914332Y-69104405D01*
X117511239Y-69342398D01*
X117165731Y-69559211D01*
X116902455Y-69738337D01*
X116746058Y-69863270D01*
X116713333Y-69908738D01*
X116735898Y-69930471D01*
X116810427Y-69949393D01*
X116947175Y-69965687D01*
X117156395Y-69979533D01*
X117448342Y-69991113D01*
X117833268Y-70000607D01*
X118321429Y-70008197D01*
X118923077Y-70014064D01*
X119648467Y-70018389D01*
X120507852Y-70021353D01*
X121511486Y-70023138D01*
X122669624Y-70023923D01*
X123238875Y-70024000D01*
X124448792Y-70023779D01*
X125500294Y-70022962D01*
X126404298Y-70021320D01*
X127171724Y-70018622D01*
X127813488Y-70014637D01*
X128340509Y-70009134D01*
X128763704Y-70001884D01*
X129093992Y-69992656D01*
X129342290Y-69981220D01*
X129519517Y-69967344D01*
X129636590Y-69950799D01*
X129704427Y-69931354D01*
X129733946Y-69908779D01*
X129737042Y-69886842D01*
X129657471Y-69798959D01*
X129455935Y-69646542D01*
X129158449Y-69447374D01*
X128791025Y-69219239D01*
X128566667Y-69086765D01*
X127423667Y-68423845D01*
X126516157Y-68419589D01*
X126111744Y-68420797D01*
X125850444Y-68431459D01*
X125706131Y-68455306D01*
X125652682Y-68496074D01*
X125657382Y-68542333D01*
X125717981Y-68605235D01*
X125860900Y-68644326D01*
X126115688Y-68664165D01*
X126480643Y-68669333D01*
X127255169Y-68669333D01*
X128143751Y-69185168D01*
X128489416Y-69386923D01*
X128778353Y-69557631D01*
X128980846Y-69679590D01*
X129067176Y-69735095D01*
X129067611Y-69735501D01*
X128998167Y-69745922D01*
X128783942Y-69755081D01*
X128449486Y-69762469D01*
X128019349Y-69767581D01*
X127518081Y-69769911D01*
X127395445Y-69770000D01*
X126816845Y-69769178D01*
X126385926Y-69765371D01*
X126081035Y-69756563D01*
X125994805Y-69749757D01*
X125058612Y-69749757D01*
X124975389Y-69763315D01*
X124865575Y-69747749D01*
X124864264Y-69718847D01*
X124977581Y-69698635D01*
X125026542Y-69712163D01*
X125058612Y-69749757D01*
X125994805Y-69749757D01*
X125880522Y-69740737D01*
X125762736Y-69715878D01*
X125706027Y-69679970D01*
X125688743Y-69630997D01*
X125688000Y-69611033D01*
X125684816Y-69600666D01*
X125434000Y-69600666D01*
X125403022Y-69670356D01*
X125377556Y-69657111D01*
X125367423Y-69556631D01*
X125377556Y-69544222D01*
X125427890Y-69555844D01*
X125434000Y-69600666D01*
X125684816Y-69600666D01*
X125622740Y-69398597D01*
X125453316Y-69298320D01*
X125219262Y-69332783D01*
X125208885Y-69337388D01*
X125044027Y-69400826D01*
X125042420Y-69400437D01*
X124648730Y-69400437D01*
X124626048Y-69603545D01*
X124621038Y-69619930D01*
X124557458Y-69812333D01*
X124532883Y-69713050D01*
X124291997Y-69713050D01*
X124234396Y-69760316D01*
X124041928Y-69769999D01*
X124039979Y-69770000D01*
X123811772Y-69738965D01*
X123740667Y-69652058D01*
X123813844Y-69525260D01*
X123987417Y-69442438D01*
X124083279Y-69431333D01*
X124177607Y-69497196D01*
X124248667Y-69600666D01*
X124291997Y-69713050D01*
X124532883Y-69713050D01*
X124505379Y-69601939D01*
X124395255Y-69408561D01*
X124223983Y-69263272D01*
X124041215Y-69182446D01*
X123890098Y-69200634D01*
X123761833Y-69264829D01*
X123587289Y-69414301D01*
X123501945Y-69582329D01*
X123425405Y-69732962D01*
X123268394Y-69770000D01*
X123126012Y-69753174D01*
X123124115Y-69675650D01*
X123160645Y-69611882D01*
X123222736Y-69408149D01*
X123161157Y-69251152D01*
X122999346Y-69189355D01*
X122957879Y-69192561D01*
X122805839Y-69282129D01*
X122731938Y-69449855D01*
X122755589Y-69622931D01*
X122823092Y-69698027D01*
X122807913Y-69733418D01*
X122642512Y-69751805D01*
X122345323Y-69751355D01*
X122301333Y-69749936D01*
X121666333Y-69727666D01*
X121640594Y-69463111D01*
X121656538Y-69219666D01*
X120946667Y-69219666D01*
X120904333Y-69262000D01*
X120862000Y-69219666D01*
X120904333Y-69177333D01*
X120946667Y-69219666D01*
X121656538Y-69219666D01*
X121657917Y-69198621D01*
X121735222Y-68922825D01*
X121739521Y-68912778D01*
X121864187Y-68627000D01*
X121871094Y-68885233D01*
X121933893Y-69167822D01*
X122101538Y-69319781D01*
X122259000Y-69346666D01*
X122481810Y-69284002D01*
X122611110Y-69128602D01*
X122646214Y-68929356D01*
X122639425Y-68907301D01*
X122365167Y-68907301D01*
X122343667Y-69008000D01*
X122235767Y-69089482D01*
X122146780Y-69040765D01*
X122132000Y-68970663D01*
X122179816Y-68828998D01*
X122210817Y-68799949D01*
X122311201Y-68805652D01*
X122365167Y-68907301D01*
X122639425Y-68907301D01*
X122586434Y-68735153D01*
X122431083Y-68594884D01*
X122270120Y-68555231D01*
X122091196Y-68510136D01*
X122067294Y-68410514D01*
X122196398Y-68265177D01*
X122363047Y-68149355D01*
X122747002Y-67996315D01*
X123195957Y-67945584D01*
X123634617Y-68004647D01*
X123679884Y-68018453D01*
X123914881Y-68140656D01*
X124147000Y-68332219D01*
X124329636Y-68546288D01*
X124416183Y-68736008D01*
X124418000Y-68760512D01*
X124451835Y-68894561D01*
X124495940Y-68923333D01*
X124572364Y-68997341D01*
X124627065Y-69177372D01*
X124648730Y-69400437D01*
X125042420Y-69400437D01*
X124949368Y-69377923D01*
X124887266Y-69239325D01*
X124841455Y-69050869D01*
X124807002Y-68850941D01*
X124831784Y-68778646D01*
X124891191Y-68787505D01*
X125099189Y-68796668D01*
X125235882Y-68670084D01*
X125264667Y-68530617D01*
X125211770Y-68337235D01*
X125073421Y-68274470D01*
X124880129Y-68349543D01*
X124794692Y-68419380D01*
X124645568Y-68533064D01*
X124587891Y-68509779D01*
X124587333Y-68499048D01*
X124533273Y-68358773D01*
X124410816Y-68196019D01*
X124234299Y-68008126D01*
X124474316Y-67893088D01*
X124665612Y-67743801D01*
X124706217Y-67596888D01*
X124474445Y-67596888D01*
X124462822Y-67647223D01*
X124418000Y-67653333D01*
X124348310Y-67622355D01*
X124361556Y-67596888D01*
X124462035Y-67586755D01*
X124474445Y-67596888D01*
X124706217Y-67596888D01*
X124714333Y-67567525D01*
X124684090Y-67415320D01*
X124560244Y-67347288D01*
X124446404Y-67331008D01*
X124214549Y-67369381D01*
X124096155Y-67527470D01*
X124097578Y-67750398D01*
X124058840Y-67833180D01*
X123994667Y-67831195D01*
X123816672Y-67791764D01*
X123634833Y-67758085D01*
X123475919Y-67703945D01*
X123397888Y-67630881D01*
X123429249Y-67576778D01*
X123492291Y-67568666D01*
X123549128Y-67496722D01*
X123555791Y-67335833D01*
X123501879Y-67161429D01*
X123364482Y-67104547D01*
X123317333Y-67103000D01*
X123170327Y-67126713D01*
X123118297Y-67232041D01*
X123117209Y-67369508D01*
X123102599Y-67561914D01*
X123003139Y-67652825D01*
X122873792Y-67687008D01*
X122624711Y-67729011D01*
X122505390Y-67716833D01*
X122481579Y-67638413D01*
X122498778Y-67554978D01*
X122500220Y-67399333D01*
X122216667Y-67399333D01*
X122185689Y-67469023D01*
X122160222Y-67455777D01*
X122150089Y-67355298D01*
X122160222Y-67342888D01*
X122210557Y-67354511D01*
X122216667Y-67399333D01*
X122500220Y-67399333D01*
X122500973Y-67318147D01*
X122399504Y-67144292D01*
X122234801Y-67063994D01*
X122047292Y-67107833D01*
D13*
X163000000Y-71250000D02*
X165250000Y-71250000D01*
X163000000Y-71241600D02*
X163000000Y-69000000D01*
X173235200Y-71250000D02*
X173250000Y-69000000D01*
X173250000Y-60750000D02*
X173250000Y-63000000D01*
X173250000Y-60750000D02*
X170750000Y-60750000D01*
X164000000Y-60750000D02*
X165250000Y-60750000D01*
X163000000Y-61750000D02*
X164000000Y-60750000D01*
X171000000Y-71250000D02*
X173235200Y-71250000D01*
X163000000Y-63000000D02*
X163000000Y-61750000D01*
D11*
X152000000Y-50950000D02*
X151500000Y-51450000D01*
X151000000Y-50950000D02*
X152000000Y-50950000D01*
X151500000Y-51450000D02*
X151000000Y-50950000D01*
X149750000Y-51500000D02*
X149750000Y-52500000D01*
X149750000Y-51500000D02*
X150750000Y-51500000D01*
X156000000Y-51500000D02*
X155000000Y-51500000D01*
X149750000Y-58000000D02*
X149750000Y-57000000D01*
X149750000Y-58000000D02*
X150750000Y-58000000D01*
X156000000Y-58000000D02*
X155000000Y-58000000D01*
X156000000Y-58000000D02*
X156000000Y-57000000D01*
X156000000Y-51500000D02*
X156000000Y-52500000D01*
X144500000Y-50950000D02*
X144000000Y-51450000D01*
X143500000Y-50950000D02*
X144500000Y-50950000D01*
X144000000Y-51450000D02*
X143500000Y-50950000D01*
X142250000Y-51500000D02*
X142250000Y-52500000D01*
X142250000Y-51500000D02*
X143250000Y-51500000D01*
X148500000Y-51500000D02*
X147500000Y-51500000D01*
X142250000Y-58000000D02*
X142250000Y-57000000D01*
X142250000Y-58000000D02*
X143250000Y-58000000D01*
X148500000Y-58000000D02*
X147500000Y-58000000D01*
X148500000Y-58000000D02*
X148500000Y-57000000D01*
X148500000Y-51500000D02*
X148500000Y-52500000D01*
X137000000Y-50950000D02*
X136500000Y-51450000D01*
X136000000Y-50950000D02*
X137000000Y-50950000D01*
X136500000Y-51450000D02*
X136000000Y-50950000D01*
X134750000Y-51500000D02*
X134750000Y-52500000D01*
X134750000Y-51500000D02*
X135750000Y-51500000D01*
X141000000Y-51500000D02*
X140000000Y-51500000D01*
X134750000Y-58000000D02*
X134750000Y-57000000D01*
X134750000Y-58000000D02*
X135750000Y-58000000D01*
X141000000Y-58000000D02*
X140000000Y-58000000D01*
X141000000Y-58000000D02*
X141000000Y-57000000D01*
X141000000Y-51500000D02*
X141000000Y-52500000D01*
X129500000Y-50950000D02*
X129000000Y-51450000D01*
X128500000Y-50950000D02*
X129500000Y-50950000D01*
X129000000Y-51450000D02*
X128500000Y-50950000D01*
X127250000Y-51500000D02*
X127250000Y-52500000D01*
X127250000Y-51500000D02*
X128250000Y-51500000D01*
X133500000Y-51500000D02*
X132500000Y-51500000D01*
X127250000Y-58000000D02*
X127250000Y-57000000D01*
X127250000Y-58000000D02*
X128250000Y-58000000D01*
X133500000Y-58000000D02*
X132500000Y-58000000D01*
X133500000Y-58000000D02*
X133500000Y-57000000D01*
X133500000Y-51500000D02*
X133500000Y-52500000D01*
X159500000Y-50950000D02*
X159000000Y-51450000D01*
X158500000Y-50950000D02*
X159500000Y-50950000D01*
X159000000Y-51450000D02*
X158500000Y-50950000D01*
X157250000Y-51500000D02*
X157250000Y-52500000D01*
X157250000Y-51500000D02*
X158250000Y-51500000D01*
X163500000Y-51500000D02*
X162500000Y-51500000D01*
X157250000Y-58000000D02*
X157250000Y-57000000D01*
X157250000Y-58000000D02*
X158250000Y-58000000D01*
X163500000Y-58000000D02*
X162500000Y-58000000D01*
X163500000Y-58000000D02*
X163500000Y-57000000D01*
X163500000Y-51500000D02*
X163500000Y-52500000D01*
X100000000Y-55500000D02*
X101000000Y-55500000D01*
X100000000Y-55000000D02*
X100000000Y-55500000D01*
X107000000Y-55500000D02*
X106000000Y-55500000D01*
X107000000Y-55000000D02*
X107000000Y-55500000D01*
X100000000Y-51500000D02*
X101000000Y-51500000D01*
X100000000Y-52000000D02*
X100000000Y-51500000D01*
X107000000Y-51500000D02*
X106000000Y-51500000D01*
X107000000Y-52000000D02*
X107000000Y-51500000D01*
X100000000Y-89500000D02*
X101000000Y-89500000D01*
X100000000Y-89000000D02*
X100000000Y-89500000D01*
X107000000Y-89500000D02*
X106000000Y-89500000D01*
X107000000Y-89000000D02*
X107000000Y-89500000D01*
X100000000Y-85500000D02*
X101000000Y-85500000D01*
X100000000Y-86000000D02*
X100000000Y-85500000D01*
X107000000Y-85500000D02*
X106000000Y-85500000D01*
X107000000Y-86000000D02*
X107000000Y-85500000D01*
X174500000Y-85500000D02*
X174000000Y-85000000D01*
X174500000Y-84500000D02*
X174500000Y-85500000D01*
X174000000Y-85000000D02*
X174500000Y-84500000D01*
X174000000Y-82000000D02*
X173000000Y-82000000D01*
X174000000Y-82000000D02*
X174000000Y-83000000D01*
X174000000Y-93000000D02*
X174000000Y-92000000D01*
X166000000Y-82000000D02*
X167000000Y-82000000D01*
X166000000Y-82000000D02*
X166000000Y-83000000D01*
X166000000Y-93000000D02*
X166000000Y-92000000D01*
X166000000Y-93000000D02*
X167000000Y-93000000D01*
X174000000Y-93000000D02*
X173000000Y-93000000D01*
X107500000Y-125000000D02*
G75*
G02X107500000Y-126000000I0J-500000D01*
G01*
X107500000Y-124000000D02*
G75*
G02X107500000Y-125000000I0J-500000D01*
G01*
X107500000Y-123000000D02*
G75*
G02X107500000Y-124000000I0J-500000D01*
G01*
X107500000Y-126000000D02*
X107500000Y-126500000D01*
X107500000Y-122000000D02*
G75*
G02X107500000Y-123000000I0J-500000D01*
G01*
X107500000Y-122000000D02*
X107500000Y-121500000D01*
X97500000Y-122000000D02*
X97500000Y-121500000D01*
X97500000Y-126000000D02*
X97500000Y-126500000D01*
X97500000Y-122000000D02*
G75*
G03X97500000Y-123000000I0J-500000D01*
G01*
X97500000Y-123000000D02*
G75*
G03X97500000Y-124000000I0J-500000D01*
G01*
X97500000Y-125000000D02*
G75*
G03X97500000Y-126000000I0J-500000D01*
G01*
X97500000Y-124000000D02*
G75*
G03X97500000Y-125000000I0J-500000D01*
G01*
X91500000Y-131000000D02*
X92500000Y-131000000D01*
X91500000Y-131000000D02*
X91500000Y-130000000D01*
X113500000Y-117000000D02*
X113500000Y-118000000D01*
X113500000Y-117000000D02*
X112500000Y-117000000D01*
X113500000Y-131000000D02*
X113500000Y-130000000D01*
X113500000Y-131000000D02*
X112500000Y-131000000D01*
X91500000Y-117000000D02*
X91500000Y-118000000D01*
X91500000Y-117000000D02*
X92500000Y-117000000D01*
X142714285Y-85771428D02*
X142714285Y-85171428D01*
X142714285Y-85457142D02*
X142371428Y-85457142D01*
X142371428Y-85771428D02*
X142371428Y-85171428D01*
X142114285Y-85600000D02*
X141828571Y-85600000D01*
X142171428Y-85771428D02*
X141971428Y-85171428D01*
X141771428Y-85771428D01*
X141257142Y-85771428D02*
X141600000Y-85771428D01*
X141428571Y-85771428D02*
X141428571Y-85171428D01*
X141485714Y-85257142D01*
X141542857Y-85314285D01*
X141600000Y-85342857D01*
X80785714Y-83671428D02*
X80385714Y-84271428D01*
X80385714Y-83671428D02*
X80785714Y-84271428D01*
X80157142Y-84271428D02*
X80157142Y-83671428D01*
X79928571Y-83671428D01*
X79871428Y-83700000D01*
X79842857Y-83728571D01*
X79814285Y-83785714D01*
X79814285Y-83871428D01*
X79842857Y-83928571D01*
X79871428Y-83957142D01*
X79928571Y-83985714D01*
X80157142Y-83985714D01*
X79242857Y-84271428D02*
X79585714Y-84271428D01*
X79414285Y-84271428D02*
X79414285Y-83671428D01*
X79471428Y-83757142D01*
X79528571Y-83814285D01*
X79585714Y-83842857D01*
X151057142Y-75671428D02*
X150657142Y-76271428D01*
X150657142Y-75671428D02*
X151057142Y-76271428D01*
X150228571Y-75957142D02*
X150428571Y-75957142D01*
X150428571Y-76271428D02*
X150428571Y-75671428D01*
X150142857Y-75671428D01*
X149914285Y-75671428D02*
X149914285Y-76157142D01*
X149885714Y-76214285D01*
X149857142Y-76242857D01*
X149800000Y-76271428D01*
X149685714Y-76271428D01*
X149628571Y-76242857D01*
X149600000Y-76214285D01*
X149571428Y-76157142D01*
X149571428Y-75671428D01*
X149314285Y-75728571D02*
X149285714Y-75700000D01*
X149228571Y-75671428D01*
X149085714Y-75671428D01*
X149028571Y-75700000D01*
X149000000Y-75728571D01*
X148971428Y-75785714D01*
X148971428Y-75842857D01*
X149000000Y-75928571D01*
X149342857Y-76271428D01*
X148971428Y-76271428D01*
X134557142Y-75671428D02*
X134157142Y-76271428D01*
X134157142Y-75671428D02*
X134557142Y-76271428D01*
X133728571Y-75957142D02*
X133928571Y-75957142D01*
X133928571Y-76271428D02*
X133928571Y-75671428D01*
X133642857Y-75671428D01*
X133414285Y-75671428D02*
X133414285Y-76157142D01*
X133385714Y-76214285D01*
X133357142Y-76242857D01*
X133300000Y-76271428D01*
X133185714Y-76271428D01*
X133128571Y-76242857D01*
X133100000Y-76214285D01*
X133071428Y-76157142D01*
X133071428Y-75671428D01*
X132471428Y-76271428D02*
X132814285Y-76271428D01*
X132642857Y-76271428D02*
X132642857Y-75671428D01*
X132700000Y-75757142D01*
X132757142Y-75814285D01*
X132814285Y-75842857D01*
X165464285Y-73171428D02*
X165064285Y-73771428D01*
X165064285Y-73171428D02*
X165464285Y-73771428D01*
X164921428Y-73171428D02*
X164578571Y-73171428D01*
X164750000Y-73771428D02*
X164750000Y-73171428D01*
X164292857Y-73428571D02*
X164350000Y-73400000D01*
X164378571Y-73371428D01*
X164407142Y-73314285D01*
X164407142Y-73285714D01*
X164378571Y-73228571D01*
X164350000Y-73200000D01*
X164292857Y-73171428D01*
X164178571Y-73171428D01*
X164121428Y-73200000D01*
X164092857Y-73228571D01*
X164064285Y-73285714D01*
X164064285Y-73314285D01*
X164092857Y-73371428D01*
X164121428Y-73400000D01*
X164178571Y-73428571D01*
X164292857Y-73428571D01*
X164350000Y-73457142D01*
X164378571Y-73485714D01*
X164407142Y-73542857D01*
X164407142Y-73657142D01*
X164378571Y-73714285D01*
X164350000Y-73742857D01*
X164292857Y-73771428D01*
X164178571Y-73771428D01*
X164121428Y-73742857D01*
X164092857Y-73714285D01*
X164064285Y-73657142D01*
X164064285Y-73542857D01*
X164092857Y-73485714D01*
X164121428Y-73457142D01*
X164178571Y-73428571D01*
X126128571Y-102450000D02*
X126185714Y-102421428D01*
X126271428Y-102421428D01*
X126357142Y-102450000D01*
X126414285Y-102507142D01*
X126442857Y-102564285D01*
X126471428Y-102678571D01*
X126471428Y-102764285D01*
X126442857Y-102878571D01*
X126414285Y-102935714D01*
X126357142Y-102992857D01*
X126271428Y-103021428D01*
X126214285Y-103021428D01*
X126128571Y-102992857D01*
X126100000Y-102964285D01*
X126100000Y-102764285D01*
X126214285Y-102764285D01*
X125528571Y-103021428D02*
X125871428Y-103021428D01*
X125700000Y-103021428D02*
X125700000Y-102421428D01*
X125757142Y-102507142D01*
X125814285Y-102564285D01*
X125871428Y-102592857D01*
X168700000Y-60521428D02*
X168700000Y-59921428D01*
X168557142Y-59921428D01*
X168471428Y-59950000D01*
X168414285Y-60007142D01*
X168385714Y-60064285D01*
X168357142Y-60178571D01*
X168357142Y-60264285D01*
X168385714Y-60378571D01*
X168414285Y-60435714D01*
X168471428Y-60492857D01*
X168557142Y-60521428D01*
X168700000Y-60521428D01*
X168128571Y-60350000D02*
X167842857Y-60350000D01*
X168185714Y-60521428D02*
X167985714Y-59921428D01*
X167785714Y-60521428D01*
X167271428Y-60521428D02*
X167614285Y-60521428D01*
X167442857Y-60521428D02*
X167442857Y-59921428D01*
X167500000Y-60007142D01*
X167557142Y-60064285D01*
X167614285Y-60092857D01*
X149921428Y-58535714D02*
X150521428Y-58935714D01*
X149921428Y-58935714D02*
X150521428Y-58535714D01*
X149921428Y-59078571D02*
X149921428Y-59421428D01*
X150521428Y-59250000D02*
X149921428Y-59250000D01*
X149921428Y-59564285D02*
X149921428Y-59964285D01*
X150521428Y-59707142D01*
X142421428Y-58535714D02*
X143021428Y-58935714D01*
X142421428Y-58935714D02*
X143021428Y-58535714D01*
X142421428Y-59078571D02*
X142421428Y-59421428D01*
X143021428Y-59250000D02*
X142421428Y-59250000D01*
X142421428Y-59564285D02*
X142421428Y-59935714D01*
X142650000Y-59735714D01*
X142650000Y-59821428D01*
X142678571Y-59878571D01*
X142707142Y-59907142D01*
X142764285Y-59935714D01*
X142907142Y-59935714D01*
X142964285Y-59907142D01*
X142992857Y-59878571D01*
X143021428Y-59821428D01*
X143021428Y-59650000D01*
X142992857Y-59592857D01*
X142964285Y-59564285D01*
X134921428Y-58535714D02*
X135521428Y-58935714D01*
X134921428Y-58935714D02*
X135521428Y-58535714D01*
X134921428Y-59078571D02*
X134921428Y-59421428D01*
X135521428Y-59250000D02*
X134921428Y-59250000D01*
X134978571Y-59592857D02*
X134950000Y-59621428D01*
X134921428Y-59678571D01*
X134921428Y-59821428D01*
X134950000Y-59878571D01*
X134978571Y-59907142D01*
X135035714Y-59935714D01*
X135092857Y-59935714D01*
X135178571Y-59907142D01*
X135521428Y-59564285D01*
X135521428Y-59935714D01*
X127421428Y-58535714D02*
X128021428Y-58935714D01*
X127421428Y-58935714D02*
X128021428Y-58535714D01*
X127421428Y-59078571D02*
X127421428Y-59421428D01*
X128021428Y-59250000D02*
X127421428Y-59250000D01*
X127421428Y-59878571D02*
X127421428Y-59764285D01*
X127450000Y-59707142D01*
X127478571Y-59678571D01*
X127564285Y-59621428D01*
X127678571Y-59592857D01*
X127907142Y-59592857D01*
X127964285Y-59621428D01*
X127992857Y-59650000D01*
X128021428Y-59707142D01*
X128021428Y-59821428D01*
X127992857Y-59878571D01*
X127964285Y-59907142D01*
X127907142Y-59935714D01*
X127764285Y-59935714D01*
X127707142Y-59907142D01*
X127678571Y-59878571D01*
X127650000Y-59821428D01*
X127650000Y-59707142D01*
X127678571Y-59650000D01*
X127707142Y-59621428D01*
X127764285Y-59592857D01*
X157421428Y-58535714D02*
X158021428Y-58935714D01*
X157421428Y-58935714D02*
X158021428Y-58535714D01*
X157421428Y-59078571D02*
X157421428Y-59421428D01*
X158021428Y-59250000D02*
X157421428Y-59250000D01*
X158021428Y-59935714D02*
X158021428Y-59592857D01*
X158021428Y-59764285D02*
X157421428Y-59764285D01*
X157507142Y-59707142D01*
X157564285Y-59650000D01*
X157592857Y-59592857D01*
X103942857Y-51521428D02*
X103942857Y-50921428D01*
X103600000Y-51521428D02*
X103857142Y-51178571D01*
X103600000Y-50921428D02*
X103942857Y-51264285D01*
X103371428Y-50978571D02*
X103342857Y-50950000D01*
X103285714Y-50921428D01*
X103142857Y-50921428D01*
X103085714Y-50950000D01*
X103057142Y-50978571D01*
X103028571Y-51035714D01*
X103028571Y-51092857D01*
X103057142Y-51178571D01*
X103400000Y-51521428D01*
X103028571Y-51521428D01*
X103942857Y-85521428D02*
X103942857Y-84921428D01*
X103600000Y-85521428D02*
X103857142Y-85178571D01*
X103600000Y-84921428D02*
X103942857Y-85264285D01*
X103028571Y-85521428D02*
X103371428Y-85521428D01*
X103200000Y-85521428D02*
X103200000Y-84921428D01*
X103257142Y-85007142D01*
X103314285Y-85064285D01*
X103371428Y-85092857D01*
X165464285Y-83171428D02*
X165064285Y-83771428D01*
X165064285Y-83171428D02*
X165464285Y-83771428D01*
X164921428Y-83171428D02*
X164578571Y-83171428D01*
X164750000Y-83771428D02*
X164750000Y-83171428D01*
X164121428Y-83371428D02*
X164121428Y-83771428D01*
X164264285Y-83142857D02*
X164407142Y-83571428D01*
X164035714Y-83571428D01*
X111350000Y-117021428D02*
X111635714Y-117021428D01*
X111635714Y-116421428D01*
X111178571Y-116478571D02*
X111150000Y-116450000D01*
X111092857Y-116421428D01*
X110950000Y-116421428D01*
X110892857Y-116450000D01*
X110864285Y-116478571D01*
X110835714Y-116535714D01*
X110835714Y-116592857D01*
X110864285Y-116678571D01*
X111207142Y-117021428D01*
X110835714Y-117021428D01*
M02*
