M48
; DRILL file {KiCad (5.1.4)-1} date 07.11.2020 23:49:13
; FORMAT={3:3/ absolute / metric / keep zeros}
; #@! TF.CreationDate,2020-11-07T23:49:13+03:00
; #@! TF.GenerationSoftware,Kicad,Pcbnew,(5.1.4)-1
; #@! TF.FileFunction,Plated,1,2,PTH
FMAT,2
METRIC
T1C0.400
T2C1.000
T3C1.200
T4C1.600
T5C3.400
%
G90
G05
T1
X076500Y-106000
X076500Y-107250
X076850Y-126000
X077750Y-110250
X077750Y-117000
X078500Y-083250
X079000Y-110250
X080250Y-107750
X080250Y-110250
X084500Y-105000
X085250Y-114750
X085750Y-057500
X086500Y-058500
X086520Y-080730
X087000Y-112750
X087500Y-115500
X087750Y-052500
X088000Y-068000
X088000Y-070250
X088000Y-072500
X089000Y-058750
X089500Y-123750
X090250Y-058750
X090500Y-132000
X091500Y-138750
X092500Y-091000
X092750Y-058750
X093000Y-056250
X093000Y-057250
X093500Y-097250
X094250Y-058750
X094250Y-133000
X094500Y-098750
X094500Y-112750
X095500Y-058750
X096000Y-088500
X096500Y-086500
X096750Y-053500
X096750Y-058750
X096750Y-133000
X097000Y-068000
X097000Y-070250
X097000Y-072500
X097750Y-100000
X099250Y-133025
X099500Y-092500
X100500Y-058750
X100500Y-091500
X101250Y-094250
X101250Y-112000
X101500Y-134000
X101750Y-079750
X102250Y-093250
X103000Y-058750
X103000Y-079750
X104250Y-058750
X104250Y-079750
X104250Y-112000
X106750Y-105000
X107500Y-056250
X107500Y-057250
X111250Y-053500
X111500Y-130750
X111500Y-134000
X113500Y-134000
X115000Y-128500
X116250Y-073750
X116250Y-075000
X116250Y-076250
X117500Y-063750
X118250Y-107250
X118500Y-062750
X119500Y-061750
X120500Y-060750
X121500Y-059750
X122500Y-058750
X123500Y-064750
X123500Y-080750
X124500Y-072500
X124500Y-073750
X124500Y-075000
X124500Y-076250
X124500Y-077500
X126500Y-055000
X127500Y-072500
X127500Y-077500
X130250Y-069250
X131500Y-129750
X135750Y-069250
X137000Y-095250
X137500Y-063500
X145250Y-064250
X148250Y-059750
X148500Y-073000
X149750Y-065500
X157250Y-073000
T2
X159000Y-054750
X161540Y-054750
X136500Y-054750
X139040Y-054750
X082000Y-096250
X082000Y-098790
X082000Y-101330
X082000Y-103870
X082000Y-106410
X082000Y-108950
X082000Y-111490
X082000Y-114030
X082000Y-116570
X082000Y-119110
X082000Y-121650
X082000Y-124190
X082000Y-126730
X082000Y-129270
X151500Y-054750
X154040Y-054750
X165500Y-062250
X165500Y-069750
X168000Y-062250
X168000Y-069750
X170500Y-062250
X170500Y-069750
X082000Y-085750
X082000Y-088290
X082000Y-090830
X082000Y-093370
X094650Y-136500
X097190Y-136500
X099730Y-136500
X102270Y-136500
X104810Y-136500
X107350Y-136500
X109890Y-136500
X112430Y-136500
X114970Y-136500
X117510Y-136500
X120050Y-136500
X122590Y-136500
X125130Y-136500
X127670Y-136500
X130210Y-136500
X132750Y-136500
X144000Y-054750
X146540Y-054750
X129000Y-054750
X131540Y-054750
T3
X147500Y-099000
X097500Y-119000
X097500Y-129000
X107500Y-119000
X107500Y-129000
X170500Y-075000
X170500Y-080000
X170500Y-085000
X170500Y-090000
T4
X125500Y-119500
X125500Y-127500
X170500Y-106700
X170500Y-127500
X147300Y-080000
X152500Y-080000
X131000Y-080000
X136200Y-080000
T5
X170000Y-055000
X080000Y-135000
X086750Y-090500
X086750Y-135000
X163250Y-090500
X163250Y-135000
X170000Y-135000
X080000Y-055000
X086950Y-099000
X165950Y-099000
T3
G00X147500Y-088500
M15
G01X147500Y-087500
M16
G05
T0
M30
